<svg id="Слой_1" data-name="Слой 1" xmlns="http://www.w3.org/2000/svg" viewBox="0 0 1504.1 29.2"><defs><style>.cls-1{font-size:25px;fill:#fff;font-family:DINCondensed-Bold, DIN Condensed;font-weight:700;}.cls-2{letter-spacing:0.01em;}.cls-3{letter-spacing:-0.08em;}.cls-4{letter-spacing:-0.01em;}.cls-5{letter-spacing:-0.02em;}.cls-6{letter-spacing:-0.04em;}.cls-7{letter-spacing:0em;}.cls-8{letter-spacing:0em;}.cls-9{letter-spacing:0.01em;}.cls-10{letter-spacing:-0.08em;}</style></defs><title>polosatext</title><text class="cls-1" transform="translate(0 21.4)">/ ОФФИЦИ<tspan class="cls-2" x="83.17" y="0">А</tspan><tspan x="93.6" y="0">ЛЬНЫЙ </tspan><tspan class="cls-3" x="155.37" y="0">Г</tspan><tspan x="161.92" y="0">АЙД ПО СО</tspan><tspan class="cls-4" x="245.97" y="0">С</tspan><tspan x="255.9" y="0">ТЯ</tspan><tspan class="cls-5" x="274.65" y="0">З</tspan><tspan class="cls-6" x="284.82" y="0">А</tspan><tspan x="293.87" y="0">Т</tspan><tspan class="cls-7" x="302.17" y="0">Е</tspan><tspan class="cls-8" x="311.54" y="0">ЛЬНЫМ ДИСЦИПЛИНАМ / ОФФИЦИ</tspan><tspan class="cls-2" x="586.09" y="0">А</tspan><tspan x="596.51" y="0">ЛЬНЫЙ </tspan><tspan class="cls-3" x="658.29" y="0">Г</tspan><tspan x="664.84" y="0">АЙД ПО СО</tspan><tspan class="cls-4" x="748.89" y="0">С</tspan><tspan x="758.81" y="0">ТЯ</tspan><tspan class="cls-5" x="777.56" y="0">З</tspan><tspan class="cls-6" x="787.74" y="0">А</tspan><tspan x="796.79" y="0">Т</tspan><tspan class="cls-9" x="805.09" y="0">Е</tspan><tspan x="814.46" y="0">ЛЬНЫМ ДИСЦИПЛИНАМ / ОФФИЦИ</tspan><tspan class="cls-2" x="1089.01" y="0">А</tspan><tspan x="1099.43" y="0">ЛЬНЫЙ </tspan><tspan class="cls-10" x="1161.2" y="0">Г</tspan><tspan x="1167.75" y="0">АЙД ПО СО</tspan><tspan class="cls-4" x="1251.8" y="0">С</tspan><tspan x="1261.73" y="0">ТЯ</tspan><tspan class="cls-5" x="1280.48" y="0">З</tspan><tspan class="cls-6" x="1290.65" y="0">А</tspan><tspan x="1299.7" y="0">Т</tspan><tspan class="cls-7" x="1308" y="0">Е</tspan><tspan x="1317.38" y="0">ЛЬНЫМ ДИСЦИПЛИНАМ</tspan></text></svg>