<svg id="Слой_1" data-name="Слой 1" xmlns="http://www.w3.org/2000/svg" viewBox="0 0 727.01 211"><defs><style>.cls-1{fill:#221f20;}.cls-2,.cls-3{fill:none;stroke-width:4px;}.cls-2{stroke:#221f20;}.cls-3{stroke:#000;}.cls-4{fill:#ff4464;}</style></defs><title>block1</title><path class="cls-1" d="M248.94,56h15.52V13.6h19.12V56H299.1V0H248.94Zm88.23,1.12c17.28,0,30.24-13,30.24-29.12,0-16.24-12.8-29.12-30.08-29.12s-30.24,13-30.24,29.12C307.09,44.24,319.89,57.12,337.17,57.12Zm.16-14c-8.48,0-14.32-7-14.32-15.12,0-8.24,5.68-15.12,14.16-15.12s14.4,7,14.4,15.12C351.57,36.24,345.89,43.12,337.33,43.12ZM375.5,56h27.12c13.2,0,21.68-6.72,21.68-18.32,0-12.08-9.52-18-22.48-18H391V13.2h29.52V0h-45ZM391,43V31.36H401.5c4.56,0,7.28,2.24,7.28,5.68,0,3.84-2.72,5.92-7.36,5.92Zm40.49,13H477V42.8H446.87V33.92h26.88V21.68H446.87V13.2h29.68V0h-45Zm49.2,11.2h13.92l1-11.2h29.76V67.2h13.12l1.76-24.8H534V0H491.35V1.44c0,21-1.92,30.8-5.68,41h-5Zm21.2-24.8a83.2,83.2,0,0,0,4.4-28.24V13.6h12.16V42.4ZM546.44,56h14.48L582.6,24.48V56H598V0H583.48L561.8,31.52V0H546.44Zm64.6.8c10.88,0,18.4-6.88,18.4-41V13.6h13V56H658V0H615V7.76c0,33.92-4.16,36.16-8.56,36.16a27.35,27.35,0,0,1-3.6-.32l-1,11.92A35.34,35.34,0,0,0,611,56.8Zm52.4-.8h16.32l4-10h21.6l4.08,10h16.64L702.24-.4h-15Zm24.88-22.08L694.64,18l6.24,15.92ZM244.85,146.18H260L261.12,134h32.36v12.18h14.27l1.91-27h-6.87V73.1H256.42v1.57c0,22.88-2.09,33.49-6.18,44.54h-5.39Zm23-27c2.79-8.35,4.79-17.23,4.79-30.71v-.61h13.22v31.32ZM316.32,134H333.2V116.6h8.35c15.14,0,26.19-7.57,26.19-21.92,0-13.66-9.92-21.58-25.32-21.58h-26.1Zm16.88-30.62V87.28h7.91c6.09,0,9.75,2.79,9.75,8,0,4.95-3.66,8.09-9.66,8.09Zm55.92,31.49c9.4,0,15.06-4.44,20.62-15.31L433.5,73.1H415.14l-13.05,28.62L388.25,73.1H369.46l23.84,45a7,7,0,0,1-5.31,2.61,12.88,12.88,0,0,1-6.87-2.09l-6.61,12.18A27.71,27.71,0,0,0,389.12,134.87ZM433,134h20l13.92-23,5.83,6.79V134h16.88V117.82l5.83-6.79,13.92,23h20L507,98.76,528.61,73.1H508.87L489.64,97.81V73.1H472.76V97.81L453.53,73.1H433.78l21.67,25.66Zm101.24,0h29.5c14.35,0,23.57-7.31,23.57-19.92,0-13.14-10.35-19.58-24.44-19.58H551.12v-7h32.11V73.1h-49Zm16.88-14.18V107.2h11.4c5,0,7.92,2.44,7.92,6.18,0,4.18-3,6.44-8,6.44ZM590.29,134H608l4.35-10.88h23.49L640.31,134h18.1L632.48,72.67H616.22Zm27.06-24,6.87-17.31L631,110Zm76.9-43.59a31.61,31.61,0,0,1,15.48,3.83,28,28,0,0,1,11,10.7,29.82,29.82,0,0,1,4.09,15.57,29.88,29.88,0,0,1-4.09,15.58,28.2,28.2,0,0,1-11,10.61,31.61,31.61,0,0,1-15.48,3.83,32.13,32.13,0,0,1-15.58-3.83,28.82,28.82,0,0,1-11.13-10.61,29.88,29.88,0,0,1-4.09-15.58,29.82,29.82,0,0,1,4.09-15.57,28.62,28.62,0,0,1,11.13-10.7A32.13,32.13,0,0,1,694.25,66.4Zm0,8.35a21.21,21.21,0,0,0-10.88,2.79,19.61,19.61,0,0,0-7.57,7.65,23,23,0,0,0-2.69,11.31,23.48,23.48,0,0,0,2.69,11.4,19.8,19.8,0,0,0,7.57,7.57,23.09,23.09,0,0,0,21.67,0,19.18,19.18,0,0,0,7.48-7.57,23,23,0,0,0,2.78-11.4,22.47,22.47,0,0,0-2.78-11.31A19,19,0,0,0,705,77.54,21,21,0,0,0,694.25,74.75Zm.17,4.18a17.28,17.28,0,0,1,6.53,1.3,16.51,16.51,0,0,1,5.56,3.66l-4.87,6a8.52,8.52,0,0,0-2.87-1.57,9.12,9.12,0,0,0-3-.43,5,5,0,0,0-4.09,2q-1.56,2-1.56,6.53,0,8.61,5.39,8.61a10.69,10.69,0,0,0,6.87-2.52l4.44,6.52a18.28,18.28,0,0,1-5.74,3.65,17,17,0,0,1-6.61,1.31q-7.57,0-11.92-4.52t-4.26-13q0-7.92,4.43-12.71A15.16,15.16,0,0,1,694.42,78.93Z"/><path class="cls-1" d="M382.62,170.1v1.49a5.27,5.27,0,0,1-.44,2.15A5.64,5.64,0,0,1,381,175.5a5.76,5.76,0,0,1-1.77,1.26,5.09,5.09,0,0,1-2.14.44,7.83,7.83,0,0,1-2-.27,4.83,4.83,0,0,1-1.84-1,5.65,5.65,0,0,1-1.36-1.73,6.54,6.54,0,0,1-.51-2.76V158.16a6,6,0,0,1,.41-2.21,5,5,0,0,1,1.16-1.76,5.18,5.18,0,0,1,1.77-1.16,6,6,0,0,1,2.31-.44,5.25,5.25,0,0,1,4,1.6,5.31,5.31,0,0,1,1.15,1.87,5.8,5.8,0,0,1,.44,2.31v1.36h-3.46v-1.16a2.85,2.85,0,0,0-.58-1.77,1.88,1.88,0,0,0-1.57-.74,1.78,1.78,0,0,0-1.73.81,4.35,4.35,0,0,0-.41,2v12.37a3.32,3.32,0,0,0,.44,1.77,1.86,1.86,0,0,0,1.67.72,2.61,2.61,0,0,0,.71-.11,2.26,2.26,0,0,0,.75-.4,2.07,2.07,0,0,0,.51-.75,3,3,0,0,0,.21-1.19V170.1Zm2.83,6.9V152.79H396.5V177H393V155.85h-4.12V177Zm21.32-8.47-1.7-8.77H405l-1.7,8.77ZM398.2,177l5.41-24.21h2.89L411.9,177h-3.47l-1-5.2h-4.72l-1,5.2Zm15.41,0V152.79h5.2a7.76,7.76,0,0,1,2.52.38,4.8,4.8,0,0,1,2,1.32,5.16,5.16,0,0,1,1.22,2.25,13.48,13.48,0,0,1,.34,3.43,15.26,15.26,0,0,1-.2,2.75,5.4,5.4,0,0,1-.78,2.11A5.19,5.19,0,0,1,422,166.9a6.52,6.52,0,0,1-3.12.65h-1.77V177Zm3.47-20.94v8.22h1.66a3.64,3.64,0,0,0,1.64-.3,2,2,0,0,0,.85-.85,2.92,2.92,0,0,0,.3-1.26c.05-.5.07-1.05.07-1.67s0-1.1,0-1.59a3.68,3.68,0,0,0-.31-1.36,1.91,1.91,0,0,0-.82-.89,3.27,3.27,0,0,0-1.56-.3ZM429.73,177V156.06h-4v-3.27h11.49v3.27h-4V177Zm14.49-8.47-1.7-8.77h-.07l-1.7,8.77ZM435.65,177l5.41-24.21H444l5.4,24.21h-3.46l-1-5.2h-4.73l-1,5.2Zm27.52-20.94a2,2,0,0,0-.79.13,1.42,1.42,0,0,0-.57.41,1.67,1.67,0,0,0-.38.75c-.06.29-.12.62-.17,1l-.3,2.83c0,.29-.06.56-.11.81s-.09.47-.13.72a2.73,2.73,0,0,1-.2.61,3.46,3.46,0,0,1-.52.85,2.75,2.75,0,0,1-.54.54l3.6,12.31h-3.53l-3.06-10.78h-1.94V177h-3.47V152.79h3.47v10.37h1.16a2.46,2.46,0,0,0,1-.17,1.52,1.52,0,0,0,.61-.47,1.82,1.82,0,0,0,.34-.68c.07-.28.13-.57.18-.89l.33-2.89a2.82,2.82,0,0,0,.07-.54c.05-.3.12-.62.21-1a7.71,7.71,0,0,1,.37-1.12,5.07,5.07,0,0,1,.61-1.09,3.48,3.48,0,0,1,1.57-1.15,6,6,0,0,1,2.21-.38ZM473.23,177V161.29h-.07L468.61,177h-3.47V152.79h3.47v15.74h.07l4.55-15.74h3.47V177ZM487,168.53l-1.7-8.77h-.06l-1.7,8.77ZM478.39,177l5.4-24.21h2.89L492.09,177h-3.47l-1-5.2h-4.73l-1,5.2Zm17.17,0v3.74h-3v-6.8h1.77a12,12,0,0,0,.58-1.46q.27-.85.48-1.77c.13-.61.26-1.23.37-1.87s.2-1.29.27-1.9.08-1,.1-1.6.08-1.19.11-1.8,0-1.26,0-1.87,0-1.24,0-1.81v-7.07h10v21.15h2v6.8h-3V177Zm4-21.15v4c0,.32,0,.78,0,1.39s0,1.24-.1,1.94-.09,1.42-.13,2.14-.11,1.33-.17,1.87-.13,1-.24,1.57-.21,1.15-.34,1.77-.29,1.22-.44,1.83a11.49,11.49,0,0,1-.55,1.6h5.24V155.85Zm17.77,12.68-1.71-8.77h-.06l-1.7,8.77ZM508.77,177l5.4-24.21h2.89L522.47,177H519l-1-5.2h-4.73l-1,5.2Zm20,0,4.89-12.68-4.52-11.53h3.67l2.62,7.18,2.65-7.18h3.67l-4.62,11.53,5,12.68h-3.67l-3-8.16-3,8.16Zm23,0V161.29h-.07L547.17,177H543.7V152.79h3.47v15.74h.07l4.55-15.74h3.47V177Zm6.72,0V152.79h11V177h-3.47V155.85H562V177Zm14.31,0V152.79h11V177H580.4V155.85h-4.11V177Zm22.4,0V161.29h-.07L590.6,177h-3.47V152.79h3.47v15.74h.07l4.55-15.74h3.47V177Z"/><path class="cls-1" d="M197.58.6V19.8h-40.4V58.2a21.4,21.4,0,0,1,7.2-4.6,23.45,23.45,0,0,1,9.8-2q10.4,0,16.8,6.4,6.6,6.2,6.6,18.8v36.8a30.11,30.11,0,0,1-2.6,12.8,28.76,28.76,0,0,1-6.6,9.6,29.94,29.94,0,0,1-9.8,6.2,32.63,32.63,0,0,1-11.4,2,34.3,34.3,0,0,1-11.6-2A30.46,30.46,0,0,1,146,136a31.32,31.32,0,0,1-6.8-9.6,32.22,32.22,0,0,1-2.4-12.8v-6h20.4v5.2q0,5.2,2.8,8.2a10.68,10.68,0,0,0,7.6,2.8c3.06,0,5.4-.93,7-2.8s2.6-4.47,2.6-7.8V79.8a10.21,10.21,0,0,0-2.8-7.2,8.58,8.58,0,0,0-6.8-3,8.89,8.89,0,0,0-4.4,1,9.77,9.77,0,0,0-3,2,8.34,8.34,0,0,0-1.8,2.6c-.67,1.2-1.07,1.93-1.2,2.2h-18V.6Z"/><path class="cls-1" d="M34.18,122.7v4.4a15.79,15.79,0,0,1-1.3,6.3,16.83,16.83,0,0,1-3.4,5.2,17.2,17.2,0,0,1-5.2,3.7,15.21,15.21,0,0,1-6.3,1.3,22.94,22.94,0,0,1-5.9-.8,14,14,0,0,1-5.4-2.8,16,16,0,0,1-4-5.1,19.08,19.08,0,0,1-1.5-8.1V87.6a17.35,17.35,0,0,1,1.2-6.5A15.16,15.16,0,0,1,11,72.5a17.31,17.31,0,0,1,6.8-1.3,15.48,15.48,0,0,1,11.7,4.7,16.05,16.05,0,0,1,3.4,5.5,17.53,17.53,0,0,1,1.3,6.8v4H24V88.8a8.28,8.28,0,0,0-1.7-5.2,5.51,5.51,0,0,0-4.6-2.2q-3.81,0-5.1,2.4a12.71,12.71,0,0,0-1.2,5.9v36.4a9.67,9.67,0,0,0,1.3,5.2q1.39,2.1,4.9,2.1a8.06,8.06,0,0,0,2.1-.3,7.26,7.26,0,0,0,2.2-1.2,6.1,6.1,0,0,0,1.5-2.2,8.9,8.9,0,0,0,.6-3.5v-3.5ZM42.5,143V71.8H72.9v9.6H52.7v20.9H70.3v9.6H52.7v20.9H72.9V143Zm37,0V71.8h10.2v30.5h12.6V71.8h10.2V143h-10.2V111.3H89.71V143Zm42,0V132.8h10.2V143Z"/><path class="cls-1" d="M8.14,62V18.51L.79,23.91V16.14l7.35-5.4h7.34V62ZM31,62V18.51l-7.35,5.4V16.14L31,10.74h7.34V62ZM47.82,41.26h9.07v9H47.82Zm0-21.38h9.07V29.1H47.82Zm18.49,1.44a11.73,11.73,0,0,1,.86-4.61,11.36,11.36,0,0,1,2.45-3.45,10,10,0,0,1,3.46-2.16,11.24,11.24,0,0,1,4.17-.8,10.79,10.79,0,0,1,4.11.8,9.8,9.8,0,0,1,3.52,2.16,10.38,10.38,0,0,1,2.38,3.45,10.91,10.91,0,0,1,.94,4.61v30.1a10.86,10.86,0,0,1-.94,4.6,10.32,10.32,0,0,1-2.38,3.46,10.72,10.72,0,0,1-3.52,2.23,11.77,11.77,0,0,1-4.11.72,12.27,12.27,0,0,1-4.17-.72,11,11,0,0,1-3.46-2.23A11.29,11.29,0,0,1,67.17,56a11.68,11.68,0,0,1-.86-4.6Zm7.34,30.1a3.77,3.77,0,0,0,1,2.66,3.83,3.83,0,0,0,5.18,0,3.72,3.72,0,0,0,1-2.66V21.32a3.47,3.47,0,0,0-1-2.59,3.65,3.65,0,0,0-5.18,0,3.5,3.5,0,0,0-1,2.59ZM93.1,21.32A11.56,11.56,0,0,1,94,16.71a11.36,11.36,0,0,1,2.45-3.45,10,10,0,0,1,3.46-2.16,11.24,11.24,0,0,1,4.17-.8,10.79,10.79,0,0,1,4.11.8,9.88,9.88,0,0,1,3.52,2.16,10.38,10.38,0,0,1,2.38,3.45,10.91,10.91,0,0,1,.94,4.61v30.1a10.86,10.86,0,0,1-.94,4.6,10.32,10.32,0,0,1-2.38,3.46,10.82,10.82,0,0,1-3.52,2.23,11.77,11.77,0,0,1-4.11.72,12.27,12.27,0,0,1-4.17-.72,11,11,0,0,1-3.46-2.23A11.29,11.29,0,0,1,94,56a11.51,11.51,0,0,1-.86-4.6Zm7.34,30.1a3.77,3.77,0,0,0,1,2.66,3.83,3.83,0,0,0,5.18,0,3.77,3.77,0,0,0,1-2.66V21.32a3.5,3.5,0,0,0-1-2.59,3.65,3.65,0,0,0-5.18,0,3.5,3.5,0,0,0-1,2.59Z"/><path class="cls-1" d="M23.76,192.38v3.17a11.19,11.19,0,0,1-.94,4.54,12,12,0,0,1-2.44,3.74,12.48,12.48,0,0,1-3.75,2.67,11,11,0,0,1-4.53.93,16.57,16.57,0,0,1-4.25-.57,10.13,10.13,0,0,1-3.89-2,11.69,11.69,0,0,1-2.88-3.67A13.76,13.76,0,0,1,0,195.34V167.11a12.6,12.6,0,0,1,.86-4.68,10.94,10.94,0,0,1,6.2-6.19A12.57,12.57,0,0,1,12,155.3a11.13,11.13,0,0,1,8.43,3.39,11.39,11.39,0,0,1,2.44,4,12.43,12.43,0,0,1,.94,4.89v2.88H16.42V168a6,6,0,0,0-1.23-3.75,4,4,0,0,0-3.31-1.58c-1.82,0-3.05.57-3.67,1.73a9.08,9.08,0,0,0-.87,4.24v26.21a7,7,0,0,0,.94,3.75,3.94,3.94,0,0,0,3.53,1.51,5.52,5.52,0,0,0,1.51-.22A5.06,5.06,0,0,0,14.9,199,4.21,4.21,0,0,0,16,197.42a6.36,6.36,0,0,0,.44-2.52v-2.52Zm6.15,7.71a13.63,13.63,0,0,0,2.31-.22,3.56,3.56,0,0,0,2-.93,7.68,7.68,0,0,0,1.23-1.8,15.25,15.25,0,0,0,1.29-3.6l.65-2.81-11.09-35h7.78L41,179.86h.15l5.4-24.12h7.77L43.67,194.69A58.7,58.7,0,0,1,41.51,201a10.81,10.81,0,0,1-3.24,4.39,7.42,7.42,0,0,1-3.68,1.73,22.11,22.11,0,0,1-4.17.36h-1v-7.34Zm28.32-44.35h21v6.91H65.57v14.11h2.88a17.22,17.22,0,0,1,6.34,1A10.06,10.06,0,0,1,79,180.65,9.4,9.4,0,0,1,81.05,185a32.36,32.36,0,0,1,.51,5.11V193q0,6.76-3.32,10.37c-2.15,2.4-5.64,3.6-10.44,3.6H58.23Zm7.34,27.5v16.42h2.74a7.55,7.55,0,0,0,3.46-.65,4.41,4.41,0,0,0,1.94-1.8,6.72,6.72,0,0,0,.79-2.74c.1-1.05.14-2.21.14-3.45a17.7,17.7,0,0,0-.28-3.39,5.23,5.23,0,0,0-.94-2.45,4.73,4.73,0,0,0-1.87-1.44,8.24,8.24,0,0,0-3.17-.5Zm21.77-27.5h21v6.91H94.68v14.11h2.88a17.22,17.22,0,0,1,6.34,1,10.06,10.06,0,0,1,4.17,2.88,9.5,9.5,0,0,1,2.09,4.39,32.36,32.36,0,0,1,.51,5.11V193q0,6.76-3.32,10.37T96.91,207H87.34Zm7.34,27.5v16.42h2.74a7.48,7.48,0,0,0,3.45-.65,4.38,4.38,0,0,0,1.95-1.8,6.88,6.88,0,0,0,.79-2.74c.1-1.05.14-2.21.14-3.45a17.7,17.7,0,0,0-.28-3.39,5.23,5.23,0,0,0-.94-2.45,4.73,4.73,0,0,0-1.87-1.44,8.24,8.24,0,0,0-3.17-.5ZM116,167.83a13.09,13.09,0,0,1,1.08-5.47,11.64,11.64,0,0,1,2.88-4,12,12,0,0,1,3.88-2.3,13.27,13.27,0,0,1,4.47-.8,13.52,13.52,0,0,1,8.42,3.1,12.17,12.17,0,0,1,2.81,4,13.09,13.09,0,0,1,1.08,5.47V194.9a13,13,0,0,1-1.08,5.55,11.42,11.42,0,0,1-2.81,3.81,12.21,12.21,0,0,1-4,2.38,12.6,12.6,0,0,1-4.39.79,13.25,13.25,0,0,1-4.47-.79,11.56,11.56,0,0,1-3.88-2.38,11,11,0,0,1-2.88-3.81A13,13,0,0,1,116,194.9Zm7.34,27.07a5.05,5.05,0,0,0,1.44,4,5.42,5.42,0,0,0,3.53,1.23,5.14,5.14,0,0,0,3.45-1.23,4.92,4.92,0,0,0,1.52-4V167.83a4.73,4.73,0,0,0-1.52-3.89,5,5,0,0,0-3.45-1.29,5.27,5.27,0,0,0-3.53,1.29,4.85,4.85,0,0,0-1.44,3.89ZM151.22,207V162.65h-8.49v-6.91h24.34v6.91h-8.5V207Zm30.69-17.93L178.3,170.5h-.14l-3.6,18.57ZM163.76,207l11.45-51.26h6.12L192.78,207h-7.35l-2.16-11h-10l-2.17,11Z"/><path class="cls-2" d="M363,165H245"/><path class="cls-3" d="M724,165H606"/><path class="cls-1" d="M244.18,207h4.75v-9.7h3.95v-3.82H240.23v3.82h4Zm16.93.32a7.07,7.07,0,0,0,5.88-2.75l-2.63-2.17a4.07,4.07,0,0,1-3,1.37,2.78,2.78,0,0,1-2.92-2.22h9.05c0-.32,0-.67,0-1,0-4-2.15-7.39-6.82-7.39a6.78,6.78,0,0,0-6.83,7.07C253.86,204.5,256.86,207.32,261.11,207.32Zm-2.75-8.2c.25-1.47,1.1-2.44,2.35-2.44s2.17.94,2.35,2.44Zm12.26,8.06c2.88,0,5.08-1.41,5.08-9.58v-.35h2.5V207H283V193.48H271.27v2.59c0,7-.92,7.31-1.77,7.31a4.5,4.5,0,0,1-.78-.08l-.2,3.68A18.08,18.08,0,0,0,270.62,207.18Zm14.67-.18h4.95v-4.88h-4.95Zm13.21,2.75h4.25L303,207h7.08v2.75h4.05l.45-6.57H313v-9.7H301v.64c0,4.68-.42,6.83-1.2,9.06H298.5Zm6.1-6.57a20.07,20.07,0,0,0,.88-5.7v-.23h2.75v5.93Zm12.34,4c2.87,0,5.07-1.41,5.07-9.58v-.35h2.5V207h4.75V193.48H317.59v2.59c0,7-.93,7.31-1.78,7.31a4.58,4.58,0,0,1-.78-.08l-.19,3.68A17.88,17.88,0,0,0,316.94,207.18Zm13.91-.18h5.43l2.6-3.9H340V207h4.78V193.48H337.2a5.79,5.79,0,0,0-4.42,1.5,4.22,4.22,0,0,0-1.25,3.22,4.17,4.17,0,0,0,2.5,4.1Zm7.23-7.2c-1.13,0-1.75-.5-1.75-1.35s.65-1.4,1.75-1.4H340v2.75Zm29.59,7.52a6.73,6.73,0,0,0,6-3.09l-3.23-2.33a3.18,3.18,0,0,1-2.55,1.42,3.08,3.08,0,0,1,.08-6.12,2.85,2.85,0,0,1,2.45,1.32l3.17-2.29a6.39,6.39,0,0,0-5.77-3,7.06,7.06,0,1,0-.18,14.12Zm7.71-.32h4.75v-9.7h3.7V207h4.75V193.48h-13.2Zm15.75,4h4.75v-5.65a5,5,0,0,0,4.12,2c3.2,0,6-2.68,6-7.07s-2.78-7-6-7a5,5,0,0,0-4.1,2.09v-1.79h-4.75Zm7.4-7.68a3.1,3.1,0,1,1,2.77-3.12A2.85,2.85,0,0,1,398.53,203.32Zm13.37,4a5.11,5.11,0,0,0,4-1.7V207h4.7v-7.77a5.62,5.62,0,0,0-1.45-4.3c-1.07-1.08-2.72-1.66-5.15-1.66a13.65,13.65,0,0,0-5.47,1l1,3.36a9.44,9.44,0,0,1,3.73-.75c1.82,0,2.7.8,2.7,2.19v.23a10.24,10.24,0,0,0-3.25-.53c-3.18,0-5.3,1.45-5.3,4.25S409.32,207.3,411.9,207.3Zm1.7-3a1.49,1.49,0,0,1-1.68-1.47c0-1,.8-1.73,2.18-1.73a4.79,4.79,0,0,1,1.85.36v.62A2.17,2.17,0,0,1,413.6,204.32ZM423,207h7.95c3.22,0,5.12-1.4,5.12-3.73a3.2,3.2,0,0,0-2.57-3.34,3.15,3.15,0,0,0,2.1-3,2.92,2.92,0,0,0-.88-2.2,5,5,0,0,0-3.7-1.22h-8Zm4.62-3.07V201.4h1.9c1.23,0,1.8.58,1.8,1.25s-.62,1.28-1.75,1.28Zm0-5.08V196.5h1.68c1,0,1.62.48,1.62,1.15s-.6,1.2-1.7,1.2Zm17.51,8.47a7.08,7.08,0,1,0-7.45-7.07A7.2,7.2,0,0,0,445.12,207.32Zm.05-4a2.93,2.93,0,0,1-2.87-3.05,2.84,2.84,0,0,1,2.82-3.05,2.93,2.93,0,0,1,2.88,3.05A2.85,2.85,0,0,1,445.17,203.3Zm9.46,3.7h4.75v-2.68l1.37-1.64,2.58,4.32h5.23l-4.75-8,4.62-5.54h-5.37l-3.68,5v-5h-4.75Zm15,0h4.95v-4.88h-4.95Zm0-8.65h4.95v-4.87h-4.95Zm18.91,6.25h4.35v-4.3h4.22v-4.2h-4.22v-4.3h-4.35v4.3H484.3v4.2h4.23Zm11.71,2.4h5.35l7.73-13.85V189.5H499.84v4.07h8.1Zm29.14,3.52,2-3c-3.23-2.22-4.63-4.47-4.63-7.75s1.4-5.52,4.63-7.75l-2-2.95c-4.67,2.45-7.3,5.63-7.3,10.7S524.71,208.07,529.38,210.52Zm10.16-3.17c5.25,0,8.1-3.9,8.1-9.62,0-3.28-.83-5.28-2.1-6.53a6.85,6.85,0,0,0-5.37-2c-4,0-7,2.5-7,6.37,0,3.48,2.48,5.58,5.87,5.58a5.37,5.37,0,0,0,3.71-1.42c-.23,2.25-1.3,3.64-3.3,3.64a5.71,5.71,0,0,1-3.75-1.39l-2.28,3.34A9.44,9.44,0,0,0,539.54,207.35Zm.85-9.73a2.35,2.35,0,1,1,0-4.69,2.33,2.33,0,0,1,2.5,2.37A2.26,2.26,0,0,1,540.39,197.62Zm15.76,9.73c3.9,0,6.75-2.28,6.75-5.83,0-3-2-4.42-4.52-5l4.17-3.57V189.5H549.9v3.93h6.7l-4,3.62.7,2.52h2.05c1.82,0,2.85.68,2.85,1.81s-.88,1.82-2.25,1.82a5.72,5.72,0,0,1-4.18-2l-3,3.05A9.56,9.56,0,0,0,556.15,207.35Zm8.69-.35h5.35l7.73-13.85V189.5H564.44v4.07h8.1Zm16.53,3.52c4.68-2.45,7.3-5.62,7.3-10.7s-2.62-8.25-7.3-10.7l-2,2.95c3.22,2.23,4.62,4.48,4.62,7.75s-1.4,5.53-4.62,7.75Zm23.22-3.22c4.2,0,7.2-2,7.2-5.15,0-2.22-1.23-3.4-3-4.22a4.17,4.17,0,0,0,2.4-3.81c0-2.85-2.68-4.92-6.6-4.92s-6.6,2.07-6.6,4.87a4.19,4.19,0,0,0,2.4,3.86,4.28,4.28,0,0,0-3,4.19C597.39,205.23,600.39,207.3,604.59,207.3Zm0-3.62c-1.63,0-2.53-.93-2.53-2s1.05-1.95,2.53-1.95,2.52.77,2.52,1.9S606.21,203.68,604.59,203.68Zm0-7.08a1.91,1.91,0,1,1,2.15-1.95A2,2,0,0,1,604.59,196.6ZM622.06,207h4.7v-3.4H629V200h-2.23v-10.6h-4.9l-9.07,10.8.8,3.42h8.47Zm-4.17-7,4.17-5v5Zm12.6,7h5.35l7.73-13.85V189.5H630.09v4.07h8.1Zm14-5.73h8.2V197.1h-8.2Zm17.73,6.08c3.83,0,7-2.37,7-6.3,0-3.55-2.7-5.5-5.77-5.5a5.91,5.91,0,0,0-3.78,1.35c.23-2.2,1.25-3.72,3.3-3.72a5.52,5.52,0,0,1,3.48,1.32l2.27-3.43a9,9,0,0,0-5.82-1.92c-5.48,0-8.13,4.15-8.13,9.6,0,3.32.85,5.3,2.15,6.6A7.05,7.05,0,0,0,662.27,207.35Zm-.2-3.78a2.27,2.27,0,0,1-2.47-2.27A2.22,2.22,0,0,1,662,199a2.27,2.27,0,0,1,2.48,2.25A2.23,2.23,0,0,1,662.07,203.57Zm15.8,3.78c4.25,0,7.23-2.33,7.23-6.23s-2.85-5.6-6-5.6a6.1,6.1,0,0,0-2.8.63l.15-2.65h7.87v-4h-11.7l-.5,8.88L675,200a5.28,5.28,0,0,1,2.8-.88c1.52,0,2.57.78,2.57,2s-1,2.11-2.57,2.11a6.65,6.65,0,0,1-4.25-1.91l-2.78,3.25A9.83,9.83,0,0,0,677.87,207.35Zm9.17-6.08h8.2V197.1H687Zm16.87,6.08c3.9,0,6.75-2.28,6.75-5.83,0-3-2-4.42-4.53-5l4.18-3.57V189.5H697.66v3.93h6.7l-4,3.62.7,2.52h2.05c1.83,0,2.85.68,2.85,1.81s-.87,1.82-2.25,1.82a5.7,5.7,0,0,1-4.17-2l-3,3.05A9.55,9.55,0,0,0,703.91,207.35Zm16.15,0c3.82,0,7-2.37,7-6.3,0-3.55-2.7-5.5-5.78-5.5a5.88,5.88,0,0,0-3.77,1.35c.22-2.2,1.25-3.72,3.3-3.72a5.47,5.47,0,0,1,3.47,1.32l2.28-3.43a9,9,0,0,0-5.83-1.92c-5.47,0-8.12,4.15-8.12,9.6,0,3.32.85,5.3,2.15,6.6A7,7,0,0,0,720.06,207.35Zm-.2-3.78a2.28,2.28,0,0,1-2.48-2.27,2.23,2.23,0,0,1,2.43-2.28,2.27,2.27,0,0,1,2.47,2.25A2.22,2.22,0,0,1,719.86,203.57Z"/><path class="cls-4" d="M187.48,2l2.44,5.13,5.64.74-4.12,3.92,1,5.59-5-2.71-5,2.71,1-5.59-4.13-3.92L185,7.13Z"/><path class="cls-4" d="M168.48,2l2.44,5.13,5.64.74-4.12,3.92,1,5.59-5-2.71-5,2.71,1-5.59-4.13-3.92L166,7.13Z"/><path class="cls-4" d="M148.48,2l2.44,5.13,5.64.74-4.12,3.92,1,5.59-5-2.71-5,2.71,1-5.59-4.13-3.92L146,7.13Z"/><path class="cls-4" d="M148.48,20l2.44,5.13,5.64.74-4.12,3.92,1,5.59-5-2.71-5,2.71,1-5.59-4.13-3.92,5.64-.74Z"/><path class="cls-4" d="M148.48,40l2.44,5.13,5.64.74-4.12,3.92,1,5.59-5-2.71-5,2.71,1-5.59-4.13-3.92,5.64-.74Z"/><path class="cls-4" d="M148.48,59l2.44,5.13,5.64.74-4.12,3.92,1,5.59-5-2.71-5,2.71,1-5.59-4.13-3.92,5.64-.74Z"/><path class="cls-4" d="M168.48,53l2.44,5.13,5.64.74-4.12,3.92,1,5.59-5-2.71-5,2.71,1-5.59-4.13-3.92,5.64-.74Z"/><path class="cls-4" d="M186.48,60l2.44,5.13,5.64.74-4.12,3.92,1,5.59-5-2.71-5,2.71,1-5.59-4.13-3.92,5.64-.74Z"/><path class="cls-4" d="M187.48,78l2.44,5.13,5.64.74-4.12,3.92,1,5.59-5-2.71-5,2.71,1-5.59-4.13-3.92,5.64-.74Z"/><path class="cls-4" d="M186.48,98l2.44,5.13,5.64.74-4.12,3.92,1,5.59-5-2.72-5,2.72,1-5.59-4.13-3.92,5.64-.74Z"/><path class="cls-4" d="M185.48,117l2.44,5.13,5.64.74-4.12,3.92,1,5.59-5-2.72-5,2.72,1-5.59-4.13-3.92,5.64-.74Z"/><path class="cls-4" d="M171.48,126l2.44,5.13,5.64.74-4.12,3.92,1,5.59-5-2.72-5,2.72,1-5.59-4.13-3.92,5.64-.74Z"/><path class="cls-4" d="M154.48,123l2.44,5.13,5.64.74-4.12,3.92,1,5.59-5-2.72-5,2.72,1-5.59-4.13-3.92,5.64-.74Z"/><path class="cls-4" d="M147.48,108l2.44,5.13,5.64.74-4.12,3.92,1,5.59-5-2.72-5,2.72,1-5.59-4.13-3.92,5.64-.74Z"/></svg>