<?xml version="1.0" encoding="utf-8"?>
<!-- Generator: Adobe Illustrator 23.0.3, SVG Export Plug-In . SVG Version: 6.00 Build 0)  -->
<svg version="1.1" xmlns="http://www.w3.org/2000/svg" xmlns:xlink="http://www.w3.org/1999/xlink" x="0px" y="0px"
	 viewBox="0 0 727 212.1" style="enable-background:new 0 0 727 212.1;" xml:space="preserve">
<style type="text/css">
	.st0{display:none;}
	.st1{display:inline;fill:#221F20;}
	.st2{display:inline;fill:none;stroke:#221F20;stroke-width:4;}
	.st3{display:inline;fill:none;stroke:#000000;stroke-width:4;}
	.st4{display:inline;fill:#FF4464;}
	.st5{fill:#303030;}
	.st6{fill:#303030;stroke:#221F20;stroke-width:4;}
	.st7{fill:#303030;stroke:#000000;stroke-width:4;}
	.st8{fill:#FF4464;}
	.st9{display:none;fill:#303030;}
</style>
<g id="Слой_1" class="st0">
	<title>block1</title>
	<path class="st1" d="M248.9,57.1h15.5V14.7h19.1v42.4h15.5v-56h-50.2V57.1z M337.2,58.2c17.3,0,30.2-13,30.2-29.1
		c0-16.2-12.8-29.1-30.1-29.1s-30.2,13-30.2,29.1C307.1,45.4,319.9,58.2,337.2,58.2z M337.3,44.2c-8.5,0-14.3-7-14.3-15.1
		c0-8.2,5.7-15.1,14.2-15.1s14.4,7,14.4,15.1C351.6,37.4,345.9,44.2,337.3,44.2L337.3,44.2z M375.5,57.1h27.1
		c13.2,0,21.7-6.7,21.7-18.3c0-12.1-9.5-18-22.5-18H391v-6.5h29.5V1.1h-45L375.5,57.1z M391,44.1V32.5h10.5c4.6,0,7.3,2.2,7.3,5.7
		c0,3.8-2.7,5.9-7.4,5.9L391,44.1z M431.5,57.1H477V43.9h-30.1V35h26.9V22.8h-26.9v-8.5h29.7V1.1h-45L431.5,57.1z M480.7,68.3h13.9
		l1-11.2h29.8v11.2h13.1l1.8-24.8H534V1.1h-42.6v1.4c0,21-1.9,30.8-5.7,41h-5L480.7,68.3z M501.9,43.5c3.1-9.1,4.6-18.6,4.4-28.2
		v-0.6h12.2v28.8L501.9,43.5z M546.4,57.1h14.5l21.7-31.5v31.5H598v-56h-14.5l-21.7,31.5V1.1h-15.4V57.1z M611,57.9
		c10.9,0,18.4-6.9,18.4-41v-2.2h13v42.4H658v-56h-43v7.8c0,33.9-4.2,36.2-8.6,36.2c-1.2,0-2.4-0.1-3.6-0.3l-1,11.9
		C604.8,57.5,607.9,57.9,611,57.9L611,57.9z M663.4,57.1h16.3l4-10h21.6l4.1,10h16.6L702.2,0.7h-15L663.4,57.1z M688.3,35l6.3-15.9
		l6.2,15.9H688.3z M244.9,147.3H260l1.1-12.2h32.4v12.2h14.3l1.9-27h-6.9V74.2h-46.4v1.6c0,22.9-2.1,33.5-6.2,44.5h-5.4L244.9,147.3
		z M267.9,120.3c2.8-8.3,4.8-17.2,4.8-30.7V89h13.2v31.3H267.9z M316.3,135.1h16.9v-17.4h8.4c15.1,0,26.2-7.6,26.2-21.9
		c0-13.7-9.9-21.6-25.3-21.6h-26.1V135.1z M333.2,104.5V88.4h7.9c6.1,0,9.8,2.8,9.8,8c0,4.9-3.7,8.1-9.7,8.1L333.2,104.5z
		 M389.1,136c9.4,0,15.1-4.4,20.6-15.3l23.8-46.5h-18.4l-13,28.6l-13.8-28.6h-18.8l23.8,45c-1.3,1.6-3.2,2.6-5.3,2.6
		c-2.4,0-4.8-0.8-6.9-2.1l-6.6,12.2C378.9,134.6,384,136,389.1,136z M433,135.1h20l13.9-23l5.8,6.8v16.2h16.9v-16.2l5.8-6.8l13.9,23
		h20L507,99.9l21.6-25.7h-19.7l-19.2,24.7V74.2h-16.9v24.7l-19.2-24.7h-19.8l21.7,25.7L433,135.1z M534.2,135.1h29.5
		c14.3,0,23.6-7.3,23.6-19.9c0-13.1-10.3-19.6-24.4-19.6h-11.8v-7h32.1V74.2h-49L534.2,135.1z M551.1,120.9v-12.6h11.4
		c5,0,7.9,2.4,7.9,6.2c0,4.2-3,6.4-8,6.4H551.1z M590.3,135.1H608l4.3-10.9h23.5l4.5,10.9h18.1l-25.9-61.3h-16.3L590.3,135.1z
		 M617.3,111.1l6.9-17.3l6.8,17.3H617.3z M694.2,67.5c5.4-0.1,10.7,1.3,15.5,3.8c4.6,2.5,8.4,6.2,11,10.7c2.8,4.7,4.2,10.1,4.1,15.6
		c0.1,5.5-1.3,10.9-4.1,15.6c-2.6,4.5-6.4,8.2-11,10.6c-4.7,2.6-10.1,3.9-15.5,3.8c-5.4,0.1-10.8-1.3-15.6-3.8
		c-4.6-2.5-8.4-6.1-11.1-10.6c-2.8-4.7-4.2-10.1-4.1-15.6c-0.1-5.5,1.3-10.9,4.1-15.6c2.7-4.5,6.5-8.2,11.1-10.7
		C683.5,68.8,688.8,67.5,694.2,67.5L694.2,67.5z M694.2,75.9c-3.8-0.1-7.6,0.9-10.9,2.8c-3.2,1.8-5.8,4.4-7.6,7.7
		c-1.9,3.5-2.8,7.4-2.7,11.3c-0.1,4,0.8,7.9,2.7,11.4c1.8,3.2,4.4,5.8,7.6,7.6c6.8,3.6,14.9,3.6,21.7,0c3.2-1.8,5.8-4.4,7.5-7.6
		c1.9-3.5,2.9-7.4,2.8-11.4c0.1-3.9-0.9-7.8-2.8-11.3c-1.7-3.2-4.3-5.9-7.5-7.7C701.7,76.8,698,75.8,694.2,75.9L694.2,75.9z
		 M694.4,80.1c2.2,0,4.5,0.4,6.5,1.3c2.1,0.8,4,2.1,5.6,3.7l-4.9,6c-0.8-0.7-1.8-1.2-2.9-1.6c-1-0.3-2-0.5-3-0.4
		c-1.6,0-3.1,0.7-4.1,2c-1,1.3-1.6,3.5-1.6,6.5c0,5.7,1.8,8.6,5.4,8.6c2.5,0,4.9-0.9,6.9-2.5l4.4,6.5c-1.7,1.6-3.6,2.8-5.7,3.7
		c-2.1,0.9-4.3,1.3-6.6,1.3c-5,0-9-1.5-11.9-4.5s-4.3-7.3-4.3-13c0-5.3,1.5-9.5,4.4-12.7C685.7,81.6,690,79.9,694.4,80.1L694.4,80.1
		z"/>
	<path class="st1" d="M382.6,171.2v1.5c0,0.7-0.1,1.5-0.4,2.1c-0.3,0.7-0.7,1.3-1.2,1.8c-0.5,0.5-1.1,1-1.8,1.3
		c-0.7,0.3-1.4,0.4-2.1,0.4c-0.7,0-1.3-0.1-2-0.3c-0.7-0.2-1.3-0.5-1.8-1c-0.6-0.5-1-1.1-1.4-1.7c-0.4-0.9-0.5-1.8-0.5-2.8v-13.3
		c0-0.8,0.1-1.5,0.4-2.2c0.3-0.7,0.7-1.3,1.2-1.8c0.5-0.5,1.1-0.9,1.8-1.2c0.7-0.3,1.5-0.4,2.3-0.4c1.5-0.1,3,0.5,4,1.6
		c0.5,0.5,0.9,1.2,1.1,1.9c0.3,0.7,0.5,1.5,0.4,2.3v1.4h-3.5v-1.2c0-0.6-0.2-1.3-0.6-1.8c-0.4-0.5-1-0.8-1.6-0.7
		c-0.7-0.1-1.4,0.2-1.7,0.8c-0.3,0.6-0.4,1.3-0.4,2v12.4c0,0.6,0.1,1.2,0.4,1.8c0.4,0.5,1,0.8,1.7,0.7c0.2,0,0.5,0,0.7-0.1
		c0.3-0.1,0.5-0.2,0.8-0.4c0.2-0.2,0.4-0.5,0.5-0.8c0.1-0.4,0.2-0.8,0.2-1.2v-1.2H382.6z M385.4,178.1v-24.2h11.1v24.2H393V157h-4.1
		v21.1H385.4z M406.8,169.6l-1.7-8.8H405l-1.7,8.8H406.8z M398.2,178.1l5.4-24.2h2.9l5.4,24.2h-3.5l-1-5.2h-4.7l-1,5.2H398.2z
		 M413.6,178.1v-24.2h5.2c0.9,0,1.7,0.1,2.5,0.4c0.8,0.3,1.5,0.7,2,1.3c0.6,0.6,1,1.4,1.2,2.2c0.3,1.1,0.4,2.3,0.3,3.4
		c0,0.9-0.1,1.8-0.2,2.8c-0.1,0.8-0.4,1.5-0.8,2.1c-0.5,0.8-1.1,1.4-1.9,1.9c-1,0.5-2,0.7-3.1,0.6h-1.8v9.5H413.6z M417.1,157.2v8.2
		h1.7c0.6,0,1.1-0.1,1.6-0.3c0.4-0.2,0.7-0.5,0.9-0.9c0.2-0.4,0.3-0.8,0.3-1.3c0-0.5,0.1-1,0.1-1.7s0-1.1,0-1.6
		c0-0.5-0.1-0.9-0.3-1.4c-0.2-0.4-0.5-0.7-0.8-0.9c-0.5-0.2-1-0.3-1.6-0.3H417.1z M429.7,178.1v-20.9h-4v-3.3h11.5v3.3h-4v20.9
		H429.7z M444.2,169.6l-1.7-8.8h-0.1l-1.7,8.8H444.2z M435.6,178.1l5.4-24.2h2.9l5.4,24.2h-3.5l-1-5.2h-4.7l-1,5.2H435.6z
		 M463.2,157.2c-0.3,0-0.5,0-0.8,0.1c-0.2,0.1-0.4,0.2-0.6,0.4c-0.2,0.2-0.3,0.5-0.4,0.8c-0.1,0.3-0.1,0.6-0.2,1l-0.3,2.8
		c0,0.3-0.1,0.6-0.1,0.8s-0.1,0.5-0.1,0.7c0,0.2-0.1,0.4-0.2,0.6c-0.1,0.3-0.3,0.6-0.5,0.9c-0.2,0.2-0.3,0.4-0.5,0.5l3.6,12.3h-3.5
		l-3.1-10.8h-1.9v10.8h-3.5v-24.2h3.5v10.4h1.2c0.3,0,0.7,0,1-0.2c0.2-0.1,0.5-0.3,0.6-0.5c0.2-0.2,0.3-0.4,0.3-0.7
		c0.1-0.3,0.1-0.6,0.2-0.9l0.3-2.9c0-0.2,0.1-0.4,0.1-0.5c0-0.3,0.1-0.6,0.2-1c0.1-0.4,0.2-0.8,0.4-1.1c0.2-0.4,0.4-0.8,0.6-1.1
		c0.4-0.5,0.9-0.9,1.6-1.1c0.7-0.3,1.5-0.4,2.2-0.4L463.2,157.2z M473.2,178.1v-15.7h-0.1l-4.6,15.7h-3.5v-24.2h3.5v15.7h0.1
		l4.5-15.7h3.5v24.2H473.2z M487,169.6l-1.7-8.8h-0.1l-1.7,8.8H487z M478.4,178.1l5.4-24.2h2.9l5.4,24.2h-3.5l-1-5.2h-4.7l-1,5.2
		H478.4z M495.6,178.1v3.7h-3v-6.8h1.8c0.2-0.5,0.4-1,0.6-1.5c0.2-0.6,0.3-1.2,0.5-1.8c0.1-0.6,0.3-1.2,0.4-1.9
		c0.1-0.6,0.2-1.3,0.3-1.9c0.1-0.6,0.1-1,0.1-1.6s0.1-1.2,0.1-1.8c0-0.6,0-1.3,0-1.9c0-0.6,0-1.2,0-1.8v-7.1h10v21.1h2v6.8h-3v-3.7
		H495.6z M499.6,157v4c0,0.3,0,0.8,0,1.4c0,0.6,0,1.2-0.1,1.9c-0.1,0.7-0.1,1.4-0.1,2.1s-0.1,1.3-0.2,1.9c-0.1,0.5-0.1,1-0.2,1.6
		s-0.2,1.1-0.3,1.8c-0.1,0.6-0.3,1.2-0.4,1.8c-0.1,0.5-0.3,1.1-0.5,1.6h5.2V157H499.6z M517.3,169.6l-1.7-8.8h-0.1l-1.7,8.8H517.3z
		 M508.8,178.1l5.4-24.2h2.9l5.4,24.2H519l-1-5.2h-4.7l-1,5.2H508.8z M528.8,178.1l4.9-12.7l-4.5-11.5h3.7l2.6,7.2l2.7-7.2h3.7
		l-4.6,11.5l5,12.7h-3.7l-3-8.2l-3,8.2H528.8z M551.8,178.1v-15.7h-0.1l-4.5,15.7h-3.5v-24.2h3.5v15.7h0.1l4.5-15.7h3.5v24.2H551.8z
		 M558.5,178.1v-24.2h11v24.2H566V157h-4v21.1H558.5z M572.8,178.1v-24.2h11v24.2h-3.4V157h-4.1v21.1H572.8z M595.2,178.1v-15.7
		h-0.1l-4.5,15.7h-3.5v-24.2h3.5v15.7h0.1l4.5-15.7h3.5v24.2H595.2z"/>
	<path class="st1" d="M197.6,1.7v19.2h-40.4v38.4c2.1-2,4.5-3.6,7.2-4.6c3.1-1.4,6.4-2,9.8-2c6.9,0,12.5,2.1,16.8,6.4
		c4.4,4.1,6.6,10.4,6.6,18.8v36.8c0.1,4.4-0.8,8.8-2.6,12.8c-1.5,3.6-3.8,6.9-6.6,9.6c-2.8,2.7-6.2,4.8-9.8,6.2
		c-3.7,1.3-7.5,2-11.4,2c-4,0-7.9-0.7-11.6-2c-3.6-1.4-6.8-3.5-9.6-6.2c-2.9-2.7-5.2-6-6.8-9.6c-1.7-4.1-2.5-8.4-2.4-12.8v-6h20.4
		v5.2c0,3.5,0.9,6.2,2.8,8.2c2.1,1.9,4.8,2.9,7.6,2.8c3.1,0,5.4-0.9,7-2.8s2.6-4.5,2.6-7.8V80.9c0-2.7-1-5.3-2.8-7.2
		c-1.7-2-4.2-3.1-6.8-3c-1.5-0.1-3,0.3-4.4,1c-1.1,0.5-2.1,1.2-3,2c-0.8,0.7-1.4,1.6-1.8,2.6c-0.7,1.2-1.1,1.9-1.2,2.2h-18V1.7
		H197.6z"/>
	<path class="st1" d="M34.2,123.8v4.4c0,2.2-0.4,4.3-1.3,6.3c-0.8,1.9-2,3.7-3.4,5.2c-1.5,1.5-3.3,2.8-5.2,3.7
		c-2,0.9-4.1,1.3-6.3,1.3c-2,0-4-0.3-5.9-0.8c-2-0.5-3.8-1.5-5.4-2.8c-1.7-1.4-3-3.1-4-5.1c-1.1-2.6-1.6-5.3-1.5-8.1V88.7
		c0-2.2,0.4-4.4,1.2-6.5c1.5-3.9,4.7-7.1,8.6-8.6c2.2-0.9,4.5-1.3,6.8-1.3c4.4-0.2,8.6,1.5,11.7,4.7c1.5,1.6,2.7,3.5,3.4,5.5
		c0.9,2.2,1.3,4.5,1.3,6.8v4H24v-3.4c0-1.9-0.6-3.7-1.7-5.2c-1.1-1.4-2.8-2.3-4.6-2.2c-2.5,0-4.2,0.8-5.1,2.4
		c-0.9,1.8-1.3,3.9-1.2,5.9v36.4c-0.1,1.8,0.4,3.6,1.3,5.2c0.9,1.4,2.6,2.1,4.9,2.1c0.7,0,1.4-0.1,2.1-0.3c0.8-0.3,1.5-0.7,2.2-1.2
		c0.7-0.6,1.2-1.4,1.5-2.2c0.4-1.1,0.6-2.3,0.6-3.5v-3.5L34.2,123.8z M42.5,144.1V72.9h30.4v9.6H52.7v20.9h17.6v9.6H52.7v20.9h20.2
		v10.2H42.5z M79.5,144.1V72.9h10.2v30.5h12.6V72.9h10.2v71.2h-10.2v-31.7H89.7v31.7H79.5z M121.5,144.1v-10.2h10.2v10.2H121.5z"/>
	<path class="st1" d="M8.1,63.1V19.6L0.8,25v-7.8l7.4-5.4h7.3v51.3H8.1z M31,63.1V19.6L23.6,25v-7.8l7.4-5.4h7.3v51.3H31z
		 M47.8,42.4h9.1v9h-9.1V42.4z M47.8,21h9.1v9.2h-9.1V21z M66.3,22.4c0-1.6,0.3-3.1,0.9-4.6c0.6-1.3,1.4-2.5,2.4-3.4
		c1-1,2.2-1.7,3.5-2.2c1.3-0.5,2.7-0.8,4.2-0.8c1.4,0,2.8,0.3,4.1,0.8c1.3,0.5,2.5,1.2,3.5,2.2c1,1,1.8,2.2,2.4,3.4
		c0.6,1.5,1,3,0.9,4.6v30.1c0,1.6-0.3,3.2-0.9,4.6c-0.5,1.3-1.4,2.5-2.4,3.5c-1,1-2.2,1.7-3.5,2.2c-1.3,0.5-2.7,0.7-4.1,0.7
		c-1.4,0-2.8-0.2-4.2-0.7c-1.3-0.5-2.5-1.3-3.5-2.2c-1-1-1.9-2.2-2.4-3.5c-0.6-1.5-0.9-3-0.9-4.6V22.4z M73.6,52.5
		c0,1,0.3,1.9,1,2.7c1.5,1.3,3.7,1.3,5.2,0c0.7-0.7,1-1.7,1-2.7V22.4c0-1-0.3-1.9-1-2.6c-1.4-1.4-3.7-1.4-5.2,0c0,0,0,0,0,0
		c-0.7,0.7-1,1.6-1,2.6V52.5z M93.1,22.4c0-1.6,0.3-3.2,0.9-4.6c0.6-1.3,1.4-2.5,2.4-3.4c1-1,2.2-1.7,3.5-2.2
		c1.3-0.5,2.7-0.8,4.2-0.8c1.4,0,2.8,0.3,4.1,0.8c1.3,0.5,2.5,1.2,3.5,2.2c1,1,1.8,2.2,2.4,3.4c0.6,1.5,1,3,0.9,4.6v30.1
		c0,1.6-0.3,3.2-0.9,4.6c-0.5,1.3-1.4,2.5-2.4,3.5c-1,1-2.2,1.7-3.5,2.2c-1.3,0.5-2.7,0.7-4.1,0.7c-1.4,0-2.8-0.2-4.2-0.7
		c-1.3-0.5-2.5-1.3-3.5-2.2c-1-1-1.9-2.2-2.4-3.5c-0.6-1.5-0.9-3-0.9-4.6L93.1,22.4z M100.4,52.5c0,1,0.3,1.9,1,2.7
		c1.5,1.3,3.7,1.3,5.2,0c0.7-0.7,1-1.7,1-2.7V22.4c0-1-0.3-1.9-1-2.6c-1.4-1.4-3.7-1.4-5.2,0c0,0,0,0,0,0c-0.7,0.7-1,1.6-1,2.6V52.5
		z"/>
	<path class="st1" d="M23.8,193.5v3.2c0,1.6-0.3,3.1-0.9,4.5c-0.6,1.4-1.4,2.7-2.4,3.7c-1.1,1.1-2.3,2-3.8,2.7
		c-1.4,0.6-3,0.9-4.5,0.9c-1.4,0-2.9-0.2-4.2-0.6c-1.4-0.4-2.8-1.1-3.9-2c-1.2-1-2.2-2.3-2.9-3.7c-0.8-1.8-1.2-3.8-1.1-5.9v-28.2
		c0-1.6,0.3-3.2,0.9-4.7c1.1-2.8,3.4-5.1,6.2-6.2c1.6-0.6,3.2-1,4.9-0.9c3.2-0.1,6.2,1.1,8.4,3.4c1.1,1.1,1.9,2.5,2.4,4
		c0.6,1.5,1,3.2,0.9,4.9v2.9h-7.4v-2.5c0-1.4-0.4-2.7-1.2-3.8c-0.8-1-2-1.6-3.3-1.6c-1.8,0-3.1,0.6-3.7,1.7
		c-0.6,1.3-0.9,2.8-0.9,4.2V196c0,1.3,0.3,2.6,0.9,3.8c0.8,1.1,2.2,1.7,3.5,1.5c0.5,0,1-0.1,1.5-0.2c0.6-0.2,1.1-0.5,1.6-0.9
		c0.5-0.4,0.9-1,1.1-1.6c0.3-0.8,0.5-1.7,0.4-2.5v-2.5H23.8z M29.9,201.2c0.8,0,1.5-0.1,2.3-0.2c0.7-0.1,1.4-0.4,2-0.9
		c0.5-0.5,0.9-1.1,1.2-1.8c0.6-1.1,1-2.4,1.3-3.6l0.7-2.8l-11.1-35h7.8L41,181h0.2l5.4-24.1h7.8l-10.7,38.9
		c-0.6,2.1-1.3,4.2-2.2,6.3c-0.7,1.7-1.8,3.2-3.2,4.4c-1,0.9-2.3,1.5-3.7,1.7c-1.4,0.3-2.8,0.4-4.2,0.4h-1v-7.3L29.9,201.2z
		 M58.2,156.9h21v6.9H65.6v14.1h2.9c2.2-0.1,4.3,0.3,6.3,1c1.6,0.6,3.1,1.6,4.2,2.9c1,1.2,1.8,2.7,2.1,4.4c0.3,1.7,0.5,3.4,0.5,5.1
		v2.9c0,4.5-1.1,8-3.3,10.4c-2.2,2.4-5.6,3.6-10.4,3.6h-9.6V156.9z M65.6,184.4v16.4h2.7c1.2,0.1,2.4-0.2,3.5-0.6
		c0.8-0.4,1.5-1,1.9-1.8c0.5-0.8,0.7-1.8,0.8-2.7c0.1-1.1,0.1-2.2,0.1-3.5c0-1.1-0.1-2.3-0.3-3.4c-0.1-0.9-0.4-1.7-0.9-2.5
		c-0.5-0.6-1.1-1.1-1.9-1.4c-1-0.4-2.1-0.5-3.2-0.5H65.6z M87.3,156.9h21v6.9H94.7v14.1h2.9c2.2-0.1,4.3,0.3,6.3,1
		c1.6,0.6,3,1.6,4.2,2.9c1.1,1.3,1.8,2.8,2.1,4.4c0.3,1.7,0.5,3.4,0.5,5.1v2.9c0,4.5-1.1,8-3.3,10.4c-2.2,2.4-5.7,3.6-10.4,3.6h-9.6
		V156.9z M94.7,184.4v16.4h2.7c1.2,0.1,2.4-0.2,3.4-0.6c0.8-0.4,1.5-1,1.9-1.8c0.5-0.8,0.7-1.8,0.8-2.7c0.1-1.1,0.1-2.2,0.1-3.5
		c0-1.1-0.1-2.3-0.3-3.4c-0.1-0.9-0.4-1.7-0.9-2.5c-0.5-0.6-1.1-1.1-1.9-1.4c-1-0.4-2.1-0.5-3.2-0.5H94.7z M116,169
		c0-1.9,0.3-3.7,1.1-5.5c0.7-1.5,1.6-2.9,2.9-4c1.1-1,2.5-1.8,3.9-2.3c1.4-0.5,2.9-0.8,4.5-0.8c3.1,0,6,1.1,8.4,3.1
		c1.2,1.1,2.2,2.5,2.8,4c0.7,1.7,1.1,3.6,1.1,5.5V196c0.1,1.9-0.3,3.8-1.1,5.6c-0.7,1.5-1.6,2.8-2.8,3.8c-1.2,1-2.5,1.9-4,2.4
		c-1.4,0.5-2.9,0.8-4.4,0.8c-1.5,0-3-0.3-4.5-0.8c-1.4-0.5-2.8-1.3-3.9-2.4c-1.2-1-2.2-2.3-2.9-3.8c-0.8-1.7-1.2-3.6-1.1-5.6V169z
		 M123.3,196c-0.1,1.5,0.4,2.9,1.4,4c1,0.8,2.2,1.3,3.5,1.2c1.3,0,2.5-0.4,3.4-1.2c1.1-1,1.7-2.5,1.5-4V169c0.1-1.5-0.4-2.9-1.5-3.9
		c-0.9-0.9-2.2-1.3-3.4-1.3c-1.3,0-2.6,0.4-3.5,1.3c-1,1-1.6,2.4-1.4,3.9V196z M151.2,208.1v-44.4h-8.5v-6.9h24.3v6.9h-8.5v44.4
		H151.2z M181.9,190.2l-3.6-18.6h-0.1l-3.6,18.6H181.9z M163.8,208.1l11.4-51.3h6.1l11.5,51.3h-7.4l-2.2-11h-10l-2.2,11H163.8z"/>
	<path class="st2" d="M363,166.1H245"/>
	<path class="st3" d="M724,166.1H606"/>
	<path class="st1" d="M244.2,208.1h4.8v-9.7h3.9v-3.8h-12.6v3.8h4L244.2,208.1z M261.1,208.4c2.3,0.1,4.5-0.9,5.9-2.8l-2.6-2.2
		c-0.8,0.9-1.9,1.4-3,1.4c-1.4,0.1-2.6-0.9-2.9-2.2h9c0-0.3,0-0.7,0-1c0-4-2.1-7.4-6.8-7.4c-3.7,0-6.8,3-6.8,6.7c0,0.1,0,0.2,0,0.3
		C253.9,205.6,256.9,208.4,261.1,208.4z M258.4,200.2c0.2-1.5,1.1-2.4,2.4-2.4s2.2,0.9,2.4,2.4H258.4z M270.6,208.3
		c2.9,0,5.1-1.4,5.1-9.6v-0.4h2.5v9.8h4.8v-13.5h-11.7v2.6c0,7-0.9,7.3-1.8,7.3c-0.3,0-0.5,0-0.8-0.1l-0.2,3.7
		C269.2,208.2,269.9,208.3,270.6,208.3L270.6,208.3z M285.3,208.1h5v-4.9h-5V208.1z M298.5,210.9h4.2l0.2-2.8h7.1v2.8h4l0.5-6.6H313
		v-9.7h-12v0.6c0,4.7-0.4,6.8-1.2,9.1h-1.3V210.9z M304.6,204.3c0.6-1.8,0.9-3.8,0.9-5.7v-0.2h2.8v5.9H304.6z M316.9,208.3
		c2.9,0,5.1-1.4,5.1-9.6v-0.4h2.5v9.8h4.8v-13.5h-11.7v2.6c0,7-0.9,7.3-1.8,7.3c-0.3,0-0.5,0-0.8-0.1l-0.2,3.7
		C315.5,208.2,316.2,208.3,316.9,208.3L316.9,208.3z M330.9,208.1h5.4l2.6-3.9h1.1v3.9h4.8v-13.5h-7.6c-1.6-0.1-3.2,0.4-4.4,1.5
		c-0.9,0.8-1.3,2-1.2,3.2c-0.1,1.8,0.9,3.4,2.5,4.1L330.9,208.1z M338.1,200.9c-1.1,0-1.8-0.5-1.8-1.4s0.6-1.4,1.8-1.4h1.9v2.8
		H338.1z M367.7,208.4c2.4,0.1,4.7-1.1,6-3.1l-3.2-2.3c-0.6,0.9-1.5,1.4-2.5,1.4c-1.7-0.2-2.9-1.8-2.7-3.4c0.2-1.4,1.3-2.5,2.7-2.7
		c1,0,1.9,0.5,2.5,1.3l3.2-2.3c-1.2-2-3.4-3.1-5.8-3c-3.9,0-7.1,3.1-7.1,7C360.6,205.2,363.7,208.4,367.7,208.4L367.7,208.4z
		 M375.4,208.1h4.8v-9.7h3.7v9.7h4.8v-13.5h-13.2V208.1z M391.1,212.1h4.8v-5.6c1,1.3,2.5,2,4.1,2c3.2,0,6-2.7,6-7.1s-2.8-7-6-7
		c-1.6,0-3.2,0.8-4.1,2.1v-1.8h-4.8L391.1,212.1z M398.5,204.4c-1.7,0.2-3.2-1.1-3.4-2.8s1.1-3.2,2.8-3.4c1.7-0.2,3.2,1.1,3.4,2.8
		c0,0.1,0,0.2,0,0.3c0.1,1.6-1,3-2.6,3.1C398.7,204.4,398.6,204.4,398.5,204.4L398.5,204.4z M411.9,208.4c1.5,0.1,3-0.6,4-1.7v1.4
		h4.7v-7.8c0.1-1.6-0.4-3.1-1.5-4.3c-1.1-1.1-2.7-1.7-5.1-1.7c-1.9,0-3.7,0.3-5.5,1l1,3.4c1.2-0.5,2.4-0.8,3.7-0.8
		c1.8,0,2.7,0.8,2.7,2.2v0.2c-1-0.4-2.1-0.5-3.2-0.5c-3.2,0-5.3,1.5-5.3,4.2C407.4,206.9,409.3,208.4,411.9,208.4L411.9,208.4z
		 M413.6,205.4c-0.8,0.1-1.6-0.5-1.7-1.3c0-0.1,0-0.1,0-0.2c0-1,0.8-1.7,2.2-1.7c0.6,0,1.3,0.1,1.9,0.4v0.6c0,1.2-0.9,2.2-2.1,2.2
		C413.8,205.4,413.7,205.4,413.6,205.4L413.6,205.4z M423,208.1h8c3.2,0,5.1-1.4,5.1-3.7c0.1-1.6-1-3-2.6-3.3c1.3-0.4,2.1-1.7,2.1-3
		c0-0.8-0.3-1.6-0.9-2.2c-1-0.9-2.4-1.3-3.7-1.2h-8L423,208.1z M427.6,205v-2.5h1.9c1.2,0,1.8,0.6,1.8,1.2c0,0.7-0.6,1.3-1.8,1.3
		H427.6z M427.6,200v-2.4h1.7c1,0,1.6,0.5,1.6,1.1c0,0.7-0.6,1.2-1.7,1.2H427.6z M445.1,208.4c3.9-0.2,6.9-3.5,6.7-7.4
		c-0.2-3.9-3.5-6.9-7.4-6.7c-3.8,0.2-6.7,3.3-6.7,7.1c0.1,4,3.3,7.1,7.3,7.1C445,208.4,445.1,208.4,445.1,208.4L445.1,208.4z
		 M445.2,204.4c-1.6,0-2.9-1.4-2.9-3c0,0,0,0,0-0.1c-0.1-1.6,1.1-2.9,2.6-3c0.1,0,0.1,0,0.2,0c1.6,0,2.9,1.4,2.9,3c0,0,0,0,0,0.1
		c0.1,1.6-1.1,2.9-2.7,3C445.3,204.4,445.2,204.4,445.2,204.4L445.2,204.4z M454.6,208.1h4.8v-2.7l1.4-1.6l2.6,4.3h5.2l-4.8-8
		l4.6-5.5h-5.4l-3.7,5v-5h-4.8V208.1z M469.6,208.1h5v-4.9h-5V208.1z M469.6,199.5h5v-4.9h-5V199.5z M488.5,205.7h4.4v-4.3h4.2v-4.2
		h-4.2v-4.3h-4.4v4.3h-4.2v4.2h4.2L488.5,205.7z M500.3,208.1h5.4l7.7-13.9v-3.7h-13.5v4.1h8.1L500.3,208.1z M529.4,211.7l2-3
		c-3.2-2.2-4.6-4.5-4.6-7.8s1.4-5.5,4.6-7.8l-2-3c-4.7,2.5-7.3,5.6-7.3,10.7C522.1,206,524.7,209.2,529.4,211.7L529.4,211.7z
		 M539.6,208.5c5.2,0,8.1-3.9,8.1-9.6c0-3.3-0.8-5.3-2.1-6.5c-1.4-1.4-3.4-2.2-5.4-2c-4,0-7,2.5-7,6.4c0,3.5,2.5,5.6,5.9,5.6
		c1.4,0,2.7-0.5,3.7-1.4c-0.2,2.2-1.3,3.6-3.3,3.6c-1.4,0-2.7-0.5-3.8-1.4l-2.3,3.3C535.2,207.8,537.3,208.5,539.6,208.5
		L539.6,208.5z M540.4,198.8c-1.3,0.1-2.4-0.9-2.5-2.2c-0.1-1.3,0.9-2.4,2.2-2.5c0.1,0,0.2,0,0.3,0c1.3-0.1,2.4,0.9,2.5,2.2
		c0,0.1,0,0.1,0,0.2c0,1.2-1,2.3-2.2,2.3C540.6,198.8,540.5,198.8,540.4,198.8L540.4,198.8z M556.2,208.5c3.9,0,6.8-2.3,6.8-5.8
		c0-3-2-4.4-4.5-5l4.2-3.6v-3.5h-12.7v3.9h6.7l-4,3.6l0.7,2.5h2c1.8,0,2.8,0.7,2.8,1.8s-0.9,1.8-2.2,1.8c-1.6,0-3.1-0.8-4.2-2l-3,3
		C550.7,207.4,553.4,208.6,556.2,208.5L556.2,208.5z M564.9,208.1h5.3l7.7-13.9v-3.7h-13.5v4.1h8.1L564.9,208.1z M581.4,211.7
		c4.7-2.5,7.3-5.6,7.3-10.7c0-5.1-2.6-8.2-7.3-10.7l-2,2.9c3.2,2.2,4.6,4.5,4.6,7.8c0,3.3-1.4,5.5-4.6,7.8L581.4,211.7z
		 M604.6,208.4c4.2,0,7.2-2,7.2-5.1c0-2.2-1.2-3.4-3-4.2c1.5-0.7,2.4-2.2,2.4-3.8c0-2.9-2.7-4.9-6.6-4.9s-6.6,2.1-6.6,4.9
		c0,1.6,0.9,3.2,2.4,3.9c-1.8,0.6-3,2.3-3,4.2C597.4,206.4,600.4,208.4,604.6,208.4L604.6,208.4z M604.6,204.8c-1.6,0-2.5-0.9-2.5-2
		s1-2,2.5-2s2.5,0.8,2.5,1.9C607.1,203.9,606.2,204.8,604.6,204.8L604.6,204.8z M604.6,197.7c-1-0.1-1.8-1.1-1.7-2.1
		c0.1-1,1.1-1.8,2.1-1.7c0.9,0.1,1.6,0.9,1.7,1.8C606.7,196.9,605.8,197.8,604.6,197.7C604.7,197.7,604.6,197.7,604.6,197.7
		L604.6,197.7z M622.1,208.1h4.7v-3.4h2.2v-3.6h-2.2v-10.6h-4.9l-9.1,10.8l0.8,3.4h8.5L622.1,208.1z M617.9,201.1l4.2-5v5H617.9z
		 M630.5,208.1h5.3l7.7-13.9v-3.6h-13.5v4.1h8.1L630.5,208.1z M644.5,202.4h8.2v-4.2h-8.2V202.4z M662.2,208.5c3.8,0,7-2.4,7-6.3
		c0-3.6-2.7-5.5-5.8-5.5c-1.4,0-2.7,0.5-3.8,1.4c0.2-2.2,1.2-3.7,3.3-3.7c1.3,0,2.5,0.5,3.5,1.3l2.3-3.4c-1.7-1.3-3.7-2-5.8-1.9
		c-5.5,0-8.1,4.1-8.1,9.6c0,3.3,0.8,5.3,2.2,6.6C658.3,207.9,660.3,208.6,662.2,208.5L662.2,208.5z M662,204.7
		c-1.2,0.1-2.4-0.8-2.5-2.1c0-0.1,0-0.1,0-0.2c-0.1-1.2,0.9-2.3,2.1-2.3c0.1,0,0.2,0,0.3,0c1.2-0.1,2.4,0.8,2.5,2.1
		c0,0.1,0,0.1,0,0.2c0.1,1.2-0.9,2.3-2.1,2.3C662.3,204.7,662.2,204.7,662,204.7L662,204.7z M677.8,208.5c4.2,0,7.2-2.3,7.2-6.2
		s-2.8-5.6-6-5.6c-1,0-1.9,0.2-2.8,0.6l0.2-2.6h7.9v-4h-11.7l-0.5,8.9l2.9,1.6c0.8-0.6,1.8-0.9,2.8-0.9c1.5,0,2.6,0.8,2.6,2
		s-1,2.1-2.6,2.1c-1.6-0.1-3.1-0.8-4.2-1.9l-2.8,3.2C672.7,207.5,675.2,208.5,677.8,208.5L677.8,208.5z M687,202.4h8.2v-4.2H687
		L687,202.4z M703.9,208.5c3.9,0,6.8-2.3,6.8-5.8c0-3-2-4.4-4.5-5l4.2-3.6v-3.5h-12.6v3.9h6.7l-4,3.6l0.7,2.5h2
		c1.8,0,2.8,0.7,2.8,1.8s-0.9,1.8-2.2,1.8c-1.6,0-3.1-0.8-4.2-2l-3,3C698.4,207.4,701.1,208.6,703.9,208.5L703.9,208.5z M720,208.5
		c3.8,0,7-2.4,7-6.3c0-3.6-2.7-5.5-5.8-5.5c-1.4,0-2.7,0.5-3.8,1.4c0.2-2.2,1.2-3.7,3.3-3.7c1.3,0,2.5,0.5,3.5,1.3l2.3-3.4
		c-1.7-1.3-3.7-2-5.8-1.9c-5.5,0-8.1,4.1-8.1,9.6c0,3.3,0.8,5.3,2.2,6.6C716.1,207.9,718.1,208.6,720,208.5L720,208.5z M719.8,204.7
		c-1.3,0.1-2.4-0.8-2.5-2.1c0-0.1,0-0.1,0-0.2c0-1.2,0.9-2.3,2.2-2.3c0.1,0,0.2,0,0.3,0c1.2-0.1,2.4,0.8,2.5,2.1c0,0.1,0,0.1,0,0.2
		c0,1.2-0.9,2.3-2.1,2.3C720,204.7,719.9,204.7,719.8,204.7L719.8,204.7z"/>
	<path class="st4" d="M187.5,3.1l2.4,5.1l5.6,0.7l-4.1,3.9l1,5.6l-5-2.7l-5,2.7l1-5.6L179.3,9l5.7-0.7L187.5,3.1z"/>
	<path class="st4" d="M168.5,3.1l2.4,5.1l5.6,0.7l-4.1,3.9l1,5.6l-5-2.7l-5,2.7l1-5.6L160.3,9l5.7-0.7L168.5,3.1z"/>
	<path class="st4" d="M148.5,3.1l2.4,5.1l5.6,0.7l-4.1,3.9l1,5.6l-5-2.7l-5,2.7l1-5.6L140.3,9l5.7-0.7L148.5,3.1z"/>
	<path class="st4" d="M148.5,21.1l2.4,5.1l5.6,0.7l-4.1,3.9l1,5.6l-5-2.7l-5,2.7l1-5.6l-4.1-3.9l5.6-0.7L148.5,21.1z"/>
	<path class="st4" d="M148.5,41.1l2.4,5.1l5.6,0.7l-4.1,3.9l1,5.6l-5-2.7l-5,2.7l1-5.6l-4.1-3.9l5.6-0.7L148.5,41.1z"/>
	<path class="st4" d="M148.5,60.1l2.4,5.1l5.6,0.7l-4.1,3.9l1,5.6l-5-2.7l-5,2.7l1-5.6l-4.1-3.9l5.6-0.7L148.5,60.1z"/>
	<path class="st4" d="M168.5,54.1l2.4,5.1l5.6,0.7l-4.1,3.9l1,5.6l-5-2.7l-5,2.7l1-5.6l-4.1-3.9l5.6-0.7L168.5,54.1z"/>
	<path class="st4" d="M186.5,61.1l2.4,5.1l5.6,0.7l-4.1,3.9l1,5.6l-5-2.7l-5,2.7l1-5.6l-4.1-3.9l5.6-0.7L186.5,61.1z"/>
	<path class="st4" d="M187.5,79.1l2.4,5.1l5.6,0.7l-4.1,3.9l1,5.6l-5-2.7l-5,2.7l1-5.6l-4.1-3.9l5.6-0.7L187.5,79.1z"/>
	<path class="st4" d="M186.5,99.1l2.4,5.1l5.6,0.7l-4.1,3.9l1,5.6l-5-2.7l-5,2.7l1-5.6l-4.1-3.9l5.6-0.7L186.5,99.1z"/>
	<path class="st4" d="M185.5,118.1l2.4,5.1l5.6,0.7l-4.1,3.9l1,5.6l-5-2.7l-5,2.7l1-5.6l-4.1-3.9l5.6-0.7L185.5,118.1z"/>
	<path class="st4" d="M171.5,127.1l2.4,5.1l5.6,0.7l-4.1,3.9l1,5.6l-5-2.7l-5,2.7l1-5.6l-4.1-3.9l5.6-0.7L171.5,127.1z"/>
	<path class="st4" d="M154.5,124.1l2.4,5.1l5.6,0.7l-4.1,3.9l1,5.6l-5-2.7l-5,2.7l1-5.6l-4.1-3.9l5.6-0.7L154.5,124.1z"/>
	<path class="st4" d="M147.5,109.1l2.4,5.1l5.6,0.7l-4.1,3.9l1,5.6l-5-2.7l-5,2.7l1-5.6l-4.1-3.9l5.6-0.7L147.5,109.1z"/>
	<path class="st4" d="M187.5,79.1l2.4,5.1l5.6,0.7l-4.1,3.9l1,5.6l-5-2.7l-5,2.7l1-5.6l-4.1-3.9l5.6-0.7L187.5,79.1z"/>
	<title>block1</title>
	<path class="st1" d="M248.9,57.1h15.5V14.7h19.1v42.4h15.5v-56h-50.2V57.1z M337.2,58.2c17.3,0,30.2-13,30.2-29.1
		c0-16.2-12.8-29.1-30.1-29.1s-30.2,13-30.2,29.1C307.1,45.4,319.9,58.2,337.2,58.2z M337.3,44.2c-8.5,0-14.3-7-14.3-15.1
		c0-8.2,5.7-15.1,14.2-15.1s14.4,7,14.4,15.1C351.6,37.4,345.9,44.2,337.3,44.2L337.3,44.2z M375.5,57.1h27.1
		c13.2,0,21.7-6.7,21.7-18.3c0-12.1-9.5-18-22.5-18H391v-6.5h29.5V1.1h-45L375.5,57.1z M391,44.1V32.5h10.5c4.6,0,7.3,2.2,7.3,5.7
		c0,3.8-2.7,5.9-7.4,5.9L391,44.1z M431.5,57.1H477V43.9h-30.1V35h26.9V22.8h-26.9v-8.5h29.7V1.1h-45L431.5,57.1z M480.7,68.3h13.9
		l1-11.2h29.8v11.2h13.1l1.8-24.8H534V1.1h-42.6v1.4c0,21-1.9,30.8-5.7,41h-5L480.7,68.3z M501.9,43.5c3.1-9.1,4.6-18.6,4.4-28.2
		v-0.6h12.2v28.8L501.9,43.5z M546.4,57.1h14.5l21.7-31.5v31.5H598v-56h-14.5l-21.7,31.5V1.1h-15.4V57.1z M611,57.9
		c10.9,0,18.4-6.9,18.4-41v-2.2h13v42.4H658v-56h-43v7.8c0,33.9-4.2,36.2-8.6,36.2c-1.2,0-2.4-0.1-3.6-0.3l-1,11.9
		C604.8,57.5,607.9,57.9,611,57.9L611,57.9z M663.4,57.1h16.3l4-10h21.6l4.1,10h16.6L702.2,0.7h-15L663.4,57.1z M688.3,35l6.3-15.9
		l6.2,15.9H688.3z M244.9,147.3H260l1.1-12.2h32.4v12.2h14.3l1.9-27h-6.9V74.2h-46.4v1.6c0,22.9-2.1,33.5-6.2,44.5h-5.4L244.9,147.3
		z M267.9,120.3c2.8-8.3,4.8-17.2,4.8-30.7V89h13.2v31.3H267.9z M316.3,135.1h16.9v-17.4h8.4c15.1,0,26.2-7.6,26.2-21.9
		c0-13.7-9.9-21.6-25.3-21.6h-26.1V135.1z M333.2,104.5V88.4h7.9c6.1,0,9.8,2.8,9.8,8c0,4.9-3.7,8.1-9.7,8.1L333.2,104.5z
		 M389.1,136c9.4,0,15.1-4.4,20.6-15.3l23.8-46.5h-18.4l-13,28.6l-13.8-28.6h-18.8l23.8,45c-1.3,1.6-3.2,2.6-5.3,2.6
		c-2.4,0-4.8-0.8-6.9-2.1l-6.6,12.2C378.9,134.6,384,136,389.1,136z M433,135.1h20l13.9-23l5.8,6.8v16.2h16.9v-16.2l5.8-6.8l13.9,23
		h20L507,99.9l21.6-25.7h-19.7l-19.2,24.7V74.2h-16.9v24.7l-19.2-24.7h-19.8l21.7,25.7L433,135.1z M534.2,135.1h29.5
		c14.3,0,23.6-7.3,23.6-19.9c0-13.1-10.3-19.6-24.4-19.6h-11.8v-7h32.1V74.2h-49L534.2,135.1z M551.1,120.9v-12.6h11.4
		c5,0,7.9,2.4,7.9,6.2c0,4.2-3,6.4-8,6.4H551.1z M590.3,135.1H608l4.3-10.9h23.5l4.5,10.9h18.1l-25.9-61.3h-16.3L590.3,135.1z
		 M617.3,111.1l6.9-17.3l6.8,17.3H617.3z M694.2,67.5c5.4-0.1,10.7,1.3,15.5,3.8c4.6,2.5,8.4,6.2,11,10.7c2.8,4.7,4.2,10.1,4.1,15.6
		c0.1,5.5-1.3,10.9-4.1,15.6c-2.6,4.5-6.4,8.2-11,10.6c-4.7,2.6-10.1,3.9-15.5,3.8c-5.4,0.1-10.8-1.3-15.6-3.8
		c-4.6-2.5-8.4-6.1-11.1-10.6c-2.8-4.7-4.2-10.1-4.1-15.6c-0.1-5.5,1.3-10.9,4.1-15.6c2.7-4.5,6.5-8.2,11.1-10.7
		C683.5,68.8,688.8,67.5,694.2,67.5L694.2,67.5z M694.2,75.9c-3.8-0.1-7.6,0.9-10.9,2.8c-3.2,1.8-5.8,4.4-7.6,7.7
		c-1.9,3.5-2.8,7.4-2.7,11.3c-0.1,4,0.8,7.9,2.7,11.4c1.8,3.2,4.4,5.8,7.6,7.6c6.8,3.6,14.9,3.6,21.7,0c3.2-1.8,5.8-4.4,7.5-7.6
		c1.9-3.5,2.9-7.4,2.8-11.4c0.1-3.9-0.9-7.8-2.8-11.3c-1.7-3.2-4.3-5.9-7.5-7.7C701.7,76.8,698,75.8,694.2,75.9L694.2,75.9z
		 M694.4,80.1c2.2,0,4.5,0.4,6.5,1.3c2.1,0.8,4,2.1,5.6,3.7l-4.9,6c-0.8-0.7-1.8-1.2-2.9-1.6c-1-0.3-2-0.5-3-0.4
		c-1.6,0-3.1,0.7-4.1,2c-1,1.3-1.6,3.5-1.6,6.5c0,5.7,1.8,8.6,5.4,8.6c2.5,0,4.9-0.9,6.9-2.5l4.4,6.5c-1.7,1.6-3.6,2.8-5.7,3.7
		c-2.1,0.9-4.3,1.3-6.6,1.3c-5,0-9-1.5-11.9-4.5s-4.3-7.3-4.3-13c0-5.3,1.5-9.5,4.4-12.7C685.7,81.6,690,79.9,694.4,80.1L694.4,80.1
		z"/>
	<path class="st1" d="M382.6,171.2v1.5c0,0.7-0.1,1.5-0.4,2.1c-0.3,0.7-0.7,1.3-1.2,1.8c-0.5,0.5-1.1,1-1.8,1.3
		c-0.7,0.3-1.4,0.4-2.1,0.4c-0.7,0-1.3-0.1-2-0.3c-0.7-0.2-1.3-0.5-1.8-1c-0.6-0.5-1-1.1-1.4-1.7c-0.4-0.9-0.5-1.8-0.5-2.8v-13.3
		c0-0.8,0.1-1.5,0.4-2.2c0.3-0.7,0.7-1.3,1.2-1.8c0.5-0.5,1.1-0.9,1.8-1.2c0.7-0.3,1.5-0.4,2.3-0.4c1.5-0.1,3,0.5,4,1.6
		c0.5,0.5,0.9,1.2,1.1,1.9c0.3,0.7,0.5,1.5,0.4,2.3v1.4h-3.5v-1.2c0-0.6-0.2-1.3-0.6-1.8c-0.4-0.5-1-0.8-1.6-0.7
		c-0.7-0.1-1.4,0.2-1.7,0.8c-0.3,0.6-0.4,1.3-0.4,2v12.4c0,0.6,0.1,1.2,0.4,1.8c0.4,0.5,1,0.8,1.7,0.7c0.2,0,0.5,0,0.7-0.1
		c0.3-0.1,0.5-0.2,0.8-0.4c0.2-0.2,0.4-0.5,0.5-0.8c0.1-0.4,0.2-0.8,0.2-1.2v-1.2H382.6z M385.4,178.1v-24.2h11.1v24.2H393V157h-4.1
		v21.1H385.4z M406.8,169.6l-1.7-8.8H405l-1.7,8.8H406.8z M398.2,178.1l5.4-24.2h2.9l5.4,24.2h-3.5l-1-5.2h-4.7l-1,5.2H398.2z
		 M413.6,178.1v-24.2h5.2c0.9,0,1.7,0.1,2.5,0.4c0.8,0.3,1.5,0.7,2,1.3c0.6,0.6,1,1.4,1.2,2.2c0.3,1.1,0.4,2.3,0.3,3.4
		c0,0.9-0.1,1.8-0.2,2.8c-0.1,0.8-0.4,1.5-0.8,2.1c-0.5,0.8-1.1,1.4-1.9,1.9c-1,0.5-2,0.7-3.1,0.6h-1.8v9.5H413.6z M417.1,157.2v8.2
		h1.7c0.6,0,1.1-0.1,1.6-0.3c0.4-0.2,0.7-0.5,0.9-0.9c0.2-0.4,0.3-0.8,0.3-1.3c0-0.5,0.1-1,0.1-1.7s0-1.1,0-1.6
		c0-0.5-0.1-0.9-0.3-1.4c-0.2-0.4-0.5-0.7-0.8-0.9c-0.5-0.2-1-0.3-1.6-0.3H417.1z M429.7,178.1v-20.9h-4v-3.3h11.5v3.3h-4v20.9
		H429.7z M444.2,169.6l-1.7-8.8h-0.1l-1.7,8.8H444.2z M435.6,178.1l5.4-24.2h2.9l5.4,24.2h-3.5l-1-5.2h-4.7l-1,5.2H435.6z
		 M463.2,157.2c-0.3,0-0.5,0-0.8,0.1c-0.2,0.1-0.4,0.2-0.6,0.4c-0.2,0.2-0.3,0.5-0.4,0.8c-0.1,0.3-0.1,0.6-0.2,1l-0.3,2.8
		c0,0.3-0.1,0.6-0.1,0.8s-0.1,0.5-0.1,0.7c0,0.2-0.1,0.4-0.2,0.6c-0.1,0.3-0.3,0.6-0.5,0.9c-0.2,0.2-0.3,0.4-0.5,0.5l3.6,12.3h-3.5
		l-3.1-10.8h-1.9v10.8h-3.5v-24.2h3.5v10.4h1.2c0.3,0,0.7,0,1-0.2c0.2-0.1,0.5-0.3,0.6-0.5c0.2-0.2,0.3-0.4,0.3-0.7
		c0.1-0.3,0.1-0.6,0.2-0.9l0.3-2.9c0-0.2,0.1-0.4,0.1-0.5c0-0.3,0.1-0.6,0.2-1c0.1-0.4,0.2-0.8,0.4-1.1c0.2-0.4,0.4-0.8,0.6-1.1
		c0.4-0.5,0.9-0.9,1.6-1.1c0.7-0.3,1.5-0.4,2.2-0.4L463.2,157.2z M473.2,178.1v-15.7h-0.1l-4.6,15.7h-3.5v-24.2h3.5v15.7h0.1
		l4.5-15.7h3.5v24.2H473.2z M487,169.6l-1.7-8.8h-0.1l-1.7,8.8H487z M478.4,178.1l5.4-24.2h2.9l5.4,24.2h-3.5l-1-5.2h-4.7l-1,5.2
		H478.4z M495.6,178.1v3.7h-3v-6.8h1.8c0.2-0.5,0.4-1,0.6-1.5c0.2-0.6,0.3-1.2,0.5-1.8c0.1-0.6,0.3-1.2,0.4-1.9
		c0.1-0.6,0.2-1.3,0.3-1.9c0.1-0.6,0.1-1,0.1-1.6s0.1-1.2,0.1-1.8c0-0.6,0-1.3,0-1.9c0-0.6,0-1.2,0-1.8v-7.1h10v21.1h2v6.8h-3v-3.7
		H495.6z M499.6,157v4c0,0.3,0,0.8,0,1.4c0,0.6,0,1.2-0.1,1.9c-0.1,0.7-0.1,1.4-0.1,2.1s-0.1,1.3-0.2,1.9c-0.1,0.5-0.1,1-0.2,1.6
		s-0.2,1.1-0.3,1.8c-0.1,0.6-0.3,1.2-0.4,1.8c-0.1,0.5-0.3,1.1-0.5,1.6h5.2V157H499.6z M517.3,169.6l-1.7-8.8h-0.1l-1.7,8.8H517.3z
		 M508.8,178.1l5.4-24.2h2.9l5.4,24.2H519l-1-5.2h-4.7l-1,5.2H508.8z M528.8,178.1l4.9-12.7l-4.5-11.5h3.7l2.6,7.2l2.7-7.2h3.7
		l-4.6,11.5l5,12.7h-3.7l-3-8.2l-3,8.2H528.8z M551.8,178.1v-15.7h-0.1l-4.5,15.7h-3.5v-24.2h3.5v15.7h0.1l4.5-15.7h3.5v24.2H551.8z
		 M558.5,178.1v-24.2h11v24.2H566V157h-4v21.1H558.5z M572.8,178.1v-24.2h11v24.2h-3.4V157h-4.1v21.1H572.8z M595.2,178.1v-15.7
		h-0.1l-4.5,15.7h-3.5v-24.2h3.5v15.7h0.1l4.5-15.7h3.5v24.2H595.2z"/>
	<path class="st1" d="M197.6,1.7v19.2h-40.4v38.4c2.1-2,4.5-3.6,7.2-4.6c3.1-1.4,6.4-2,9.8-2c6.9,0,12.5,2.1,16.8,6.4
		c4.4,4.1,6.6,10.4,6.6,18.8v36.8c0.1,4.4-0.8,8.8-2.6,12.8c-1.5,3.6-3.8,6.9-6.6,9.6c-2.8,2.7-6.2,4.8-9.8,6.2
		c-3.7,1.3-7.5,2-11.4,2c-4,0-7.9-0.7-11.6-2c-3.6-1.4-6.8-3.5-9.6-6.2c-2.9-2.7-5.2-6-6.8-9.6c-1.7-4.1-2.5-8.4-2.4-12.8v-6h20.4
		v5.2c0,3.5,0.9,6.2,2.8,8.2c2.1,1.9,4.8,2.9,7.6,2.8c3.1,0,5.4-0.9,7-2.8s2.6-4.5,2.6-7.8V80.9c0-2.7-1-5.3-2.8-7.2
		c-1.7-2-4.2-3.1-6.8-3c-1.5-0.1-3,0.3-4.4,1c-1.1,0.5-2.1,1.2-3,2c-0.8,0.7-1.4,1.6-1.8,2.6c-0.7,1.2-1.1,1.9-1.2,2.2h-18V1.7
		H197.6z"/>
	<path class="st1" d="M34.2,123.8v4.4c0,2.2-0.4,4.3-1.3,6.3c-0.8,1.9-2,3.7-3.4,5.2c-1.5,1.5-3.3,2.8-5.2,3.7
		c-2,0.9-4.1,1.3-6.3,1.3c-2,0-4-0.3-5.9-0.8c-2-0.5-3.8-1.5-5.4-2.8c-1.7-1.4-3-3.1-4-5.1c-1.1-2.6-1.6-5.3-1.5-8.1V88.7
		c0-2.2,0.4-4.4,1.2-6.5c1.5-3.9,4.7-7.1,8.6-8.6c2.2-0.9,4.5-1.3,6.8-1.3c4.4-0.2,8.6,1.5,11.7,4.7c1.5,1.6,2.7,3.5,3.4,5.5
		c0.9,2.2,1.3,4.5,1.3,6.8v4H24v-3.4c0-1.9-0.6-3.7-1.7-5.2c-1.1-1.4-2.8-2.3-4.6-2.2c-2.5,0-4.2,0.8-5.1,2.4
		c-0.9,1.8-1.3,3.9-1.2,5.9v36.4c-0.1,1.8,0.4,3.6,1.3,5.2c0.9,1.4,2.6,2.1,4.9,2.1c0.7,0,1.4-0.1,2.1-0.3c0.8-0.3,1.5-0.7,2.2-1.2
		c0.7-0.6,1.2-1.4,1.5-2.2c0.4-1.1,0.6-2.3,0.6-3.5v-3.5L34.2,123.8z M42.5,144.1V72.9h30.4v9.6H52.7v20.9h17.6v9.6H52.7v20.9h20.2
		v10.2H42.5z M79.5,144.1V72.9h10.2v30.5h12.6V72.9h10.2v71.2h-10.2v-31.7H89.7v31.7H79.5z M121.5,144.1v-10.2h10.2v10.2H121.5z"/>
	<path class="st1" d="M8.1,63.1V19.6L0.8,25v-7.8l7.4-5.4h7.3v51.3H8.1z M31,63.1V19.6L23.6,25v-7.8l7.4-5.4h7.3v51.3H31z
		 M47.8,42.4h9.1v9h-9.1V42.4z M47.8,21h9.1v9.2h-9.1V21z M66.3,22.4c0-1.6,0.3-3.1,0.9-4.6c0.6-1.3,1.4-2.5,2.4-3.4
		c1-1,2.2-1.7,3.5-2.2c1.3-0.5,2.7-0.8,4.2-0.8c1.4,0,2.8,0.3,4.1,0.8c1.3,0.5,2.5,1.2,3.5,2.2c1,1,1.8,2.2,2.4,3.4
		c0.6,1.5,1,3,0.9,4.6v30.1c0,1.6-0.3,3.2-0.9,4.6c-0.5,1.3-1.4,2.5-2.4,3.5c-1,1-2.2,1.7-3.5,2.2c-1.3,0.5-2.7,0.7-4.1,0.7
		c-1.4,0-2.8-0.2-4.2-0.7c-1.3-0.5-2.5-1.3-3.5-2.2c-1-1-1.9-2.2-2.4-3.5c-0.6-1.5-0.9-3-0.9-4.6V22.4z M73.6,52.5
		c0,1,0.3,1.9,1,2.7c1.5,1.3,3.7,1.3,5.2,0c0.7-0.7,1-1.7,1-2.7V22.4c0-1-0.3-1.9-1-2.6c-1.4-1.4-3.7-1.4-5.2,0c0,0,0,0,0,0
		c-0.7,0.7-1,1.6-1,2.6V52.5z M93.1,22.4c0-1.6,0.3-3.2,0.9-4.6c0.6-1.3,1.4-2.5,2.4-3.4c1-1,2.2-1.7,3.5-2.2
		c1.3-0.5,2.7-0.8,4.2-0.8c1.4,0,2.8,0.3,4.1,0.8c1.3,0.5,2.5,1.2,3.5,2.2c1,1,1.8,2.2,2.4,3.4c0.6,1.5,1,3,0.9,4.6v30.1
		c0,1.6-0.3,3.2-0.9,4.6c-0.5,1.3-1.4,2.5-2.4,3.5c-1,1-2.2,1.7-3.5,2.2c-1.3,0.5-2.7,0.7-4.1,0.7c-1.4,0-2.8-0.2-4.2-0.7
		c-1.3-0.5-2.5-1.3-3.5-2.2c-1-1-1.9-2.2-2.4-3.5c-0.6-1.5-0.9-3-0.9-4.6L93.1,22.4z M100.4,52.5c0,1,0.3,1.9,1,2.7
		c1.5,1.3,3.7,1.3,5.2,0c0.7-0.7,1-1.7,1-2.7V22.4c0-1-0.3-1.9-1-2.6c-1.4-1.4-3.7-1.4-5.2,0c0,0,0,0,0,0c-0.7,0.7-1,1.6-1,2.6V52.5
		z"/>
	<path class="st1" d="M23.8,193.5v3.2c0,1.6-0.3,3.1-0.9,4.5c-0.6,1.4-1.4,2.7-2.4,3.7c-1.1,1.1-2.3,2-3.8,2.7
		c-1.4,0.6-3,0.9-4.5,0.9c-1.4,0-2.9-0.2-4.2-0.6c-1.4-0.4-2.8-1.1-3.9-2c-1.2-1-2.2-2.3-2.9-3.7c-0.8-1.8-1.2-3.8-1.1-5.9v-28.2
		c0-1.6,0.3-3.2,0.9-4.7c1.1-2.8,3.4-5.1,6.2-6.2c1.6-0.6,3.2-1,4.9-0.9c3.2-0.1,6.2,1.1,8.4,3.4c1.1,1.1,1.9,2.5,2.4,4
		c0.6,1.5,1,3.2,0.9,4.9v2.9h-7.4v-2.5c0-1.4-0.4-2.7-1.2-3.8c-0.8-1-2-1.6-3.3-1.6c-1.8,0-3.1,0.6-3.7,1.7
		c-0.6,1.3-0.9,2.8-0.9,4.2V196c0,1.3,0.3,2.6,0.9,3.8c0.8,1.1,2.2,1.7,3.5,1.5c0.5,0,1-0.1,1.5-0.2c0.6-0.2,1.1-0.5,1.6-0.9
		c0.5-0.4,0.9-1,1.1-1.6c0.3-0.8,0.5-1.7,0.4-2.5v-2.5H23.8z M29.9,201.2c0.8,0,1.5-0.1,2.3-0.2c0.7-0.1,1.4-0.4,2-0.9
		c0.5-0.5,0.9-1.1,1.2-1.8c0.6-1.1,1-2.4,1.3-3.6l0.7-2.8l-11.1-35h7.8L41,181h0.2l5.4-24.1h7.8l-10.7,38.9
		c-0.6,2.1-1.3,4.2-2.2,6.3c-0.7,1.7-1.8,3.2-3.2,4.4c-1,0.9-2.3,1.5-3.7,1.7c-1.4,0.3-2.8,0.4-4.2,0.4h-1v-7.3L29.9,201.2z
		 M58.2,156.9h21v6.9H65.6v14.1h2.9c2.2-0.1,4.3,0.3,6.3,1c1.6,0.6,3.1,1.6,4.2,2.9c1,1.2,1.8,2.7,2.1,4.4c0.3,1.7,0.5,3.4,0.5,5.1
		v2.9c0,4.5-1.1,8-3.3,10.4c-2.2,2.4-5.6,3.6-10.4,3.6h-9.6V156.9z M65.6,184.4v16.4h2.7c1.2,0.1,2.4-0.2,3.5-0.6
		c0.8-0.4,1.5-1,1.9-1.8c0.5-0.8,0.7-1.8,0.8-2.7c0.1-1.1,0.1-2.2,0.1-3.5c0-1.1-0.1-2.3-0.3-3.4c-0.1-0.9-0.4-1.7-0.9-2.5
		c-0.5-0.6-1.1-1.1-1.9-1.4c-1-0.4-2.1-0.5-3.2-0.5H65.6z M87.3,156.9h21v6.9H94.7v14.1h2.9c2.2-0.1,4.3,0.3,6.3,1
		c1.6,0.6,3,1.6,4.2,2.9c1.1,1.3,1.8,2.8,2.1,4.4c0.3,1.7,0.5,3.4,0.5,5.1v2.9c0,4.5-1.1,8-3.3,10.4c-2.2,2.4-5.7,3.6-10.4,3.6h-9.6
		V156.9z M94.7,184.4v16.4h2.7c1.2,0.1,2.4-0.2,3.4-0.6c0.8-0.4,1.5-1,1.9-1.8c0.5-0.8,0.7-1.8,0.8-2.7c0.1-1.1,0.1-2.2,0.1-3.5
		c0-1.1-0.1-2.3-0.3-3.4c-0.1-0.9-0.4-1.7-0.9-2.5c-0.5-0.6-1.1-1.1-1.9-1.4c-1-0.4-2.1-0.5-3.2-0.5H94.7z M116,169
		c0-1.9,0.3-3.7,1.1-5.5c0.7-1.5,1.6-2.9,2.9-4c1.1-1,2.5-1.8,3.9-2.3c1.4-0.5,2.9-0.8,4.5-0.8c3.1,0,6,1.1,8.4,3.1
		c1.2,1.1,2.2,2.5,2.8,4c0.7,1.7,1.1,3.6,1.1,5.5V196c0.1,1.9-0.3,3.8-1.1,5.6c-0.7,1.5-1.6,2.8-2.8,3.8c-1.2,1-2.5,1.9-4,2.4
		c-1.4,0.5-2.9,0.8-4.4,0.8c-1.5,0-3-0.3-4.5-0.8c-1.4-0.5-2.8-1.3-3.9-2.4c-1.2-1-2.2-2.3-2.9-3.8c-0.8-1.7-1.2-3.6-1.1-5.6V169z
		 M123.3,196c-0.1,1.5,0.4,2.9,1.4,4c1,0.8,2.2,1.3,3.5,1.2c1.3,0,2.5-0.4,3.4-1.2c1.1-1,1.7-2.5,1.5-4V169c0.1-1.5-0.4-2.9-1.5-3.9
		c-0.9-0.9-2.2-1.3-3.4-1.3c-1.3,0-2.6,0.4-3.5,1.3c-1,1-1.6,2.4-1.4,3.9V196z M151.2,208.1v-44.4h-8.5v-6.9h24.3v6.9h-8.5v44.4
		H151.2z M181.9,190.2l-3.6-18.6h-0.1l-3.6,18.6H181.9z M163.8,208.1l11.4-51.3h6.1l11.5,51.3h-7.4l-2.2-11h-10l-2.2,11H163.8z"/>
	<path class="st2" d="M363,166.1H245"/>
	<path class="st3" d="M724,166.1H606"/>
	<path class="st1" d="M244.2,208.1h4.8v-9.7h3.9v-3.8h-12.6v3.8h4L244.2,208.1z M261.1,208.4c2.3,0.1,4.5-0.9,5.9-2.8l-2.6-2.2
		c-0.8,0.9-1.9,1.4-3,1.4c-1.4,0.1-2.6-0.9-2.9-2.2h9c0-0.3,0-0.7,0-1c0-4-2.1-7.4-6.8-7.4c-3.7,0-6.8,3-6.8,6.7c0,0.1,0,0.2,0,0.3
		C253.9,205.6,256.9,208.4,261.1,208.4z M258.4,200.2c0.2-1.5,1.1-2.4,2.4-2.4s2.2,0.9,2.4,2.4H258.4z M270.6,208.3
		c2.9,0,5.1-1.4,5.1-9.6v-0.4h2.5v9.8h4.8v-13.5h-11.7v2.6c0,7-0.9,7.3-1.8,7.3c-0.3,0-0.5,0-0.8-0.1l-0.2,3.7
		C269.2,208.2,269.9,208.3,270.6,208.3L270.6,208.3z M285.3,208.1h5v-4.9h-5V208.1z M298.5,210.9h4.2l0.2-2.8h7.1v2.8h4l0.5-6.6H313
		v-9.7h-12v0.6c0,4.7-0.4,6.8-1.2,9.1h-1.3V210.9z M304.6,204.3c0.6-1.8,0.9-3.8,0.9-5.7v-0.2h2.8v5.9H304.6z M316.9,208.3
		c2.9,0,5.1-1.4,5.1-9.6v-0.4h2.5v9.8h4.8v-13.5h-11.7v2.6c0,7-0.9,7.3-1.8,7.3c-0.3,0-0.5,0-0.8-0.1l-0.2,3.7
		C315.5,208.2,316.2,208.3,316.9,208.3L316.9,208.3z M330.9,208.1h5.4l2.6-3.9h1.1v3.9h4.8v-13.5h-7.6c-1.6-0.1-3.2,0.4-4.4,1.5
		c-0.9,0.8-1.3,2-1.2,3.2c-0.1,1.8,0.9,3.4,2.5,4.1L330.9,208.1z M338.1,200.9c-1.1,0-1.8-0.5-1.8-1.4s0.6-1.4,1.8-1.4h1.9v2.8
		H338.1z M367.7,208.4c2.4,0.1,4.7-1.1,6-3.1l-3.2-2.3c-0.6,0.9-1.5,1.4-2.5,1.4c-1.7-0.2-2.9-1.8-2.7-3.4c0.2-1.4,1.3-2.5,2.7-2.7
		c1,0,1.9,0.5,2.5,1.3l3.2-2.3c-1.2-2-3.4-3.1-5.8-3c-3.9,0-7.1,3.1-7.1,7C360.6,205.2,363.7,208.4,367.7,208.4L367.7,208.4z
		 M375.4,208.1h4.8v-9.7h3.7v9.7h4.8v-13.5h-13.2V208.1z M391.1,212.1h4.8v-5.6c1,1.3,2.5,2,4.1,2c3.2,0,6-2.7,6-7.1s-2.8-7-6-7
		c-1.6,0-3.2,0.8-4.1,2.1v-1.8h-4.8L391.1,212.1z M398.5,204.4c-1.7,0.2-3.2-1.1-3.4-2.8s1.1-3.2,2.8-3.4c1.7-0.2,3.2,1.1,3.4,2.8
		c0,0.1,0,0.2,0,0.3c0.1,1.6-1,3-2.6,3.1C398.7,204.4,398.6,204.4,398.5,204.4L398.5,204.4z M411.9,208.4c1.5,0.1,3-0.6,4-1.7v1.4
		h4.7v-7.8c0.1-1.6-0.4-3.1-1.5-4.3c-1.1-1.1-2.7-1.7-5.1-1.7c-1.9,0-3.7,0.3-5.5,1l1,3.4c1.2-0.5,2.4-0.8,3.7-0.8
		c1.8,0,2.7,0.8,2.7,2.2v0.2c-1-0.4-2.1-0.5-3.2-0.5c-3.2,0-5.3,1.5-5.3,4.2C407.4,206.9,409.3,208.4,411.9,208.4L411.9,208.4z
		 M413.6,205.4c-0.8,0.1-1.6-0.5-1.7-1.3c0-0.1,0-0.1,0-0.2c0-1,0.8-1.7,2.2-1.7c0.6,0,1.3,0.1,1.9,0.4v0.6c0,1.2-0.9,2.2-2.1,2.2
		C413.8,205.4,413.7,205.4,413.6,205.4L413.6,205.4z M423,208.1h8c3.2,0,5.1-1.4,5.1-3.7c0.1-1.6-1-3-2.6-3.3c1.3-0.4,2.1-1.7,2.1-3
		c0-0.8-0.3-1.6-0.9-2.2c-1-0.9-2.4-1.3-3.7-1.2h-8L423,208.1z M427.6,205v-2.5h1.9c1.2,0,1.8,0.6,1.8,1.2c0,0.7-0.6,1.3-1.8,1.3
		H427.6z M427.6,200v-2.4h1.7c1,0,1.6,0.5,1.6,1.1c0,0.7-0.6,1.2-1.7,1.2H427.6z M445.1,208.4c3.9-0.2,6.9-3.5,6.7-7.4
		c-0.2-3.9-3.5-6.9-7.4-6.7c-3.8,0.2-6.7,3.3-6.7,7.1c0.1,4,3.3,7.1,7.3,7.1C445,208.4,445.1,208.4,445.1,208.4L445.1,208.4z
		 M445.2,204.4c-1.6,0-2.9-1.4-2.9-3c0,0,0,0,0-0.1c-0.1-1.6,1.1-2.9,2.6-3c0.1,0,0.1,0,0.2,0c1.6,0,2.9,1.4,2.9,3c0,0,0,0,0,0.1
		c0.1,1.6-1.1,2.9-2.7,3C445.3,204.4,445.2,204.4,445.2,204.4L445.2,204.4z M454.6,208.1h4.8v-2.7l1.4-1.6l2.6,4.3h5.2l-4.8-8
		l4.6-5.5h-5.4l-3.7,5v-5h-4.8V208.1z M469.6,208.1h5v-4.9h-5V208.1z M469.6,199.5h5v-4.9h-5V199.5z M488.5,205.7h4.4v-4.3h4.2v-4.2
		h-4.2v-4.3h-4.4v4.3h-4.2v4.2h4.2L488.5,205.7z M500.3,208.1h5.4l7.7-13.9v-3.7h-13.5v4.1h8.1L500.3,208.1z M529.4,211.7l2-3
		c-3.2-2.2-4.6-4.5-4.6-7.8s1.4-5.5,4.6-7.8l-2-3c-4.7,2.5-7.3,5.6-7.3,10.7C522.1,206,524.7,209.2,529.4,211.7L529.4,211.7z
		 M539.6,208.5c5.2,0,8.1-3.9,8.1-9.6c0-3.3-0.8-5.3-2.1-6.5c-1.4-1.4-3.4-2.2-5.4-2c-4,0-7,2.5-7,6.4c0,3.5,2.5,5.6,5.9,5.6
		c1.4,0,2.7-0.5,3.7-1.4c-0.2,2.2-1.3,3.6-3.3,3.6c-1.4,0-2.7-0.5-3.8-1.4l-2.3,3.3C535.2,207.8,537.3,208.5,539.6,208.5
		L539.6,208.5z M540.4,198.8c-1.3,0.1-2.4-0.9-2.5-2.2c-0.1-1.3,0.9-2.4,2.2-2.5c0.1,0,0.2,0,0.3,0c1.3-0.1,2.4,0.9,2.5,2.2
		c0,0.1,0,0.1,0,0.2c0,1.2-1,2.3-2.2,2.3C540.6,198.8,540.5,198.8,540.4,198.8L540.4,198.8z M556.2,208.5c3.9,0,6.8-2.3,6.8-5.8
		c0-3-2-4.4-4.5-5l4.2-3.6v-3.5h-12.7v3.9h6.7l-4,3.6l0.7,2.5h2c1.8,0,2.8,0.7,2.8,1.8s-0.9,1.8-2.2,1.8c-1.6,0-3.1-0.8-4.2-2l-3,3
		C550.7,207.4,553.4,208.6,556.2,208.5L556.2,208.5z M564.9,208.1h5.3l7.7-13.9v-3.7h-13.5v4.1h8.1L564.9,208.1z M581.4,211.7
		c4.7-2.5,7.3-5.6,7.3-10.7c0-5.1-2.6-8.2-7.3-10.7l-2,2.9c3.2,2.2,4.6,4.5,4.6,7.8c0,3.3-1.4,5.5-4.6,7.8L581.4,211.7z
		 M604.6,208.4c4.2,0,7.2-2,7.2-5.1c0-2.2-1.2-3.4-3-4.2c1.5-0.7,2.4-2.2,2.4-3.8c0-2.9-2.7-4.9-6.6-4.9s-6.6,2.1-6.6,4.9
		c0,1.6,0.9,3.2,2.4,3.9c-1.8,0.6-3,2.3-3,4.2C597.4,206.4,600.4,208.4,604.6,208.4L604.6,208.4z M604.6,204.8c-1.6,0-2.5-0.9-2.5-2
		s1-2,2.5-2s2.5,0.8,2.5,1.9C607.1,203.9,606.2,204.8,604.6,204.8L604.6,204.8z M604.6,197.7c-1-0.1-1.8-1.1-1.7-2.1
		c0.1-1,1.1-1.8,2.1-1.7c0.9,0.1,1.6,0.9,1.7,1.8C606.7,196.9,605.8,197.8,604.6,197.7C604.7,197.7,604.6,197.7,604.6,197.7
		L604.6,197.7z M622.1,208.1h4.7v-3.4h2.2v-3.6h-2.2v-10.6h-4.9l-9.1,10.8l0.8,3.4h8.5L622.1,208.1z M617.9,201.1l4.2-5v5H617.9z
		 M630.5,208.1h5.3l7.7-13.9v-3.6h-13.5v4.1h8.1L630.5,208.1z M644.5,202.4h8.2v-4.2h-8.2V202.4z M662.2,208.5c3.8,0,7-2.4,7-6.3
		c0-3.6-2.7-5.5-5.8-5.5c-1.4,0-2.7,0.5-3.8,1.4c0.2-2.2,1.2-3.7,3.3-3.7c1.3,0,2.5,0.5,3.5,1.3l2.3-3.4c-1.7-1.3-3.7-2-5.8-1.9
		c-5.5,0-8.1,4.1-8.1,9.6c0,3.3,0.8,5.3,2.2,6.6C658.3,207.9,660.3,208.6,662.2,208.5L662.2,208.5z M662,204.7
		c-1.2,0.1-2.4-0.8-2.5-2.1c0-0.1,0-0.1,0-0.2c-0.1-1.2,0.9-2.3,2.1-2.3c0.1,0,0.2,0,0.3,0c1.2-0.1,2.4,0.8,2.5,2.1
		c0,0.1,0,0.1,0,0.2c0.1,1.2-0.9,2.3-2.1,2.3C662.3,204.7,662.2,204.7,662,204.7L662,204.7z M677.8,208.5c4.2,0,7.2-2.3,7.2-6.2
		s-2.8-5.6-6-5.6c-1,0-1.9,0.2-2.8,0.6l0.2-2.6h7.9v-4h-11.7l-0.5,8.9l2.9,1.6c0.8-0.6,1.8-0.9,2.8-0.9c1.5,0,2.6,0.8,2.6,2
		s-1,2.1-2.6,2.1c-1.6-0.1-3.1-0.8-4.2-1.9l-2.8,3.2C672.7,207.5,675.2,208.5,677.8,208.5L677.8,208.5z M687,202.4h8.2v-4.2H687
		L687,202.4z M703.9,208.5c3.9,0,6.8-2.3,6.8-5.8c0-3-2-4.4-4.5-5l4.2-3.6v-3.5h-12.6v3.9h6.7l-4,3.6l0.7,2.5h2
		c1.8,0,2.8,0.7,2.8,1.8s-0.9,1.8-2.2,1.8c-1.6,0-3.1-0.8-4.2-2l-3,3C698.4,207.4,701.1,208.6,703.9,208.5L703.9,208.5z M720,208.5
		c3.8,0,7-2.4,7-6.3c0-3.6-2.7-5.5-5.8-5.5c-1.4,0-2.7,0.5-3.8,1.4c0.2-2.2,1.2-3.7,3.3-3.7c1.3,0,2.5,0.5,3.5,1.3l2.3-3.4
		c-1.7-1.3-3.7-2-5.8-1.9c-5.5,0-8.1,4.1-8.1,9.6c0,3.3,0.8,5.3,2.2,6.6C716.1,207.9,718.1,208.6,720,208.5L720,208.5z M719.8,204.7
		c-1.3,0.1-2.4-0.8-2.5-2.1c0-0.1,0-0.1,0-0.2c0-1.2,0.9-2.3,2.2-2.3c0.1,0,0.2,0,0.3,0c1.2-0.1,2.4,0.8,2.5,2.1c0,0.1,0,0.1,0,0.2
		c0,1.2-0.9,2.3-2.1,2.3C720,204.7,719.9,204.7,719.8,204.7L719.8,204.7z"/>
	<path class="st4" d="M187.5,3.1l2.4,5.1l5.6,0.7l-4.1,3.9l1,5.6l-5-2.7l-5,2.7l1-5.6L179.3,9l5.7-0.7L187.5,3.1z"/>
	<path class="st4" d="M168.5,3.1l2.4,5.1l5.6,0.7l-4.1,3.9l1,5.6l-5-2.7l-5,2.7l1-5.6L160.3,9l5.7-0.7L168.5,3.1z"/>
	<path class="st4" d="M148.5,3.1l2.4,5.1l5.6,0.7l-4.1,3.9l1,5.6l-5-2.7l-5,2.7l1-5.6L140.3,9l5.7-0.7L148.5,3.1z"/>
	<path class="st4" d="M148.5,21.1l2.4,5.1l5.6,0.7l-4.1,3.9l1,5.6l-5-2.7l-5,2.7l1-5.6l-4.1-3.9l5.6-0.7L148.5,21.1z"/>
	<path class="st4" d="M148.5,41.1l2.4,5.1l5.6,0.7l-4.1,3.9l1,5.6l-5-2.7l-5,2.7l1-5.6l-4.1-3.9l5.6-0.7L148.5,41.1z"/>
	<path class="st4" d="M148.5,60.1l2.4,5.1l5.6,0.7l-4.1,3.9l1,5.6l-5-2.7l-5,2.7l1-5.6l-4.1-3.9l5.6-0.7L148.5,60.1z"/>
	<path class="st4" d="M168.5,54.1l2.4,5.1l5.6,0.7l-4.1,3.9l1,5.6l-5-2.7l-5,2.7l1-5.6l-4.1-3.9l5.6-0.7L168.5,54.1z"/>
	<path class="st4" d="M186.5,61.1l2.4,5.1l5.6,0.7l-4.1,3.9l1,5.6l-5-2.7l-5,2.7l1-5.6l-4.1-3.9l5.6-0.7L186.5,61.1z"/>
	<path class="st4" d="M187.5,79.1l2.4,5.1l5.6,0.7l-4.1,3.9l1,5.6l-5-2.7l-5,2.7l1-5.6l-4.1-3.9l5.6-0.7L187.5,79.1z"/>
	<path class="st4" d="M186.5,99.1l2.4,5.1l5.6,0.7l-4.1,3.9l1,5.6l-5-2.7l-5,2.7l1-5.6l-4.1-3.9l5.6-0.7L186.5,99.1z"/>
	<path class="st4" d="M185.5,118.1l2.4,5.1l5.6,0.7l-4.1,3.9l1,5.6l-5-2.7l-5,2.7l1-5.6l-4.1-3.9l5.6-0.7L185.5,118.1z"/>
	<path class="st4" d="M171.5,127.1l2.4,5.1l5.6,0.7l-4.1,3.9l1,5.6l-5-2.7l-5,2.7l1-5.6l-4.1-3.9l5.6-0.7L171.5,127.1z"/>
	<path class="st4" d="M154.5,124.1l2.4,5.1l5.6,0.7l-4.1,3.9l1,5.6l-5-2.7l-5,2.7l1-5.6l-4.1-3.9l5.6-0.7L154.5,124.1z"/>
	<path class="st4" d="M147.5,109.1l2.4,5.1l5.6,0.7l-4.1,3.9l1,5.6l-5-2.7l-5,2.7l1-5.6l-4.1-3.9l5.6-0.7L147.5,109.1z"/>
	<path class="st4" d="M187.5,79.1l2.4,5.1l5.6,0.7l-4.1,3.9l1,5.6l-5-2.7l-5,2.7l1-5.6l-4.1-3.9l5.6-0.7L187.5,79.1z"/>
</g>
<g id="Слой_2">
	<path class="st5" d="M248.9,57.1h15.5V14.7h19.1v42.4h15.5v-56h-50.2V57.1z M337.2,58.2c17.3,0,30.2-13,30.2-29.1
		c0-16.2-12.8-29.1-30.1-29.1s-30.2,13-30.2,29.1C307.1,45.4,319.9,58.2,337.2,58.2z M337.3,44.2c-8.5,0-14.3-7-14.3-15.1
		c0-8.2,5.7-15.1,14.2-15.1s14.4,7,14.4,15.1C351.6,37.4,345.9,44.2,337.3,44.2L337.3,44.2z M375.5,57.1h27.1
		c13.2,0,21.7-6.7,21.7-18.3c0-12.1-9.5-18-22.5-18H391v-6.5h29.5V1.1h-45L375.5,57.1z M391,44.1V32.5h10.5c4.6,0,7.3,2.2,7.3,5.7
		c0,3.8-2.7,5.9-7.4,5.9L391,44.1z M431.5,57.1H477V43.9h-30.1V35h26.9V22.8h-26.9v-8.5h29.7V1.1h-45L431.5,57.1z M480.7,68.3h13.9
		l1-11.2h29.8v11.2h13.1l1.8-24.8H534V1.1h-42.6v1.4c0,21-1.9,30.8-5.7,41h-5L480.7,68.3z M501.9,43.5c3.1-9.1,4.6-18.6,4.4-28.2
		v-0.6h12.2v28.8L501.9,43.5z M546.4,57.1h14.5l21.7-31.5v31.5H598v-56h-14.5l-21.7,31.5V1.1h-15.4V57.1z M611,57.9
		c10.9,0,18.4-6.9,18.4-41v-2.2h13v42.4H658v-56h-43v7.8c0,33.9-4.2,36.2-8.6,36.2c-1.2,0-2.4-0.1-3.6-0.3l-1,11.9
		C604.8,57.5,607.9,57.9,611,57.9L611,57.9z M663.4,57.1h16.3l4-10h21.6l4.1,10h16.6L702.2,0.7h-15L663.4,57.1z M688.3,35l6.3-15.9
		l6.2,15.9H688.3z M244.9,147.3H260l1.1-12.2h32.4v12.2h14.3l1.9-27h-6.9V74.2h-46.4v1.6c0,22.9-2.1,33.5-6.2,44.5h-5.4L244.9,147.3
		z M267.9,120.3c2.8-8.3,4.8-17.2,4.8-30.7V89h13.2v31.3H267.9z M316.3,135.1h16.9v-17.4h8.4c15.1,0,26.2-7.6,26.2-21.9
		c0-13.7-9.9-21.6-25.3-21.6h-26.1V135.1z M333.2,104.5V88.4h7.9c6.1,0,9.8,2.8,9.8,8c0,4.9-3.7,8.1-9.7,8.1L333.2,104.5z
		 M389.1,136c9.4,0,15.1-4.4,20.6-15.3l23.8-46.5h-18.4l-13,28.6l-13.8-28.6h-18.8l23.8,45c-1.3,1.6-3.2,2.6-5.3,2.6
		c-2.4,0-4.8-0.8-6.9-2.1l-6.6,12.2C378.9,134.6,384,136,389.1,136z M433,135.1h20l13.9-23l5.8,6.8v16.2h16.9v-16.2l5.8-6.8l13.9,23
		h20L507,99.9l21.6-25.7h-19.7l-19.2,24.7V74.2h-16.9v24.7l-19.2-24.7h-19.8l21.7,25.7L433,135.1z M534.2,135.1h29.5
		c14.3,0,23.6-7.3,23.6-19.9c0-13.1-10.3-19.6-24.4-19.6h-11.8v-7h32.1V74.2h-49L534.2,135.1z M551.1,120.9v-12.6h11.4
		c5,0,7.9,2.4,7.9,6.2c0,4.2-3,6.4-8,6.4H551.1z M590.3,135.1H608l4.3-10.9h23.5l4.5,10.9h18.1l-25.9-61.3h-16.3L590.3,135.1z
		 M617.3,111.1l6.9-17.3l6.8,17.3H617.3z M694.2,67.5c5.4-0.1,10.7,1.3,15.5,3.8c4.6,2.5,8.4,6.2,11,10.7c2.8,4.7,4.2,10.1,4.1,15.6
		c0.1,5.5-1.3,10.9-4.1,15.6c-2.6,4.5-6.4,8.2-11,10.6c-4.7,2.6-10.1,3.9-15.5,3.8c-5.4,0.1-10.8-1.3-15.6-3.8
		c-4.6-2.5-8.4-6.1-11.1-10.6c-2.8-4.7-4.2-10.1-4.1-15.6c-0.1-5.5,1.3-10.9,4.1-15.6c2.7-4.5,6.5-8.2,11.1-10.7
		C683.5,68.8,688.8,67.5,694.2,67.5L694.2,67.5z M694.2,75.9c-3.8-0.1-7.6,0.9-10.9,2.8c-3.2,1.8-5.8,4.4-7.6,7.7
		c-1.9,3.5-2.8,7.4-2.7,11.3c-0.1,4,0.8,7.9,2.7,11.4c1.8,3.2,4.4,5.8,7.6,7.6c6.8,3.6,14.9,3.6,21.7,0c3.2-1.8,5.8-4.4,7.5-7.6
		c1.9-3.5,2.9-7.4,2.8-11.4c0.1-3.9-0.9-7.8-2.8-11.3c-1.7-3.2-4.3-5.9-7.5-7.7C701.7,76.8,698,75.8,694.2,75.9L694.2,75.9z
		 M694.4,80.1c2.2,0,4.5,0.4,6.5,1.3c2.1,0.8,4,2.1,5.6,3.7l-4.9,6c-0.8-0.7-1.8-1.2-2.9-1.6c-1-0.3-2-0.5-3-0.4
		c-1.6,0-3.1,0.7-4.1,2c-1,1.3-1.6,3.5-1.6,6.5c0,5.7,1.8,8.6,5.4,8.6c2.5,0,4.9-0.9,6.9-2.5l4.4,6.5c-1.7,1.6-3.6,2.8-5.7,3.7
		c-2.1,0.9-4.3,1.3-6.6,1.3c-5,0-9-1.5-11.9-4.5s-4.3-7.3-4.3-13c0-5.3,1.5-9.5,4.4-12.7C685.7,81.6,690,79.9,694.4,80.1L694.4,80.1
		z"/>
	<path class="st5" d="M382.6,171.2v1.5c0,0.7-0.1,1.5-0.4,2.1c-0.3,0.7-0.7,1.3-1.2,1.8c-0.5,0.5-1.1,1-1.8,1.3
		c-0.7,0.3-1.4,0.4-2.1,0.4c-0.7,0-1.3-0.1-2-0.3c-0.7-0.2-1.3-0.5-1.8-1c-0.6-0.5-1-1.1-1.4-1.7c-0.4-0.9-0.5-1.8-0.5-2.8v-13.3
		c0-0.8,0.1-1.5,0.4-2.2c0.3-0.7,0.7-1.3,1.2-1.8c0.5-0.5,1.1-0.9,1.8-1.2c0.7-0.3,1.5-0.4,2.3-0.4c1.5-0.1,3,0.5,4,1.6
		c0.5,0.5,0.9,1.2,1.1,1.9c0.3,0.7,0.5,1.5,0.4,2.3v1.4h-3.5v-1.2c0-0.6-0.2-1.3-0.6-1.8c-0.4-0.5-1-0.8-1.6-0.7
		c-0.7-0.1-1.4,0.2-1.7,0.8c-0.3,0.6-0.4,1.3-0.4,2v12.4c0,0.6,0.1,1.2,0.4,1.8c0.4,0.5,1,0.8,1.7,0.7c0.2,0,0.5,0,0.7-0.1
		c0.3-0.1,0.5-0.2,0.8-0.4c0.2-0.2,0.4-0.5,0.5-0.8c0.1-0.4,0.2-0.8,0.2-1.2v-1.2H382.6z M385.4,178.1v-24.2h11.1v24.2H393V157h-4.1
		v21.1H385.4z M406.8,169.6l-1.7-8.8H405l-1.7,8.8H406.8z M398.2,178.1l5.4-24.2h2.9l5.4,24.2h-3.5l-1-5.2h-4.7l-1,5.2H398.2z
		 M413.6,178.1v-24.2h5.2c0.9,0,1.7,0.1,2.5,0.4c0.8,0.3,1.5,0.7,2,1.3c0.6,0.6,1,1.4,1.2,2.2c0.3,1.1,0.4,2.3,0.3,3.4
		c0,0.9-0.1,1.8-0.2,2.8c-0.1,0.8-0.4,1.5-0.8,2.1c-0.5,0.8-1.1,1.4-1.9,1.9c-1,0.5-2,0.7-3.1,0.6h-1.8v9.5H413.6z M417.1,157.2v8.2
		h1.7c0.6,0,1.1-0.1,1.6-0.3c0.4-0.2,0.7-0.5,0.9-0.9c0.2-0.4,0.3-0.8,0.3-1.3c0-0.5,0.1-1,0.1-1.7s0-1.1,0-1.6
		c0-0.5-0.1-0.9-0.3-1.4c-0.2-0.4-0.5-0.7-0.8-0.9c-0.5-0.2-1-0.3-1.6-0.3H417.1z M429.7,178.1v-20.9h-4v-3.3h11.5v3.3h-4v20.9
		H429.7z M444.2,169.6l-1.7-8.8h-0.1l-1.7,8.8H444.2z M435.6,178.1l5.4-24.2h2.9l5.4,24.2h-3.5l-1-5.2h-4.7l-1,5.2H435.6z
		 M463.2,157.2c-0.3,0-0.5,0-0.8,0.1c-0.2,0.1-0.4,0.2-0.6,0.4c-0.2,0.2-0.3,0.5-0.4,0.8c-0.1,0.3-0.1,0.6-0.2,1l-0.3,2.8
		c0,0.3-0.1,0.6-0.1,0.8s-0.1,0.5-0.1,0.7c0,0.2-0.1,0.4-0.2,0.6c-0.1,0.3-0.3,0.6-0.5,0.9c-0.2,0.2-0.3,0.4-0.5,0.5l3.6,12.3h-3.5
		l-3.1-10.8h-1.9v10.8h-3.5v-24.2h3.5v10.4h1.2c0.3,0,0.7,0,1-0.2c0.2-0.1,0.5-0.3,0.6-0.5c0.2-0.2,0.3-0.4,0.3-0.7
		c0.1-0.3,0.1-0.6,0.2-0.9l0.3-2.9c0-0.2,0.1-0.4,0.1-0.5c0-0.3,0.1-0.6,0.2-1c0.1-0.4,0.2-0.8,0.4-1.1c0.2-0.4,0.4-0.8,0.6-1.1
		c0.4-0.5,0.9-0.9,1.6-1.1c0.7-0.3,1.5-0.4,2.2-0.4L463.2,157.2z M473.2,178.1v-15.7h-0.1l-4.6,15.7h-3.5v-24.2h3.5v15.7h0.1
		l4.5-15.7h3.5v24.2H473.2z M487,169.6l-1.7-8.8h-0.1l-1.7,8.8H487z M478.4,178.1l5.4-24.2h2.9l5.4,24.2h-3.5l-1-5.2h-4.7l-1,5.2
		H478.4z M495.6,178.1v3.7h-3v-6.8h1.8c0.2-0.5,0.4-1,0.6-1.5c0.2-0.6,0.3-1.2,0.5-1.8c0.1-0.6,0.3-1.2,0.4-1.9
		c0.1-0.6,0.2-1.3,0.3-1.9c0.1-0.6,0.1-1,0.1-1.6s0.1-1.2,0.1-1.8c0-0.6,0-1.3,0-1.9c0-0.6,0-1.2,0-1.8v-7.1h10v21.1h2v6.8h-3v-3.7
		H495.6z M499.6,157v4c0,0.3,0,0.8,0,1.4c0,0.6,0,1.2-0.1,1.9c-0.1,0.7-0.1,1.4-0.1,2.1s-0.1,1.3-0.2,1.9c-0.1,0.5-0.1,1-0.2,1.6
		s-0.2,1.1-0.3,1.8c-0.1,0.6-0.3,1.2-0.4,1.8c-0.1,0.5-0.3,1.1-0.5,1.6h5.2V157H499.6z M517.3,169.6l-1.7-8.8h-0.1l-1.7,8.8H517.3z
		 M508.8,178.1l5.4-24.2h2.9l5.4,24.2H519l-1-5.2h-4.7l-1,5.2H508.8z M528.8,178.1l4.9-12.7l-4.5-11.5h3.7l2.6,7.2l2.7-7.2h3.7
		l-4.6,11.5l5,12.7h-3.7l-3-8.2l-3,8.2H528.8z M551.8,178.1v-15.7h-0.1l-4.5,15.7h-3.5v-24.2h3.5v15.7h0.1l4.5-15.7h3.5v24.2H551.8z
		 M558.5,178.1v-24.2h11v24.2H566V157h-4v21.1H558.5z M572.8,178.1v-24.2h11v24.2h-3.4V157h-4.1v21.1H572.8z M595.2,178.1v-15.7
		h-0.1l-4.5,15.7h-3.5v-24.2h3.5v15.7h0.1l4.5-15.7h3.5v24.2H595.2z"/>
	<path class="st5" d="M197.6,1.7v19.2h-40.4v38.4c2.1-2,4.5-3.6,7.2-4.6c3.1-1.4,6.4-2,9.8-2c6.9,0,12.5,2.1,16.8,6.4
		c4.4,4.1,6.6,10.4,6.6,18.8v36.8c0.1,4.4-0.8,8.8-2.6,12.8c-1.5,3.6-3.8,6.9-6.6,9.6c-2.8,2.7-6.2,4.8-9.8,6.2
		c-3.7,1.3-7.5,2-11.4,2c-4,0-7.9-0.7-11.6-2c-3.6-1.4-6.8-3.5-9.6-6.2c-2.9-2.7-5.2-6-6.8-9.6c-1.7-4.1-2.5-8.4-2.4-12.8v-6h20.4
		v5.2c0,3.5,0.9,6.2,2.8,8.2c2.1,1.9,4.8,2.9,7.6,2.8c3.1,0,5.4-0.9,7-2.8s2.6-4.5,2.6-7.8V80.9c0-2.7-1-5.3-2.8-7.2
		c-1.7-2-4.2-3.1-6.8-3c-1.5-0.1-3,0.3-4.4,1c-1.1,0.5-2.1,1.2-3,2c-0.8,0.7-1.4,1.6-1.8,2.6c-0.7,1.2-1.1,1.9-1.2,2.2h-18V1.7
		H197.6z"/>
	<path class="st5" d="M34.2,123.8v4.4c0,2.2-0.4,4.3-1.3,6.3c-0.8,1.9-2,3.7-3.4,5.2c-1.5,1.5-3.3,2.8-5.2,3.7
		c-2,0.9-4.1,1.3-6.3,1.3c-2,0-4-0.3-5.9-0.8c-2-0.5-3.8-1.5-5.4-2.8c-1.7-1.4-3-3.1-4-5.1c-1.1-2.6-1.6-5.3-1.5-8.1V88.7
		c0-2.2,0.4-4.4,1.2-6.5c1.5-3.9,4.7-7.1,8.6-8.6c2.2-0.9,4.5-1.3,6.8-1.3c4.4-0.2,8.6,1.5,11.7,4.7c1.5,1.6,2.7,3.5,3.4,5.5
		c0.9,2.2,1.3,4.5,1.3,6.8v4H24v-3.4c0-1.9-0.6-3.7-1.7-5.2c-1.1-1.4-2.8-2.3-4.6-2.2c-2.5,0-4.2,0.8-5.1,2.4
		c-0.9,1.8-1.3,3.9-1.2,5.9v36.4c-0.1,1.8,0.4,3.6,1.3,5.2c0.9,1.4,2.6,2.1,4.9,2.1c0.7,0,1.4-0.1,2.1-0.3c0.8-0.3,1.5-0.7,2.2-1.2
		c0.7-0.6,1.2-1.4,1.5-2.2c0.4-1.1,0.6-2.3,0.6-3.5v-3.5L34.2,123.8z M42.5,144.1V72.9h30.4v9.6H52.7v20.9h17.6v9.6H52.7v20.9h20.2
		v10.2H42.5z M79.5,144.1V72.9h10.2v30.5h12.6V72.9h10.2v71.2h-10.2v-31.7H89.7v31.7H79.5z M121.5,144.1v-10.2h10.2v10.2H121.5z"/>
	<path class="st5" d="M8.1,63.1V19.6L0.8,25v-7.8l7.4-5.4h7.3v51.3H8.1z M31,63.1V19.6L23.6,25v-7.8l7.4-5.4h7.3v51.3H31z
		 M47.8,42.4h9.1v9h-9.1V42.4z M47.8,21h9.1v9.2h-9.1V21z M66.3,22.4c0-1.6,0.3-3.1,0.9-4.6c0.6-1.3,1.4-2.5,2.4-3.4
		c1-1,2.2-1.7,3.5-2.2c1.3-0.5,2.7-0.8,4.2-0.8c1.4,0,2.8,0.3,4.1,0.8c1.3,0.5,2.5,1.2,3.5,2.2c1,1,1.8,2.2,2.4,3.4
		c0.6,1.5,1,3,0.9,4.6v30.1c0,1.6-0.3,3.2-0.9,4.6c-0.5,1.3-1.4,2.5-2.4,3.5c-1,1-2.2,1.7-3.5,2.2c-1.3,0.5-2.7,0.7-4.1,0.7
		c-1.4,0-2.8-0.2-4.2-0.7c-1.3-0.5-2.5-1.3-3.5-2.2c-1-1-1.9-2.2-2.4-3.5c-0.6-1.5-0.9-3-0.9-4.6V22.4z M73.6,52.5
		c0,1,0.3,1.9,1,2.7c1.5,1.3,3.7,1.3,5.2,0c0.7-0.7,1-1.7,1-2.7V22.4c0-1-0.3-1.9-1-2.6c-1.4-1.4-3.7-1.4-5.2,0c0,0,0,0,0,0
		c-0.7,0.7-1,1.6-1,2.6V52.5z M93.1,22.4c0-1.6,0.3-3.2,0.9-4.6c0.6-1.3,1.4-2.5,2.4-3.4c1-1,2.2-1.7,3.5-2.2
		c1.3-0.5,2.7-0.8,4.2-0.8c1.4,0,2.8,0.3,4.1,0.8c1.3,0.5,2.5,1.2,3.5,2.2c1,1,1.8,2.2,2.4,3.4c0.6,1.5,1,3,0.9,4.6v30.1
		c0,1.6-0.3,3.2-0.9,4.6c-0.5,1.3-1.4,2.5-2.4,3.5c-1,1-2.2,1.7-3.5,2.2c-1.3,0.5-2.7,0.7-4.1,0.7c-1.4,0-2.8-0.2-4.2-0.7
		c-1.3-0.5-2.5-1.3-3.5-2.2c-1-1-1.9-2.2-2.4-3.5c-0.6-1.5-0.9-3-0.9-4.6L93.1,22.4z M100.4,52.5c0,1,0.3,1.9,1,2.7
		c1.5,1.3,3.7,1.3,5.2,0c0.7-0.7,1-1.7,1-2.7V22.4c0-1-0.3-1.9-1-2.6c-1.4-1.4-3.7-1.4-5.2,0c0,0,0,0,0,0c-0.7,0.7-1,1.6-1,2.6V52.5
		z"/>
	<path class="st5" d="M23.8,193.5v3.2c0,1.6-0.3,3.1-0.9,4.5c-0.6,1.4-1.4,2.7-2.4,3.7c-1.1,1.1-2.3,2-3.8,2.7
		c-1.4,0.6-3,0.9-4.5,0.9c-1.4,0-2.9-0.2-4.2-0.6c-1.4-0.4-2.8-1.1-3.9-2c-1.2-1-2.2-2.3-2.9-3.7c-0.8-1.8-1.2-3.8-1.1-5.9v-28.2
		c0-1.6,0.3-3.2,0.9-4.7c1.1-2.8,3.4-5.1,6.2-6.2c1.6-0.6,3.2-1,4.9-0.9c3.2-0.1,6.2,1.1,8.4,3.4c1.1,1.1,1.9,2.5,2.4,4
		c0.6,1.5,1,3.2,0.9,4.9v2.9h-7.4v-2.5c0-1.4-0.4-2.7-1.2-3.8c-0.8-1-2-1.6-3.3-1.6c-1.8,0-3.1,0.6-3.7,1.7
		c-0.6,1.3-0.9,2.8-0.9,4.2V196c0,1.3,0.3,2.6,0.9,3.8c0.8,1.1,2.2,1.7,3.5,1.5c0.5,0,1-0.1,1.5-0.2c0.6-0.2,1.1-0.5,1.6-0.9
		c0.5-0.4,0.9-1,1.1-1.6c0.3-0.8,0.5-1.7,0.4-2.5v-2.5H23.8z M29.9,201.2c0.8,0,1.5-0.1,2.3-0.2c0.7-0.1,1.4-0.4,2-0.9
		c0.5-0.5,0.9-1.1,1.2-1.8c0.6-1.1,1-2.4,1.3-3.6l0.7-2.8l-11.1-35h7.8L41,181h0.2l5.4-24.1h7.8l-10.7,38.9
		c-0.6,2.1-1.3,4.2-2.2,6.3c-0.7,1.7-1.8,3.2-3.2,4.4c-1,0.9-2.3,1.5-3.7,1.7c-1.4,0.3-2.8,0.4-4.2,0.4h-1v-7.3L29.9,201.2z
		 M58.2,156.9h21v6.9H65.6v14.1h2.9c2.2-0.1,4.3,0.3,6.3,1c1.6,0.6,3.1,1.6,4.2,2.9c1,1.2,1.8,2.7,2.1,4.4c0.3,1.7,0.5,3.4,0.5,5.1
		v2.9c0,4.5-1.1,8-3.3,10.4c-2.2,2.4-5.6,3.6-10.4,3.6h-9.6V156.9z M65.6,184.4v16.4h2.7c1.2,0.1,2.4-0.2,3.5-0.6
		c0.8-0.4,1.5-1,1.9-1.8c0.5-0.8,0.7-1.8,0.8-2.7c0.1-1.1,0.1-2.2,0.1-3.5c0-1.1-0.1-2.3-0.3-3.4c-0.1-0.9-0.4-1.7-0.9-2.5
		c-0.5-0.6-1.1-1.1-1.9-1.4c-1-0.4-2.1-0.5-3.2-0.5H65.6z M87.3,156.9h21v6.9H94.7v14.1h2.9c2.2-0.1,4.3,0.3,6.3,1
		c1.6,0.6,3,1.6,4.2,2.9c1.1,1.3,1.8,2.8,2.1,4.4c0.3,1.7,0.5,3.4,0.5,5.1v2.9c0,4.5-1.1,8-3.3,10.4c-2.2,2.4-5.7,3.6-10.4,3.6h-9.6
		V156.9z M94.7,184.4v16.4h2.7c1.2,0.1,2.4-0.2,3.4-0.6c0.8-0.4,1.5-1,1.9-1.8c0.5-0.8,0.7-1.8,0.8-2.7c0.1-1.1,0.1-2.2,0.1-3.5
		c0-1.1-0.1-2.3-0.3-3.4c-0.1-0.9-0.4-1.7-0.9-2.5c-0.5-0.6-1.1-1.1-1.9-1.4c-1-0.4-2.1-0.5-3.2-0.5H94.7z M116,169
		c0-1.9,0.3-3.7,1.1-5.5c0.7-1.5,1.6-2.9,2.9-4c1.1-1,2.5-1.8,3.9-2.3c1.4-0.5,2.9-0.8,4.5-0.8c3.1,0,6,1.1,8.4,3.1
		c1.2,1.1,2.2,2.5,2.8,4c0.7,1.7,1.1,3.6,1.1,5.5V196c0.1,1.9-0.3,3.8-1.1,5.6c-0.7,1.5-1.6,2.8-2.8,3.8c-1.2,1-2.5,1.9-4,2.4
		c-1.4,0.5-2.9,0.8-4.4,0.8c-1.5,0-3-0.3-4.5-0.8c-1.4-0.5-2.8-1.3-3.9-2.4c-1.2-1-2.2-2.3-2.9-3.8c-0.8-1.7-1.2-3.6-1.1-5.6V169z
		 M123.3,196c-0.1,1.5,0.4,2.9,1.4,4c1,0.8,2.2,1.3,3.5,1.2c1.3,0,2.5-0.4,3.4-1.2c1.1-1,1.7-2.5,1.5-4V169c0.1-1.5-0.4-2.9-1.5-3.9
		c-0.9-0.9-2.2-1.3-3.4-1.3c-1.3,0-2.6,0.4-3.5,1.3c-1,1-1.6,2.4-1.4,3.9V196z M151.2,208.1v-44.4h-8.5v-6.9h24.3v6.9h-8.5v44.4
		H151.2z M181.9,190.2l-3.6-18.6h-0.1l-3.6,18.6H181.9z M163.8,208.1l11.4-51.3h6.1l11.5,51.3h-7.4l-2.2-11h-10l-2.2,11H163.8z"/>
	<path class="st6" d="M363,166.1H245"/>
	<path class="st7" d="M724,166.1H606"/>
	<path class="st8" d="M187.5,3.1l2.4,5.1l5.6,0.7l-4.1,3.9l1,5.6l-5-2.7l-5,2.7l1-5.6L179.3,9l5.7-0.7L187.5,3.1z"/>
	<path class="st8" d="M168.5,3.1l2.4,5.1l5.6,0.7l-4.1,3.9l1,5.6l-5-2.7l-5,2.7l1-5.6L160.3,9l5.7-0.7L168.5,3.1z"/>
	<path class="st8" d="M148.5,3.1l2.4,5.1l5.6,0.7l-4.1,3.9l1,5.6l-5-2.7l-5,2.7l1-5.6L140.3,9l5.7-0.7L148.5,3.1z"/>
	<path class="st8" d="M148.5,21.1l2.4,5.1l5.6,0.7l-4.1,3.9l1,5.6l-5-2.7l-5,2.7l1-5.6l-4.1-3.9l5.6-0.7L148.5,21.1z"/>
	<path class="st8" d="M148.5,41.1l2.4,5.1l5.6,0.7l-4.1,3.9l1,5.6l-5-2.7l-5,2.7l1-5.6l-4.1-3.9l5.6-0.7L148.5,41.1z"/>
	<path class="st8" d="M148.5,60.1l2.4,5.1l5.6,0.7l-4.1,3.9l1,5.6l-5-2.7l-5,2.7l1-5.6l-4.1-3.9l5.6-0.7L148.5,60.1z"/>
	<path class="st8" d="M168.5,54.1l2.4,5.1l5.6,0.7l-4.1,3.9l1,5.6l-5-2.7l-5,2.7l1-5.6l-4.1-3.9l5.6-0.7L168.5,54.1z"/>
	<path class="st8" d="M186.5,61.1l2.4,5.1l5.6,0.7l-4.1,3.9l1,5.6l-5-2.7l-5,2.7l1-5.6l-4.1-3.9l5.6-0.7L186.5,61.1z"/>
	<path class="st8" d="M187.5,79.1l2.4,5.1l5.6,0.7l-4.1,3.9l1,5.6l-5-2.7l-5,2.7l1-5.6l-4.1-3.9l5.6-0.7L187.5,79.1z"/>
	<path class="st8" d="M186.5,99.1l2.4,5.1l5.6,0.7l-4.1,3.9l1,5.6l-5-2.7l-5,2.7l1-5.6l-4.1-3.9l5.6-0.7L186.5,99.1z"/>
	<path class="st8" d="M185.5,118.1l2.4,5.1l5.6,0.7l-4.1,3.9l1,5.6l-5-2.7l-5,2.7l1-5.6l-4.1-3.9l5.6-0.7L185.5,118.1z"/>
	<path class="st8" d="M171.5,127.1l2.4,5.1l5.6,0.7l-4.1,3.9l1,5.6l-5-2.7l-5,2.7l1-5.6l-4.1-3.9l5.6-0.7L171.5,127.1z"/>
	<path class="st8" d="M154.5,124.1l2.4,5.1l5.6,0.7l-4.1,3.9l1,5.6l-5-2.7l-5,2.7l1-5.6l-4.1-3.9l5.6-0.7L154.5,124.1z"/>
	<path class="st8" d="M147.5,109.1l2.4,5.1l5.6,0.7l-4.1,3.9l1,5.6l-5-2.7l-5,2.7l1-5.6l-4.1-3.9l5.6-0.7L147.5,109.1z"/>
	<path class="st8" d="M187.5,79.1l2.4,5.1l5.6,0.7l-4.1,3.9l1,5.6l-5-2.7l-5,2.7l1-5.6l-4.1-3.9l5.6-0.7L187.5,79.1z"/>
	<path class="st5" d="M248.9,57.1h15.5V14.7h19.1v42.4h15.5v-56h-50.2V57.1z M337.2,58.2c17.3,0,30.2-13,30.2-29.1
		c0-16.2-12.8-29.1-30.1-29.1s-30.2,13-30.2,29.1C307.1,45.4,319.9,58.2,337.2,58.2z M337.3,44.2c-8.5,0-14.3-7-14.3-15.1
		c0-8.2,5.7-15.1,14.2-15.1s14.4,7,14.4,15.1C351.6,37.4,345.9,44.2,337.3,44.2L337.3,44.2z M375.5,57.1h27.1
		c13.2,0,21.7-6.7,21.7-18.3c0-12.1-9.5-18-22.5-18H391v-6.5h29.5V1.1h-45L375.5,57.1z M391,44.1V32.5h10.5c4.6,0,7.3,2.2,7.3,5.7
		c0,3.8-2.7,5.9-7.4,5.9L391,44.1z M431.5,57.1H477V43.9h-30.1V35h26.9V22.8h-26.9v-8.5h29.7V1.1h-45L431.5,57.1z M480.7,68.3h13.9
		l1-11.2h29.8v11.2h13.1l1.8-24.8H534V1.1h-42.6v1.4c0,21-1.9,30.8-5.7,41h-5L480.7,68.3z M501.9,43.5c3.1-9.1,4.6-18.6,4.4-28.2
		v-0.6h12.2v28.8L501.9,43.5z M546.4,57.1h14.5l21.7-31.5v31.5H598v-56h-14.5l-21.7,31.5V1.1h-15.4V57.1z M611,57.9
		c10.9,0,18.4-6.9,18.4-41v-2.2h13v42.4H658v-56h-43v7.8c0,33.9-4.2,36.2-8.6,36.2c-1.2,0-2.4-0.1-3.6-0.3l-1,11.9
		C604.8,57.5,607.9,57.9,611,57.9L611,57.9z M663.4,57.1h16.3l4-10h21.6l4.1,10h16.6L702.2,0.7h-15L663.4,57.1z M688.3,35l6.3-15.9
		l6.2,15.9H688.3z M244.9,147.3H260l1.1-12.2h32.4v12.2h14.3l1.9-27h-6.9V74.2h-46.4v1.6c0,22.9-2.1,33.5-6.2,44.5h-5.4L244.9,147.3
		z M267.9,120.3c2.8-8.3,4.8-17.2,4.8-30.7V89h13.2v31.3H267.9z M316.3,135.1h16.9v-17.4h8.4c15.1,0,26.2-7.6,26.2-21.9
		c0-13.7-9.9-21.6-25.3-21.6h-26.1V135.1z M333.2,104.5V88.4h7.9c6.1,0,9.8,2.8,9.8,8c0,4.9-3.7,8.1-9.7,8.1L333.2,104.5z
		 M389.1,136c9.4,0,15.1-4.4,20.6-15.3l23.8-46.5h-18.4l-13,28.6l-13.8-28.6h-18.8l23.8,45c-1.3,1.6-3.2,2.6-5.3,2.6
		c-2.4,0-4.8-0.8-6.9-2.1l-6.6,12.2C378.9,134.6,384,136,389.1,136z M433,135.1h20l13.9-23l5.8,6.8v16.2h16.9v-16.2l5.8-6.8l13.9,23
		h20L507,99.9l21.6-25.7h-19.7l-19.2,24.7V74.2h-16.9v24.7l-19.2-24.7h-19.8l21.7,25.7L433,135.1z M534.2,135.1h29.5
		c14.3,0,23.6-7.3,23.6-19.9c0-13.1-10.3-19.6-24.4-19.6h-11.8v-7h32.1V74.2h-49L534.2,135.1z M551.1,120.9v-12.6h11.4
		c5,0,7.9,2.4,7.9,6.2c0,4.2-3,6.4-8,6.4H551.1z M590.3,135.1H608l4.3-10.9h23.5l4.5,10.9h18.1l-25.9-61.3h-16.3L590.3,135.1z
		 M617.3,111.1l6.9-17.3l6.8,17.3H617.3z M694.2,67.5c5.4-0.1,10.7,1.3,15.5,3.8c4.6,2.5,8.4,6.2,11,10.7c2.8,4.7,4.2,10.1,4.1,15.6
		c0.1,5.5-1.3,10.9-4.1,15.6c-2.6,4.5-6.4,8.2-11,10.6c-4.7,2.6-10.1,3.9-15.5,3.8c-5.4,0.1-10.8-1.3-15.6-3.8
		c-4.6-2.5-8.4-6.1-11.1-10.6c-2.8-4.7-4.2-10.1-4.1-15.6c-0.1-5.5,1.3-10.9,4.1-15.6c2.7-4.5,6.5-8.2,11.1-10.7
		C683.5,68.8,688.8,67.5,694.2,67.5L694.2,67.5z M694.2,75.9c-3.8-0.1-7.6,0.9-10.9,2.8c-3.2,1.8-5.8,4.4-7.6,7.7
		c-1.9,3.5-2.8,7.4-2.7,11.3c-0.1,4,0.8,7.9,2.7,11.4c1.8,3.2,4.4,5.8,7.6,7.6c6.8,3.6,14.9,3.6,21.7,0c3.2-1.8,5.8-4.4,7.5-7.6
		c1.9-3.5,2.9-7.4,2.8-11.4c0.1-3.9-0.9-7.8-2.8-11.3c-1.7-3.2-4.3-5.9-7.5-7.7C701.7,76.8,698,75.8,694.2,75.9L694.2,75.9z
		 M694.4,80.1c2.2,0,4.5,0.4,6.5,1.3c2.1,0.8,4,2.1,5.6,3.7l-4.9,6c-0.8-0.7-1.8-1.2-2.9-1.6c-1-0.3-2-0.5-3-0.4
		c-1.6,0-3.1,0.7-4.1,2c-1,1.3-1.6,3.5-1.6,6.5c0,5.7,1.8,8.6,5.4,8.6c2.5,0,4.9-0.9,6.9-2.5l4.4,6.5c-1.7,1.6-3.6,2.8-5.7,3.7
		c-2.1,0.9-4.3,1.3-6.6,1.3c-5,0-9-1.5-11.9-4.5s-4.3-7.3-4.3-13c0-5.3,1.5-9.5,4.4-12.7C685.7,81.6,690,79.9,694.4,80.1L694.4,80.1
		z"/>
	<path class="st5" d="M382.6,171.2v1.5c0,0.7-0.1,1.5-0.4,2.1c-0.3,0.7-0.7,1.3-1.2,1.8c-0.5,0.5-1.1,1-1.8,1.3
		c-0.7,0.3-1.4,0.4-2.1,0.4c-0.7,0-1.3-0.1-2-0.3c-0.7-0.2-1.3-0.5-1.8-1c-0.6-0.5-1-1.1-1.4-1.7c-0.4-0.9-0.5-1.8-0.5-2.8v-13.3
		c0-0.8,0.1-1.5,0.4-2.2c0.3-0.7,0.7-1.3,1.2-1.8c0.5-0.5,1.1-0.9,1.8-1.2c0.7-0.3,1.5-0.4,2.3-0.4c1.5-0.1,3,0.5,4,1.6
		c0.5,0.5,0.9,1.2,1.1,1.9c0.3,0.7,0.5,1.5,0.4,2.3v1.4h-3.5v-1.2c0-0.6-0.2-1.3-0.6-1.8c-0.4-0.5-1-0.8-1.6-0.7
		c-0.7-0.1-1.4,0.2-1.7,0.8c-0.3,0.6-0.4,1.3-0.4,2v12.4c0,0.6,0.1,1.2,0.4,1.8c0.4,0.5,1,0.8,1.7,0.7c0.2,0,0.5,0,0.7-0.1
		c0.3-0.1,0.5-0.2,0.8-0.4c0.2-0.2,0.4-0.5,0.5-0.8c0.1-0.4,0.2-0.8,0.2-1.2v-1.2H382.6z M385.4,178.1v-24.2h11.1v24.2H393V157h-4.1
		v21.1H385.4z M406.8,169.6l-1.7-8.8H405l-1.7,8.8H406.8z M398.2,178.1l5.4-24.2h2.9l5.4,24.2h-3.5l-1-5.2h-4.7l-1,5.2H398.2z
		 M413.6,178.1v-24.2h5.2c0.9,0,1.7,0.1,2.5,0.4c0.8,0.3,1.5,0.7,2,1.3c0.6,0.6,1,1.4,1.2,2.2c0.3,1.1,0.4,2.3,0.3,3.4
		c0,0.9-0.1,1.8-0.2,2.8c-0.1,0.8-0.4,1.5-0.8,2.1c-0.5,0.8-1.1,1.4-1.9,1.9c-1,0.5-2,0.7-3.1,0.6h-1.8v9.5H413.6z M417.1,157.2v8.2
		h1.7c0.6,0,1.1-0.1,1.6-0.3c0.4-0.2,0.7-0.5,0.9-0.9c0.2-0.4,0.3-0.8,0.3-1.3c0-0.5,0.1-1,0.1-1.7s0-1.1,0-1.6
		c0-0.5-0.1-0.9-0.3-1.4c-0.2-0.4-0.5-0.7-0.8-0.9c-0.5-0.2-1-0.3-1.6-0.3H417.1z M429.7,178.1v-20.9h-4v-3.3h11.5v3.3h-4v20.9
		H429.7z M444.2,169.6l-1.7-8.8h-0.1l-1.7,8.8H444.2z M435.6,178.1l5.4-24.2h2.9l5.4,24.2h-3.5l-1-5.2h-4.7l-1,5.2H435.6z
		 M463.2,157.2c-0.3,0-0.5,0-0.8,0.1c-0.2,0.1-0.4,0.2-0.6,0.4c-0.2,0.2-0.3,0.5-0.4,0.8c-0.1,0.3-0.1,0.6-0.2,1l-0.3,2.8
		c0,0.3-0.1,0.6-0.1,0.8s-0.1,0.5-0.1,0.7c0,0.2-0.1,0.4-0.2,0.6c-0.1,0.3-0.3,0.6-0.5,0.9c-0.2,0.2-0.3,0.4-0.5,0.5l3.6,12.3h-3.5
		l-3.1-10.8h-1.9v10.8h-3.5v-24.2h3.5v10.4h1.2c0.3,0,0.7,0,1-0.2c0.2-0.1,0.5-0.3,0.6-0.5c0.2-0.2,0.3-0.4,0.3-0.7
		c0.1-0.3,0.1-0.6,0.2-0.9l0.3-2.9c0-0.2,0.1-0.4,0.1-0.5c0-0.3,0.1-0.6,0.2-1c0.1-0.4,0.2-0.8,0.4-1.1c0.2-0.4,0.4-0.8,0.6-1.1
		c0.4-0.5,0.9-0.9,1.6-1.1c0.7-0.3,1.5-0.4,2.2-0.4L463.2,157.2z M473.2,178.1v-15.7h-0.1l-4.6,15.7h-3.5v-24.2h3.5v15.7h0.1
		l4.5-15.7h3.5v24.2H473.2z M487,169.6l-1.7-8.8h-0.1l-1.7,8.8H487z M478.4,178.1l5.4-24.2h2.9l5.4,24.2h-3.5l-1-5.2h-4.7l-1,5.2
		H478.4z M495.6,178.1v3.7h-3v-6.8h1.8c0.2-0.5,0.4-1,0.6-1.5c0.2-0.6,0.3-1.2,0.5-1.8c0.1-0.6,0.3-1.2,0.4-1.9
		c0.1-0.6,0.2-1.3,0.3-1.9c0.1-0.6,0.1-1,0.1-1.6s0.1-1.2,0.1-1.8c0-0.6,0-1.3,0-1.9c0-0.6,0-1.2,0-1.8v-7.1h10v21.1h2v6.8h-3v-3.7
		H495.6z M499.6,157v4c0,0.3,0,0.8,0,1.4c0,0.6,0,1.2-0.1,1.9c-0.1,0.7-0.1,1.4-0.1,2.1s-0.1,1.3-0.2,1.9c-0.1,0.5-0.1,1-0.2,1.6
		s-0.2,1.1-0.3,1.8c-0.1,0.6-0.3,1.2-0.4,1.8c-0.1,0.5-0.3,1.1-0.5,1.6h5.2V157H499.6z M517.3,169.6l-1.7-8.8h-0.1l-1.7,8.8H517.3z
		 M508.8,178.1l5.4-24.2h2.9l5.4,24.2H519l-1-5.2h-4.7l-1,5.2H508.8z M528.8,178.1l4.9-12.7l-4.5-11.5h3.7l2.6,7.2l2.7-7.2h3.7
		l-4.6,11.5l5,12.7h-3.7l-3-8.2l-3,8.2H528.8z M551.8,178.1v-15.7h-0.1l-4.5,15.7h-3.5v-24.2h3.5v15.7h0.1l4.5-15.7h3.5v24.2H551.8z
		 M558.5,178.1v-24.2h11v24.2H566V157h-4v21.1H558.5z M572.8,178.1v-24.2h11v24.2h-3.4V157h-4.1v21.1H572.8z M595.2,178.1v-15.7
		h-0.1l-4.5,15.7h-3.5v-24.2h3.5v15.7h0.1l4.5-15.7h3.5v24.2H595.2z"/>
	<path class="st9" d="M197.6,1.7v19.2h-40.4v38.4c2.1-2,4.5-3.6,7.2-4.6c3.1-1.4,6.4-2,9.8-2c6.9,0,12.5,2.1,16.8,6.4
		c4.4,4.1,6.6,10.4,6.6,18.8v36.8c0.1,4.4-0.8,8.8-2.6,12.8c-1.5,3.6-3.8,6.9-6.6,9.6c-2.8,2.7-6.2,4.8-9.8,6.2
		c-3.7,1.3-7.5,2-11.4,2c-4,0-7.9-0.7-11.6-2c-3.6-1.4-6.8-3.5-9.6-6.2c-2.9-2.7-5.2-6-6.8-9.6c-1.7-4.1-2.5-8.4-2.4-12.8v-6h20.4
		v5.2c0,3.5,0.9,6.2,2.8,8.2c2.1,1.9,4.8,2.9,7.6,2.8c3.1,0,5.4-0.9,7-2.8s2.6-4.5,2.6-7.8V80.9c0-2.7-1-5.3-2.8-7.2
		c-1.7-2-4.2-3.1-6.8-3c-1.5-0.1-3,0.3-4.4,1c-1.1,0.5-2.1,1.2-3,2c-0.8,0.7-1.4,1.6-1.8,2.6c-0.7,1.2-1.1,1.9-1.2,2.2h-18V1.7
		H197.6z"/>
	<path class="st5" d="M34.2,123.8v4.4c0,2.2-0.4,4.3-1.3,6.3c-0.8,1.9-2,3.7-3.4,5.2c-1.5,1.5-3.3,2.8-5.2,3.7
		c-2,0.9-4.1,1.3-6.3,1.3c-2,0-4-0.3-5.9-0.8c-2-0.5-3.8-1.5-5.4-2.8c-1.7-1.4-3-3.1-4-5.1c-1.1-2.6-1.6-5.3-1.5-8.1V88.7
		c0-2.2,0.4-4.4,1.2-6.5c1.5-3.9,4.7-7.1,8.6-8.6c2.2-0.9,4.5-1.3,6.8-1.3c4.4-0.2,8.6,1.5,11.7,4.7c1.5,1.6,2.7,3.5,3.4,5.5
		c0.9,2.2,1.3,4.5,1.3,6.8v4H24v-3.4c0-1.9-0.6-3.7-1.7-5.2c-1.1-1.4-2.8-2.3-4.6-2.2c-2.5,0-4.2,0.8-5.1,2.4
		c-0.9,1.8-1.3,3.9-1.2,5.9v36.4c-0.1,1.8,0.4,3.6,1.3,5.2c0.9,1.4,2.6,2.1,4.9,2.1c0.7,0,1.4-0.1,2.1-0.3c0.8-0.3,1.5-0.7,2.2-1.2
		c0.7-0.6,1.2-1.4,1.5-2.2c0.4-1.1,0.6-2.3,0.6-3.5v-3.5L34.2,123.8z M42.5,144.1V72.9h30.4v9.6H52.7v20.9h17.6v9.6H52.7v20.9h20.2
		v10.2H42.5z M79.5,144.1V72.9h10.2v30.5h12.6V72.9h10.2v71.2h-10.2v-31.7H89.7v31.7H79.5z M121.5,144.1v-10.2h10.2v10.2H121.5z"/>
	<path class="st5" d="M8.1,63.1V19.6L0.8,25v-7.8l7.4-5.4h7.3v51.3H8.1z M31,63.1V19.6L23.6,25v-7.8l7.4-5.4h7.3v51.3H31z
		 M47.8,42.4h9.1v9h-9.1V42.4z M47.8,21h9.1v9.2h-9.1V21z M66.3,22.4c0-1.6,0.3-3.1,0.9-4.6c0.6-1.3,1.4-2.5,2.4-3.4
		c1-1,2.2-1.7,3.5-2.2c1.3-0.5,2.7-0.8,4.2-0.8c1.4,0,2.8,0.3,4.1,0.8c1.3,0.5,2.5,1.2,3.5,2.2c1,1,1.8,2.2,2.4,3.4
		c0.6,1.5,1,3,0.9,4.6v30.1c0,1.6-0.3,3.2-0.9,4.6c-0.5,1.3-1.4,2.5-2.4,3.5c-1,1-2.2,1.7-3.5,2.2c-1.3,0.5-2.7,0.7-4.1,0.7
		c-1.4,0-2.8-0.2-4.2-0.7c-1.3-0.5-2.5-1.3-3.5-2.2c-1-1-1.9-2.2-2.4-3.5c-0.6-1.5-0.9-3-0.9-4.6V22.4z M73.6,52.5
		c0,1,0.3,1.9,1,2.7c1.5,1.3,3.7,1.3,5.2,0c0.7-0.7,1-1.7,1-2.7V22.4c0-1-0.3-1.9-1-2.6c-1.4-1.4-3.7-1.4-5.2,0c0,0,0,0,0,0
		c-0.7,0.7-1,1.6-1,2.6V52.5z M93.1,22.4c0-1.6,0.3-3.2,0.9-4.6c0.6-1.3,1.4-2.5,2.4-3.4c1-1,2.2-1.7,3.5-2.2
		c1.3-0.5,2.7-0.8,4.2-0.8c1.4,0,2.8,0.3,4.1,0.8c1.3,0.5,2.5,1.2,3.5,2.2c1,1,1.8,2.2,2.4,3.4c0.6,1.5,1,3,0.9,4.6v30.1
		c0,1.6-0.3,3.2-0.9,4.6c-0.5,1.3-1.4,2.5-2.4,3.5c-1,1-2.2,1.7-3.5,2.2c-1.3,0.5-2.7,0.7-4.1,0.7c-1.4,0-2.8-0.2-4.2-0.7
		c-1.3-0.5-2.5-1.3-3.5-2.2c-1-1-1.9-2.2-2.4-3.5c-0.6-1.5-0.9-3-0.9-4.6L93.1,22.4z M100.4,52.5c0,1,0.3,1.9,1,2.7
		c1.5,1.3,3.7,1.3,5.2,0c0.7-0.7,1-1.7,1-2.7V22.4c0-1-0.3-1.9-1-2.6c-1.4-1.4-3.7-1.4-5.2,0c0,0,0,0,0,0c-0.7,0.7-1,1.6-1,2.6V52.5
		z"/>
	<path class="st5" d="M23.8,193.5v3.2c0,1.6-0.3,3.1-0.9,4.5c-0.6,1.4-1.4,2.7-2.4,3.7c-1.1,1.1-2.3,2-3.8,2.7
		c-1.4,0.6-3,0.9-4.5,0.9c-1.4,0-2.9-0.2-4.2-0.6c-1.4-0.4-2.8-1.1-3.9-2c-1.2-1-2.2-2.3-2.9-3.7c-0.8-1.8-1.2-3.8-1.1-5.9v-28.2
		c0-1.6,0.3-3.2,0.9-4.7c1.1-2.8,3.4-5.1,6.2-6.2c1.6-0.6,3.2-1,4.9-0.9c3.2-0.1,6.2,1.1,8.4,3.4c1.1,1.1,1.9,2.5,2.4,4
		c0.6,1.5,1,3.2,0.9,4.9v2.9h-7.4v-2.5c0-1.4-0.4-2.7-1.2-3.8c-0.8-1-2-1.6-3.3-1.6c-1.8,0-3.1,0.6-3.7,1.7
		c-0.6,1.3-0.9,2.8-0.9,4.2V196c0,1.3,0.3,2.6,0.9,3.8c0.8,1.1,2.2,1.7,3.5,1.5c0.5,0,1-0.1,1.5-0.2c0.6-0.2,1.1-0.5,1.6-0.9
		c0.5-0.4,0.9-1,1.1-1.6c0.3-0.8,0.5-1.7,0.4-2.5v-2.5H23.8z M29.9,201.2c0.8,0,1.5-0.1,2.3-0.2c0.7-0.1,1.4-0.4,2-0.9
		c0.5-0.5,0.9-1.1,1.2-1.8c0.6-1.1,1-2.4,1.3-3.6l0.7-2.8l-11.1-35h7.8L41,181h0.2l5.4-24.1h7.8l-10.7,38.9
		c-0.6,2.1-1.3,4.2-2.2,6.3c-0.7,1.7-1.8,3.2-3.2,4.4c-1,0.9-2.3,1.5-3.7,1.7c-1.4,0.3-2.8,0.4-4.2,0.4h-1v-7.3L29.9,201.2z
		 M58.2,156.9h21v6.9H65.6v14.1h2.9c2.2-0.1,4.3,0.3,6.3,1c1.6,0.6,3.1,1.6,4.2,2.9c1,1.2,1.8,2.7,2.1,4.4c0.3,1.7,0.5,3.4,0.5,5.1
		v2.9c0,4.5-1.1,8-3.3,10.4c-2.2,2.4-5.6,3.6-10.4,3.6h-9.6V156.9z M65.6,184.4v16.4h2.7c1.2,0.1,2.4-0.2,3.5-0.6
		c0.8-0.4,1.5-1,1.9-1.8c0.5-0.8,0.7-1.8,0.8-2.7c0.1-1.1,0.1-2.2,0.1-3.5c0-1.1-0.1-2.3-0.3-3.4c-0.1-0.9-0.4-1.7-0.9-2.5
		c-0.5-0.6-1.1-1.1-1.9-1.4c-1-0.4-2.1-0.5-3.2-0.5H65.6z M87.3,156.9h21v6.9H94.7v14.1h2.9c2.2-0.1,4.3,0.3,6.3,1
		c1.6,0.6,3,1.6,4.2,2.9c1.1,1.3,1.8,2.8,2.1,4.4c0.3,1.7,0.5,3.4,0.5,5.1v2.9c0,4.5-1.1,8-3.3,10.4c-2.2,2.4-5.7,3.6-10.4,3.6h-9.6
		V156.9z M94.7,184.4v16.4h2.7c1.2,0.1,2.4-0.2,3.4-0.6c0.8-0.4,1.5-1,1.9-1.8c0.5-0.8,0.7-1.8,0.8-2.7c0.1-1.1,0.1-2.2,0.1-3.5
		c0-1.1-0.1-2.3-0.3-3.4c-0.1-0.9-0.4-1.7-0.9-2.5c-0.5-0.6-1.1-1.1-1.9-1.4c-1-0.4-2.1-0.5-3.2-0.5H94.7z M116,169
		c0-1.9,0.3-3.7,1.1-5.5c0.7-1.5,1.6-2.9,2.9-4c1.1-1,2.5-1.8,3.9-2.3c1.4-0.5,2.9-0.8,4.5-0.8c3.1,0,6,1.1,8.4,3.1
		c1.2,1.1,2.2,2.5,2.8,4c0.7,1.7,1.1,3.6,1.1,5.5V196c0.1,1.9-0.3,3.8-1.1,5.6c-0.7,1.5-1.6,2.8-2.8,3.8c-1.2,1-2.5,1.9-4,2.4
		c-1.4,0.5-2.9,0.8-4.4,0.8c-1.5,0-3-0.3-4.5-0.8c-1.4-0.5-2.8-1.3-3.9-2.4c-1.2-1-2.2-2.3-2.9-3.8c-0.8-1.7-1.2-3.6-1.1-5.6V169z
		 M123.3,196c-0.1,1.5,0.4,2.9,1.4,4c1,0.8,2.2,1.3,3.5,1.2c1.3,0,2.5-0.4,3.4-1.2c1.1-1,1.7-2.5,1.5-4V169c0.1-1.5-0.4-2.9-1.5-3.9
		c-0.9-0.9-2.2-1.3-3.4-1.3c-1.3,0-2.6,0.4-3.5,1.3c-1,1-1.6,2.4-1.4,3.9V196z M151.2,208.1v-44.4h-8.5v-6.9h24.3v6.9h-8.5v44.4
		H151.2z M181.9,190.2l-3.6-18.6h-0.1l-3.6,18.6H181.9z M163.8,208.1l11.4-51.3h6.1l11.5,51.3h-7.4l-2.2-11h-10l-2.2,11H163.8z"/>
	<path class="st6" d="M363,166.1H245"/>
	<path class="st7" d="M724,166.1H606"/>
	<path class="st5" d="M248.9,208.2h4.7v-9.6h3.9v-3.8H245v3.8h4L248.9,208.2z M265.7,208.5c2.3,0.1,4.4-0.9,5.8-2.7l-2.6-2.1
		c-0.8,0.9-1.8,1.3-3,1.4c-1.4,0.1-2.6-0.8-2.9-2.2h9c0-0.3,0-0.7,0-1c0-4-2.1-7.3-6.8-7.3c-3.7,0-6.7,2.9-6.8,6.7
		c0,0.1,0,0.2,0,0.3C258.5,205.7,261.5,208.5,265.7,208.5z M263,200.4c0.2-1.5,1.1-2.4,2.3-2.4c1.2,0,2.1,0.9,2.3,2.4H263z
		 M275.1,208.3c2.9,0,5-1.4,5-9.5v-0.3h2.5v9.7h4.8v-13.4h-11.6v2.6c0,6.9-0.9,7.2-1.8,7.2c-0.3,0-0.5,0-0.8-0.1l-0.2,3.6
		C273.7,208.2,274.4,208.3,275.1,208.3L275.1,208.3z M289.6,208.2h4.9v-4.8h-4.9V208.2z M302.7,210.9h4.2l0.2-2.7h7v2.7h4l0.4-6.5
		h-1.6v-9.6h-11.9v0.6c0,4.6-0.4,6.8-1.2,9h-1.3V210.9z M308.7,204.4c0.6-1.8,0.9-3.7,0.9-5.6v-0.2h2.7v5.9H308.7z M321,208.3
		c2.8,0,5-1.4,5-9.5v-0.3h2.5v9.7h4.7v-13.4h-11.6v2.6c0,6.9-0.9,7.2-1.8,7.2c-0.3,0-0.5,0-0.8-0.1l-0.2,3.6
		C319.6,208.2,320.3,208.3,321,208.3L321,208.3z M334.7,208.2h5.4l2.6-3.9h1.1v3.9h4.7v-13.4H341c-1.6-0.1-3.2,0.4-4.4,1.5
		c-0.8,0.8-1.3,2-1.2,3.2c-0.1,1.7,0.9,3.4,2.5,4.1L334.7,208.2z M341.9,201c-1.1,0-1.7-0.5-1.7-1.3s0.6-1.4,1.7-1.4h1.9v2.7H341.9z
		 M371.2,208.5c2.4,0.1,4.7-1,5.9-3.1l-3.2-2.3c-0.6,0.9-1.5,1.4-2.5,1.4c-1.7-0.2-2.9-1.7-2.6-3.4c0.2-1.4,1.3-2.5,2.7-2.7
		c1,0,1.9,0.5,2.4,1.3l3.1-2.3c-1.2-2-3.4-3.1-5.7-3c-3.9,0-7,3-7.1,6.9S367.3,208.5,371.2,208.5L371.2,208.5z M378.8,208.2h4.7
		v-9.6h3.7v9.6h4.7v-13.4h-13.1V208.2z M394.4,212.1h4.7v-5.6c1,1.3,2.5,2,4.1,2c3.2,0,5.9-2.7,5.9-7s-2.8-6.9-5.9-6.9
		c-1.6,0-3.1,0.8-4.1,2.1v-1.8h-4.7L394.4,212.1z M401.7,204.5c-1.7,0.2-3.2-1-3.4-2.7c-0.2-1.7,1-3.2,2.7-3.4
		c1.7-0.2,3.2,1,3.4,2.7c0,0.1,0,0.2,0,0.3c0.1,1.6-1,2.9-2.5,3.1C401.9,204.5,401.8,204.5,401.7,204.5L401.7,204.5z M415,208.5
		c1.5,0.1,3-0.6,4-1.7v1.4h4.7v-7.7c0.1-1.6-0.4-3.1-1.4-4.3c-1.1-1.1-2.7-1.6-5.1-1.6c-1.9,0-3.7,0.3-5.4,1l1,3.3
		c1.2-0.5,2.4-0.7,3.7-0.7c1.8,0,2.7,0.8,2.7,2.2v0.2c-1-0.3-2.1-0.5-3.2-0.5c-3.1,0-5.2,1.4-5.2,4.2S412.4,208.5,415,208.5
		L415,208.5z M416.7,205.5c-0.8,0.1-1.5-0.5-1.7-1.3c0-0.1,0-0.1,0-0.2c0-1,0.8-1.7,2.2-1.7c0.6,0,1.3,0.1,1.8,0.4v0.6
		c0,1.2-0.9,2.2-2.1,2.2C416.8,205.5,416.7,205.5,416.7,205.5L416.7,205.5z M426,208.2h7.9c3.2,0,5.1-1.4,5.1-3.7
		c0.1-1.6-1-3-2.5-3.3c1.3-0.4,2.1-1.6,2.1-3c0-0.8-0.3-1.6-0.9-2.2c-1-0.9-2.3-1.3-3.7-1.2H426L426,208.2z M430.6,205.1v-2.5h1.9
		c1.2,0,1.8,0.6,1.8,1.2s-0.6,1.3-1.7,1.3H430.6z M430.6,200.1v-2.3h1.7c1,0,1.6,0.5,1.6,1.1s-0.6,1.2-1.7,1.2H430.6z M447.9,208.5
		c3.9-0.2,6.8-3.5,6.6-7.4c-0.2-3.9-3.5-6.8-7.4-6.6c-3.7,0.2-6.6,3.3-6.6,7c0.1,3.9,3.3,7.1,7.3,7
		C447.8,208.5,447.8,208.5,447.9,208.5L447.9,208.5z M447.9,204.5c-1.6,0-2.9-1.4-2.8-3c0,0,0,0,0-0.1c-0.1-1.5,1-2.9,2.6-3
		c0.1,0,0.1,0,0.2,0c1.6,0,2.9,1.3,2.9,2.9c0,0,0,0,0,0.1c0.1,1.6-1.1,2.9-2.6,3C448,204.5,448,204.5,447.9,204.5L447.9,204.5z
		 M457.3,208.2h4.7v-2.7l1.4-1.6l2.6,4.3h5.2l-4.7-7.9l4.6-5.5h-5.3l-3.6,5v-5h-4.7V208.2z M472.2,208.2h4.9v-4.8h-4.9V208.2z
		 M472.2,199.6h4.9v-4.8h-4.9V199.6z M490.9,205.8h4.3v-4.3h4.2v-4.2h-4.2v-4.3h-4.3v4.3h-4.2v4.2h4.2L490.9,205.8z M502.5,208.2
		h5.3l7.7-13.7v-3.6h-13.4v4h8L502.5,208.2z M531.3,211.7l2-3c-3.2-2.2-4.6-4.4-4.6-7.7c0-3.2,1.4-5.5,4.6-7.7l-2-2.9
		c-4.6,2.4-7.2,5.6-7.2,10.6C524.1,206,526.7,209.2,531.3,211.7L531.3,211.7z M541.4,208.5c5.2,0,8-3.9,8-9.5c0-3.2-0.8-5.2-2.1-6.5
		c-1.4-1.4-3.3-2.1-5.3-2c-4,0-6.9,2.5-6.9,6.3c0,3.4,2.5,5.5,5.8,5.5c1.4,0,2.7-0.5,3.7-1.4c-0.2,2.2-1.3,3.6-3.3,3.6
		c-1.4,0-2.7-0.5-3.7-1.4l-2.3,3.3C537.1,207.9,539.2,208.6,541.4,208.5L541.4,208.5z M542.2,198.9c-1.3,0.1-2.4-0.9-2.5-2.2
		c-0.1-1.3,0.9-2.4,2.2-2.5c0.1,0,0.2,0,0.3,0c1.3-0.1,2.4,0.9,2.5,2.1c0,0.1,0,0.1,0,0.2c0,1.2-0.9,2.3-2.2,2.3
		C542.4,198.9,542.3,198.9,542.2,198.9L542.2,198.9z M557.8,208.5c3.9,0,6.7-2.3,6.7-5.8c0-3-2-4.4-4.5-5l4.1-3.5v-3.4h-12.5v3.9
		h6.6l-4,3.6l0.7,2.5h2c1.8,0,2.8,0.7,2.8,1.8c0,1.1-0.9,1.8-2.2,1.8c-1.6,0-3.1-0.8-4.1-2l-3,3
		C552.4,207.5,555.1,208.6,557.8,208.5L557.8,208.5z M566.4,208.2h5.3l7.7-13.7v-3.6H566v4h8L566.4,208.2z M582.8,211.7
		c4.6-2.4,7.2-5.6,7.2-10.6c0-5-2.6-8.2-7.2-10.6l-2,2.9c3.2,2.2,4.6,4.4,4.6,7.7s-1.4,5.5-4.6,7.7L582.8,211.7z M605.8,208.5
		c4.2,0,7.1-2,7.1-5.1c0-2.2-1.2-3.4-3-4.2c1.5-0.7,2.4-2.2,2.4-3.8c0-2.8-2.7-4.9-6.5-4.9s-6.5,2-6.5,4.8c0,1.6,0.9,3.1,2.4,3.8
		c-1.8,0.6-3,2.3-3,4.1C598.7,206.4,601.6,208.5,605.8,208.5L605.8,208.5z M605.8,204.9c-1.6,0-2.5-0.9-2.5-2s1-1.9,2.5-1.9
		c1.5,0,2.5,0.8,2.5,1.9S607.4,204.9,605.8,204.9L605.8,204.9z M605.8,197.9c-1-0.1-1.8-1.1-1.6-2.1c0.1-1,1.1-1.8,2.1-1.6
		c0.9,0.1,1.6,0.9,1.7,1.8C607.9,197,607,197.9,605.8,197.9C605.9,197.9,605.8,197.9,605.8,197.9L605.8,197.9z M623.1,208.2h4.7
		v-3.4h2.2v-3.6h-2.2v-10.5h-4.9l-9,10.7l0.8,3.4h8.4L623.1,208.2z M619,201.2l4.1-5v5H619z M631.4,208.2h5.3l7.7-13.7v-3.6H631v4h8
		L631.4,208.2z M645.3,202.5h8.1v-4.1h-8.1V202.5z M662.9,208.5c3.8,0,6.9-2.3,6.9-6.2c0-3.5-2.7-5.4-5.7-5.4
		c-1.4,0-2.7,0.5-3.7,1.3c0.2-2.2,1.2-3.7,3.3-3.7c1.3,0,2.5,0.5,3.4,1.3l2.2-3.4c-1.6-1.3-3.7-2-5.8-1.9c-5.4,0-8.1,4.1-8.1,9.5
		c0,3.3,0.8,5.2,2.1,6.5C659,207.9,660.9,208.6,662.9,208.5L662.9,208.5z M662.7,204.8c-1.2,0.1-2.3-0.8-2.4-2c0-0.1,0-0.1,0-0.2
		c-0.1-1.2,0.9-2.2,2.1-2.3c0.1,0,0.2,0,0.3,0c1.2-0.1,2.3,0.8,2.4,2c0,0.1,0,0.1,0,0.2c0.1,1.2-0.9,2.2-2.1,2.3
		C662.9,204.8,662.8,204.8,662.7,204.8L662.7,204.8z M678.3,208.5c4.2,0,7.2-2.3,7.2-6.2c0-3.9-2.8-5.5-5.9-5.5
		c-1,0-1.9,0.2-2.8,0.6l0.1-2.6h7.8v-4h-11.6l-0.5,8.8l2.9,1.6c0.8-0.5,1.8-0.8,2.8-0.9c1.5,0,2.5,0.8,2.5,2c0,1.2-1,2.1-2.5,2.1
		c-1.6-0.1-3.1-0.8-4.2-1.9l-2.8,3.2C673.2,207.6,675.7,208.6,678.3,208.5L678.3,208.5z M687.4,202.5h8.1v-4.1h-8.1L687.4,202.5z
		 M704.1,208.5c3.9,0,6.7-2.3,6.7-5.8c0-3-2-4.4-4.5-5l4.1-3.5v-3.4h-12.5v3.9h6.6l-4,3.6l0.7,2.5h2c1.8,0,2.8,0.7,2.8,1.8
		c0,1.1-0.9,1.8-2.2,1.8c-1.6,0-3.1-0.8-4.1-2l-3,3C698.7,207.5,701.4,208.6,704.1,208.5L704.1,208.5z M720.1,208.5
		c3.8,0,6.9-2.3,6.9-6.2c0-3.5-2.7-5.4-5.7-5.4c-1.4,0-2.7,0.5-3.7,1.3c0.2-2.2,1.2-3.7,3.3-3.7c1.3,0,2.5,0.5,3.4,1.3l2.3-3.4
		c-1.6-1.3-3.7-2-5.8-1.9c-5.4,0-8,4.1-8,9.5c0,3.3,0.8,5.2,2.1,6.5C716.2,207.9,718.2,208.6,720.1,208.5L720.1,208.5z M719.9,204.8
		c-1.2,0.1-2.3-0.8-2.4-2.1c0-0.1,0-0.1,0-0.2c0-1.2,0.9-2.2,2.1-2.3c0.1,0,0.2,0,0.3,0c1.2-0.1,2.3,0.8,2.4,2c0,0.1,0,0.1,0,0.2
		c0,1.2-0.9,2.2-2.1,2.3C720.1,204.8,720,204.8,719.9,204.8L719.9,204.8z"/>
</g>
</svg>
