<svg id="Слой_1" data-name="Слой 1" xmlns="http://www.w3.org/2000/svg" xmlns:xlink="http://www.w3.org/1999/xlink" viewBox="0 0 210.84 205.33"><defs><style>.cls-1{fill:none;}.cls-2{clip-path:url(#clip-path);}.cls-3{clip-path:url(#clip-path-2);}.cls-4{fill:#303030;}</style><clipPath id="clip-path"><rect class="cls-1" x="618.64" y="-306.43" width="595.28" height="841.89"/></clipPath><clipPath id="clip-path-2"><rect class="cls-1" x="-192.21" y="-307.51" width="595.28" height="841.89"/></clipPath></defs><title>flower</title><path class="cls-4" d="M201.07,64.52a39.29,39.29,0,0,0-9.36-12.66c-5.27-4.73-11.33-5.88-18-4.38a35.92,35.92,0,0,0-10.25,4A72.14,72.14,0,0,0,149.56,62c-5.7,5.52-10.66,11.94-18.39,15-1.71.67-3.14.23-3.32-1.63a15.08,15.08,0,0,1,.16-4.45,26.43,26.43,0,0,1,5.68-11c2.9-3.61,6.26-6.86,9.24-10.41,2.14-2.57,4-5.4,6-8.11a29.8,29.8,0,0,0,5.51-12.14,16.84,16.84,0,0,0-2.48-12.58c-2.89-4.54-7.3-7.25-12.15-9.07A77.22,77.22,0,0,0,127,4c-8-1.51-15.92-2.14-23.64,1.41a15.62,15.62,0,0,0-7.55,7.12c-2.49,4.75-2.81,10-2.4,15.18C94,34.63,96,41.17,98.49,47.61c2.06,5.41,3.52,10.92,2.65,16.82-.42,2.88-2.76,3.88-5.32,2.56-3.49-1.78-4.74-4.93-5.87-8.25-1.75-5.13-3.32-10.32-5.23-15.4A61.58,61.58,0,0,0,75,26.29c-4.7-5.82-10.71-8.75-18.31-8.06-5.39.5-10.11,2.86-14.6,5.63A58.44,58.44,0,0,0,27,37.61a34.55,34.55,0,0,0-6.92,13.27C19.3,54.25,19,57.76,20.46,61c2.26,5.27,6.49,8.69,11.43,11.24,7.72,4,16,6.53,24.31,8.82,5,1.38,9.69,3.36,12.64,7.89,1.88,2.89,2.59,5-1.24,6.57A21.28,21.28,0,0,1,61.09,97c-6.89.46-13.6-1-20.24-2.59C35.1,93,29.37,92.13,23.5,93.54,15.85,95.37,10,99.48,7.64,107.21a42,42,0,0,0,.12,23.31,35.11,35.11,0,0,0,7.25,14c2.19,2.52,4.43,5,7.46,6.57,6.89,3.49,13.43,1.83,19.69-1.7,5.37-3,9.92-7.18,14.57-11.2s9.72-8,14.69-11.81a6,6,0,0,1,6.29-1c.72.31,1.68,1.18,1.69,1.81,0,1.6,0,3.49-.75,4.74a100.91,100.91,0,0,1-8,11c-4.46,5.2-9.46,9.94-13.83,15.18-3.73,4.47-6.53,9.48-6.48,15.67A13.74,13.74,0,0,0,53.09,182c3.47,4.76,8.27,7.89,13.51,10.46a82.79,82.79,0,0,0,18.31,6.42c6,1.37,12,1.71,17.9-.44,3.27-1.19,6.24-2.86,7.08-6.59a81.89,81.89,0,0,0,2.1-11.55c.83-11.35-.2-22.64-1.36-33.93-.34-3.28-1-6.62.39-9.86,1-2.4,2.74-3,5.08-1.75a13.77,13.77,0,0,1,6.37,7.34c1.23,3.15,2.26,6.39,3.51,9.53a48.51,48.51,0,0,0,2.9,6.09c2.5,4.4,4.8,8.95,7.78,13,5.53,7.55,13.28,10.25,22.32,8.15a47.62,47.62,0,0,0,11.35-4.55c4.71-2.5,8-6.66,11.18-10.86a44.25,44.25,0,0,0,8.4-20.18,12.26,12.26,0,0,0-3.72-11.38,27.19,27.19,0,0,0-9.56-6c-4.87-1.83-9.63-3.9-14.49-5.7-4.56-1.7-9.24-3.11-13.79-4.83-2.43-.94-5-1.63-6.88-3.81-1.38-1.65-1.49-3.2.28-4.38a14.67,14.67,0,0,1,5.47-2.61c5-.8,10.13-1.11,15.2-1.61l0,.4c1,0,2,0,3,0,11-.09,21.42-2.34,30.67-8.56a18.68,18.68,0,0,0,8.47-13.15c.91-6.15-1-11.76-3.52-17.12m-95.64,52A17.51,17.51,0,1,1,122.94,99a17.5,17.5,0,0,1-17.51,17.51"/></svg>