<svg xmlns="http://www.w3.org/2000/svg" viewBox="0 0 197.86 201"><defs><style>.cls-1{fill:#fff;}</style></defs><title>Ресурс 22</title><g id="Слой_2" data-name="Слой 2"><g id="Слой_1-2" data-name="Слой 1"><path class="cls-1" d="M76.27,8l4.32,9.05,9.94,1.31-7.27,6.91,1.82,9.87-8.81-4.79-8.82,4.79,1.83-9.87L62,18.36l10-1.31Z"/><path class="cls-1" d="M118.27,0l4.32,9.05,9.94,1.31-7.27,6.91,1.82,9.87-8.81-4.79-8.82,4.79,1.83-9.87L104,10.36l10-1.31Z"/><path class="cls-1" d="M160.27,5l4.32,9.05,9.94,1.31-7.27,6.91,1.82,9.87-8.81-4.79-8.82,4.79,1.83-9.87L146,15.36,156,14.05Z"/><path class="cls-1" d="M38.27,35l4.32,9,9.94,1.31-7.27,6.91,1.82,9.87-8.81-4.79-8.82,4.79,1.83-9.87L24,45.36l10-1.31Z"/><path class="cls-1" d="M14.27,72l4.32,9,9.94,1.32-7.27,6.9,1.82,9.86-8.81-4.78L5.45,99.13l1.83-9.86L0,82.37l10-1.32Z"/><path class="cls-1" d="M14.27,118l4.32,9,9.94,1.32-7.27,6.9,1.82,9.86-8.81-4.78-8.82,4.78,1.83-9.86L0,128.37l10-1.32Z"/><circle class="cls-1" cx="115.86" cy="119" r="82"/><path d="M94,70.84v6.42c0,.33,0,.9,0,1.7s-.07,1.66-.15,2.61-.21,1.89-.37,2.82a9.6,9.6,0,0,1-.68,2.32,7,7,0,0,1-1.89,2.51,4.41,4.41,0,0,1-2.8.9h-.18V87a2.3,2.3,0,0,0,1.46-.56,3.76,3.76,0,0,0,.86-1.24,7,7,0,0,0,.44-1.58,18.88,18.88,0,0,0,.28-2c.06-.71.1-1.43.12-2.17s0-1.46,0-2.14V68.05h9.18V90.12H97.13V70.84Zm9.24,19.28V68.05h9.42v3h-6.26v6.48h5.46v3h-5.46V87h6.26v3.16Zm.65-23.43V63.52h2.79v3.17Zm5,0V63.52h2.79v3.17Zm12.28,1.36h3.17v9.46h.93a2,2,0,0,0,.86-.16,1.2,1.2,0,0,0,.53-.43,1.9,1.9,0,0,0,.31-.62q.09-.37.15-.81l.31-2.63a2.51,2.51,0,0,0,.07-.5,8.46,8.46,0,0,1,.18-.87c.11-.33.23-.67.37-1a4.05,4.05,0,0,1,2-2.11,5.2,5.2,0,0,1,1.89-.31h0v3H132a1.78,1.78,0,0,0-.65.12,1.28,1.28,0,0,0-.53.37,1.56,1.56,0,0,0-.34.68q-.06.4-.12.9l-.28,2.58a6.48,6.48,0,0,1-.1.77l-.12.68a2,2,0,0,1-.15.5,3,3,0,0,1-.93,1.27l2.91,11.22h-3.22L126,80.29h-1.64v9.83h-3.17V80.29h-1.64l-2.42,9.83h-3.22l2.91-11.22a3,3,0,0,1-.93-1.27,2,2,0,0,1-.15-.5c0-.22-.09-.45-.13-.68s-.07-.51-.09-.77l-.28-2.58q-.06-.5-.15-.9a1.33,1.33,0,0,0-.31-.68,1.25,1.25,0,0,0-.56-.37,1.59,1.59,0,0,0-.62-.12h-.06v-3h0a5,5,0,0,1,1.86.31,3.52,3.52,0,0,1,1.45,1.12,3.18,3.18,0,0,1,.59,1,6.42,6.42,0,0,1,.34,1,3.34,3.34,0,0,1,.19.87c0,.25.07.41.09.5l.31,2.63c0,.29.1.56.16.81a2,2,0,0,0,.28.62,1.54,1.54,0,0,0,.52.43,2.27,2.27,0,0,0,.9.16h.93Zm19,14.35-1.55-8h-.06l-1.55,8Zm-7.81,7.72,4.93-22.07H140l4.93,22.07h-3.16l-.93-4.74h-4.31l-.93,4.74Zm-74.75,30a5.35,5.35,0,0,0,1-.1,1.48,1.48,0,0,0,.87-.4,3.15,3.15,0,0,0,.53-.77,6.68,6.68,0,0,0,.56-1.56l.28-1.2-4.78-15.07h3.35l3,10.38h.06l2.32-10.38h3.35l-4.59,16.77a24.79,24.79,0,0,1-.93,2.7,4.71,4.71,0,0,1-1.39,1.89,3.23,3.23,0,0,1-1.58.74,9.06,9.06,0,0,1-1.8.16h-.43v-3.16Zm22.09-3.32v1.36a4.85,4.85,0,0,1-.41,2,5.45,5.45,0,0,1-1,1.61,5.29,5.29,0,0,1-1.61,1.14,4.71,4.71,0,0,1-2,.41,7,7,0,0,1-1.83-.25,4.32,4.32,0,0,1-1.67-.87A4.92,4.92,0,0,1,70,120.61a5.93,5.93,0,0,1-.46-2.51V106a5.37,5.37,0,0,1,.37-2,4.88,4.88,0,0,1,1-1.61,4.73,4.73,0,0,1,1.61-1,5.44,5.44,0,0,1,2.11-.41,4.81,4.81,0,0,1,3.63,1.46,5.12,5.12,0,0,1,1,1.71,5.35,5.35,0,0,1,.41,2.1v1.24H76.59v-1.05a2.55,2.55,0,0,0-.52-1.61,1.7,1.7,0,0,0-1.43-.68,1.63,1.63,0,0,0-1.58.74,3.89,3.89,0,0,0-.37,1.83v11.28a3,3,0,0,0,.4,1.61,1.69,1.69,0,0,0,1.52.66,2.19,2.19,0,0,0,.65-.1,2,2,0,0,0,.68-.37,1.86,1.86,0,0,0,.47-.68,2.85,2.85,0,0,0,.18-1.09v-1.08Zm4.35,6.29V104H80.45v-3H90.93v3H87.27v19.09Zm8.22,0V101.05h4.74a6.94,6.94,0,0,1,2.29.34,4.45,4.45,0,0,1,1.8,1.21,4.73,4.73,0,0,1,1.12,2.05,12.75,12.75,0,0,1,.31,3.13,13.72,13.72,0,0,1-.19,2.51,5,5,0,0,1-.71,1.92,4.65,4.65,0,0,1-1.74,1.7,5.86,5.86,0,0,1-2.85.59H95.49v8.62ZM95.49,104v7.5H97a3.35,3.35,0,0,0,1.49-.28,1.81,1.81,0,0,0,.77-.78,2.59,2.59,0,0,0,.28-1.14c0-.46.06-1,.06-1.52s0-1,0-1.46a3.14,3.14,0,0,0-.28-1.24,1.76,1.76,0,0,0-.74-.81,3.05,3.05,0,0,0-1.43-.27Zm9.28,2.23a5.65,5.65,0,0,1,.46-2.36,4.89,4.89,0,0,1,1.24-1.7,5.06,5.06,0,0,1,1.67-1,5.66,5.66,0,0,1,1.93-.35,5.4,5.4,0,0,1,1.89.35,5.23,5.23,0,0,1,1.73,1,5.09,5.09,0,0,1,1.21,1.7,5.65,5.65,0,0,1,.47,2.36v11.65a5.6,5.6,0,0,1-.47,2.39,4.83,4.83,0,0,1-1.21,1.64,5.17,5.17,0,0,1-1.73,1,5.63,5.63,0,0,1-1.89.34,5.9,5.9,0,0,1-1.93-.34,5,5,0,0,1-1.67-1,4.66,4.66,0,0,1-1.24-1.64,5.6,5.6,0,0,1-.46-2.39Zm3.16,11.65a2.16,2.16,0,0,0,.62,1.71,2.34,2.34,0,0,0,1.52.53,2.22,2.22,0,0,0,1.48-.53,2.11,2.11,0,0,0,.66-1.71V106.26a2,2,0,0,0-.66-1.68,2.14,2.14,0,0,0-1.48-.55,2.26,2.26,0,0,0-1.52.55,2.06,2.06,0,0,0-.62,1.68Zm17.6,5.21V108.8h-.06l-4.16,14.32h-3.16V101.05h3.16V115.4h.06l4.16-14.35h3.16v22.07Zm-3.78-26.5c0,.12,0,.28.06.46a1.51,1.51,0,0,0,.18.53,1.77,1.77,0,0,0,.5.43,1.89,1.89,0,0,0,.93.19,1.72,1.72,0,0,0,.9-.19,1.35,1.35,0,0,0,.5-.43,1.28,1.28,0,0,0,.21-.53c0-.18,0-.34.06-.46h2.64a4.07,4.07,0,0,1-1.24,2.73,4.63,4.63,0,0,1-3.07.86,4.74,4.74,0,0,1-3.1-.86,4.15,4.15,0,0,1-1.21-2.73Zm12,26.5V104h-3.66v-3h10.48v3h-3.66v19.09Zm8.22,0V101.05h9.42v3h-6.26v6.48h5.45v3h-5.45V120h6.26v3.16Zm21.51-6.29v1.36a4.84,4.84,0,0,1-.4,2,5.45,5.45,0,0,1-1.05,1.61,5.33,5.33,0,0,1-1.62,1.14,4.7,4.7,0,0,1-1.95.41,6.89,6.89,0,0,1-1.83-.25,4.25,4.25,0,0,1-1.67-.87,4.92,4.92,0,0,1-1.24-1.58,5.92,5.92,0,0,1-.47-2.51V106a5.58,5.58,0,0,1,.37-2,4.75,4.75,0,0,1,1.06-1.61,4.63,4.63,0,0,1,1.61-1,5.36,5.36,0,0,1,2.11-.41,4.81,4.81,0,0,1,3.63,1.46,5.12,5.12,0,0,1,1.05,1.71,5.35,5.35,0,0,1,.4,2.1v1.24H160.3v-1.05a2.55,2.55,0,0,0-.53-1.61,1.68,1.68,0,0,0-1.42-.68,1.61,1.61,0,0,0-1.58.74,3.89,3.89,0,0,0-.38,1.83v11.28a3,3,0,0,0,.41,1.61,1.68,1.68,0,0,0,1.52.66,2.24,2.24,0,0,0,.65-.1,2.16,2.16,0,0,0,.68-.37,1.85,1.85,0,0,0,.46-.68,2.66,2.66,0,0,0,.19-1.09v-1.08ZM166,101.05h3.16v9h1.18a6.93,6.93,0,0,1,2.73.47,4.43,4.43,0,0,1,1.8,1.24,4.24,4.24,0,0,1,.9,1.86,10.6,10.6,0,0,1,.21,2.2v1.24a6.35,6.35,0,0,1-1.42,4.46q-1.4,1.55-4.5,1.55H166Zm3.16,11.84V120h1.12a3.19,3.19,0,0,0,1.49-.28,2,2,0,0,0,.84-.77,3.07,3.07,0,0,0,.34-1.18c0-.46.06-1,.06-1.49a4.69,4.69,0,0,0-.53-2.51,1.62,1.62,0,0,0-.81-.62,3.32,3.32,0,0,0-1.36-.22ZM61.1,156.12V134.05H71.17v22.07H68V136.84H64.26v19.28ZM74,139.26a5.65,5.65,0,0,1,.47-2.36,4.89,4.89,0,0,1,1.24-1.7,5,5,0,0,1,1.67-1,5.65,5.65,0,0,1,1.92-.35,5.9,5.9,0,0,1,3.63,1.34,5.09,5.09,0,0,1,1.21,1.7,5.65,5.65,0,0,1,.46,2.36v11.65a5.6,5.6,0,0,1-.46,2.39,4.83,4.83,0,0,1-1.21,1.64,5.31,5.31,0,0,1-1.74,1,5.63,5.63,0,0,1-1.89.34,5.89,5.89,0,0,1-1.92-.34,4.91,4.91,0,0,1-1.67-1,4.66,4.66,0,0,1-1.24-1.64,5.6,5.6,0,0,1-.47-2.39Zm3.16,11.65a2.19,2.19,0,0,0,.62,1.71,2.36,2.36,0,0,0,1.52.53,2.23,2.23,0,0,0,1.49-.53,2.14,2.14,0,0,0,.65-1.71V139.26a2,2,0,0,0-.65-1.68,2.15,2.15,0,0,0-1.49-.55,2.28,2.28,0,0,0-1.52.55,2.1,2.1,0,0,0-.62,1.68Zm10.6,2.24a5.35,5.35,0,0,0,1-.1,1.54,1.54,0,0,0,.87-.4,3.46,3.46,0,0,0,.53-.77,6.73,6.73,0,0,0,.55-1.56l.28-1.2-4.77-15.07h3.35l3,10.38h.06l2.33-10.38h3.35l-4.59,16.77a24.79,24.79,0,0,1-.93,2.7,4.81,4.81,0,0,1-1.39,1.89,3.22,3.22,0,0,1-1.59.74,8.89,8.89,0,0,1-1.79.16H87.5v-3.16Zm12,3v3.41H96.94v-6.2h1.61a12.28,12.28,0,0,0,.53-1.33c.16-.52.31-1.05.43-1.61s.24-1.13.34-1.71.19-1.18.25-1.73.07-.92.1-1.46.07-1.09.09-1.64,0-1.15,0-1.71,0-1.13,0-1.64v-6.45h9.08v19.28h1.8v6.2H108.5v-3.41Zm3.66-19.28v3.63c0,.29,0,.71,0,1.27s-.05,1.12-.09,1.77-.08,1.29-.12,2-.1,1.21-.16,1.7-.11.89-.21,1.43-.19,1-.31,1.61-.26,1.12-.41,1.68a11.16,11.16,0,0,1-.49,1.45h4.77V136.84Zm9.32,2.42a5.65,5.65,0,0,1,.47-2.36,4.89,4.89,0,0,1,1.24-1.7,5,5,0,0,1,1.67-1,5.65,5.65,0,0,1,1.92-.35,5.9,5.9,0,0,1,3.63,1.34,5.09,5.09,0,0,1,1.21,1.7,5.65,5.65,0,0,1,.46,2.36v11.65a5.6,5.6,0,0,1-.46,2.39,4.83,4.83,0,0,1-1.21,1.64,5.31,5.31,0,0,1-1.74,1,5.63,5.63,0,0,1-1.89.34A5.89,5.89,0,0,1,116,156a4.91,4.91,0,0,1-1.67-1,4.66,4.66,0,0,1-1.24-1.64,5.6,5.6,0,0,1-.47-2.39Zm3.16,11.65a2.19,2.19,0,0,0,.62,1.71,2.36,2.36,0,0,0,1.52.53,2.23,2.23,0,0,0,1.49-.53,2.14,2.14,0,0,0,.65-1.71V139.26a2,2,0,0,0-.65-1.68A2.15,2.15,0,0,0,118,137a2.28,2.28,0,0,0-1.52.55,2.1,2.1,0,0,0-.62,1.68ZM126,134.05h9v3H129.2v6.07h1.24a7.43,7.43,0,0,1,2.73.44,4.24,4.24,0,0,1,1.79,1.24,4,4,0,0,1,.9,1.89,13.1,13.1,0,0,1,.22,2.2v1.24a6.36,6.36,0,0,1-1.43,4.46c-.93,1-2.42,1.55-4.49,1.55H126Zm3.16,11.84V153h1.18a3.14,3.14,0,0,0,1.48-.28,1.86,1.86,0,0,0,.84-.77,2.91,2.91,0,0,0,.34-1.18c0-.46.06-.95.06-1.49a7.82,7.82,0,0,0-.12-1.46,2.27,2.27,0,0,0-.4-1.05,2,2,0,0,0-.81-.62,3.35,3.35,0,0,0-1.36-.22Zm9.37,10.23V134.05h3.16v9.46h3.91v-9.46h3.16v22.07h-3.16v-9.83h-3.91v9.83Zm13.2,0V134.05h9.42v3h-6.26v6.48h5.46v3h-5.46V153h6.26v3.16Zm11.47,0V134.05h9.43v3H166.4v6.48h5.46v3H166.4V153h6.27v3.16Z"/></g></g></svg>