<svg xmlns="http://www.w3.org/2000/svg" viewBox="0 0 177 177"><defs><style>.cls-1{fill:#303030;stroke:#221f20;stroke-width:4px;}.cls-2{fill:#fff;}</style></defs><title>naidi</title><g id="Слой_2" data-name="Слой 2"><g id="Слой_1-2" data-name="Слой 1"><circle class="cls-1" cx="88.5" cy="88.5" r="86.5"/><path class="cls-2" d="M47,68.5V46.43h3.16v9.45h3.91V46.43h3.16V68.5H54.07V58.67H50.16V68.5Zm19.58-7.72-1.55-8H65l-1.55,8ZM58.77,68.5,63.7,46.43h2.63L71.26,68.5H68.1l-.93-4.74H62.86l-.93,4.74Zm21.43,0V54.18h-.06L76,68.5H72.82V46.43H76V60.78H76L80.2,46.43h3.16V68.5ZM76.42,42c0,.12,0,.27.06.46a1.51,1.51,0,0,0,.18.53,1.77,1.77,0,0,0,.5.43,2,2,0,0,0,.93.19,1.83,1.83,0,0,0,.9-.19,1.24,1.24,0,0,0,.49-.43,1.18,1.18,0,0,0,.22-.53c0-.19,0-.34.06-.46H82.4a4,4,0,0,1-1.24,2.72,4.56,4.56,0,0,1-3.07.87,4.68,4.68,0,0,1-3.1-.87A4.12,4.12,0,0,1,73.78,42Zm11.2,26.5v3.41H84.9v-6.2h1.61c.18-.39.36-.84.53-1.33s.31-1.06.43-1.62.24-1.12.34-1.7.19-1.18.25-1.74.07-.92.09-1.45.07-1.09.09-1.65,0-1.14,0-1.7,0-1.13,0-1.64V46.43h9.08V65.71h1.8v6.2H96.46V68.5Zm3.66-19.28v3.63c0,.28,0,.71,0,1.27s0,1.12-.09,1.76-.08,1.3-.13,2-.09,1.2-.15,1.7A14.06,14.06,0,0,1,90.66,61c-.08.51-.18,1.05-.31,1.61s-.26,1.11-.4,1.67a10.8,10.8,0,0,1-.5,1.46h4.78V49.22ZM108.17,68.5V54.18h-.06L104,68.5h-3.16V46.43H104V60.78H104l4.15-14.35h3.16V68.5Zm8.2,0V49.4h-3.66v-3h10.48v3h-3.66V68.5Zm8.22,0V46.43H134v3h-6.26v6.48h5.46v3h-5.46v6.48H134V68.5ZM24,101.5V79.43H34.06V101.5H30.9V82.22H27.15V101.5ZM36.85,84.64a5.65,5.65,0,0,1,.47-2.36,5,5,0,0,1,1.24-1.71,5.32,5.32,0,0,1,1.67-1,5.89,5.89,0,0,1,1.92-.34,5.63,5.63,0,0,1,1.89.34,5.77,5.77,0,0,1,1.74,1A5.39,5.39,0,0,1,47,82.28a5.65,5.65,0,0,1,.46,2.36V96.29A5.6,5.6,0,0,1,47,98.68a5,5,0,0,1-1.21,1.64,5.31,5.31,0,0,1-1.74,1,5.63,5.63,0,0,1-1.89.34,5.89,5.89,0,0,1-1.92-.34,4.91,4.91,0,0,1-1.67-1,4.66,4.66,0,0,1-1.24-1.64,5.6,5.6,0,0,1-.47-2.39ZM40,96.29A2.21,2.21,0,0,0,40.63,98a2.36,2.36,0,0,0,1.52.52A2.22,2.22,0,0,0,43.64,98a2.15,2.15,0,0,0,.65-1.71V84.64A2,2,0,0,0,43.64,83a2.16,2.16,0,0,0-1.49-.56,2.29,2.29,0,0,0-1.52.56A2.1,2.1,0,0,0,40,84.64Zm11.22,5.21v3.41H48.51v-6.2h1.61c.18-.39.36-.84.53-1.33s.31-1.06.43-1.62.24-1.12.34-1.7.19-1.18.25-1.74.07-.92.09-1.45.07-1.09.1-1.65,0-1.14,0-1.7,0-1.13,0-1.64V79.43H61V98.71h1.8v6.2H60.07V101.5Zm3.66-19.28v3.63c0,.28,0,.71,0,1.27s0,1.12-.09,1.76-.08,1.3-.13,2-.09,1.2-.15,1.7A14.06,14.06,0,0,1,54.27,94c-.08.51-.18,1-.31,1.61s-.26,1.12-.4,1.67a9.57,9.57,0,0,1-.5,1.46h4.78V82.22Zm8.27,19.28,4.46-11.56L63.5,79.43h3.35L69.23,86l2.42-6.54H75L70.78,89.94l4.56,11.56H72l-2.76-7.44-2.72,7.44ZM76.27,84.64a5.65,5.65,0,0,1,.46-2.36A5,5,0,0,1,78,80.57a5.48,5.48,0,0,1,1.68-1,5.89,5.89,0,0,1,1.92-.34,5.63,5.63,0,0,1,1.89.34,5.77,5.77,0,0,1,1.74,1,5.36,5.36,0,0,1,1.2,1.71,5.65,5.65,0,0,1,.47,2.36V96.29a5.6,5.6,0,0,1-.47,2.39,5,5,0,0,1-1.2,1.64,5.31,5.31,0,0,1-1.74,1,5.63,5.63,0,0,1-1.89.34,5.89,5.89,0,0,1-1.92-.34,5,5,0,0,1-1.68-1,4.66,4.66,0,0,1-1.24-1.64,5.6,5.6,0,0,1-.46-2.39Zm3.16,11.65A2.21,2.21,0,0,0,80.05,98a2.34,2.34,0,0,0,1.52.52A2.24,2.24,0,0,0,83.06,98a2.15,2.15,0,0,0,.65-1.71V84.64A2,2,0,0,0,83.06,83a2.17,2.17,0,0,0-1.49-.56,2.27,2.27,0,0,0-1.52.56,2.1,2.1,0,0,0-.62,1.68Zm11.22,5.21v3.41H87.92v-6.2h1.62a12.34,12.34,0,0,0,.52-1.33c.17-.52.31-1.06.44-1.62s.23-1.12.34-1.7.18-1.18.24-1.74.08-.92.1-1.45.07-1.09.09-1.65,0-1.14,0-1.7,0-1.13,0-1.64V79.43h9.09V98.71h1.79v6.2H99.49V101.5Zm3.66-19.28v3.63c0,.28,0,.71,0,1.27s0,1.12-.1,1.76-.08,1.3-.12,2-.09,1.2-.15,1.7-.12.89-.22,1.43-.19,1-.31,1.61-.26,1.12-.4,1.67a10.8,10.8,0,0,1-.5,1.46h4.77V82.22Zm15,.18a2.34,2.34,0,0,0-2.2.9,5.14,5.14,0,0,0-.5,2.55,10.88,10.88,0,0,0,.09,1.48,3.07,3.07,0,0,0,.34,1.06,2,2,0,0,0,.78.68,3.44,3.44,0,0,0,1.33.22h1.52V82.4Zm1.36,19.1V92.08h-1.46l-2.76,9.42H103.2l3-9.83a3.61,3.61,0,0,1-1.31-.83,4.63,4.63,0,0,1-.89-1.27,5.43,5.43,0,0,1-.47-1.68,16,16,0,0,1-.12-2q0-6.48,5.58-6.48h4.8V101.5Zm6.14,0V79.43h3.16V98.71h3.19V79.43h3.16V98.71h3.2V79.43h3.16V98.71h1.8v6.2h-2.73V101.5Zm19.34,0V79.43h9.43v3h-6.27v6.48h5.46v3h-5.46v6.48h6.27v3.16Zm11.48,0V79.43H157v3h-6.26v6.48h5.45v3h-5.45v6.48H157v3.16Zm-88.15,33V112.43h3l4.06,11.69h.06l4-11.69h3.07V134.5H70.55V121.08h-.06l-3.13,9.48H65.78l-3.1-9.48h-.06V134.5Zm17.23,0V112.43H86.1v3H79.84v6.48H85.3v3H79.84v6.48H86.1v3.16Zm21.52-6.29v1.36a5,5,0,0,1-.4,2,5.22,5.22,0,0,1-1.06,1.62,5.34,5.34,0,0,1-1.61,1.14,4.7,4.7,0,0,1-1.95.41,7.32,7.32,0,0,1-1.83-.25,4.5,4.5,0,0,1-1.68-.87A5.07,5.07,0,0,1,88.43,132a5.93,5.93,0,0,1-.46-2.51V117.33a5.34,5.34,0,0,1,.37-2,4.78,4.78,0,0,1,1-1.61,4.62,4.62,0,0,1,1.62-1,5.35,5.35,0,0,1,2.1-.41,4.79,4.79,0,0,1,4.69,3.16,5.58,5.58,0,0,1,.4,2.11v1.24H95v-1a2.55,2.55,0,0,0-.53-1.61,1.7,1.7,0,0,0-1.43-.69,1.63,1.63,0,0,0-1.58.75,3.89,3.89,0,0,0-.37,1.83v11.28a3,3,0,0,0,.4,1.61,1.68,1.68,0,0,0,1.52.65,2.48,2.48,0,0,0,.65-.09,2.3,2.3,0,0,0,.69-.37,1.94,1.94,0,0,0,.46-.68,2.84,2.84,0,0,0,.19-1.09v-1.08Zm4.35,6.29V115.4H98.89v-3h10.48v3h-3.66v19.1Zm7.67-16.86a5.65,5.65,0,0,1,.46-2.36,5.16,5.16,0,0,1,1.24-1.71,5.48,5.48,0,0,1,1.68-1,5.89,5.89,0,0,1,1.92-.34,5.63,5.63,0,0,1,1.89.34,5.77,5.77,0,0,1,1.74,1,5.39,5.39,0,0,1,1.21,1.71,5.65,5.65,0,0,1,.46,2.36v11.65a5.6,5.6,0,0,1-.46,2.39,5,5,0,0,1-1.21,1.64,5.31,5.31,0,0,1-1.74,1,5.63,5.63,0,0,1-1.89.34,5.89,5.89,0,0,1-1.92-.34,5,5,0,0,1-1.68-1,4.78,4.78,0,0,1-1.24-1.64,5.6,5.6,0,0,1-.46-2.39Zm3.16,11.65A2.21,2.21,0,0,0,114,131a2.34,2.34,0,0,0,1.52.52A2.24,2.24,0,0,0,117,131a2.15,2.15,0,0,0,.65-1.71V117.64A2,2,0,0,0,117,116a2.17,2.17,0,0,0-1.49-.56A2.27,2.27,0,0,0,114,116a2.1,2.1,0,0,0-.62,1.68Z"/></g></g></svg>