<svg xmlns="http://www.w3.org/2000/svg" viewBox="0 0 382 382"><defs><style>.cls-1{fill:#f3f800;stroke:#000;stroke-width:3px;}</style></defs><title>Ресурс 29</title><g id="Слой_2" data-name="Слой 2"><g id="Слой_1-2" data-name="Слой 1"><circle class="cls-1" cx="191" cy="191" r="189.5"/><path d="M144.55,153.14a5.65,5.65,0,0,1,.46-2.36,4.89,4.89,0,0,1,1.24-1.7,5.27,5.27,0,0,1,1.67-1,6,6,0,0,1,1.93-.34,5.63,5.63,0,0,1,1.89.34,5.44,5.44,0,0,1,1.73,1,5.09,5.09,0,0,1,1.21,1.7,5.65,5.65,0,0,1,.47,2.36v11.65a5.6,5.6,0,0,1-.47,2.39,4.83,4.83,0,0,1-1.21,1.64,5.17,5.17,0,0,1-1.73,1,5.63,5.63,0,0,1-1.89.34,6,6,0,0,1-1.93-.34,5,5,0,0,1-1.67-1,4.66,4.66,0,0,1-1.24-1.64,5.6,5.6,0,0,1-.46-2.39Zm3.16,11.65a2.17,2.17,0,0,0,.62,1.71,2.34,2.34,0,0,0,1.52.52,2.21,2.21,0,0,0,1.48-.52,2.12,2.12,0,0,0,.66-1.71V153.14a2,2,0,0,0-.66-1.68,2.15,2.15,0,0,0-1.48-.56,2.27,2.27,0,0,0-1.52.56,2.06,2.06,0,0,0-.62,1.68ZM167.6,170h-3.16v-9.8l-.62.1q-.37,0-1,0a7.14,7.14,0,0,1-2.11-.31,4.22,4.22,0,0,1-1.7-1,4,4,0,0,1-1-1.68,7.64,7.64,0,0,1-.31-2.17v-7.28h3.16v6.91a4.71,4.71,0,0,0,.13,1,1.74,1.74,0,0,0,.46.87,2.4,2.4,0,0,0,1.77.59h.5l.4-.06.34-.06v-9.3h3.16ZM178,170V155.68h-.06L173.75,170h-3.17V147.93h3.17v14.35h.06L178,147.93h3.16V170Zm16.17-6.29v1.36a4.83,4.83,0,0,1-.4,2,5.22,5.22,0,0,1-1.06,1.62,5.34,5.34,0,0,1-1.61,1.14,4.7,4.7,0,0,1-1.95.41,7.32,7.32,0,0,1-1.83-.25,4.38,4.38,0,0,1-1.67-.87,4.92,4.92,0,0,1-1.24-1.58,5.92,5.92,0,0,1-.47-2.51V152.83a5.34,5.34,0,0,1,.37-2,4.78,4.78,0,0,1,2.67-2.67,5.55,5.55,0,0,1,2.11-.4,4.8,4.8,0,0,1,3.62,1.46,4.85,4.85,0,0,1,1.06,1.7,5.43,5.43,0,0,1,.4,2.11v1.24H191V153.2a2.55,2.55,0,0,0-.53-1.61,1.7,1.7,0,0,0-1.42-.69,1.64,1.64,0,0,0-1.59.75,4,4,0,0,0-.37,1.83v11.28a3,3,0,0,0,.41,1.61A1.65,1.65,0,0,0,189,167a2.61,2.61,0,0,0,.66-.09,2.38,2.38,0,0,0,.68-.37,1.94,1.94,0,0,0,.46-.68,2.66,2.66,0,0,0,.19-1.09v-1.08Zm4.35,6.29V150.9h-3.65v-3H205.3v3h-3.65V170Zm8.22-22.07h3.16v9H211a6.93,6.93,0,0,1,2.73.47,4.41,4.41,0,0,1,1.8,1.23,4.22,4.22,0,0,1,.9,1.87,10.6,10.6,0,0,1,.21,2.2V164a6.35,6.35,0,0,1-1.42,4.46q-1.39,1.55-4.5,1.55H206.7Zm3.16,11.84v7.07H211a3.32,3.32,0,0,0,1.49-.28,1.9,1.9,0,0,0,.83-.78,2.82,2.82,0,0,0,.34-1.17,13.93,13.93,0,0,0,.07-1.49,4.66,4.66,0,0,0-.53-2.51,1.71,1.71,0,0,0-.81-.62,3.35,3.35,0,0,0-1.36-.22Zm9.7,10.23V150.9H215.9v-3h10.48v3h-3.66V170Zm8.21,0V147.93h9.43v3h-6.27v6.48h5.46v3h-5.46v6.48h6.27V170Zm-88,26.71v1.36a4.83,4.83,0,0,1-.4,2,5.22,5.22,0,0,1-1.06,1.62,5.34,5.34,0,0,1-1.61,1.14,4.7,4.7,0,0,1-1.95.41,7.32,7.32,0,0,1-1.83-.25,4.5,4.5,0,0,1-1.68-.87,5.22,5.22,0,0,1-1.24-1.58,5.93,5.93,0,0,1-.46-2.51V185.83a5.34,5.34,0,0,1,.37-2,4.78,4.78,0,0,1,2.67-2.67,5.55,5.55,0,0,1,2.11-.4,4.8,4.8,0,0,1,3.62,1.46,4.85,4.85,0,0,1,1.06,1.7,5.43,5.43,0,0,1,.4,2.11v1.24h-3.16V186.2a2.55,2.55,0,0,0-.53-1.61,1.7,1.7,0,0,0-1.43-.69,1.63,1.63,0,0,0-1.58.75,4,4,0,0,0-.37,1.83v11.28a3.07,3.07,0,0,0,.4,1.61,1.68,1.68,0,0,0,1.52.65,2.48,2.48,0,0,0,.65-.09,2.3,2.3,0,0,0,.69-.37,1.94,1.94,0,0,0,.46-.68,2.66,2.66,0,0,0,.19-1.09v-1.08Zm2.58,6.29V180.93H147a6.35,6.35,0,0,1,2.57.46,4.94,4.94,0,0,1,1.77,1.24,4.61,4.61,0,0,1,1,1.8,6.85,6.85,0,0,1,.31,2.08v.8a6,6,0,0,1-.16,1.52,3.2,3.2,0,0,1-.4,1.09,4.41,4.41,0,0,1-1.61,1.49,3.39,3.39,0,0,1,1.64,1.55,6.16,6.16,0,0,1,.53,2.79V197a6.36,6.36,0,0,1-1.43,4.46c-.93,1-2.42,1.55-4.49,1.55Zm3.16-10.23v7.07h1.37a3.27,3.27,0,0,0,1.48-.28,1.93,1.93,0,0,0,.84-.78,2.82,2.82,0,0,0,.34-1.17c0-.46.06-1,.06-1.49a10.27,10.27,0,0,0-.09-1.46,2.72,2.72,0,0,0-.37-1,1.69,1.69,0,0,0-.84-.62,3.58,3.58,0,0,0-1.39-.22Zm0-8.87V190H147a2.41,2.41,0,0,0,2.11-.78,4.06,4.06,0,0,0,.55-2.32,3.37,3.37,0,0,0-.62-2.23,2.62,2.62,0,0,0-2.17-.75Zm9.85,2.24a5.65,5.65,0,0,1,.47-2.36,4.89,4.89,0,0,1,1.24-1.7,5.16,5.16,0,0,1,1.67-1,5.89,5.89,0,0,1,1.92-.34,5.68,5.68,0,0,1,1.9.34,5.55,5.55,0,0,1,1.73,1,5.09,5.09,0,0,1,1.21,1.7,5.65,5.65,0,0,1,.47,2.36v11.65a5.6,5.6,0,0,1-.47,2.39,4.83,4.83,0,0,1-1.21,1.64,5.27,5.27,0,0,1-1.73,1,5.68,5.68,0,0,1-1.9.34,5.89,5.89,0,0,1-1.92-.34,4.91,4.91,0,0,1-1.67-1,4.66,4.66,0,0,1-1.24-1.64,5.6,5.6,0,0,1-.47-2.39Zm3.17,11.65a2.17,2.17,0,0,0,.62,1.71,2.33,2.33,0,0,0,1.51.52,2.22,2.22,0,0,0,1.49-.52,2.12,2.12,0,0,0,.65-1.71V186.14a2,2,0,0,0-.65-1.68,2.16,2.16,0,0,0-1.49-.56,2.26,2.26,0,0,0-1.51.56,2.06,2.06,0,0,0-.62,1.68Zm17.6,5.21V188.68h-.07L171.93,203h-3.16V180.93h3.16v14.35H172l4.16-14.35h3.16V203Zm-3.79-26.51c0,.13,0,.28.07.47a1.58,1.58,0,0,0,.18.53,1.77,1.77,0,0,0,.5.43,1.89,1.89,0,0,0,.93.19,1.72,1.72,0,0,0,.9-.19,1.31,1.31,0,0,0,.49-.43,1.23,1.23,0,0,0,.22-.53c0-.19,0-.34.06-.47h2.64a4.07,4.07,0,0,1-1.24,2.73,4.57,4.57,0,0,1-3.07.87,4.68,4.68,0,0,1-3.1-.87,4.1,4.1,0,0,1-1.21-2.73ZM188,203V180.93h4.75a7,7,0,0,1,2.29.34,4.45,4.45,0,0,1,1.8,1.21,4.74,4.74,0,0,1,1.11,2,12.38,12.38,0,0,1,.31,3.13,14.91,14.91,0,0,1-.18,2.52,5,5,0,0,1-.72,1.92,4.7,4.7,0,0,1-1.73,1.7,5.92,5.92,0,0,1-2.85.59h-1.62V203Zm3.16-19.1v7.51h1.52a3.32,3.32,0,0,0,1.49-.28,1.83,1.83,0,0,0,.78-.78,2.9,2.9,0,0,0,.28-1.15c0-.45.06-1,.06-1.51s0-1,0-1.46A3.28,3.28,0,0,0,195,185a1.84,1.84,0,0,0-.75-.81,3,3,0,0,0-1.42-.28Zm14.7,11.38-1.55-8h-.06l-1.55,8ZM198.07,203,203,180.93h2.63L210.56,203H207.4l-.93-4.74h-4.31l-.93,4.74Zm13.34-16.49a7,7,0,0,1,.38-2.11,5.11,5.11,0,0,1,1.21-2,6.25,6.25,0,0,1,1.61-1.18,4.45,4.45,0,0,1,2.07-.47,5.31,5.31,0,0,1,2.39.5,4.56,4.56,0,0,1,1.68,1.27,5.15,5.15,0,0,1,1,1.92,9,9,0,0,1,.31,2.36c0,.41,0,.83,0,1.27a5,5,0,0,1-.25,1.27,3.45,3.45,0,0,1-.65,1.18,4.24,4.24,0,0,1-1.27,1,3.09,3.09,0,0,1,1.27.9,3,3,0,0,1,.65,1.21,5.36,5.36,0,0,1,.25,1.46c0,.51,0,1.05,0,1.61a10.71,10.71,0,0,1-.31,2.6,4.81,4.81,0,0,1-1,2,5.59,5.59,0,0,1-1.74,1.33,5.52,5.52,0,0,1-2.54.53,5.59,5.59,0,0,1-2.14-.41,5.26,5.26,0,0,1-1.71-1.11,4.73,4.73,0,0,1-1.08-1.83,7,7,0,0,1-.37-2.23v-.84h3.16l0,.87a4.28,4.28,0,0,0,.09.87,2.73,2.73,0,0,0,.38.74,1.88,1.88,0,0,0,.65.56,2.18,2.18,0,0,0,1,.21,1.92,1.92,0,0,0,1.86-.86,5,5,0,0,0,.5-2.42c0-.58,0-1.12-.07-1.61a2.84,2.84,0,0,0-.31-1.21,2,2,0,0,0-1.86-1h-1.21v-2.79h1.31a2.53,2.53,0,0,0,1.05-.22,1.58,1.58,0,0,0,.74-.75,2.8,2.8,0,0,0,.28-1.17c0-.46.07-.86.07-1.21a6.5,6.5,0,0,0-.1-1.09,2.54,2.54,0,0,0-.34-1,2,2,0,0,0-.68-.62,2,2,0,0,0-1.05-.25,2.14,2.14,0,0,0-1,.22,2.21,2.21,0,0,0-.62.56,2.48,2.48,0,0,0-.4,1,5.76,5.76,0,0,0-.12,1.15v.49h-3.17ZM224.81,200a6.48,6.48,0,0,0,1-.09,1.54,1.54,0,0,0,.86-.4,3.46,3.46,0,0,0,.53-.78,6.58,6.58,0,0,0,.56-1.55L228,196l-4.78-15.06h3.35l3,10.38h.06L232,180.93h3.35l-4.59,16.77a24.79,24.79,0,0,1-.93,2.7,4.71,4.71,0,0,1-1.39,1.89,3.19,3.19,0,0,1-1.58.74,9.87,9.87,0,0,1-1.8.16h-.43V200ZM237,203V180.93h3l4.06,11.68h.07l4-11.68h3.06V203H248.1V189.58H248l-3.13,9.48h-1.58l-3.1-9.48h-.06V203ZM117,236V221.68H117L112.79,236h-3.16V213.93h3.16v14.35h.06L117,213.93h3.16V236Zm11.87,0V213.93h4.75a7,7,0,0,1,2.29.34,4.45,4.45,0,0,1,1.8,1.21,4.63,4.63,0,0,1,1.11,2,12.38,12.38,0,0,1,.31,3.13,14.91,14.91,0,0,1-.18,2.52,5.19,5.19,0,0,1-.71,1.92,4.8,4.8,0,0,1-1.74,1.7,5.86,5.86,0,0,1-2.85.59h-1.61V236Zm3.17-19.1v7.51h1.51a3.32,3.32,0,0,0,1.49-.28,1.83,1.83,0,0,0,.78-.78,2.74,2.74,0,0,0,.28-1.15c0-.45.06-1,.06-1.51s0-1,0-1.46a3.28,3.28,0,0,0-.28-1.24,1.84,1.84,0,0,0-.75-.81,3,3,0,0,0-1.42-.28Zm14.69,11.38-1.55-8h-.06l-1.55,8ZM138.93,236l4.93-22.07h2.63L151.42,236h-3.16l-.93-4.74H143l-.93,4.74ZM163,229.71v1.36a4.83,4.83,0,0,1-.4,2,5.37,5.37,0,0,1-1.05,1.62,5.46,5.46,0,0,1-1.61,1.14,4.71,4.71,0,0,1-2,.41,7.32,7.32,0,0,1-1.83-.25,4.46,4.46,0,0,1-1.67-.87,4.92,4.92,0,0,1-1.24-1.58,5.92,5.92,0,0,1-.47-2.51V218.83a5.34,5.34,0,0,1,.38-2,4.63,4.63,0,0,1,1.05-1.61,4.75,4.75,0,0,1,1.61-1.06,5.58,5.58,0,0,1,2.11-.4,4.81,4.81,0,0,1,3.63,1.46,5,5,0,0,1,1.05,1.7A5.43,5.43,0,0,1,163,219v1.24h-3.16V219.2a2.55,2.55,0,0,0-.52-1.61,1.72,1.72,0,0,0-1.43-.69,1.62,1.62,0,0,0-1.58.75,3.89,3.89,0,0,0-.37,1.83v11.28a3,3,0,0,0,.4,1.61,1.68,1.68,0,0,0,1.52.65,2.54,2.54,0,0,0,.65-.09,2.14,2.14,0,0,0,.68-.37,2,2,0,0,0,.47-.68,2.85,2.85,0,0,0,.18-1.09v-1.08Zm12.33,0v1.36a4.84,4.84,0,0,1-.41,2,5.37,5.37,0,0,1-1.05,1.62,5.46,5.46,0,0,1-1.61,1.14,4.71,4.71,0,0,1-2,.41,7.32,7.32,0,0,1-1.83-.25,4.46,4.46,0,0,1-1.67-.87,4.92,4.92,0,0,1-1.24-1.58,5.93,5.93,0,0,1-.46-2.51V218.83a5.34,5.34,0,0,1,.37-2,4.72,4.72,0,0,1,2.66-2.67,5.58,5.58,0,0,1,2.11-.4,4.81,4.81,0,0,1,3.63,1.46,5,5,0,0,1,1.05,1.7,5.44,5.44,0,0,1,.41,2.11v1.24h-3.17V219.2a2.55,2.55,0,0,0-.52-1.61,1.7,1.7,0,0,0-1.43-.69,1.63,1.63,0,0,0-1.58.75,3.89,3.89,0,0,0-.37,1.83v11.28a3,3,0,0,0,.4,1.61,1.68,1.68,0,0,0,1.52.65,2.54,2.54,0,0,0,.65-.09,2.14,2.14,0,0,0,.68-.37,2,2,0,0,0,.47-.68,2.85,2.85,0,0,0,.18-1.09v-1.08Zm7-13v6.42c0,.33,0,.89,0,1.7s-.07,1.65-.15,2.6-.21,1.89-.37,2.83a9.58,9.58,0,0,1-.69,2.32,6.9,6.9,0,0,1-1.89,2.51,4.36,4.36,0,0,1-2.79.9h-.18v-3.16a2.25,2.25,0,0,0,1.45-.56,3.78,3.78,0,0,0,.87-1.24,7,7,0,0,0,.44-1.58c.12-.62.21-1.28.28-2s.1-1.43.12-2.18,0-1.45,0-2.13v-9.24h9.18V236H185.4V216.72Zm15.64,11.56-1.55-8h-.07l-1.55,8ZM190.12,236l4.93-22.07h2.64L202.62,236h-3.17l-.93-4.74h-4.3l-.93,4.74Zm14-22.07h9.06v3h-5.89V223h1.24a7.35,7.35,0,0,1,2.72.43,4.39,4.39,0,0,1,1.8,1.24,4,4,0,0,1,.9,1.9,14.23,14.23,0,0,1,.22,2.2V230a6.36,6.36,0,0,1-1.43,4.46A5.79,5.79,0,0,1,208.3,236h-4.13Zm3.17,11.84v7.07h1.17a3.32,3.32,0,0,0,1.49-.28,2,2,0,0,0,.84-.78,3,3,0,0,0,.34-1.17c0-.46.06-1,.06-1.49a7.75,7.75,0,0,0-.12-1.46,2.17,2.17,0,0,0-.41-1,1.91,1.91,0,0,0-.8-.62,3.4,3.4,0,0,0-1.37-.22Zm9.37-11.84h3.16v9h1.18a6.91,6.91,0,0,1,2.72.47,4.28,4.28,0,0,1,1.8,1.23,4,4,0,0,1,.9,1.87,9.94,9.94,0,0,1,.22,2.2V230a6.36,6.36,0,0,1-1.43,4.46,5.79,5.79,0,0,1-4.49,1.55h-4.06Zm3.16,11.84v7.07H221a3.32,3.32,0,0,0,1.49-.28,2,2,0,0,0,.84-.78,2.82,2.82,0,0,0,.34-1.17c0-.46.06-1,.06-1.49a4.68,4.68,0,0,0-.52-2.51,1.71,1.71,0,0,0-.81-.62,3.38,3.38,0,0,0-1.36-.22ZM229.56,236V216.9H225.9v-3h10.48v3h-3.66V236Zm8.22,0V213.93h9.42v3h-6.26v6.48h5.45v3h-5.45v6.48h6.26V236Zm21.51-6.29v1.36a4.83,4.83,0,0,1-.4,2,5.37,5.37,0,0,1-1.05,1.62,5.46,5.46,0,0,1-1.61,1.14,4.75,4.75,0,0,1-2,.41,7.32,7.32,0,0,1-1.83-.25,4.46,4.46,0,0,1-1.67-.87,4.92,4.92,0,0,1-1.24-1.58,5.92,5.92,0,0,1-.47-2.51V218.83a5.34,5.34,0,0,1,.38-2,4.72,4.72,0,0,1,2.66-2.67,5.58,5.58,0,0,1,2.11-.4,4.81,4.81,0,0,1,3.63,1.46,5,5,0,0,1,1.05,1.7,5.43,5.43,0,0,1,.4,2.11v1.24h-3.16V219.2a2.55,2.55,0,0,0-.52-1.61,1.72,1.72,0,0,0-1.43-.69,1.62,1.62,0,0,0-1.58.75,3.89,3.89,0,0,0-.37,1.83v11.28a3,3,0,0,0,.4,1.61,1.67,1.67,0,0,0,1.52.65,2.6,2.6,0,0,0,.65-.09,2.25,2.25,0,0,0,.68-.37,2,2,0,0,0,.47-.68,2.85,2.85,0,0,0,.18-1.09v-1.08Zm2.58-15.78H265v9h1.17a6.93,6.93,0,0,1,2.73.47,4.28,4.28,0,0,1,1.8,1.23,4,4,0,0,1,.9,1.87,10.57,10.57,0,0,1,.22,2.2V230a6.36,6.36,0,0,1-1.43,4.46,5.79,5.79,0,0,1-4.49,1.55h-4.07ZM265,225.77v7.07h1.11a3.32,3.32,0,0,0,1.49-.28,2,2,0,0,0,.84-.78,3,3,0,0,0,.34-1.17c0-.46.06-1,.06-1.49a4.66,4.66,0,0,0-.53-2.51,1.64,1.64,0,0,0-.8-.62,3.4,3.4,0,0,0-1.37-.22Z"/></g></g></svg>