<svg xmlns="http://www.w3.org/2000/svg" viewBox="0 0 110.34 107.42"><defs><style>.cls-1{fill:#2e2e2e;}</style></defs><title>pacifblack</title><g id="Слой_2" data-name="Слой 2"><g id="Слой_1-2" data-name="Слой 1"><path class="cls-1" d="M106,75.25a52.82,52.82,0,0,0,3.22-10c6.18-28.92-13-57.62-42.78-64s-59,12-65.24,40.89C-3.5,63.94,6.24,85.6,24,97.69a56.22,56.22,0,0,0,14.65,7.09c1.7.53,3.45,1,5.25,1.38l.92.19c.7.13,1.39.26,2.09.37a56,56,0,0,0,13.25.53c.7,0,1.4-.12,2.1-.2a55.67,55.67,0,0,0,13.39-3.28c.71-.26,1.42-.55,2.11-.85a56.28,56.28,0,0,0,7.8-4.1q1.52-1,2.94-2c1-.7,1.9-1.42,2.81-2.18.73-.62,1.45-1.25,2.17-1.9A53.05,53.05,0,0,0,98,88,52.1,52.1,0,0,0,106,75.25ZM99,63.09a41.53,41.53,0,0,1-5,12.79A43.1,43.1,0,0,1,83.38,87.74l-6.21-9.6L60.69,52.7l8.54-39.93C90.51,19.85,103.65,41.43,99,63.09ZM11.31,44.34c4.63-21.67,25.45-36,47.77-33.75L50.54,50.52l-35,22.69a42.13,42.13,0,0,1-4.19-28.88ZM34.88,92.06A45.56,45.56,0,0,1,21.43,81.72l26-16.85L42.37,88.63l-1.29,6a44.57,44.57,0,0,1-6.22-2.59ZM54,84.2,57.62,67l8.73,13.49L73.6,91.72l.87,1.34a44.88,44.88,0,0,1-23.23,3.76Z"/></g></g></svg>