<svg xmlns="http://www.w3.org/2000/svg" viewBox="0 0 110.25 107.51"><defs><style>.cls-1{fill:#ff4464;}</style></defs><title>Ресурс 6</title><g id="Слой_2" data-name="Слой 2"><g id="Слой_1-2" data-name="Слой 1"><path class="cls-1" d="M110.14,49.6a53.16,53.16,0,0,0-1.71-10.34C100.65,10.72,70.44-6,41.06,2s-47,37.72-39.23,66.26c5.85,21.49,24.44,36.27,45.8,38.85a55.81,55.81,0,0,0,16.27-.42q2.63-.45,5.3-1.17l.9-.26c.69-.2,1.36-.4,2-.63a55.7,55.7,0,0,0,12-5.6c.59-.37,1.19-.75,1.77-1.15a55.68,55.68,0,0,0,10.4-9c.51-.56,1-1.15,1.48-1.73a55.6,55.6,0,0,0,5-7.22c.61-1,1.17-2.07,1.7-3.13s1-2.14,1.49-3.23c.37-.89.72-1.78,1.06-2.68a54.29,54.29,0,0,0,1.84-6.27,52.37,52.37,0,0,0,1.21-15ZM98.4,42a41.73,41.73,0,0,1,1.39,13.67,43.1,43.1,0,0,1-4,15.4l-9.92-5.68L59.57,50.31,48.85,10.91C71,7.45,92.58,20.6,98.4,42ZM11.85,65.53C6,44.15,18,21.9,38.83,13.64L49.55,53,28.82,89.27a42.07,42.07,0,0,1-17-23.75Zm42.83,31.6a45.75,45.75,0,0,1-16.69-3l15.39-26.9,6.39,23.44,1.61,5.93a44.67,44.67,0,0,1-6.72.55ZM68,81.4,63.41,64.47l14,8,11.58,6.62,1.38.79a44.79,44.79,0,0,1-6.48,6.65A45.42,45.42,0,0,1,71.4,93.86Z"/></g></g></svg>