<svg xmlns="http://www.w3.org/2000/svg" viewBox="0 0 486.71 350.4"><defs><style>.cls-1{fill:#303030;}</style></defs><title>Ресурс 38</title><g id="Слой_2" data-name="Слой 2"><g id="Слой_1-2" data-name="Слой 1"><path class="cls-1" d="M0,321.79q8.4-12.35,16.8-24.69c.84-1.23,1.64-2.49,2.23-3.39,9.2,3.4,18,7.5,27.19,9.87,27.91,7.18,50.7-1.52,67.85-24.92,8.16-11.12,15.66-22.89,24.94-33,18.89-20.57,42.44-31.87,70.94-30.84A97.33,97.33,0,0,1,262,232l-24.1,33.18c-15-8.36-30.39-12.71-47-6.45-12.73,4.79-22.12,13.71-30.21,24.93a89.74,89.74,0,0,0,43,8.73,115.75,115.75,0,0,0,47.89-12.69c4-2,7.07-5.9,10.26-9.22,15.95-16.6,33.52-31,54.89-40.06,32.06-13.62,63.42-11.68,93.52,5.6,30.38,17.44,51.42,43.79,68.92,74.16l-36.59,18.73c-2.51-3.95-4.92-7.85-7.45-11.68-10.27-15.54-22.21-29.57-37.52-40.41-26.51-18.78-53-18.9-79.77-.21-6.53,4.55-12.46,10-18.71,14.93-1.31,1-2.8,1.85-5.12,3.35,35,20.32,68.83,16.42,103.28,2.75l16.08,38.22c-8.88,2.93-17.39,6.18-26.15,8.53-35.27,9.5-69.87,8.35-103.1-8-7.11-3.51-13.72-8.13-20.31-12.61-2.64-1.8-4.65-2.21-7.7-1.05-30,11.4-60.7,14.91-92,6A158.91,158.91,0,0,1,140,319.36c-3.76-1.77-5.75-1.24-8.53,1.37-16.09,15.07-35.14,24-57.12,25.89-24.73,2.18-47.89-3.62-69.79-15-1.44-.74-3-1.24-4.51-1.85Z"/><path class="cls-1" d="M486.71,153.66v41.2c-7.47-.49-14.89-.58-22.19-1.53a128.89,128.89,0,0,1-62.95-25.88c-2.47-1.89-4.33-1.51-6.79-.57-36.46,13.78-73.13,15.92-109.29-.27-8.81-4-13.7-3.3-21.17,2.89-27.23,22.56-58.72,26.38-92.26,17.63a123.39,123.39,0,0,1-36.39-15.75l21.74-33.24c10.48,3.62,20.25,8.06,30.5,10.34,25.3,5.63,46.39-2.13,62.34-22.65C257.8,116.11,264.16,105.45,272,96c16.56-20.11,37.27-33.66,63.75-36.5,23.41-2.51,44.74,3.63,64.86,16.67l-24,33.28c-14.08-7.81-28.75-12.46-44.82-7.27C318,106.57,308.1,116,299.26,127.74c8.61,4.58,17.53,6.84,26.72,8.09,23.1,3.14,44.72-2.26,65.19-12.44,4.51-2.24,7.69-7.2,11.43-11,20.37-20.49,43-37.32,71.77-44,3.87-.91,7.82-1.43,12.15-2.2v41.5c-20.75,4.56-37.21,16.6-52.59,31.84C450.15,150.14,467.83,153.35,486.71,153.66Z"/><path class="cls-1" d="M201.08,45.7c-1.61-3.4-2.83-7.07-4.92-10.14-3-4.38-6.9-8.13-9.9-12.5-6-8.77-3.35-17.35,6.78-20.49A60.65,60.65,0,0,1,211.11,0C218,.05,222,4.4,221.87,11.24c-.12,5.37-1.7,10.71-2.69,16.06-.62,3.41-1.49,6.78-1.94,10.21-.12.9.82,2.7,1.45,2.79a4.24,4.24,0,0,0,3.44-1.2A30.78,30.78,0,0,0,225,33.36c2.67-5.87,4.78-12.08,8.11-17.55,4.14-6.78,10.51-8.25,17.83-5a32.78,32.78,0,0,1,16.89,16.27c3.09,6.58,1.44,12.3-5,15.69-4.8,2.54-10.17,4-15.22,6.1A46.63,46.63,0,0,0,239.26,53a5.34,5.34,0,0,0-1.87,4.18c.05.74,2.35,1.85,3.65,1.88,4,.06,7.93-.3,11.89-.56a16.22,16.22,0,0,0,2.42-.62c10.75-2.36,18.43.2,21.16,7,3.79,9.49-.43,23.84-8.46,28.64a10.94,10.94,0,0,1-12.29-.39c-5.47-3.73-10.46-8.18-15.83-12.08-2.35-1.7-4.68-5.63-7.87-2.69-.83.76,1.18,5.6,2.84,7.86,3.24,4.41,7.3,8.2,10.76,12.45,6.39,7.85,5.22,14.79-3.45,19.94-6.66,4-13.83,6.58-21.78,6.18-6.19-.31-8.9-2.12-9.23-8.18-.49-8.92.17-17.9,0-26.85,0-2.17-1.32-4.31-2-6.46-1.78,1.55-4.15,2.78-5.24,4.73-2.49,4.47-4.09,9.45-6.55,14-6.26,11.42-17.84,13.47-27.18,4.3a39.33,39.33,0,0,1-8.56-13.77c-2.7-7-.3-11.36,6.73-14.28,6.3-2.61,12.8-4.72,19.11-7.3,1.68-.69,3-2.28,4.49-3.45-1.66-1.13-3.22-3-5-3.25-5.74-.79-11.57-1-17.37-1.42a11.22,11.22,0,0,1-2.47-.33c-6.56-2.07-13.55-3.91-15.37-11.79s2.14-14.23,7.41-19.63a11.52,11.52,0,0,1,14.3-2.26c5.75,3.14,10.83,7.5,16.13,11.44,3.1,2.3,6,4.78,9.06,7.19Zm13.57,4a11.16,11.16,0,0,0-11.31,10.87A11.29,11.29,0,0,0,214.69,71.9a11.11,11.11,0,0,0,0-22.22Z"/><path class="cls-1" d="M53.77,222.21c-2.19-.81-4.32-2-6.58-2.36-3.77-.56-7.63-.5-11.44-.82a39.82,39.82,0,0,1-7.89-1c-6.44-1.88-13.39-3.86-14.73-11.66-1.45-8.45,2.39-15.3,8.86-20.53,4.37-3.55,9.72-3.25,14.16-.73,5.28,3,9.9,7.16,14.75,10.89,3.07,2.37,6.05,4.87,9.47,7.63,2.69-5.16.2-8.32-1.95-11.27-3.13-4.29-6.92-8.11-10-12.45-7.11-10.18-4.25-18.56,7.7-22.16a48.28,48.28,0,0,1,14.17-2.29c9.66.1,14.64,6.24,13.23,15.79-.62,4.24-2.19,8.33-3.15,12.53a79.14,79.14,0,0,0-1.67,9.75,3.24,3.24,0,0,0,1.62,2.67,3.46,3.46,0,0,0,3-1.11,28.05,28.05,0,0,0,2.78-5.19c2.93-6.3,5.29-12.94,8.86-18.85s9-7.37,15.24-5.23A31.83,31.83,0,0,1,129.72,184c2.64,6.1.77,11.42-5.56,14.63-5.59,2.83-11.77,4.48-17.57,6.94a24,24,0,0,0-7,4.42c-2.13,2-1.22,4.43,1.55,4.66a84.54,84.54,0,0,0,12.82-.31c4.29-.31,8.59-1.53,12.82-1.28,7.2.43,11.46,5.09,12.16,12.24.62,6.27-.1,12.31-3.48,17.8-5.23,8.49-12.52,10.23-20.71,4.57-4.37-3-8.32-6.65-12.47-10a28.11,28.11,0,0,0-4.78-3.58c-1.14-.56-2.74-.22-4.13-.28,0,1.39-.57,3.2.1,4.1a143.34,143.34,0,0,0,10,12.38c11.58,12.57,9.88,21.06-6.09,27.17A52,52,0,0,1,82,280.59c-6,.33-8.93-2.08-9.32-8-.56-8.43.13-16.93,0-25.39,0-2.71-1.17-5.41-1.81-8.11-2.07,2.12-4.62,4-6.09,6.43-2.44,4.12-4.06,8.72-6.25,13-6.79,13.3-18.06,10.24-25.53,4.78a27,27,0,0,1-10.66-18C21.4,240.12,23.8,236.52,30,234s12.48-4.63,18.66-7.08a39.46,39.46,0,0,0,5.24-3.05Zm11.07-5.66a11.15,11.15,0,0,0,22.3.32,11.15,11.15,0,1,0-22.3-.32Z"/></g></g></svg>