<?xml version="1.0" encoding="utf-8"?>
<!-- Generator: Adobe Illustrator 23.0.3, SVG Export Plug-In . SVG Version: 6.00 Build 0)  -->
<svg version="1.1" id="Слой_1" xmlns="http://www.w3.org/2000/svg" xmlns:xlink="http://www.w3.org/1999/xlink" x="0px" y="0px"
	 viewBox="0 0 489.8 350.4" style="enable-background:new 0 0 489.8 350.4;" xml:space="preserve">
<style type="text/css">
	.st0{fill:#303030;}
</style>
<title>Ресурс 38</title>
<g>
	<g id="Слой_1-2">
		<path class="st0" d="M3.1,321.8c5.6-8.2,11.2-16.5,16.8-24.7c0.8-1.2,1.6-2.5,2.2-3.4c9.2,3.4,18,7.5,27.2,9.9
			c27.9,7.2,50.7-1.5,67.8-24.9c8.2-11.1,15.7-22.9,24.9-33c18.9-20.6,42.4-31.9,70.9-30.8c18.6,0.6,36.7,6.6,52,17.2L241,265.2
			c-15-8.4-30.4-12.7-47-6.5c-12.7,4.8-22.1,13.7-30.2,24.9c13.4,6.4,28.2,9.4,43,8.7c16.7-0.7,33-5.1,47.9-12.7
			c4-2,7.1-5.9,10.3-9.2c16-16.6,33.5-31,54.9-40.1c32.1-13.6,63.4-11.7,93.5,5.6c30.4,17.4,51.4,43.8,68.9,74.2l-36.6,18.7
			c-2.5-4-4.9-7.9-7.5-11.7c-10.3-15.5-22.2-29.6-37.5-40.4c-26.5-18.8-53-18.9-79.8-0.2c-6.5,4.5-12.5,10-18.7,14.9
			c-1.3,1-2.8,1.9-5.1,3.4c35,20.3,68.8,16.4,103.3,2.8l16.1,38.2c-8.9,2.9-17.4,6.2-26.1,8.5c-35.3,9.5-69.9,8.4-103.1-8
			c-7.1-3.5-13.7-8.1-20.3-12.6c-2.6-1.8-4.6-2.2-7.7-1c-30,11.4-60.7,14.9-92,6c-8.3-2.5-16.3-5.6-24.1-9.4
			c-3.8-1.8-5.8-1.2-8.5,1.4c-16.1,15.1-35.1,24-57.1,25.9c-24.7,2.2-47.9-3.6-69.8-15c-1.4-0.7-6.1-3.8-7.6-4.4L3.1,321.8z"/>
		<path class="st0" d="M489.8,153.7v41.2c-7.5-0.5-14.9-0.6-22.2-1.5c-22.9-2.8-44.7-11.8-63-25.9c-2.5-1.9-4.3-1.5-6.8-0.6
			c-36.5,13.8-73.1,15.9-109.3-0.3c-8.8-4-13.7-3.3-21.2,2.9c-27.2,22.6-58.7,26.4-92.3,17.6c-12.9-3.3-25.2-8.6-36.4-15.8
			l21.7-33.2c10.5,3.6,20.2,8.1,30.5,10.3c25.3,5.6,46.4-2.1,62.3-22.7c7.6-9.7,13.9-20.4,21.8-29.8c16.6-20.1,37.3-33.7,63.8-36.5
			c23.4-2.5,44.7,3.6,64.9,16.7l-24,33.3c-14.1-7.8-28.8-12.5-44.8-7.3c-13.8,4.4-23.7,13.8-32.5,25.6c8.6,4.6,17.5,6.8,26.7,8.1
			c23.1,3.1,44.7-2.3,65.2-12.4c4.5-2.2,7.7-7.2,11.4-11c20.4-20.5,43-37.3,71.8-44c3.9-0.9,7.8-1.4,12.1-2.2v41.5
			c-20.8,4.6-37.2,16.6-52.6,31.8C453.2,150.1,470.9,153.4,489.8,153.7z"/>
		<path class="st0" d="M204.2,45.7c-1.6-3.4-2.8-7.1-4.9-10.1c-3-4.4-6.9-8.1-9.9-12.5c-6-8.8-3.4-17.4,6.8-20.5
			c5.9-1.8,12-2.6,18.1-2.6c6.9,0.1,10.9,4.4,10.8,11.2c-0.1,5.4-1.7,10.7-2.7,16.1c-0.6,3.4-1.5,6.8-1.9,10.2
			c-0.1,0.9,0.8,2.7,1.4,2.8c1.3,0.1,2.5-0.3,3.4-1.2c1.2-1.8,2.1-3.7,2.9-5.7c2.7-5.9,4.8-12.1,8.1-17.5c4.1-6.8,10.5-8.2,17.8-5
			c7.4,3.2,13.5,8.9,16.9,16.3c3.1,6.6,1.4,12.3-5,15.7c-4.8,2.5-10.2,4-15.2,6.1c-2.9,1.1-5.7,2.5-8.4,4.1c-1.2,1-1.9,2.6-1.9,4.2
			c0.1,0.7,2.4,1.8,3.6,1.9c4,0.1,7.9-0.3,11.9-0.6c0.8-0.1,1.6-0.4,2.4-0.6c10.7-2.4,18.4,0.2,21.2,7c3.8,9.5-0.4,23.8-8.5,28.6
			c-3.8,2.4-8.7,2.2-12.3-0.4c-5.5-3.7-10.5-8.2-15.8-12.1c-2.4-1.7-4.7-5.6-7.9-2.7c-0.8,0.8,1.2,5.6,2.8,7.9
			c3.2,4.4,7.3,8.2,10.8,12.4c6.4,7.8,5.2,14.8-3.4,19.9c-6.7,4-13.8,6.6-21.8,6.2c-6.2-0.3-8.9-2.1-9.2-8.2
			c-0.5-8.9,0.2-17.9,0-26.8c0-2.2-1.3-4.3-2-6.5c-1.8,1.6-4.1,2.8-5.2,4.7c-2.5,4.5-4.1,9.4-6.6,14c-6.3,11.4-17.8,13.5-27.2,4.3
			c-3.8-3.9-6.7-8.6-8.6-13.8c-2.7-7-0.3-11.4,6.7-14.3c6.3-2.6,12.8-4.7,19.1-7.3c1.7-0.7,3-2.3,4.5-3.4c-1.7-1.1-3.2-3-5-3.2
			c-5.7-0.8-11.6-1-17.4-1.4c-0.8,0-1.7-0.1-2.5-0.3c-6.6-2.1-13.6-3.9-15.4-11.8s2.1-14.2,7.4-19.6c3.6-4,9.6-5,14.3-2.3
			c5.8,3.1,10.8,7.5,16.1,11.4c3.1,2.3,6,4.8,9.1,7.2L204.2,45.7z M217.7,49.7c-6.1-0.1-11.2,4.8-11.3,10.9c0,6.2,5,11.3,11.2,11.3
			c0,0,0.1,0,0.1,0c6.1,0,11.1-5,11.1-11.1S223.9,49.7,217.7,49.7L217.7,49.7z"/>
		<path class="st0" d="M56.8,222.2c-2.2-0.8-4.3-2-6.6-2.4c-3.8-0.6-7.6-0.5-11.4-0.8c-2.7-0.1-5.3-0.4-7.9-1
			c-6.4-1.9-13.4-3.9-14.7-11.7c-1.4-8.4,2.4-15.3,8.9-20.5c4.4-3.6,9.7-3.2,14.2-0.7c5.3,3,9.9,7.2,14.8,10.9
			c3.1,2.4,6,4.9,9.5,7.6c2.7-5.2,0.2-8.3-2-11.3c-3.1-4.3-6.9-8.1-10-12.4c-7.1-10.2-4.2-18.6,7.7-22.2c4.6-1.5,9.4-2.2,14.2-2.3
			c9.7,0.1,14.6,6.2,13.2,15.8c-0.6,4.2-2.2,8.3-3.2,12.5c-0.8,3.2-1.3,6.5-1.7,9.8c0,1.1,0.7,2.1,1.6,2.7c1.1,0.1,2.2-0.3,3-1.1
			c1.1-1.6,2-3.4,2.8-5.2c2.9-6.3,5.3-12.9,8.9-18.9s9-7.4,15.2-5.2c8.9,2.9,16,9.6,19.5,18.2c2.6,6.1,0.8,11.4-5.6,14.6
			c-5.6,2.8-11.8,4.5-17.6,6.9c-2.6,1.1-4.9,2.6-7,4.4c-2.1,2-1.2,4.4,1.6,4.7c4.3,0.2,8.6,0.1,12.8-0.3c4.3-0.3,8.6-1.5,12.8-1.3
			c7.2,0.4,11.5,5.1,12.2,12.2c0.6,6.3-0.1,12.3-3.5,17.8c-5.2,8.5-12.5,10.2-20.7,4.6c-4.4-3-8.3-6.6-12.5-10
			c-1.5-1.4-3.1-2.6-4.8-3.6c-1.1-0.6-2.7-0.2-4.1-0.3c0,1.4-0.6,3.2,0.1,4.1c3.1,4.3,6.4,8.4,10,12.4c11.6,12.6,9.9,21.1-6.1,27.2
			c-4.9,1.8-10.1,2.9-15.4,3.1c-6,0.3-8.9-2.1-9.3-8c-0.6-8.4,0.1-16.9,0-25.4c0-2.7-1.2-5.4-1.8-8.1c-2.1,2.1-4.6,4-6.1,6.4
			c-2.4,4.1-4.1,8.7-6.2,13c-6.8,13.3-18.1,10.2-25.5,4.8c-5.8-4.3-9.7-10.8-10.7-18c-0.9-5.2,1.5-8.8,7.7-11.3s12.5-4.6,18.7-7.1
			c1.8-0.9,3.6-1.9,5.2-3.1L56.8,222.2z M67.9,216.6c-0.1,6.2,4.8,11.2,11,11.3c6.2,0.1,11.2-4.8,11.3-11l0,0
			c0.1-6.2-4.8-11.2-11-11.3C73.1,205.5,68,210.4,67.9,216.6z"/>
	</g>
</g>
</svg>
