<svg xmlns="http://www.w3.org/2000/svg" viewBox="0 0 176 176"><defs><style>.cls-1{fill:#ff4464;}.cls-2{fill:#fff;}</style></defs><title>Ресурс 27</title><g id="Слой_2" data-name="Слой 2"><g id="Слой_1-2" data-name="Слой 1"><circle class="cls-1" cx="88" cy="88" r="88"/><path class="cls-2" d="M30.46,103.26l0,6.09c.3,0,.61-.06.94-.11a7.66,7.66,0,0,1,.94-.06.44.44,0,0,1,.31.14.43.43,0,0,1,.14.31.38.38,0,0,1-.12.29.34.34,0,0,1-.29.14l-6.72.64h0a.42.42,0,0,1-.31-.13.41.41,0,0,1-.12-.3.52.52,0,0,1,.1-.33.37.37,0,0,1,.29-.12l2.44-.23L26.34,73.52l-2.72.11a.7.7,0,0,1-.35-.09.41.41,0,0,1-.13-.32c0-.31.15-.47.45-.47l20.72-.54a.32.32,0,0,1,.31.09.45.45,0,0,1,.16.32.54.54,0,0,1-.12.33.37.37,0,0,1-.31.14l-2.09.17-2.44,36.29,1.09-.1a10.16,10.16,0,0,1,1.07,0,.4.4,0,0,1,.3.11.43.43,0,0,1,.13.31.41.41,0,0,1-.11.28.49.49,0,0,1-.28.17l-6.75.59h0a.35.35,0,0,1-.34-.12.49.49,0,0,1-.11-.31.48.48,0,0,1,.11-.29.8.8,0,0,1,.3-.16l2.79-.23,0-6.57.27-30c.15,0,.13.07-.06.1l-.82,0-1.3,0c-.51,0-1,0-1.59,0l-1.56,0c-.51,0-1,0-1.33,0a6.64,6.64,0,0,0-.82.06c-.17,0-.18,0,0,.07ZM19.72,92.71l-.45,4-.43-4-2.36,2.13,2.18-2.4L16.59,92l2.07-.39-2.18-2.4,2.36,2.15.43-4,.45,4,2.36-2.15-2.21,2.4L22,92l-2.08.41,2.21,2.4Zm37.77.73a2.6,2.6,0,0,1-.6,1.7,5.26,5.26,0,0,1-1.49,1.17,7.91,7.91,0,0,1-1.89.7,7.75,7.75,0,0,1-1.78.24,10.61,10.61,0,0,1-1.91-.2,7.64,7.64,0,0,1-2-.64,4.76,4.76,0,0,1-1.54-1.18,2.71,2.71,0,0,1-.62-1.83,2.34,2.34,0,0,1,.66-1.7A5.05,5.05,0,0,1,48,90.57,8.49,8.49,0,0,1,50,90a10.63,10.63,0,0,1,1.86-.19,8.48,8.48,0,0,1,1.77.21,7,7,0,0,1,1.82.67,4.38,4.38,0,0,1,1.43,1.15A2.42,2.42,0,0,1,57.49,93.44ZM55,93.36a2.55,2.55,0,0,0-.76-2.09A3.32,3.32,0,0,0,52,90.65a4.42,4.42,0,0,0-1.31.19,3.39,3.39,0,0,0-1.11.55,2.61,2.61,0,0,0-.76.91,2.8,2.8,0,0,0-.29,1.33,2.46,2.46,0,0,0,.27,1.19,2.82,2.82,0,0,0,.7.86,3.48,3.48,0,0,0,1,.51,4.07,4.07,0,0,0,1.21.18A3.39,3.39,0,0,0,53,96.15a3.15,3.15,0,0,0,1-.64,3.29,3.29,0,0,0,.7-1A2.76,2.76,0,0,0,55,93.36Zm8-6.62.7.43L61,98.77h2.26l1.41,0c.44,0,.74,0,.88,0h1.13L64.46,87.29l-3.1-.06A.45.45,0,0,1,61,87a.37.37,0,0,1,0-.31.57.57,0,0,1,.23-.26.8.8,0,0,1,.47,0s.13-.06.35-.06a5.93,5.93,0,0,1,.82,0l1.08.06L65,86.5l.86.06.41,0a.44.44,0,0,1,.22.12.36.36,0,0,1,.13.23c0,.16.11.45.22.86s.25.92.41,1.51.35,1.2.54,1.89.39,1.37.59,2.07.4,1.39.59,2,.35,1.26.48,1.78.26.94.36,1.27a3.9,3.9,0,0,1,.13.55c.26,0,.54-.05.82-.06a5.61,5.61,0,0,1,.82,0,.46.46,0,0,1,.32.15.42.42,0,0,1,.09.32l-.43,3.26a.4.4,0,0,1-.47.37.65.65,0,0,1-.25-.06,1.56,1.56,0,0,1-.49-.27.25.25,0,0,1-.08-.18l.26-2.75c-1.23,0-2.28,0-3.17,0s-1.64,0-2.3,0h-3l-1.09,0-1.18-.06L59.7,102a.21.21,0,0,1-.12.16.73.73,0,0,1-.25.12,2,2,0,0,1-.31.07.55.55,0,0,1-.28,0c-.26,0-.39-.15-.39-.43l-.06-2.38c-.11,0-.15,0-.09-.1a.46.46,0,0,0,.07-.29.38.38,0,0,1,.16-.27.56.56,0,0,1,.29-.12l1.33,0Zm20.18,1.74a.2.2,0,0,1,0,.09l-.06.1-1,2.17a.7.7,0,0,1-.17.18.54.54,0,0,1-.22,0A.6.6,0,0,1,81.4,91a5,5,0,0,0-.88-.24,5.08,5.08,0,0,0-.92-.08,4.23,4.23,0,0,0-1.7.37,5.19,5.19,0,0,0-1.46,1,5,5,0,0,0-1,1.45A3.88,3.88,0,0,0,75,95.2,5,5,0,0,0,75.32,97a4.44,4.44,0,0,0,.9,1.39,4.38,4.38,0,0,0,1.39.9,5,5,0,0,0,1.8.31,2.45,2.45,0,0,0,.93-.17,5.42,5.42,0,0,0,.73-.42l.52-.41a.67.67,0,0,1,.37-.19.36.36,0,0,1,.3.14.37.37,0,0,1,.13.31.36.36,0,0,1-.11.27,2.56,2.56,0,0,1-.73.69,6.45,6.45,0,0,1-2,.8,4.17,4.17,0,0,1-.93.11,5.51,5.51,0,0,1-2.13-.43,6.38,6.38,0,0,1-1.9-1.13A5.72,5.72,0,0,1,73.2,97.4a4.58,4.58,0,0,1-.51-2.13,4.51,4.51,0,0,1,.62-2.38,5.66,5.66,0,0,1,1.62-1.72,7.41,7.41,0,0,1,2.23-1,8.64,8.64,0,0,1,2.44-.36c.3,0,.6,0,.9,0a3.08,3.08,0,0,1,.86.2l.57-1.72a.33.33,0,0,1,.29-.25,3,3,0,0,1,.43,0,.42.42,0,0,1,.31.13A.38.38,0,0,1,83.12,88.48Zm-5.39-6.41-.45,4-.43-4L74.48,84.2l2.21-2.4-2.09-.39L76.69,81l-2.21-2.41,2.37,2.17.43-4,.45,4,2.36-2.17L77.88,81l2.09.41-2.09.39,2.21,2.4ZM99.66,99.55a.33.33,0,0,1-.23.33l-.65.28c-.32.15-.67.3-1,.44s-.69.3-1,.42a2.86,2.86,0,0,1-.57.17.47.47,0,0,1-.37-.17l-5.72-7.68-.55.55L89.46,100,91,99.88a.35.35,0,0,1,.31.08.36.36,0,0,1,.16.27.38.38,0,0,1-.12.28.37.37,0,0,1-.31.14l-5.3.27a.44.44,0,0,1-.29-.12.31.31,0,0,1-.14-.27.36.36,0,0,1,.4-.37L88,100,87,87.81c-.15,0-.35,0-.58.1s-.46.08-.7.14l-.71.11a4,4,0,0,1-.53,0,.52.52,0,0,1-.33-.1.36.36,0,0,1-.11-.29.29.29,0,0,1,.09-.21.61.61,0,0,1,.28-.16l4.9-.78h.1a.4.4,0,0,1,.29.12.3.3,0,0,1,.14.25l-.28,5.72,5.32-4.92-.59.08-.57,0a.56.56,0,0,1-.35-.1.36.36,0,0,1-.14-.27.32.32,0,0,1,.12-.26.72.72,0,0,1,.33-.15l4.81-.31h0a.44.44,0,0,1,.29.11.31.31,0,0,1,.14.26.37.37,0,0,1-.12.27.36.36,0,0,1-.27.1l-2.37.19-4.76,4.4,6.33,7.54.31-.12c.14-.07.28-.12.43-.18l.43-.17a1.17,1.17,0,0,1,.29-.08.4.4,0,0,1,.31.12A.35.35,0,0,1,99.66,99.55Zm13.16.76a.43.43,0,0,1-.41.49l-3.16.39a.37.37,0,0,1-.37-.1.6.6,0,0,1-.12-.33,2.8,2.8,0,0,1,0-.41c0-.14,0-.26,0-.35a4.21,4.21,0,0,1-.76.33,6.69,6.69,0,0,1-.9.27,7.17,7.17,0,0,1-.9.18,6,6,0,0,1-.8.06,13.59,13.59,0,0,1-1.56-.1,6.59,6.59,0,0,1-1.72-.37,3.71,3.71,0,0,1-1.37-.82,2,2,0,0,1-.56-1.46,1.76,1.76,0,0,1,.35-1.14,2.73,2.73,0,0,1,.92-.74,5.57,5.57,0,0,1,1.27-.45,11.9,11.9,0,0,1,1.44-.21,11.22,11.22,0,0,1,1.39-.08l1.11,0a10.8,10.8,0,0,1,1.08.06,8.06,8.06,0,0,1,1.09.17V95a8.46,8.46,0,0,0-.14-1.74,4.45,4.45,0,0,0-.52-1.54,3.08,3.08,0,0,0-1.08-1.1,3.13,3.13,0,0,0-1.7-.42,4.78,4.78,0,0,0-.88.09,3,3,0,0,0-.86.3,1.81,1.81,0,0,0-.64.52,1.38,1.38,0,0,0-.26.84,1.54,1.54,0,0,0,.14.71,1.37,1.37,0,0,0,.39.37,1.73,1.73,0,0,0,.49.15l.49.1a.84.84,0,0,1,.37.14.3.3,0,0,1,.16.29.41.41,0,0,1-.16.33.44.44,0,0,1-.29.12,3.93,3.93,0,0,1-1-.14,3.57,3.57,0,0,1-1-.41,3,3,0,0,1-.77-.7,1.78,1.78,0,0,1-.29-1,2.08,2.08,0,0,1,.37-1.25,3,3,0,0,1,1-.8,4.14,4.14,0,0,1,1.27-.43,7.33,7.33,0,0,1,1.29-.11,6.62,6.62,0,0,1,2.79.52,4.65,4.65,0,0,1,1.82,1.47,5.66,5.66,0,0,1,1,2.24,11.87,11.87,0,0,1,.32,2.82c0,.62,0,1.25-.08,1.87s-.09,1.25-.16,1.88l1.49-.2a.57.57,0,0,1,.31.1A.34.34,0,0,1,112.82,100.31Zm-4-3.71a7,7,0,0,0-1.13-.21,11.41,11.41,0,0,0-1.16-.06,6.86,6.86,0,0,0-1.09.1,5,5,0,0,0-1.21.33,3.07,3.07,0,0,0-1,.62,1.31,1.31,0,0,0-.41,1,1.24,1.24,0,0,0,.26.8,1.93,1.93,0,0,0,.64.47,2.9,2.9,0,0,0,.84.23,6.79,6.79,0,0,0,.86.06,7.79,7.79,0,0,0,1.78-.21,3.74,3.74,0,0,0,1.58-.82Zm-.08-15.72-.45,4-.43-4L105.54,83l2.19-2.41-2.07-.4,2.07-.4-2.19-2.4,2.36,2.15.43-4,.45,4,2.36-2.15-2.2,2.4,2.07.4-2.07.4,2.2,2.41Zm8.5,13.94a.62.62,0,0,1-.37,0,.45.45,0,0,1-.2-.18.2.2,0,0,1,.1-.19.86.86,0,0,1,.47-.12,5.4,5.4,0,0,0,1.54-.47,3,3,0,0,0,1-.82,3.27,3.27,0,0,0,.49-1.11,6.64,6.64,0,0,0,.13-1.39,2.51,2.51,0,0,0-.21-1.06,2.15,2.15,0,0,0-.59-.74,2.49,2.49,0,0,0-.88-.43,3.82,3.82,0,0,0-1-.14,4.7,4.7,0,0,0-1.23.16,2.57,2.57,0,0,0-1,.49,2.1,2.1,0,0,0-.64.82,2.81,2.81,0,0,0-.24,1.21,8.72,8.72,0,0,0,.06,1c0,.33.07.67.1,1a.55.55,0,0,1-.12.35.34.34,0,0,1-.29.14.61.61,0,0,1-.34-.1.35.35,0,0,1-.13-.29l-.12-1.78-.41-5a.36.36,0,0,1,.14-.31.55.55,0,0,1,.35-.12.32.32,0,0,1,.25.1.55.55,0,0,1,.14.21,1.89,1.89,0,0,0,.39.69,1.87,1.87,0,0,0,.57.35,2.89,2.89,0,0,0,.66.16l.78,0,.69,0c.23,0,.46,0,.68,0a4.9,4.9,0,0,1,2.42.35A3.85,3.85,0,0,1,122,88.77a3,3,0,0,1,.58,1.62,3.39,3.39,0,0,1-.29,1.72,3.83,3.83,0,0,1-1.13,1.46,4.1,4.1,0,0,1-2,.84,4.82,4.82,0,0,1,2,.69,3.23,3.23,0,0,1,1.2,1.21,2.62,2.62,0,0,1-.2,2.87,3.26,3.26,0,0,1-1.39,1,5.38,5.38,0,0,1-2.26.45,6.19,6.19,0,0,1-1.58-.21,5.07,5.07,0,0,1-1.43-.59,4,4,0,0,1-1-1,2.21,2.21,0,0,1-.39-1.27,1.44,1.44,0,0,1,.47-1.1,1.66,1.66,0,0,1,1.14-.43,1.88,1.88,0,0,1,.54.1,1.71,1.71,0,0,1,.53.29,1.4,1.4,0,0,1,.41.43,1.1,1.1,0,0,1,.16.55.43.43,0,0,1-.14.31.4.4,0,0,1-.31.14.4.4,0,0,1-.34-.14l-.15-.33a1,1,0,0,0-.22-.31.59.59,0,0,0-.48-.16.45.45,0,0,0-.43.2.83.83,0,0,0-.1.45,1.72,1.72,0,0,0,.37,1.07,3.35,3.35,0,0,0,1,.78,3.8,3.8,0,0,0,1.25.39,2.82,2.82,0,0,0,1.27-.09,2.19,2.19,0,0,0,1-.75,2.42,2.42,0,0,0,.45-1.46,2.52,2.52,0,0,0-.16-.9,2.77,2.77,0,0,0-.56-1,2.54,2.54,0,0,0-1-.74A2.5,2.5,0,0,0,117.28,94.82ZM140,99.55a.33.33,0,0,1-.23.33l-.65.28c-.32.15-.67.3-1,.44s-.69.3-1,.42a3.08,3.08,0,0,1-.56.17.49.49,0,0,1-.38-.17l-5.72-7.68-.54.55-.08,6.07,1.52-.08a.35.35,0,0,1,.31.08.33.33,0,0,1,.16.27.38.38,0,0,1-.12.28.36.36,0,0,1-.31.14l-5.29.27a.44.44,0,0,1-.3-.12.3.3,0,0,1-.13-.27.43.43,0,0,1,.09-.26.44.44,0,0,1,.3-.11l2.28-.12-1-12.23-.59.1c-.22,0-.46.08-.7.14l-.71.11a3.88,3.88,0,0,1-.52,0,.52.52,0,0,1-.33-.1.37.37,0,0,1-.12-.29.26.26,0,0,1,.1-.21.53.53,0,0,1,.27-.16l4.9-.78h.1a.38.38,0,0,1,.29.12.3.3,0,0,1,.14.25l-.27,5.72,5.31-4.92-.59.08-.56,0a.57.57,0,0,1-.36-.1.35.35,0,0,1,0-.53.81.81,0,0,1,.34-.15l4.8-.31h0a.42.42,0,0,1,.29.11.31.31,0,0,1,.14.26.37.37,0,0,1-.12.27.33.33,0,0,1-.27.1l-2.36.19-4.77,4.4,6.33,7.54.31-.12c.14-.07.29-.12.43-.18l.43-.17a1.17,1.17,0,0,1,.29-.08.44.44,0,0,1,.32.12A.34.34,0,0,1,140,99.55Zm13.17.76a.44.44,0,0,1-.41.49l-3.17.39a.37.37,0,0,1-.37-.1.81.81,0,0,1-.12-.33,2.8,2.8,0,0,1,0-.41,2.37,2.37,0,0,0,0-.35,3.92,3.92,0,0,1-.76.33,5.92,5.92,0,0,1-.9.27,7.17,7.17,0,0,1-.9.18,5.93,5.93,0,0,1-.8.06,13.59,13.59,0,0,1-1.56-.1,6.59,6.59,0,0,1-1.72-.37,3.59,3.59,0,0,1-1.36-.82,1.92,1.92,0,0,1-.57-1.46,1.82,1.82,0,0,1,.35-1.14,2.83,2.83,0,0,1,.92-.74,5.75,5.75,0,0,1,1.27-.45,11.9,11.9,0,0,1,1.44-.21,11.33,11.33,0,0,1,1.39-.08l1.11,0a10.64,10.64,0,0,1,1.08.06,7.81,7.81,0,0,1,1.09.17V95a8.46,8.46,0,0,0-.14-1.74,4.45,4.45,0,0,0-.52-1.54,3,3,0,0,0-1.08-1.1,3.13,3.13,0,0,0-1.7-.42,4.59,4.59,0,0,0-.87.09,2.93,2.93,0,0,0-.86.3,1.85,1.85,0,0,0-.65.52,1.37,1.37,0,0,0-.25.84,1.55,1.55,0,0,0,.13.71,1.37,1.37,0,0,0,.39.37,1.73,1.73,0,0,0,.49.15l.49.1a.84.84,0,0,1,.37.14.29.29,0,0,1,.16.29A.38.38,0,0,1,145,94a.44.44,0,0,1-.29.12,3.93,3.93,0,0,1-1-.14,3.57,3.57,0,0,1-1-.41,3,3,0,0,1-.76-.7,1.71,1.71,0,0,1-.3-1,2,2,0,0,1,.38-1.25,2.91,2.91,0,0,1,1-.8,4.24,4.24,0,0,1,1.27-.43,7.49,7.49,0,0,1,1.29-.11,6.59,6.59,0,0,1,2.79.52,4.65,4.65,0,0,1,1.82,1.47,5.81,5.81,0,0,1,1,2.24,12.43,12.43,0,0,1,.31,2.82c0,.62,0,1.25-.08,1.87s-.09,1.25-.16,1.88l1.49-.2a.54.54,0,0,1,.31.1A.35.35,0,0,1,153.14,100.31Zm-4-3.71a6.84,6.84,0,0,0-1.13-.21,11.37,11.37,0,0,0-1.15-.06,7,7,0,0,0-1.1.1,5.17,5.17,0,0,0-1.21.33,2.93,2.93,0,0,0-1,.62,1.28,1.28,0,0,0-.41,1,1.23,1.23,0,0,0,.25.8,1.93,1.93,0,0,0,.64.47,2.9,2.9,0,0,0,.84.23,6.92,6.92,0,0,0,.86.06,7.79,7.79,0,0,0,1.78-.21,3.68,3.68,0,0,0,1.58-.82Zm-.08-15.72-.45,4-.43-4L145.85,83,148,80.6,146,80.2l2.07-.4-2.19-2.4,2.36,2.15.43-4,.45,4,2.37-2.15-2.21,2.4,2.07.4-2.07.4L151.46,83Z"/></g></g></svg>