<svg xmlns="http://www.w3.org/2000/svg" viewBox="0 0 324.52 264.41"><defs><style>.cls-1{fill:#ff4464;}</style></defs><title>Ресурс 26</title><g id="Слой_2" data-name="Слой 2"><g id="Слой_1-2" data-name="Слой 1"><path class="cls-1" d="M53.81,37.77C58,47.67,66.63,53.4,74.66,59.54c13.79,10.54,27.89,20.69,41.88,31a11.66,11.66,0,0,0,2.53,1.07,9,9,0,0,0,.81-2.94c-.62-6.77-1.94-13.53-2-20.29-.12-16.75.47-33.49.47-50.24,0-4.73-1.09-9.46-1.63-14.2-.19-1.64-.83-4.06,1.73-3.9a21.67,21.67,0,0,1,7.39,2.3c1.42.65,2.43,2.13,3.73,3.11a32.49,32.49,0,0,0,3.23,1.94,21.41,21.41,0,0,1-2.73,3.36c-1.1.9-2.83,1.12-3.75,2.12a5.06,5.06,0,0,0-1,3.61c.07.59,1.73.89,2.51,1.51,1.39,1.11,3.35,2.13,3.86,3.61,2.41,6.86,4,14,2.24,21.22-2.94,11.86.88,21.53,8.51,30.41,1.79,2.08,2.58,5,3.75,7.64.69,1.53,1.22,3.13,1.67,4.33,3-1.6,6.65-2.42,8.26-4.68,1.9-2.65,2.14-6.53,2.94-9.92.65-2.81.89-5.73,1.63-8.52,1.71-6.48,3.78-12.87,5.3-19.4.41-1.77-.42-3.95-1.08-5.8-.54-1.54-1.65-2.88-2.84-4.87l4.24-.46c.45-4.54.71-9.17,1.4-13.73.86-5.73,3.46-8,9.16-7.81a98.67,98.67,0,0,1,12,1.24c5.15.77,4.39,4.21,1.88,6.71-2.67,2.66-3.4,4.66-.81,7.77a6.83,6.83,0,0,1,1.44,5.16c-1.54,6.39,1.23,11.8,4.39,16.51,5,7.45,5.66,15,3.54,23.3a53.14,53.14,0,0,0-1,7.27c0,.2.17.44.49,1.19,19-11.18,38.24-21.8,60.38-24.93l.79,1c-1.08,2.51-1.85,5.22-3.3,7.5-3,4.69-6.11,9.17-8.6,14.28-3.65,7.52-8.93,14.27-13.84,21.12-5.41,7.56-11.23,14.82-16.74,22.31-.67.9-1.09,2.7-.63,3.5s2.47,1.67,3.32,1.32c7.05-2.89,14.46-2.13,21.74-2.36,12.34-.4,24.68-.47,37-.79a6.46,6.46,0,0,1,6.41,4,14.52,14.52,0,0,0,.7,1.29c.92,1.38,2.87,3.73,2.64,4-2.68,2.78-2.79,7.77-7.72,8.64-5.8,1-11.41,1.33-17.25-.18a43.27,43.27,0,0,0-12.7-1.07c-2.5.12-5.11,1.46-7.35,2.79-4.57,2.71-8.93,5.78-14.09,9.17l17,6.22c-1.69,4-4.11,6.55-7.3,7.72-6.19,2.28-12.6,3.93-18.86,6-2.39.79-4.61,2.08-6.93,3.1-3.82,1.66-7.68,3.22-11.46,4.94-3,1.37-3.89,3.58-3,6.92,1.94,7.41,3.12,15.05,5.46,22.33,1.3,4,4.28,7.58,6.55,11.32.37.61,1.22,1,1.51,1.58,3.73,8,6.86,16.19,6.78,25.21a6.74,6.74,0,0,1-.65,2l-1.32.13-1.38-7.12c-5.79-3.37-11.9-6.88-17.93-10.52-.61-.37-.72-1.56-.94-2.06a48.2,48.2,0,0,1-6.11-3.33c-8.85-6.52-17.6-13.19-26.4-19.78a13.53,13.53,0,0,0-2.67-.91c1.49,4.54,2.71,8.35,4,12.14.47,1.39,1.18,2.7,1.7,4.07,2.87,7.68-.88,12.43-9.2,11.65-.58-.06-1.15-.17-1.74-.25-1.06,5.21-1.89,10.26-3.16,15.19a48.54,48.54,0,0,1-3.84,10.61c-.78,1.48-3.13,2.6-4.92,2.87-.83.13-2.57-2-3-3.41-2.39-8.58-4.2-17.34-6.85-25.84a170.34,170.34,0,0,0-7.88-20.11c-2-4.36-4-4.37-9.11-2.6-6.17,2.15-12.6,3.56-18.79,5.66-4,1.35-8.22,2.72-11.48,5.22-7.27,5.6-15.5,8.18-24.28,9.61-1,.16-2.07-.24-4.23-.53l34.28-48.07c-.25-2.8-.41-4.58-.53-5.91-6.14,2-12.62,4.47-19.29,6.22-3.06.8-6.48.27-9.73.15a4.77,4.77,0,0,1-.55-2.43c4.76-2.46,5.77-7.51,7.66-11.7a9.91,9.91,0,0,1,5.63-5.7c4.66-1.94,9.23-4.09,14.64-6.51L77.18,140.56l-.87.55c1.14,2,2.29,4,4,7-2.33-.4-3.62-.67-4.94-.84-3.05-.38-6.11-.69-9.16-1.05a28,28,0,0,1-3.9-.58c-9-2.39-17.89-5.14-27-7.18-7.72-1.75-15.64-2.67-23.45-4-4.51-.8-5-1.89-4.79-7.76.15-3.61,2.76-3.91,5.14-3.78,8.62.47,16.44-2.58,24.14-5.62,5.29-2.09,9.94-5.79,15.18-8.07a21.68,21.68,0,0,1,9.44-1.3c3.73.18,7.41,1.39,11.14,1.83,1.12.13,2.94-.53,3.38-1.37s-.13-2.56-.74-3.63C64.43,86.32,56.1,67.09,52.43,46.1c-.47-2.7,0-5.56,0-8.34Z"/><path class="cls-1" d="M174.72,238.59c1.15,1.42,2.65,2.69,3.39,4.31a113.26,113.26,0,0,1,4.77,12.17c.24.73-1.14,2.05-1.87,3-1.42,1.88-4.93,2.44-3.68,6.33l-4.37-.49,3.59-3.77-.9.12q-1.35-10.47-2.71-20.94Z"/><path class="cls-1" d="M302.17,133.36c-2.79-2.15-3.55-4-.49-6.27.78-.59.82-2.4.85-3.66,0-.81-.62-1.63-1.17-3C305.36,122.65,303.91,125.78,302.17,133.36Z"/><path class="cls-1" d="M78.25,238.35,85,235.73C81.91,241,81.91,241,78.25,238.35Z"/><path class="cls-1" d="M59,181.33l-6.23,0c0-.55,0-1.11-.07-1.66l6.23-.38C58.93,180,59,180.67,59,181.33Z"/><path d="M23.24,132.17c3-6.72,3.13-7.23,15.16-29.37A27.64,27.64,0,0,0,40,99c2.69-.25,7.43-1.34,11.33-1.73-3.39,5.89-8.13,15-11.07,20.87-1.15,2.43-2.11,4.67-2.62,6.08a13.18,13.18,0,0,0-.84,4,5.74,5.74,0,0,0,1.09,3.26c.77,1.15,1.79.83,2.24-.19,2.11-4.74,4.16-9.28,6.34-13.38,3.13-5.89,4.8-8.45,8.89-15.68,1.41-2.56,2.63-5,2.63-6.72,0-1.92-.77-3.33-4.93-3.33-3.71,0-11.71,2.18-20,1.73a1.29,1.29,0,0,0-1.35,1.6,4.28,4.28,0,0,0,2.5,2.69c-4.67,8.13-12.22,23.49-13.5,27a11.67,11.67,0,0,0-.58,3.58,6.47,6.47,0,0,0,1,3.65C21.89,133.52,22.79,133.26,23.24,132.17ZM66,106a18.19,18.19,0,0,0,2.43-6.85c.89-.26,1.41-.45,2.43-.83,2.18-.77,4.54-1.6,6-1.6a2.1,2.1,0,0,1,2,1.28c1.16,4.29-5.05,13.63-17.79,16.51C64.79,108.11,65.43,107,66,106ZM49.69,128.53a4.72,4.72,0,0,0,1.21,3.39c.9.89,1.41.89,1.92-.26,2-4.93,4.1-9,5.83-12.35a8.9,8.9,0,0,0,4.28.26,26.7,26.7,0,0,0,18-11.33c2.24-3.39,3.45-6.59,2-11.07-1.53-4.68-4.67-5.57-8.19-5.44a23.8,23.8,0,0,0-7,1.53,29.27,29.27,0,0,1-7.23,1.86c-1.41.13-1.66.7-1.21,1.66A4.89,4.89,0,0,0,63,99.6c-5.51,8.7-11.27,20.22-12.87,25.73A12.29,12.29,0,0,0,49.69,128.53Zm53.42-37.06a11.22,11.22,0,0,0-3.84.64C92,94.67,80,106.51,80,120c0,5.32,2.11,10.12,7.61,12.16a11.94,11.94,0,0,0,4.29.77c7.36,0,13.82-6.59,18.18-14.53a32.71,32.71,0,0,0,4.09-14.72c0-4.54-1.66-8.44-5.82-10.3A7,7,0,0,0,103.11,91.47ZM89.74,129.42c-2.43,0-4-2.49-4-7a28.24,28.24,0,0,1,4.67-14.72c5.82-8.9,13.37-13.12,16.19-12.1,1.34.51,2,2.56,2,5.63,0,3.91-1.28,9.28-4.35,15C99.66,124.56,93.71,129.42,89.74,129.42Zm44.16,2.82c1.16.51,2,.25,2-.9a115.36,115.36,0,0,1,6-31.61,8.66,8.66,0,0,0,.52-2.63,8,8,0,0,0-2-4.86c-1-1.28-1.92-1.35-3.33-.19-8.12,6.84-19.52,22.59-23.68,33a11.91,11.91,0,0,0-1,4.35,3.47,3.47,0,0,0,.77,2.37,1.35,1.35,0,0,0,2.3-.19c4.42-9.41,13.51-22.21,20.16-30.53-2.62,8.06-4.41,17.47-4.41,25.09C131.28,129.87,132.5,131.53,133.9,132.24Zm5.21-3c.71,1.15,1.15,2.18,1.6,2.82.83,1.21,1.86,1.21,3.39.76,3.52-1,10.37-2.62,13.76-2.56,1.35,0,1.54-.51,1.22-1.4-.77-2.12-2.56-3.14-6-3a56.33,56.33,0,0,0-8.7,1.53c1.28-2.88,2.62-5.5,4.42-8.89a49.63,49.63,0,0,1,11.07-1.67c1.47,0,1.6-.64,1.28-1.47-.71-2-2.37-3.2-5.89-3.07-.9.06-2,.13-3.33.32,3-5.44,6-10.75,8.07-14,1-.13,1.6-.26,2.56-.45A52.73,52.73,0,0,1,172.2,97c1.22,0,1.66-.57,1.41-1.28-.83-2.24-2.43-3.39-5.38-3.32a41.11,41.11,0,0,0-5.63.64,61.12,61.12,0,0,1-10,.89c-1,0-1.67.39-1.48,1.28a5.43,5.43,0,0,0,2.56,3.2c-5.31,8.26-11.45,19.84-14.33,27.39C138.73,127.57,138.6,128.4,139.11,129.23Zm45,2.75c1.92-4.48,3.9-8.89,6-12.86a121.35,121.35,0,0,1,7.49,12.8c.58,1.09,1.47,1.09,2.24.19a5.83,5.83,0,0,0,1.15-3.26,10.66,10.66,0,0,0-1-4.1,75.82,75.82,0,0,0-4.35-7.68c8.32-5.95,17-13.44,19.71-17.28,2.3-3.2,2.17-5.63,1.73-6.91a1.1,1.1,0,0,0-2.05-.39A171.29,171.29,0,0,1,194,111.69c5.19-8.7,7.23-13.24,7.23-15.87a6.09,6.09,0,0,0-.7-2.81c-.9-1.35-1.73-1.41-2.62-.13C195.64,96,191,105.1,187.19,112.72,185.78,102.86,185.4,99.53,185,98c-1.22-4.23-3.59-5.51-5.44-5.83-1-.19-1.86.32-1.6,1.28,1.21,5.25,2.3,11.46,4,22.34-5.64,4.61-12.42,9.34-17.48,11.84-.83.45-1.34.7-1.34,1.15,0,1,1.79,2.05,4,2.05,2.5,0,4.87-1.22,7.23-2.69,3-1.92,6.08-4.22,8.39-6-1.67,3.77-1.86,5.18-1.86,6.72a5.68,5.68,0,0,0,1.09,3.45C182.84,133.45,183.6,133.2,184.12,132Zm44.14.19A236.15,236.15,0,0,1,242,102.29a13,13,0,0,0,2.11-6,7.61,7.61,0,0,0-1-3.58c-.64-1.28-1.6-1.54-2.5-.13-1.54,2.37-3,4.93-4.42,7.55-7.61,7.88-16.25,16.07-21.44,21.06,2.44-5.18,4.55-9.15,6.66-13.06,1.6-3,3.26-6,5.06-9.72a5.71,5.71,0,0,0,.51-2.31,5.48,5.48,0,0,0-1.79-3.84c-1-.89-1.86-.77-2.69.58-4.8,8.13-11.91,23.29-15.36,31.87-1.22,3.2-.71,6,.38,7.42.77.84,1.54.58,2.5-.25,3.39-2.82,12.16-11.27,20.29-19.46-2.5,5.76-4.29,10.63-5,12.8a10.56,10.56,0,0,0-.57,3.33,5.43,5.43,0,0,0,1.73,4.29C227.43,133.65,227.75,133.52,228.26,132.17Zm10.51-3.77a4.33,4.33,0,0,0,1.34,3.52c.9.89,1.66.83,2.18-.32,3.71-8.39,8.32-16.9,11.64-22.91,2.76-4.8,4.61-8.52,4.55-10.82,3.45-.58,7.17-1.15,9.92-.83,1.47.13,1.73-.64,1.41-1.41-1-2.69-3.65-3.46-6.6-3.46-3.71,0-13.95,1.73-19.52,1.73-.89,0-1.4.39-1.21,1.22.7,2.49,3.45,4,7.61,4a20.71,20.71,0,0,0,2.76-.26c-5.64,8.7-12.1,21.7-13.7,27A9,9,0,0,0,238.77,128.4Zm21.91.83c.7,1.15,1.15,2.18,1.6,2.82.83,1.21,1.85,1.21,3.39.76,3.52-1,10.37-2.62,13.76-2.56,1.34,0,1.53-.51,1.21-1.4-.76-2.12-2.56-3.14-6-3a56.44,56.44,0,0,0-8.71,1.53c1.28-2.88,2.63-5.5,4.42-8.89a49.8,49.8,0,0,1,11.07-1.67c1.47,0,1.6-.64,1.28-1.47-.7-2-2.37-3.2-5.89-3.07-.89.06-2,.13-3.32.32,3-5.44,5.95-10.75,8.06-14,1-.13,1.6-.26,2.56-.45A52.84,52.84,0,0,1,293.76,97c1.22,0,1.67-.57,1.41-1.28-.83-2.24-2.43-3.39-5.37-3.32a41.07,41.07,0,0,0-5.64.64,61.12,61.12,0,0,1-10,.89c-1,0-1.66.39-1.47,1.28a5.43,5.43,0,0,0,2.56,3.2c-5.31,8.26-11.46,19.84-14.34,27.39C260.29,127.57,260.16,128.4,260.68,129.23ZM.5,195c0,1,.51,1.92,1.66,3.45,1.6,2.05,2.82,3.14,4.87,3.14a6.35,6.35,0,0,0,2.11-.39c14.08-4.73,24.25-18,24.25-28.28a13.5,13.5,0,0,0-1.47-6.4c-2.62-4.36-5.76-6.4-10.11-5.7A23.19,23.19,0,0,0,16,162.65a21.26,21.26,0,0,1-6,1.92c-1.34.19-1.47.7-1.15,1.66a4.77,4.77,0,0,0,3.84,2.82c-4.35,6.65-9.47,16.12-11.33,21.82A14.14,14.14,0,0,0,.5,195Zm24.89-29.32a2.84,2.84,0,0,1,2.37,1.41,6.71,6.71,0,0,1,.77,3.52c0,7.62-7.87,21-22,26.37-.64.26-1,.13-1-.45a6.64,6.64,0,0,1,.32-1.85c1.35-4.68,5.06-11.33,10.05-19.72a11.55,11.55,0,0,0,1.79-6.59C19.7,167.64,23.41,165.65,25.39,165.65Zm30.94-5.18a11.22,11.22,0,0,0-3.84.64c-7.29,2.56-19.33,14.4-19.33,27.9,0,5.32,2.12,10.12,7.62,12.16a11.94,11.94,0,0,0,4.29.77c7.36,0,13.82-6.59,18.17-14.53a32.6,32.6,0,0,0,4.1-14.72c0-4.54-1.66-8.44-5.82-10.3A7,7,0,0,0,56.33,160.47ZM43,198.42c-2.44,0-4-2.49-4-7a28.26,28.26,0,0,1,4.68-14.72c5.82-8.9,13.37-13.12,16.19-12.1,1.34.51,2,2.56,2,5.63,0,3.91-1.28,9.28-4.35,15C52.88,193.56,46.92,198.42,43,198.42Zm44.16,2.82c1.16.51,2,.25,2-.9a115.36,115.36,0,0,1,6-31.61,8.66,8.66,0,0,0,.52-2.63,8,8,0,0,0-2-4.86c-1-1.28-1.92-1.35-3.33-.19-8.12,6.84-19.52,22.59-23.68,33a11.91,11.91,0,0,0-1,4.35,3.47,3.47,0,0,0,.77,2.37,1.35,1.35,0,0,0,2.3-.19c4.42-9.41,13.51-22.21,20.16-30.53-2.62,8.06-4.41,17.47-4.41,25.09C84.5,198.87,85.72,200.53,87.12,201.24Zm23.13-29.57a15.62,15.62,0,0,0,2.24-7,6.25,6.25,0,0,0-.77-2.81c-.89-1.47-1.66-1.41-2.62-.07-4.22,6-15,26.44-16.83,32a13.53,13.53,0,0,0-.77,3.84,6,6,0,0,0,1.34,3.52c.77,1.09,1.48.84,2-.38l.83-1.92c1,1.66,2.56,3.07,6.34,3.07,4.22,0,14.65-4.29,14.65-13.25,0-4.67-2.75-8.32-8.06-8.32a18.86,18.86,0,0,0-3.65.45C108.2,175.25,109.29,173.27,110.25,171.67ZM98,193.88l3.65-6.72c3.33-1.6,5.76-2.24,7.75-2.24,2.3,0,2.94,1.28,2.94,2.94,0,5.31-8.19,9.54-11.58,9.54C99.05,197.4,98.16,195.41,98,193.88ZM133,178.13c3.07-5.63,5.69-10.24,5.69-13.44,0-1.66-.77-3.32-2-3.32-1.79,0-9.73,14.91-13.83,23.61-3,6.59-3.58,8.26-4.09,9.54-.83,2-.9,2.88-.39,3.71.77,1.15,1.35,2.37,1.67,2.82.83,1.28,1.79,1.21,3.39.76a86.27,86.27,0,0,1,12.93-2.56c2.17-.12,4.22-.19,7.74-.44a3.05,3.05,0,0,0,2.56-1.92c.9-2,3.27-6.34,5.63-10.76,4.68-8.76,10.56-19.71,10.56-22.33,0-1.6-.83-3.27-1.85-3.27-1.28,0-11.78,16.84-18.75,33.67-2.56.38-4.8.64-6.66.77a200.19,200.19,0,0,1,9.47-17.86c3.07-5.38,5.83-10.56,5.83-13.31,0-1.6-.84-3.27-1.86-3.27-2.18,0-16.19,26.76-18.88,34.56a35.56,35.56,0,0,0-6.4,1.28C128.23,187,131,181.72,133,178.13Zm20.8,20.1c.71,1.15,1.15,2.18,1.6,2.82.83,1.21,1.86,1.21,3.39.76,3.52-1,10.37-2.62,13.76-2.56,1.35,0,1.54-.51,1.22-1.4-.77-2.12-2.56-3.14-6-3a56.33,56.33,0,0,0-8.7,1.53c1.28-2.88,2.62-5.5,4.42-8.89a49.63,49.63,0,0,1,11.07-1.67c1.47,0,1.6-.64,1.28-1.47-.71-2.05-2.37-3.2-5.89-3.07-.9.06-2,.13-3.33.32,3-5.44,6-10.75,8.07-14,1-.13,1.6-.26,2.56-.45a52.73,52.73,0,0,1,9.66-1.22c1.22,0,1.66-.57,1.41-1.28-.83-2.24-2.43-3.39-5.38-3.32a41.11,41.11,0,0,0-5.63.64,61.12,61.12,0,0,1-10,.89c-1,0-1.67.39-1.48,1.28a5.43,5.43,0,0,0,2.56,3.2c-5.31,8.26-11.45,19.84-14.33,27.39C153.45,196.57,153.32,197.4,153.83,198.23Zm39.1-3.07c0,2.05,1.92,4.61,4.61,5.89a6.76,6.76,0,0,0,3,.64,13.72,13.72,0,0,0,2.69-.26c3.59-.83,8.77-3.14,11.39-6a8.3,8.3,0,0,0,2.5-5.76,6.76,6.76,0,0,0-3.46-5.69,27.49,27.49,0,0,0,9.28-7.3,12.13,12.13,0,0,0,2.76-6.91c0-7.36-3.91-9.73-8.39-9.34-4.93.44-10.56,3.52-14.46,3.77-1.28.07-1.6.64-1.22,1.54a5.16,5.16,0,0,0,4,2.75,124.71,124.71,0,0,0-11.71,22.85A13,13,0,0,0,192.93,195.16Zm16.25-21.31c1.54-2.88,2-4.74,1.92-6.15,4.16-1.41,6.79-2.37,8.52-2.37a2.16,2.16,0,0,1,2.17,2.18c.07,4.29-6.59,11.14-17.09,14C207.58,176.73,208.48,175.19,209.18,173.85Zm2.12,17.28c-2.63,3.26-7.94,5.82-11.65,6.27-1.35.19-1.86-.45-1.28-2.24a64.58,64.58,0,0,1,4-9.22,14.94,14.94,0,0,0,6.21-.25c2.88.25,4,1.28,4,2.43A5.24,5.24,0,0,1,211.3,191.13Zm34.69-4c-3.71,7.1-8.25,11.2-11.77,11.2-2.31,0-4.74-2.43-4.74-7.94a27.29,27.29,0,0,1,4-13.63c5.31-8.58,14.4-14.14,15.94-12.48.77.83,0,2.88-.9,5.12a29.15,29.15,0,0,0-1.09,2.94,8.18,8.18,0,0,0-.38,2.37,4.75,4.75,0,0,0,2.18,4.1,1.53,1.53,0,0,0,2.49-1,45.17,45.17,0,0,1,2.43-5.76,8.3,8.3,0,0,0,.9-3.71c0-2.5-1.66-5-3.84-6.92a6.53,6.53,0,0,0-4.16-1.34,14.72,14.72,0,0,0-5.06,1.09c-7.23,3.26-18.68,14.85-18.43,27.77.13,5.25,2.75,9.28,5.76,10.88a11.41,11.41,0,0,0,5.63,1.35,14.12,14.12,0,0,0,8.26-2.63c2.3-1.72,5.76-5.44,5.76-9.15a5.21,5.21,0,0,0-.45-2.11A1.37,1.37,0,0,0,246,187.16Zm4.09,11.07c.71,1.15,1.15,2.18,1.6,2.82.83,1.21,1.86,1.21,3.39.76,3.52-1,10.37-2.62,13.76-2.56,1.35,0,1.54-.51,1.22-1.4-.77-2.12-2.56-3.14-6-3a56.33,56.33,0,0,0-8.7,1.53c1.28-2.88,2.62-5.5,4.42-8.89a49.63,49.63,0,0,1,11.07-1.67c1.47,0,1.6-.64,1.28-1.47-.71-2.05-2.37-3.2-5.89-3.07-.9.06-2,.13-3.33.32,3-5.44,5.95-10.75,8.07-14,1-.13,1.6-.26,2.56-.45a52.73,52.73,0,0,1,9.66-1.22c1.22,0,1.66-.57,1.41-1.28-.83-2.24-2.43-3.39-5.38-3.32a41.11,41.11,0,0,0-5.63.64,61.12,61.12,0,0,1-10,.89c-1,0-1.67.39-1.48,1.28a5.43,5.43,0,0,0,2.56,3.2c-5.31,8.26-11.45,19.84-14.33,27.39C249.7,196.57,249.57,197.4,250.08,198.23Zm36.56-37.06c-1.09-.19-1.86.32-1.6,1.28,1.28,5.51,2.24,11.59,3.13,17.67-5.44,5.69-10.24,11.2-12,13.89a10,10,0,0,0-1.86,5,5.07,5.07,0,0,0,.39,1.92c.38,1.09,1.41,1.34,2.24.25a136.38,136.38,0,0,1,12.29-14.4c.44,2.63.76,4,1.34,6.47,1.6,6.46,4.35,8.19,7.1,8.38,1.22.13,2.12-.38,1.28-1.73-2.24-3.58-3.52-11.26-4.54-18.43,3.71-3.71,7.1-6.91,10.69-10.37,4-4,4.73-7.16,4.35-9-.32-1.34-1.22-1.86-2.56-.58-3.2,2.95-8.32,7.88-13.44,13.12a69.83,69.83,0,0,0-1.34-7.61C290.86,162.77,288.49,161.49,286.64,161.17Zm20.55,26.44a11.88,11.88,0,0,0-.9,4,4.38,4.38,0,0,0,1.22,3.27c1.09,1.09,1.6.83,2.18-.32,3.2-7,8.51-16.9,12-23.11A16.06,16.06,0,0,0,324,164a6,6,0,0,0-.64-2.5c-.7-1.53-1.73-1.4-2.62-.06A148.52,148.52,0,0,0,307.19,187.61ZM301.94,198a5.13,5.13,0,0,0,.77,2.3c1.15,1.79,3.58,2.18,4.61,1a4.87,4.87,0,0,0,.51-4.48,3.75,3.75,0,0,0-3.14-2.24C303.16,194.58,301.94,196.37,301.94,198Z"/><path d="M23.24,132.17l-.46-.2h0ZM38.4,102.8l.44.24h0ZM40,99l0-.5-.33,0-.1.3Zm11.33-1.73.43.25.49-.84-1,.1ZM40.26,118.16l-.45-.23h0Zm-2.62,6.08-.47-.17h0Zm.25,7.23-.42.27h0Zm2.24-.19-.45-.21h0Zm6.34-13.38-.44-.23h0Zm8.89-15.68.44.25h0ZM33,93.9l0,.5h0Zm-1.35,1.6.49-.11h0Zm2.5,2.69.43.25.27-.47-.49-.23Zm-13.5,27-.47-.17h0v0Zm.44,7.23-.41.28h0Zm2.57-.05c3-6.7,3.12-7.2,15.15-29.34l-.88-.48c-12,22.15-12.16,22.67-15.18,29.41ZM38.85,103a28.82,28.82,0,0,0,1.63-3.84l-.95-.32A29.28,29.28,0,0,1,38,102.57Zm1.2-3.5c1.37-.13,3.25-.47,5.25-.82s4.15-.72,6.08-.91l-.1-1c-2,.19-4.15.56-6.15.91s-3.85.69-5.17.81ZM50.9,97c-3.4,5.91-8.14,15-11.09,20.89l.9.45c2.94-5.88,7.67-15,11-20.84Zm-11.09,20.9c-1.16,2.44-2.12,4.7-2.64,6.13l.94.34c.5-1.39,1.45-3.61,2.6-6Zm-2.65,6.14a13.81,13.81,0,0,0-.86,4.13h1a12.79,12.79,0,0,1,.81-3.81Zm-.86,4.13a6.21,6.21,0,0,0,1.17,3.53l.84-.54a5.25,5.25,0,0,1-1-3Zm1.18,3.54a1.77,1.77,0,0,0,1.73.93,1.89,1.89,0,0,0,1.38-1.2l-.92-.4c-.18.42-.43.59-.62.62s-.42,0-.74-.51Zm3.11-.27c2.11-4.74,4.15-9.26,6.32-13.34l-.88-.47c-2.19,4.11-4.24,8.67-6.35,13.4Zm6.32-13.34c3.13-5.88,4.78-8.42,8.89-15.67l-.87-.49c-4.09,7.21-5.76,9.79-8.9,15.69Zm8.89-15.68a39,39,0,0,0,1.86-3.72,8.76,8.76,0,0,0,.83-3.24h-1a7.82,7.82,0,0,1-.75,2.86c-.47,1.12-1.11,2.34-1.81,3.62Zm2.69-7a3.38,3.38,0,0,0-1.09-2.77c-.85-.7-2.23-1.06-4.34-1.06v1c2,0,3.13.36,3.7.83a2.36,2.36,0,0,1,.73,2Zm-5.43-3.83a29.26,29.26,0,0,0-3.6.34l-2.25.33-2.51.37a60.91,60.91,0,0,1-11.65.69l0,1a61.73,61.73,0,0,0,11.84-.7l2.52-.37L49.6,93a28.45,28.45,0,0,1,3.46-.33Zm-20,1.73a1.79,1.79,0,0,0-1.87,2.24l1-.27a.78.78,0,0,1,.83-1ZM31.2,95.62a4.72,4.72,0,0,0,2.76,3l.43-.9a3.78,3.78,0,0,1-2.22-2.35Zm2.55,2.32C29.07,106.08,21.5,121.47,20.21,125l.94.34c1.26-3.48,8.8-18.81,13.46-26.93ZM20.2,125.06a12.23,12.23,0,0,0-.6,3.72h1a11.21,11.21,0,0,1,.56-3.44Zm-.6,3.72a7,7,0,0,0,1.11,3.93l.83-.56a6,6,0,0,1-.94-3.37Zm1.12,3.94a1.72,1.72,0,0,0,1.66.89,1.86,1.86,0,0,0,1.32-1.25l-.93-.38c-.19.48-.42.62-.55.65s-.36,0-.69-.49ZM66,106l.42.26h0Zm2.43-6.85-.14-.48-.35.1v.36Zm2.43-.83-.17-.47h0ZM78.93,98l.49-.13h0ZM61.14,114.51l-.43-.25-.56,1,1.1-.25ZM50.9,131.92l-.37.34h0Zm1.92-.26.46.21v0Zm5.83-12.35.17-.47-.41-.15-.21.39Zm4.28.26.07.49h0Zm18-11.33L80.5,108h0Zm2-11.07.48-.16h0Zm-8.19-5.44,0-.5h0Zm-7,1.53.17.47h0ZM60.5,95.12l0-.5h0Zm-1.21,1.66.45-.2h0ZM63,99.6l.42.27.38-.61-.7-.15ZM50.13,125.33l-.48-.14h0Zm16.31-19.09a18.41,18.41,0,0,0,2.5-7.07l-1,0a17.67,17.67,0,0,1-2.37,6.63Zm2.14-6.61c.91-.26,1.44-.46,2.47-.84l-.36-.94c-1,.38-1.51.57-2.39.82ZM71,98.79c1.09-.38,2.21-.78,3.24-1.08a10.27,10.27,0,0,1,2.61-.49v-1a11,11,0,0,0-2.89.53c-1.06.31-2.21.71-3.3,1.1Zm5.85-1.57a2.06,2.06,0,0,1,1,.26,1.25,1.25,0,0,1,.58.67l1-.3a2.21,2.21,0,0,0-1-1.24,3,3,0,0,0-1.48-.39Zm1.56.91a6,6,0,0,1-.48,3.66,15.81,15.81,0,0,1-3.09,4.65A26.88,26.88,0,0,1,61,114l.22,1a27.83,27.83,0,0,0,14.36-7.88,16.45,16.45,0,0,0,3.28-5,7,7,0,0,0,.53-4.3ZM61.58,114.76c3.65-6.41,4.28-7.55,4.85-8.5l-.85-.52c-.58,1-1.23,2.13-4.87,8.52ZM49.19,128.53a5.25,5.25,0,0,0,1.34,3.73l.74-.68a4.21,4.21,0,0,1-1.08-3.05Zm1.36,3.74a3.58,3.58,0,0,0,.7.58,1.33,1.33,0,0,0,.81.21,1.19,1.19,0,0,0,.74-.41,2.8,2.8,0,0,0,.48-.78l-.92-.41a1.81,1.81,0,0,1-.3.52l-.08.07h0s-.06,0-.19-.07a2.62,2.62,0,0,1-.5-.43Zm2.73-.42c2-4.91,4.08-9,5.81-12.31l-.89-.46c-1.73,3.33-3.78,7.44-5.84,12.39Zm5.19-12.07a9.38,9.38,0,0,0,4.53.28l-.13-1a8.29,8.29,0,0,1-4-.23Zm4.53.28a27.18,27.18,0,0,0,18.34-11.55L80.5,108a26.19,26.19,0,0,1-17.63,11.1Zm18.33-11.55a15.88,15.88,0,0,0,2.46-5.29A11.42,11.42,0,0,0,83.38,97l-.95.31a10.38,10.38,0,0,1,.38,5.68,14.9,14.9,0,0,1-2.31,5Zm2-11.5a8,8,0,0,0-3.59-4.8,9.5,9.5,0,0,0-5.1-1l0,1a8.62,8.62,0,0,1,4.58.85,7.06,7.06,0,0,1,3.12,4.24Zm-8.7-5.78a24.54,24.54,0,0,0-7.12,1.56l.34.94a23.38,23.38,0,0,1,6.84-1.5Zm-7.11,1.56a28.88,28.88,0,0,1-7.11,1.83l.08,1a29.85,29.85,0,0,0,7.36-1.89Zm-7.11,1.83a2.17,2.17,0,0,0-1.68.74,1.64,1.64,0,0,0,0,1.63l.91-.42c-.21-.45-.16-.61-.12-.66s.24-.23.93-.29ZM58.83,97a5.43,5.43,0,0,0,4.06,3.1l.21-1a4.41,4.41,0,0,1-3.36-2.53Zm3.75,2.34c-5.52,8.72-11.31,20.29-12.93,25.86l1,.28c1.58-5.44,7.31-16.91,12.81-25.6ZM49.65,125.19a13,13,0,0,0-.46,3.34h1a11.76,11.76,0,0,1,.43-3.07ZM99.27,92.11l-.16-.47h0ZM87.56,132.17l-.17.47h0ZM110,118.41l.43.24h0Zm-1.73-25-.37.34.07.08.09,0ZM90.38,107.73l-.42-.28h0Zm16.19-12.1.18-.47h0Zm-2.37,20.61.44.24h0ZM103.11,91a11.67,11.67,0,0,0-4,.67l.33.94a10.67,10.67,0,0,1,3.67-.61Zm-4,.67c-3.77,1.32-8.67,5-12.63,10s-7,11.47-7,18.36h1c0-6.6,2.94-12.83,6.82-17.74s8.64-8.45,12.17-9.69ZM79.45,120c0,5.45,2.18,10.49,7.94,12.63l.35-.93c-5.25-2-7.29-6.52-7.29-11.7Zm7.94,12.63a12.41,12.41,0,0,0,4.46.8v-1a11.51,11.51,0,0,1-4.12-.74Zm4.46.8c3.83,0,7.4-1.72,10.54-4.41a37.2,37.2,0,0,0,8.07-10.38l-.87-.48a36.43,36.43,0,0,1-7.85,10.1c-3,2.59-6.37,4.17-9.89,4.17Zm18.61-14.79a33.09,33.09,0,0,0,4.16-15h-1a32.26,32.26,0,0,1-4,14.49Zm4.16-15c0-4.66-1.72-8.79-6.12-10.76l-.41.92c3.92,1.75,5.53,5.42,5.53,9.84Zm-6-10.64A7.49,7.49,0,0,0,103.11,91v1a6.5,6.5,0,0,1,4.82,1.76ZM89.74,128.92a2.82,2.82,0,0,1-2.5-1.56,9.79,9.79,0,0,1-1-4.91h-1a10.69,10.69,0,0,0,1.17,5.42,3.83,3.83,0,0,0,3.36,2Zm-3.53-6.47A27.76,27.76,0,0,1,90.8,108l-.84-.54a28.74,28.74,0,0,0-4.75,15ZM90.8,108a34.84,34.84,0,0,1,9.08-9.63,16.39,16.39,0,0,1,4-2.06,4.15,4.15,0,0,1,2.57-.21l.34-.94a5.18,5.18,0,0,0-3.23.2,17,17,0,0,0-4.19,2.19,35.82,35.82,0,0,0-9.36,9.9Zm15.59-11.9a2.27,2.27,0,0,1,1.2,1.55,11.35,11.35,0,0,1,.46,3.61h1a12.69,12.69,0,0,0-.51-3.94,3.27,3.27,0,0,0-1.79-2.16Zm1.66,5.16A32.57,32.57,0,0,1,103.76,116l.88.48c3.1-5.76,4.41-11.22,4.41-15.22ZM103.76,116a35.86,35.86,0,0,1-7.34,9.58c-2.52,2.22-4.88,3.34-6.68,3.34v1c2.16,0,4.76-1.31,7.34-3.59a36.63,36.63,0,0,0,7.56-9.85Zm30.14,16.24-.22.45h0Zm2-.9-.5,0h.5Zm6-31.61-.47-.16h0Zm-1.47-7.49-.4.3h0Zm-3.33-.19-.31-.39h0Zm-23.68,33,.47.19h0Zm-.25,6.72-.36.35Zm2.3-.19.43.26v-.05Zm20.16-30.53.48.16-.87-.47Zm-4.41,25.09h0Zm2.48,6.54a2.41,2.41,0,0,0,1.82.18,1.54,1.54,0,0,0,.87-1.54h-1c0,.46-.15.57-.25.61a1.4,1.4,0,0,1-1-.17Zm2.69-1.34a114.94,114.94,0,0,1,6-31.48l-.95-.31a116,116,0,0,0-6,31.75Zm6-31.48a9,9,0,0,0,.54-2.78h-1a8.26,8.26,0,0,1-.49,2.47Zm.54-2.78a8.55,8.55,0,0,0-2.09-5.17l-.79.61a7.59,7.59,0,0,1,1.88,4.56Zm-2.09-5.16A2.6,2.6,0,0,0,139,90.73a3.27,3.27,0,0,0-2.18.93l.63.77a2.34,2.34,0,0,1,1.49-.7c.32,0,.68.22,1.12.81Zm-4.05-.28c-4.11,3.47-9,9.15-13.41,15.26a91.78,91.78,0,0,0-10.41,18l.93.37a90.82,90.82,0,0,1,10.29-17.75c4.37-6.08,9.23-11.69,13.25-15.08ZM113,124.88a12.16,12.16,0,0,0-1.06,4.54h1a11.28,11.28,0,0,1,1-4.16Zm-1.06,4.54a4,4,0,0,0,.91,2.72l.71-.7a3,3,0,0,1-.62-2Zm.91,2.72a2.11,2.11,0,0,0,1.61.7,1.83,1.83,0,0,0,1.48-1l-.86-.52a.86.86,0,0,1-.68.5,1.14,1.14,0,0,1-.84-.4Zm3.11-.33c4.4-9.35,13.45-22.12,20.1-30.43l-.78-.62c-6.66,8.33-15.78,21.16-20.22,30.63Zm19.24-30.89c-2.64,8.1-4.44,17.56-4.44,25.24h1c0-7.55,1.78-16.91,4.39-24.93Zm-4.44,25.25c.06,3.82,1.32,5.7,3,6.52l.45-.9c-1.18-.59-2.35-2-2.41-5.64Zm8.39,3.06.43-.26h0Zm1.6,2.82.42-.29h0Zm3.39.76-.13-.48h0Zm13.76-2.56v.5h0Zm1.22-1.4.47-.17h0Zm-6-3v-.5h0Zm-8.7,1.53-.46-.2-.42,1,1-.27Zm4.42-8.89-.13-.49-.21.06-.11.19Zm12.35-3.14-.47.17h0Zm-5.89-3.07,0-.5h0Zm-3.33.32-.43-.24-.49.88,1-.14Zm8.07-14-.07-.5-.23,0-.12.19Zm2.56-.45-.1-.49h0Zm11.07-2.5.47-.17h0Zm-5.38-3.32v.5h0ZM162.6,93l-.07-.5h0Zm-11.46,2.17-.48.11h0Zm2.56,3.2.43.27.26-.41L154,98Zm-14.33,27.39-.47-.17h0Zm-.68,3.72c.34.56.62,1.09.88,1.58a13.69,13.69,0,0,0,.73,1.26l.82-.57c-.2-.29-.41-.68-.67-1.16s-.55-1-.91-1.63Zm1.61,2.84a2.66,2.66,0,0,0,1.76,1.22,5,5,0,0,0,2.18-.26l-.28-1a3.93,3.93,0,0,1-1.73.23,1.62,1.62,0,0,1-1.1-.8Zm3.94,1c1.75-.48,4.33-1.13,6.89-1.66a35.21,35.21,0,0,1,6.73-.89v-1a36.26,36.26,0,0,0-6.94.91c-2.59.53-5.19,1.19-7,1.67Zm13.62-2.55a1.91,1.91,0,0,0,1.64-.57,1.6,1.6,0,0,0,.05-1.5l-.94.33c.16.44.1.56.08.58s-.16.16-.83.16Zm1.69-2.07a4.57,4.57,0,0,0-2.24-2.62,8.51,8.51,0,0,0-4.26-.72l0,1a7.63,7.63,0,0,1,3.77.61,3.59,3.59,0,0,1,1.76,2.07ZM153,125.34a56.06,56.06,0,0,0-8.8,1.55l.26,1a54.28,54.28,0,0,1,8.61-1.52Zm-8.21,2.24c1.27-2.87,2.61-5.48,4.4-8.87l-.89-.47c-1.79,3.4-3.14,6-4.43,8.93ZM148.9,119a49.56,49.56,0,0,1,10.95-1.65v-1a50.51,50.51,0,0,0-11.2,1.68Zm10.95-1.65a2,2,0,0,0,1.73-.64,1.67,1.67,0,0,0,0-1.51l-.94.36c.16.4.11.55.08.59s-.18.2-.89.2Zm1.75-2.13a4.57,4.57,0,0,0-2.12-2.63,8.11,8.11,0,0,0-4.26-.78l0,1a7.11,7.11,0,0,1,3.74.66,3.58,3.58,0,0,1,1.66,2.08Zm-6.39-3.41c-.9.07-2,.13-3.37.33l.14,1c1.33-.19,2.4-.26,3.3-.32Zm-2.86,1.06c3-5.45,6-10.74,8-13.92l-.83-.55c-2.13,3.22-5.08,8.56-8.08,14ZM160,99.13c1-.13,1.63-.26,2.59-.45l-.19-1c-1,.19-1.59.32-2.53.44Zm2.59-.45a52.64,52.64,0,0,1,9.57-1.21v-1a53.27,53.27,0,0,0-9.76,1.23Zm9.57-1.21a2.22,2.22,0,0,0,1.61-.52,1.31,1.31,0,0,0,.27-1.43l-.94.35c.08.21,0,.31,0,.37a1.26,1.26,0,0,1-.9.23Zm1.88-2a5.38,5.38,0,0,0-2.1-2.77,6.48,6.48,0,0,0-3.76-.88l0,1a5.56,5.56,0,0,1,3.2.72,4.33,4.33,0,0,1,1.7,2.28Zm-5.85-3.65a42.23,42.23,0,0,0-5.7.64l.14,1a41.43,41.43,0,0,1,5.56-.63Zm-5.71.64a60.42,60.42,0,0,1-9.9.89v1a62,62,0,0,0,10.06-.9Zm-9.9.89a2.37,2.37,0,0,0-1.47.41,1.33,1.33,0,0,0-.47.64,1.59,1.59,0,0,0,0,.84l1-.21a.66.66,0,0,1,0-.32.36.36,0,0,1,.12-.16,1.51,1.51,0,0,1,.87-.2Zm-2,1.91a5.94,5.94,0,0,0,2.77,3.49L154,98a4.93,4.93,0,0,1-2.35-2.9Zm2.62,2.8C148,106.39,141.8,118,138.9,125.6l.94.35c2.86-7.51,9-19.06,14.29-27.3Zm-14.38,27.5c-.64,1.77-.86,2.82-.21,3.88l.85-.52c-.37-.61-.35-1.22.3-3ZM184.12,132l-.46-.19h0Zm6-12.86.41-.29-.46-.67-.39.72Zm7.49,12.8-.44.23h0Zm2.24.19.38.33,0,0v0Zm.13-7.36.45-.21h0Zm-4.35-7.68-.3-.41-.38.28.25.4Zm19.71-17.28-.41-.29h0Zm1.73-6.91-.48.16h0ZM215,92.49l.37.34h0ZM194,111.69l-.43-.25.74.65ZM200.5,93l.44-.24v0Zm-2.62-.13.4.29h0Zm-10.69,19.84-.5.07.23,1.59.72-1.44ZM185,98l-.48.14h0Zm-5.44-5.83-.09.5h0Zm-1.6,1.28.48-.11h0Zm4,22.34.31.39.22-.18,0-.29ZM164.4,127.63l-.22-.45h0Zm9.92.51.27.43h0Zm8.39-6,.45.2-.76-.6Zm-.77,10.17-.41.29h0Zm2.63-.12c1.92-4.48,3.9-8.88,6-12.83l-.88-.47c-2.12,4-4.11,8.42-6,12.91Zm5.15-12.78a122.87,122.87,0,0,1,7.46,12.75l.88-.46a122.05,122.05,0,0,0-7.52-12.86Zm7.46,12.75a1.84,1.84,0,0,0,1.46,1.11,2,2,0,0,0,1.6-.82l-.76-.65c-.33.38-.61.48-.78.47s-.4-.12-.64-.58Zm3.09.25a6.45,6.45,0,0,0,1.24-3.55h-1a5.42,5.42,0,0,1-1.06,3Zm1.24-3.55a11.07,11.07,0,0,0-1.07-4.31l-.91.42a10.1,10.1,0,0,1,1,3.89Zm-1.07-4.31a76.62,76.62,0,0,0-4.38-7.74l-.85.54a72.08,72.08,0,0,1,4.32,7.62Zm-4.51-7.06c4.17-3,8.42-6.36,12-9.46a56.27,56.27,0,0,0,7.84-7.94l-.81-.58a55.1,55.1,0,0,1-7.69,7.76c-3.53,3.09-7.76,6.44-11.91,9.4Zm19.82-17.4c2.39-3.31,2.31-5.91,1.8-7.37l-1,.33c.39,1.11.56,3.37-1.66,6.46Zm1.8-7.36a1.69,1.69,0,0,0-1.31-1.27,1.79,1.79,0,0,0-1.59.72l.76.65a.81.81,0,0,1,.69-.38c.12,0,.35.13.5.6Zm-2.9-.56a170.31,170.31,0,0,1-21,19.14l.62.79A172.23,172.23,0,0,0,215.4,92.83ZM194.4,112A114.16,114.16,0,0,0,200,101.69a15.36,15.36,0,0,0,1.71-5.87h-1a14.43,14.43,0,0,1-1.62,5.45,111.08,111.08,0,0,1-5.54,10.17Zm7.3-16.13a6.56,6.56,0,0,0-.76-3l-.88.48a5.53,5.53,0,0,1,.64,2.57Zm-.78-3.09a2.43,2.43,0,0,0-1.71-1.27,2.1,2.1,0,0,0-1.74,1.13l.81.58c.43-.62.72-.72.88-.71s.49.17.92.82Zm-3.45-.14c-2.27,3.17-7,12.31-10.73,19.91l.9.44c3.78-7.63,8.43-16.68,10.64-19.77Zm-9.79,20.06c-.7-4.92-1.15-8.23-1.48-10.48a36.5,36.5,0,0,0-.77-4.31l-1,.28a36.71,36.71,0,0,1,.74,4.17c.33,2.26.78,5.54,1.48,10.48Zm-2.25-14.79a9.65,9.65,0,0,0-2.63-4.61,6.32,6.32,0,0,0-3.21-1.57l-.17,1A5.26,5.26,0,0,1,182.13,94a8.7,8.7,0,0,1,2.34,4.15Zm-5.83-6.18a2.17,2.17,0,0,0-1.67.3,1.44,1.44,0,0,0-.51,1.6l1-.25c-.08-.31,0-.46.13-.54a1.18,1.18,0,0,1,.9-.12Zm-2.18,1.89c1.21,5.23,2.3,11.42,4,22.3l1-.16c-1.66-10.88-2.76-17.1-4-22.37Zm4.14,21.83c-5.62,4.6-12.37,9.31-17.38,11.78l.44.9c5.11-2.52,11.93-7.28,17.57-11.9Zm-17.39,11.79a7.48,7.48,0,0,0-1,.62,1.22,1.22,0,0,0-.56,1h1v0a.66.66,0,0,1,.15-.15,9.51,9.51,0,0,1,.92-.53Zm-1.61,1.59a2.29,2.29,0,0,0,1.44,1.85,6.71,6.71,0,0,0,3.09.7v-1a5.77,5.77,0,0,1-2.62-.58c-.69-.36-.91-.75-.91-1Zm4.53,2.55c2.65,0,5.13-1.29,7.5-2.76l-.53-.85c-2.37,1.47-4.63,2.61-7,2.61Zm7.51-2.77c3-1.93,6.1-4.24,8.41-6l-.61-.79c-2.3,1.79-5.42,4.08-8.35,6Zm7.65-6.64c-1.68,3.82-1.9,5.3-1.9,6.93h1c0-1.45.17-2.78,1.81-6.52Zm-1.9,6.93a6.22,6.22,0,0,0,1.18,3.74l.82-.58a5.18,5.18,0,0,1-1-3.16Zm1.19,3.76a1.85,1.85,0,0,0,1.73.91,2,2,0,0,0,1.31-1.34l-.93-.39c-.24.58-.47.73-.57.75s-.32,0-.75-.54Zm46.72-.44.47.18h0ZM242,102.29l.43.25h0Zm-1.41-9.67.42.27h0Zm-4.42,7.55.36.35,0,0,0-.06Zm-21.44,21.06-.45-.21.8.57Zm6.66-13.06.44.24h0Zm5.06-9.72.45.21h0Zm-1.28-6.15.34-.37h0Zm-2.69.58-.43-.26h0Zm-15.36,31.87-.47-.19h0Zm.38,7.42-.39.31v0h0Zm2.5-.25-.32-.39h0Zm20.29-19.46.46.2-.82-.55Zm-5,12.8.48.16h0Zm1.16,7.62-.32.38h0Zm2.26-.54a235.64,235.64,0,0,1,13.72-29.8l-.86-.51a235,235,0,0,0-13.8,30Zm13.72-29.8a13.47,13.47,0,0,0,2.18-6.21h-1a12.55,12.55,0,0,1-2,5.7Zm2.18-6.21a8,8,0,0,0-1.08-3.8l-.89.44a7.14,7.14,0,0,1,1,3.36Zm-1.08-3.8A2.17,2.17,0,0,0,242,91.18a2,2,0,0,0-1.82,1.17l.84.54c.42-.65.73-.73.87-.71s.46.19.76.79Zm-3.36-.18c-1.54,2.38-3,5-4.44,7.59l.88.47c1.41-2.62,2.87-5.16,4.4-7.52Zm-4.36,7.48c-7.6,7.86-16.23,16-21.42,21l.69.72c5.18-5,13.83-13.19,21.45-21.07Zm-20.62,21.61c2.42-5.17,4.53-9.13,6.64-13l-.88-.47c-2.11,3.9-4.23,7.88-6.67,13.08Zm6.64-13c1.6-3,3.27-6,5.07-9.75l-.9-.43c-1.79,3.7-3.45,6.69-5.05,9.71Zm5.07-9.75a6.12,6.12,0,0,0,.56-2.52h-1a5.13,5.13,0,0,1-.47,2.1Zm.56-2.52a6,6,0,0,0-1.95-4.2l-.68.73a5,5,0,0,1,1.63,3.47Zm-2-4.21a2.19,2.19,0,0,0-1.85-.67,2.64,2.64,0,0,0-1.6,1.36l.85.52c.4-.64.72-.85,1-.9s.52,0,1,.44Zm-3.45.69c-4.82,8.16-11.93,23.35-15.4,31.94l.93.38c3.45-8.56,10.55-23.71,15.33-31.81Zm-15.4,31.95c-1.26,3.32-.76,6.33.46,7.91l.79-.61c-1-1.24-1.49-3.86-.31-6.94Zm.48,7.94a1.76,1.76,0,0,0,1.63.65,3.37,3.37,0,0,0,1.57-.86l-.66-.76a2.49,2.49,0,0,1-1.07.64.8.8,0,0,1-.73-.34Zm3.19-.21c3.41-2.83,12.2-11.3,20.32-19.49l-.71-.7c-8.13,8.2-16.88,16.63-20.25,19.42Zm19.51-20c-2.5,5.77-4.3,10.65-5,12.85l.95.31c.7-2.16,2.48-7,5-12.76Zm-5,12.84a10.74,10.74,0,0,0-.6,3.49h1a9.87,9.87,0,0,1,.55-3.17Zm-.6,3.49a5.93,5.93,0,0,0,1.91,4.67l.63-.77a4.94,4.94,0,0,1-1.54-3.9Zm1.91,4.68a3.2,3.2,0,0,0,.73.47,1,1,0,0,0,.83,0,1.28,1.28,0,0,0,.61-.56,5.1,5.1,0,0,0,.41-.87l-.94-.35a4,4,0,0,1-.32.7c-.09.15-.14.16-.12.15s0,0-.07,0a2.25,2.25,0,0,1-.5-.33Zm14-1.35.35-.36h0Zm2.18-.32.45.2h0Zm11.64-22.91-.43-.25h0Zm4.55-10.82-.08-.49-.43.07v.43ZM268.4,97l-.06.5h0Zm1.41-1.41-.47.17h0Zm-27.33-.51-.49.11h0Zm10.37,3.71.42.27.59-.91-1.08.14Zm-13.7,27,.48.15h0Zm-.88,2.56a6.2,6.2,0,0,0,.34,2.2,4.38,4.38,0,0,0,1.16,1.68l.68-.73a3.32,3.32,0,0,1-.9-1.31,5.05,5.05,0,0,1-.28-1.84Zm1.49,3.87a2,2,0,0,0,1.65.75,1.81,1.81,0,0,0,1.33-1.22l-.91-.4c-.23.51-.44.62-.55.63s-.4-.05-.82-.47Zm3-.47c3.71-8.36,8.31-16.86,11.63-22.87l-.87-.49c-3.33,6-7.95,14.55-11.67,23Zm11.63-22.86a70.51,70.51,0,0,0,3.35-6.4A11.69,11.69,0,0,0,259,97.86l-1,0a10.87,10.87,0,0,1-1.17,4.26,70.28,70.28,0,0,1-3.31,6.3Zm4.19-10.58c3.48-.58,7.11-1.14,9.78-.82l.12-1c-2.84-.33-6.63.26-10.06.84Zm9.8-.82a1.94,1.94,0,0,0,1.81-.57,1.51,1.51,0,0,0,.1-1.53l-.92.38c.12.31.08.48,0,.55s-.26.23-.94.17Zm1.92-2.08c-1.08-3-4.08-3.79-7.07-3.79v1c2.91,0,5.28.76,6.13,3.13Zm-7.07-3.79c-1.89,0-5.42.44-9.12.87a103.66,103.66,0,0,1-10.4.86v1a103.92,103.92,0,0,0,10.52-.86c3.74-.44,7.19-.87,9-.87ZM243.69,93.4a2,2,0,0,0-1.35.43,1.4,1.4,0,0,0-.35,1.4l1-.22c-.07-.3,0-.4.05-.44a1,1,0,0,1,.67-.17ZM242,95.25c.8,2.83,3.86,4.34,8.09,4.34v-1c-4.08,0-6.52-1.44-7.13-3.61Zm8.09,4.34a22.57,22.57,0,0,0,2.82-.26l-.13-1a20.49,20.49,0,0,1-2.69.26Zm2.34-1c-5.65,8.72-12.14,21.76-13.76,27.13l1,.29c1.58-5.25,8-18.19,13.64-26.88Zm-13.76,27.13a9.72,9.72,0,0,0-.4,2.71h1a8.7,8.7,0,0,1,.36-2.41Zm22,3.54.42-.26h0Zm1.6,2.82.41-.29h0Zm3.39.76-.13-.48h0Zm13.76-2.56v.5h0Zm1.21-1.4.47-.17h0Zm-6-3,0-.5h0Zm-8.71,1.53-.45-.2-.43,1,1-.27Zm4.42-8.89-.13-.49-.21.06-.1.19Zm12.35-3.14-.47.17h0Zm-5.89-3.07v-.5h0Zm-3.32.32-.44-.24-.49.88,1-.14Zm8.06-14-.07-.5-.22,0-.13.19Zm2.56-.45L284,97.7h0Zm11.07-2.5.47-.17h0Zm-5.37-3.32v.5h0Zm-5.64.64-.07-.5h0Zm-11.45,2.17-.49.11h0Zm2.56,3.2.42.27.27-.41-.42-.28Zm-14.34,27.39-.47-.17h0Zm-.68,3.72c.34.56.62,1.09.88,1.58a11.69,11.69,0,0,0,.74,1.26l.81-.57c-.2-.29-.41-.68-.67-1.16s-.55-1-.91-1.63Zm1.61,2.84a2.66,2.66,0,0,0,1.76,1.22,5,5,0,0,0,2.19-.26l-.28-1a4,4,0,0,1-1.74.23,1.64,1.64,0,0,1-1.1-.8Zm3.94,1c1.75-.48,4.33-1.13,6.9-1.66a35,35,0,0,1,6.72-.89l0-1a36.25,36.25,0,0,0-6.95.91c-2.58.53-5.19,1.19-6.95,1.67Zm13.63-2.55a1.9,1.9,0,0,0,1.63-.57,1.57,1.57,0,0,0,.05-1.5l-.94.33c.16.44.1.56.09.58s-.17.16-.83.16Zm1.68-2.07a4.57,4.57,0,0,0-2.24-2.62,8.51,8.51,0,0,0-4.26-.72l0,1a7.61,7.61,0,0,1,3.76.61,3.52,3.52,0,0,1,1.76,2.07Zm-6.51-3.34a56.17,56.17,0,0,0-8.81,1.55l.26,1a54.28,54.28,0,0,1,8.61-1.52Zm-8.22,2.24c1.27-2.87,2.61-5.48,4.4-8.87l-.88-.47c-1.8,3.4-3.15,6-4.43,8.93Zm4.08-8.62a49.56,49.56,0,0,1,11-1.65v-1a50.6,50.6,0,0,0-11.2,1.68Zm11-1.65a2,2,0,0,0,1.73-.64,1.67,1.67,0,0,0,0-1.51l-.94.36c.16.4.12.55.09.59s-.19.2-.9.2Zm1.75-2.13a4.55,4.55,0,0,0-2.11-2.63,8.13,8.13,0,0,0-4.26-.78l0,1a7.11,7.11,0,0,1,3.74.66,3.58,3.58,0,0,1,1.66,2.08Zm-6.39-3.41c-.89.07-2,.13-3.37.33l.15,1c1.32-.19,2.39-.26,3.29-.32Zm-2.86,1.06c3-5.45,5.95-10.74,8-13.92l-.84-.55c-2.12,3.22-5.08,8.56-8.08,14Zm7.7-13.7c1-.13,1.63-.26,2.59-.45l-.2-1c-1,.19-1.58.32-2.53.44Zm2.58-.45a52.64,52.64,0,0,1,9.57-1.21v-1A53.16,53.16,0,0,0,284,97.7Zm9.57-1.21a2.2,2.2,0,0,0,1.61-.52,1.31,1.31,0,0,0,.27-1.43l-.94.35c.08.21,0,.31,0,.37a1.31,1.31,0,0,1-.91.23Zm1.88-2a5.36,5.36,0,0,0-2.09-2.77,6.54,6.54,0,0,0-3.77-.88l0,1a5.61,5.61,0,0,1,3.2.72,4.37,4.37,0,0,1,1.69,2.28Zm-5.84-3.65a42.19,42.19,0,0,0-5.71.64l.15,1a41.08,41.08,0,0,1,5.56-.63Zm-5.72.64a60.32,60.32,0,0,1-9.9.89v1a62.11,62.11,0,0,0,10.07-.9Zm-9.9.89a2.39,2.39,0,0,0-1.47.41,1.31,1.31,0,0,0-.46.64,1.58,1.58,0,0,0,0,.84l1-.21a.55.55,0,0,1,0-.32.28.28,0,0,1,.11-.16,1.53,1.53,0,0,1,.87-.2Zm-2,1.91A5.94,5.94,0,0,0,275,98.8l.55-.84a5,5,0,0,1-2.35-2.9Zm2.63,2.8c-5.33,8.28-11.49,19.89-14.39,27.49l.94.35c2.86-7.51,9-19.06,14.29-27.3Zm-14.39,27.5c-.63,1.77-.86,2.82-.21,3.88l.85-.52c-.37-.61-.34-1.22.3-3ZM2.16,198.42l-.4.3h0Zm7,2.75.16.48h0Zm22.78-34.68.43-.26h0Zm-10.11-5.7-.08-.49h0ZM16,162.65l-.21-.46h0Zm-6,1.92-.06-.5h0Zm-1.15,1.66-.47.16h0v0Zm3.84,2.82.42.27.43-.66-.78-.11ZM1.39,190.87l-.47-.15h0Zm26.37-23.81.43-.26h0ZM6.51,197l-.17-.47h0Zm-.64-2.3-.48-.14h0Zm10.05-19.72.43.26h0Zm1.79-6.59-.16-.47-.38.14,0,.39ZM0,195c0,1.21.62,2.23,1.76,3.75l.8-.6C1.4,196.58,1,195.8,1,195Zm1.77,3.76a11.53,11.53,0,0,0,2.37,2.44,4.81,4.81,0,0,0,2.89.89v-1a3.85,3.85,0,0,1-2.32-.71,10.58,10.58,0,0,1-2.15-2.24ZM7,202.06a6.9,6.9,0,0,0,2.27-.41l-.32-1a6,6,0,0,1-1.95.36Zm2.27-.41a39.82,39.82,0,0,0,17.63-12.21c4.35-5.25,7-11.25,7-16.55h-1c0,5-2.47,10.77-6.73,15.91A38.76,38.76,0,0,1,9,200.7Zm24.59-28.76a14,14,0,0,0-1.54-6.66l-.86.51a13,13,0,0,1,1.4,6.15Zm-1.54-6.66a13.71,13.71,0,0,0-4.58-4.92,8.8,8.8,0,0,0-6-1l.16,1a7.83,7.83,0,0,1,5.37.89,12.69,12.69,0,0,1,4.23,4.57ZM21.72,160.3a24.44,24.44,0,0,0-5.94,1.89l.41.91a23.55,23.55,0,0,1,5.71-1.82Zm-5.94,1.89A20.62,20.62,0,0,1,10,164.07l.13,1a21.14,21.14,0,0,0,6.09-2ZM10,164.07a2,2,0,0,0-1.56.79,1.86,1.86,0,0,0,0,1.53l.95-.32c-.16-.48-.13-.65-.09-.71s.18-.2.84-.3Zm-1.54,2.35a5.24,5.24,0,0,0,4.23,3.12l.14-1A4.22,4.22,0,0,1,9.35,166Zm3.88,2.35C7.94,175.44,2.8,185,.92,190.72l1,.31C3.71,185.39,8.8,176,13.14,169.32ZM.92,190.72A14.2,14.2,0,0,0,0,195H1A13.52,13.52,0,0,1,1.87,191Zm24.47-24.57a2.34,2.34,0,0,1,1.95,1.18l.85-.53a3.33,3.33,0,0,0-2.8-1.65Zm1.95,1.17a6.28,6.28,0,0,1,.69,3.26h1a7.16,7.16,0,0,0-.84-3.78Zm.69,3.26c0,3.67-1.91,8.81-5.6,13.73A36.59,36.59,0,0,1,6.34,196.48l.35.94a37.66,37.66,0,0,0,16.54-12.51c3.77-5,5.8-10.37,5.8-14.33ZM6.33,196.49a1,1,0,0,1-.3.08c-.06,0-.06,0,0,0l0,0s0,0,0,0a.16.16,0,0,0,0,0s0-.06,0-.11h-1a1,1,0,0,0,.54,1,1.38,1.38,0,0,0,1.11-.08Zm-.28,0a6.05,6.05,0,0,1,.31-1.72l-1-.27a7.09,7.09,0,0,0-.34,2Zm.31-1.72c1.32-4.59,5-11.19,10-19.59l-.86-.51c-5,8.37-8.73,15.08-10.1,19.83Zm10-19.6a12.11,12.11,0,0,0,1.85-6.9l-1,.12a11.19,11.19,0,0,1-1.73,6.29Zm1.52-6.37c1-.35,2.48-1.05,3.86-1.61.71-.29,1.4-.56,2-.75a6.05,6.05,0,0,1,1.61-.3v-1a6.74,6.74,0,0,0-1.9.35c-.68.2-1.41.48-2.13.77-1.46.6-2.83,1.25-3.81,1.6Zm34.61-7.7-.16-.47h0ZM40.78,201.17l-.17.47h0Zm22.46-13.76.44.24h0Zm-1.72-25-.37.34.07.08.09,0ZM43.6,176.73l-.42-.28h0Zm16.19-12.1.18-.47h0Zm-2.37,20.61.44.24h0ZM56.33,160a11.67,11.67,0,0,0-4,.67l.33.94a10.67,10.67,0,0,1,3.67-.61Zm-4,.67c-3.77,1.32-8.67,5-12.63,10s-7,11.47-7,18.36h1c0-6.6,3-12.83,6.82-17.74s8.64-8.45,12.18-9.69ZM32.66,189c0,5.45,2.18,10.49,8,12.63l.34-.93c-5.24-2-7.29-6.52-7.29-11.7Zm8,12.63a12.41,12.41,0,0,0,4.46.8v-1A11.47,11.47,0,0,1,41,200.7Zm4.46.8c3.83,0,7.4-1.72,10.54-4.41a37.2,37.2,0,0,0,8.07-10.38l-.87-.48A36.43,36.43,0,0,1,55,197.27c-3,2.59-6.37,4.17-9.89,4.17Zm18.61-14.79a33.09,33.09,0,0,0,4.16-15h-1a32.15,32.15,0,0,1-4,14.49Zm4.16-15c0-4.66-1.72-8.79-6.12-10.76l-.41.92c3.92,1.75,5.53,5.42,5.53,9.84Zm-6-10.64A7.51,7.51,0,0,0,56.33,160v1a6.5,6.5,0,0,1,4.82,1.76ZM43,197.92a2.82,2.82,0,0,1-2.5-1.56,9.78,9.78,0,0,1-1-4.91h-1a10.68,10.68,0,0,0,1.18,5.42,3.83,3.83,0,0,0,3.36,2Zm-3.54-6.47A27.78,27.78,0,0,1,44,177l-.84-.54a28.76,28.76,0,0,0-4.76,15ZM44,177a35,35,0,0,1,9.09-9.63A16.53,16.53,0,0,1,57,165.31a4.18,4.18,0,0,1,2.58-.21l.34-.94a5.18,5.18,0,0,0-3.23.2,17,17,0,0,0-4.19,2.19,35.82,35.82,0,0,0-9.36,9.9Zm15.6-11.9a2.29,2.29,0,0,1,1.2,1.55,11.65,11.65,0,0,1,.46,3.61h1a12.69,12.69,0,0,0-.51-3.94A3.27,3.27,0,0,0,60,164.16Zm1.66,5.16A32.57,32.57,0,0,1,57,185l.88.48c3.1-5.76,4.41-11.22,4.41-15.22ZM57,185a35.86,35.86,0,0,1-7.34,9.58c-2.52,2.22-4.88,3.34-6.68,3.34v1c2.16,0,4.76-1.31,7.34-3.59a36.83,36.83,0,0,0,7.56-9.85Zm30.14,16.24-.22.45h0Zm2-.9-.5,0h.5Zm6-31.61-.47-.16h0Zm-1.47-7.49-.4.3h0Zm-3.33-.19-.31-.39h0Zm-23.68,33,.47.19h0Zm-.25,6.72-.36.35Zm2.3-.19.43.26v-.05Zm20.16-30.53.48.16-.87-.47Zm-4.41,25.09h0Zm2.48,6.54a2.4,2.4,0,0,0,1.82.18,1.54,1.54,0,0,0,.87-1.54h-1c0,.46-.15.57-.25.61a1.4,1.4,0,0,1-1-.17Zm2.69-1.34a114.94,114.94,0,0,1,6-31.48l-.95-.31a115.64,115.64,0,0,0-6,31.75Zm6-31.48a9,9,0,0,0,.54-2.78h-1a8.26,8.26,0,0,1-.49,2.47Zm.54-2.78a8.55,8.55,0,0,0-2.09-5.17l-.79.61a7.59,7.59,0,0,1,1.88,4.56Zm-2.09-5.16a2.62,2.62,0,0,0-1.87-1.21,3.27,3.27,0,0,0-2.17.93l.63.77a2.32,2.32,0,0,1,1.49-.7c.32,0,.68.22,1.12.81Zm-4-.28c-4.11,3.47-9,9.15-13.41,15.26a91.78,91.78,0,0,0-10.41,18l.93.37A90.82,90.82,0,0,1,77.4,176.51c4.37-6.08,9.23-11.69,13.25-15.08ZM66.18,193.88a12.16,12.16,0,0,0-1.06,4.54h1a11.28,11.28,0,0,1,1-4.16Zm-1.06,4.54a4,4,0,0,0,.91,2.72l.71-.7a3,3,0,0,1-.62-2Zm.91,2.72a2.11,2.11,0,0,0,1.61.7,1.83,1.83,0,0,0,1.48-1l-.86-.52a.86.86,0,0,1-.68.5,1.14,1.14,0,0,1-.84-.4Zm3.11-.33c4.39-9.35,13.45-22.12,20.1-30.43l-.78-.62c-6.66,8.33-15.78,21.16-20.22,30.63Zm19.24-30.89c-2.64,8.1-4.44,17.56-4.44,25.24h1a85.88,85.88,0,0,1,4.39-24.93Zm-4.44,25.25c.06,3.82,1.32,5.7,3,6.52l.45-.9c-1.18-.59-2.35-2-2.42-5.64Zm26.31-23.5.43.26h0Zm1.47-9.79.45-.23h0v0Zm-2.62-.07-.41-.29h0Zm-16.83,32-.48-.15Zm.57,7.36.41-.28h0Zm2-.38-.46-.2h0Zm.83-1.92.43-.25-.49-.86-.4.91Zm9.28-18.05-.43-.25-.57,1,1.1-.23Zm-7,13.06-.44-.24-.07.14,0,.16Zm3.65-6.72-.22-.45-.14.07-.08.14Zm9.08-15.25a16.12,16.12,0,0,0,2.3-7.22h-1a15.15,15.15,0,0,1-2.18,6.74Zm2.3-7.22a6.8,6.8,0,0,0-.82-3l-.89.45a5.87,5.87,0,0,1,.71,2.59Zm-.84-3.07c-.45-.74-1-1.33-1.71-1.33a1.55,1.55,0,0,0-1,.37,4.46,4.46,0,0,0-.79.86l.82.59a2.88,2.88,0,0,1,.59-.66.57.57,0,0,1,.34-.16c.13,0,.41.12.86.85Zm-3.46-.09a186.52,186.52,0,0,0-9.34,16.22c-3.44,6.54-6.61,13.08-7.56,15.91l.95.31c.91-2.74,4.05-9.19,7.5-15.75s7.18-13.14,9.27-16.12Zm-16.9,32.13a13.86,13.86,0,0,0-.79,4h1a13,13,0,0,1,.74-3.68Zm-.79,4a6.5,6.5,0,0,0,1.44,3.82l.81-.59A5.52,5.52,0,0,1,92,197.65Zm1.44,3.81a1.58,1.58,0,0,0,1.61.87,1.39,1.39,0,0,0,.74-.49,3.09,3.09,0,0,0,.5-.86l-.92-.38a2.63,2.63,0,0,1-.34.59.49.49,0,0,1-.21.17s-.21,0-.57-.47Zm2.85-.47.83-1.92-.92-.4-.83,1.92Zm-.06-1.87a6.07,6.07,0,0,0,2.3,2.35,9,9,0,0,0,4.47,1v-1a8,8,0,0,1-4-.84,5.08,5.08,0,0,1-1.93-2Zm6.77,3.32a18,18,0,0,0,9.19-3.35c3.22-2.25,6-5.7,6-10.4h-1c0,4.27-2.47,7.44-5.53,9.58a17.16,17.16,0,0,1-8.62,3.17Zm15.15-13.75a9.11,9.11,0,0,0-2.17-6.24,8.27,8.27,0,0,0-6.39-2.58v1a7.29,7.29,0,0,1,5.65,2.25,8.16,8.16,0,0,1,1.91,5.57Zm-8.56-8.82a18.75,18.75,0,0,0-3.75.46l.2,1a18.12,18.12,0,0,1,3.55-.44Zm-3.22,1.21c3.27-5.59,4.35-7.55,5.31-9.15l-.86-.52c-1,1.6-2.06,3.61-5.31,9.16Zm-7,13,3.65-6.72-.88-.48-3.65,6.72Zm3.43-6.51c3.29-1.59,5.65-2.19,7.53-2.19v-1c-2.09,0-4.61.67-8,2.29Zm7.53-2.19a2.38,2.38,0,0,1,2,.67,2.67,2.67,0,0,1,.49,1.77h1a3.66,3.66,0,0,0-.73-2.42,3.37,3.37,0,0,0-2.71-1Zm2.44,2.44c0,2.4-1.87,4.66-4.31,6.35a17.85,17.85,0,0,1-3.71,2,9.2,9.2,0,0,1-3.06.71v1a10.24,10.24,0,0,0,3.42-.78,18.51,18.51,0,0,0,3.93-2.09c2.5-1.74,4.73-4.26,4.73-7.17Zm-11.08,9a1.84,1.84,0,0,1-1.52-1,5.22,5.22,0,0,1-.74-2.12l-1,.12a6.07,6.07,0,0,0,.9,2.55,2.83,2.83,0,0,0,2.35,1.41ZM133,178.13l.43.25h0ZM122.91,185l-.45-.21h0Zm-4.09,9.54.46.19h0Zm-.39,3.71-.42.26h0Zm1.67,2.82.42-.28h0Zm3.39.76-.13-.48h0Zm12.93-2.56,0-.49h0Zm7.74-.44,0,.5h0Zm2.56-1.92.46.21h0Zm5.63-10.76.45.24h0Zm-10,8.07.07.49.28,0,.11-.26Zm-6.66.77-.45-.21-.36.76.84-.05Zm9.47-17.86-.43-.25h0Zm-14.91,18,0,.5.32,0,.1-.3Zm-6.4,1.28-.45-.21-.48,1,1.07-.32Zm9.66-18c1.53-2.8,3-5.38,4-7.66a15.43,15.43,0,0,0,1.74-6h-1a14.37,14.37,0,0,1-1.65,5.6c-1,2.24-2.44,4.78-4,7.61Zm5.75-13.68a5.24,5.24,0,0,0-.6-2.52,2.18,2.18,0,0,0-1.88-1.3v1c.35,0,.71.23,1,.78a4.42,4.42,0,0,1,.47,2Zm-2.48-3.82a1.27,1.27,0,0,0-.7.26,4.88,4.88,0,0,0-.61.55,16.11,16.11,0,0,0-1.44,1.87c-1.08,1.55-2.37,3.7-3.73,6.11-2.73,4.83-5.75,10.75-7.8,15.11l.91.43c2-4.35,5-10.24,7.76-15,1.35-2.41,2.63-4.53,3.68-6a15,15,0,0,1,1.35-1.75,4,4,0,0,1,.46-.43c.13-.09.16-.07.12-.07Zm-14.28,23.9c-3,6.61-3.59,8.28-4.11,9.56l.93.37c.51-1.28,1.09-2.93,4.09-9.51Zm-4.1,9.56a9,9,0,0,0-.74,2.43,2.64,2.64,0,0,0,.39,1.73l.85-.52a1.63,1.63,0,0,1-.24-1.12,8.11,8.11,0,0,1,.66-2.14Zm-.34,4.18c.37.56.7,1.13,1,1.64s.51.93.69,1.19l.82-.58c-.14-.2-.35-.57-.64-1.1s-.62-1.11-1-1.71Zm1.66,2.81a2.49,2.49,0,0,0,1.75,1.25,5.31,5.31,0,0,0,2.2-.27l-.27-1a4.3,4.3,0,0,1-1.77.25,1.51,1.51,0,0,1-1.07-.81Zm3.94,1a85.23,85.23,0,0,1,12.83-2.55l-.06-1a85.08,85.08,0,0,0-13,2.57Zm12.83-2.55c2.16-.12,4.23-.19,7.75-.44l-.07-1c-3.52.25-5.55.32-7.74.45Zm7.76-.45a3.57,3.57,0,0,0,3-2.2l-.91-.42a2.57,2.57,0,0,1-2.15,1.63Zm3-2.21c.88-2,3.24-6.29,5.62-10.72l-.89-.47c-2.36,4.4-4.74,8.78-5.64,10.78Zm5.62-10.72c2.33-4.38,5-9.32,7-13.49,1-2.08,1.92-4,2.55-5.53.32-.77.57-1.47.75-2a5.75,5.75,0,0,0,.28-1.5h-1a4.59,4.59,0,0,1-.24,1.21,20.69,20.69,0,0,1-.71,2c-.62,1.52-1.5,3.39-2.52,5.47-2.05,4.15-4.69,9.07-7,13.46Zm10.61-22.57a5.27,5.27,0,0,0-.6-2.47,2.14,2.14,0,0,0-1.75-1.3v1c.23,0,.56.21.87.78a4.33,4.33,0,0,1,.48,2ZM161.06,160a.75.75,0,0,0-.39.12,1.31,1.31,0,0,0-.28.2,5.16,5.16,0,0,0-.6.62c-.44.51-1,1.25-1.63,2.17-1.28,1.86-2.94,4.5-4.77,7.66A204.76,204.76,0,0,0,141.84,194l.93.38a203.32,203.32,0,0,1,11.48-23.08c1.83-3.15,3.47-5.77,4.73-7.6a25.29,25.29,0,0,1,1.57-2.09,5,5,0,0,1,.49-.51l.12-.09s0,0-.1,0ZM142.23,193.7c-2.55.39-4.77.64-6.61.77l.06,1c1.88-.13,4.13-.39,6.7-.78Zm-6.13,1.48c4.35-9.46,7.84-14.85,9.46-17.83l-.88-.48c-1.58,2.91-5.12,8.4-9.48,17.89Zm9.46-17.82c1.53-2.69,3-5.35,4.08-7.68a16,16,0,0,0,1.81-5.88h-1a15.08,15.08,0,0,1-1.72,5.46c-1.06,2.29-2.51,4.92-4,7.6Zm5.89-13.56a5.28,5.28,0,0,0-.61-2.47,2.13,2.13,0,0,0-1.75-1.3v1c.23,0,.56.21.87.78a4.21,4.21,0,0,1,.49,2ZM149.09,160a.88.88,0,0,0-.48.15,2,2,0,0,0-.39.28,7.4,7.4,0,0,0-.85.93,37.55,37.55,0,0,0-2.19,3.18c-1.67,2.64-3.72,6.24-5.78,10.08-4.11,7.66-8.3,16.34-9.66,20.28l.94.33c1.33-3.86,5.49-12.47,9.6-20.14,2.06-3.82,4.09-7.4,5.74-10a37.21,37.21,0,0,1,2.14-3.09,7.17,7.17,0,0,1,.72-.8,1.24,1.24,0,0,1,.22-.16c.05,0,0,0,0,0ZM130.17,194.6a33.71,33.71,0,0,0-6.5,1.3l.28.95a33.91,33.91,0,0,1,6.31-1.26Zm-5.91,2c4.42-9.4,7.16-14.64,9.2-18.21l-.87-.49c-2.05,3.6-4.81,8.86-9.23,18.27Zm29.57,1.64.43-.26h0Zm1.6,2.82.41-.29h0Zm3.39.76-.13-.48h0Zm13.76-2.56v.5h0Zm1.22-1.4.47-.17h0Zm-6-3,0-.5h0Zm-8.7,1.53-.46-.2-.42,1,1-.27Zm4.42-8.89-.13-.49-.21.06-.11.19Zm12.35-3.14-.48.17h0ZM170,181.27l0-.5h0Zm-3.33.32-.44-.24-.48.88,1-.14Zm8.07-14-.07-.5-.23,0-.12.19Zm2.56-.45-.1-.49h0Zm11.07-2.5.47-.17h0ZM183,161.37v.5h0Zm-5.63.64-.07-.5h0Zm-11.46,2.17-.49.11h0Zm2.56,3.2.42.27.27-.41-.41-.28Zm-14.33,27.39-.47-.17h0Zm-.69,3.72c.35.56.63,1.09.89,1.58a13.69,13.69,0,0,0,.73,1.26l.82-.57c-.2-.29-.41-.68-.67-1.16s-.55-1-.91-1.63Zm1.62,2.84a2.66,2.66,0,0,0,1.76,1.22,5,5,0,0,0,2.18-.26l-.28-1a3.93,3.93,0,0,1-1.73.23,1.66,1.66,0,0,1-1.11-.8Zm3.94,1c1.75-.48,4.33-1.13,6.89-1.66a35.22,35.22,0,0,1,6.72-.89l0-1a36.26,36.26,0,0,0-6.94.91c-2.59.53-5.19,1.19-7,1.67Zm13.62-2.55a1.91,1.91,0,0,0,1.64-.57,1.6,1.6,0,0,0,.05-1.5l-.94.33c.16.44.09.56.08.58s-.16.16-.83.16Zm1.69-2.07a4.57,4.57,0,0,0-2.24-2.62,8.53,8.53,0,0,0-4.27-.72l0,1a7.63,7.63,0,0,1,3.77.61,3.59,3.59,0,0,1,1.76,2.07Zm-6.52-3.34a56.06,56.06,0,0,0-8.8,1.55l.26,1a54.37,54.37,0,0,1,8.6-1.52Zm-8.21,2.24c1.27-2.87,2.61-5.48,4.4-8.87l-.89-.47c-1.79,3.4-3.14,6-4.43,8.93Zm4.08-8.62a49.56,49.56,0,0,1,10.95-1.65v-1a50.51,50.51,0,0,0-11.2,1.68Zm10.95-1.65a2,2,0,0,0,1.73-.64,1.64,1.64,0,0,0,0-1.51l-.93.36c.15.4.11.55.08.59s-.18.2-.89.2Zm1.75-2.13a4.57,4.57,0,0,0-2.12-2.63,8.11,8.11,0,0,0-4.26-.78l0,1a7.11,7.11,0,0,1,3.74.66,3.56,3.56,0,0,1,1.65,2.08Zm-6.4-3.41c-.89.07-2,.13-3.36.33l.14,1c1.33-.19,2.39-.26,3.3-.32Zm-2.85,1.06c3-5.45,5.94-10.74,8-13.92l-.83-.55c-2.13,3.22-5.08,8.56-8.09,14Zm7.69-13.7c1-.13,1.63-.26,2.59-.45l-.19-1c-1,.19-1.59.32-2.53.44Zm2.59-.45a52.42,52.42,0,0,1,9.57-1.21v-1a53.16,53.16,0,0,0-9.76,1.23Zm9.57-1.21a2.22,2.22,0,0,0,1.61-.52,1.31,1.31,0,0,0,.27-1.43l-.94.35c.08.21,0,.31,0,.37a1.26,1.26,0,0,1-.9.23Zm1.88-1.95a5.38,5.38,0,0,0-2.1-2.77,6.48,6.48,0,0,0-3.76-.88l0,1a5.56,5.56,0,0,1,3.2.72,4.33,4.33,0,0,1,1.7,2.28ZM183,160.87a42.23,42.23,0,0,0-5.7.64l.14,1a41.08,41.08,0,0,1,5.56-.63Zm-5.71.64a60.42,60.42,0,0,1-9.9.89v1a62,62,0,0,0,10.06-.9Zm-9.9.89a2.42,2.42,0,0,0-1.48.41,1.38,1.38,0,0,0-.46.64,1.69,1.69,0,0,0,0,.84l1-.21a.66.66,0,0,1,0-.32.36.36,0,0,1,.12-.16,1.51,1.51,0,0,1,.87-.2Zm-2,1.91a5.94,5.94,0,0,0,2.77,3.49l.55-.84a4.93,4.93,0,0,1-2.35-2.9Zm2.62,2.8c-5.32,8.28-11.48,19.89-14.38,27.49l.93.35c2.87-7.51,9-19.06,14.29-27.3Zm-14.38,27.5c-.64,1.77-.87,2.82-.21,3.88l.85-.52c-.38-.61-.35-1.22.3-3Zm43.92,6.44-.22.45h0Zm5.69.38.11.49h0Zm11.39-6-.36-.34h0Zm-1-11.45-.22-.45-.82.41.79.47Zm9.28-7.3-.39-.31h0Zm-5.63-16.25,0-.5h0Zm-14.46,3.77,0,.5h0Zm-1.22,1.54-.46.2h0Zm4,2.75.42.27.43-.65-.78-.11Zm-11.71,22.85.46.18h0Zm15.29-17.47-.44-.24h0Zm1.92-6.15-.16-.47-.35.12,0,.38Zm10.69-.19h0Zm-17.09,14-.42-.26-.65,1.07,1.2-.32Zm6.6,9.67-.39-.32h0Zm-11.65,6.27-.06-.5h0Zm-1.28-2.24.47.15h0Zm4-9.22.14-.48-.4-.11-.18.37Zm6.21-.25,0-.5h-.07l-.07,0Zm-16.18,9.47a6,6,0,0,0,1.4,3.54,9.94,9.94,0,0,0,3.49,2.8l.43-.9a8.83,8.83,0,0,1-3.13-2.52,5,5,0,0,1-1.19-2.92Zm4.9,6.34a7.18,7.18,0,0,0,3.21.69v-1a6.11,6.11,0,0,1-2.79-.6Zm3.21.69a14.29,14.29,0,0,0,2.8-.27l-.21-1a13.33,13.33,0,0,1-2.59.25Zm2.81-.27a29.49,29.49,0,0,0,6.16-2.28,19.39,19.39,0,0,0,5.48-3.89l-.74-.67a18.08,18.08,0,0,1-5.19,3.66,27.29,27.29,0,0,1-5.94,2.2ZM215,195.76a8.82,8.82,0,0,0,2.64-6.11h-1a7.84,7.84,0,0,1-2.36,5.42Zm2.64-6.11a7.26,7.26,0,0,0-3.7-6.12l-.51.86a6.25,6.25,0,0,1,3.21,5.26Zm-3.73-5.24a28.08,28.08,0,0,0,9.46-7.45l-.81-.59a27,27,0,0,1-9.1,7.14Zm9.45-7.44a12.62,12.62,0,0,0,2.86-7.22h-1a11.6,11.6,0,0,1-2.65,6.6Zm2.86-7.22c0-3.76-1-6.35-2.67-7.94a7.84,7.84,0,0,0-6.26-1.9l.09,1a6.84,6.84,0,0,1,5.48,1.64c1.4,1.33,2.36,3.61,2.36,7.21Zm-8.93-9.84a34.87,34.87,0,0,0-7.73,2,29.06,29.06,0,0,1-6.72,1.79l.06,1a29.85,29.85,0,0,0,7-1.84,34,34,0,0,1,7.5-1.94Zm-14.45,3.77a2.07,2.07,0,0,0-1.61.66,1.59,1.59,0,0,0,0,1.58l.92-.4c-.17-.39-.1-.54-.07-.59s.25-.22.85-.25Zm-1.63,2.26a5.63,5.63,0,0,0,4.34,3l.14-1a4.67,4.67,0,0,1-3.59-2.49Zm4,2.26a125.78,125.78,0,0,0-11.76,23l.94.34A124.27,124.27,0,0,1,206,168.74Zm-11.76,22.94a18.54,18.54,0,0,0-.71,2.24,8.21,8.21,0,0,0-.28,1.78h1a7.05,7.05,0,0,1,.25-1.54,17.1,17.1,0,0,1,.67-2.12Zm16.21-17.06c1.55-2.91,2-4.86,2-6.4l-1,0c0,1.27-.35,3-1.87,5.88Zm1.63-5.9c2.09-.71,3.78-1.3,5.16-1.71a12.17,12.17,0,0,1,3.2-.64v-1a12.83,12.83,0,0,0-3.49.68c-1.4.42-3.11,1-5.19,1.72Zm8.36-2.35a1.65,1.65,0,0,1,1.67,1.68h1a2.66,2.66,0,0,0-2.67-2.68Zm1.67,1.69a6.42,6.42,0,0,1-1.09,3.32,16.8,16.8,0,0,1-3.32,3.82A31,31,0,0,1,204.57,181l.26,1a32,32,0,0,0,12.71-6.54,17.7,17.7,0,0,0,3.51-4,7.41,7.41,0,0,0,1.24-3.86Zm-16.16,14.2c2.88-4.73,3.78-6.28,4.5-7.64l-.89-.47c-.69,1.33-1.58,2.85-4.46,7.59Zm5.78,9.09a17,17,0,0,1-5.26,4.07,18.68,18.68,0,0,1-6.06,2l.12,1a19.5,19.5,0,0,0,6.4-2.13,17.78,17.78,0,0,0,5.58-4.32Zm-11.33,6.09c-.63.09-.81-.05-.87-.14a.84.84,0,0,1-.07-.45,4,4,0,0,1,.2-1l-1-.3a4.66,4.66,0,0,0-.25,1.26,1.76,1.76,0,0,0,.22,1,1.74,1.74,0,0,0,1.86.6Zm-.74-1.59a65.64,65.64,0,0,1,4-9.14l-.89-.45a64.36,64.36,0,0,0-4.07,9.29Zm3.42-8.89a9.22,9.22,0,0,0,2.86.23,22.85,22.85,0,0,0,3.59-.47l-.2-1a22.43,22.43,0,0,1-3.44.45,8.36,8.36,0,0,1-2.53-.19Zm6.3-.24a6.43,6.43,0,0,1,2.87.8,1.37,1.37,0,0,1,.71,1.14h1a2.36,2.36,0,0,0-1.16-2,7.09,7.09,0,0,0-3.33-1Zm3.58,1.94a4.73,4.73,0,0,1-1.23,2.69l.77.63a5.63,5.63,0,0,0,1.46-3.32Zm33.85-1,.44.23h0Zm-12.48-10.37.43.26h0Zm15.94-12.48.36-.34Zm-.9,5.12.47.19Zm-1.09,2.94.48.15h0Zm1.8,6.47-.28.42h0Zm2.49-1-.48-.15h0Zm2.43-5.76.45.22Zm-2.94-10.63.33-.37h0Zm-9.22-.25-.18-.47h0ZM223.59,189h-.5Zm5.76,10.88.25-.43h0Zm13.89-1.28.29.41h0Zm5.31-11.26-.46.2h0Zm-3-.42a30.92,30.92,0,0,1-5.86,8.13c-2,1.87-3.9,2.8-5.47,2.8v1c1.94,0,4.07-1.12,6.15-3.07a31.57,31.57,0,0,0,6.06-8.4Zm-11.33,10.93a3.49,3.49,0,0,1-2.83-1.69,10.1,10.1,0,0,1-1.41-5.75h-1a11.06,11.06,0,0,0,1.59,6.32,4.47,4.47,0,0,0,3.65,2.12ZM230,190.42a26.74,26.74,0,0,1,4-13.37l-.85-.52A27.69,27.69,0,0,0,229,190.42Zm4-13.37a36.14,36.14,0,0,1,9.25-9.93,17.48,17.48,0,0,1,4-2.3,4.41,4.41,0,0,1,1.32-.3c.34,0,.48.07.53.13l.73-.68a1.63,1.63,0,0,0-1.28-.45,5.36,5.36,0,0,0-1.65.36,19.58,19.58,0,0,0-4.28,2.42,37.26,37.26,0,0,0-9.51,10.23Zm15.14-12.4a.86.86,0,0,1,.18.53,4,4,0,0,1-.12,1,22.91,22.91,0,0,1-1,3l.93.38a24.9,24.9,0,0,0,1.09-3.16,5,5,0,0,0,.15-1.35,1.82,1.82,0,0,0-.45-1.14Zm-1,4.59a27.7,27.7,0,0,0-1.11,3l1,.25a24.38,24.38,0,0,1,1.07-2.88Zm-1.1,3a8.39,8.39,0,0,0-.41,2.51h1a7.55,7.55,0,0,1,.36-2.22Zm-.41,2.51a5.25,5.25,0,0,0,2.4,4.52l.55-.84a4.25,4.25,0,0,1-1.95-3.68Zm2.42,4.53a2.18,2.18,0,0,0,2.08.24,2.29,2.29,0,0,0,1.15-1.49l-1-.28a1.3,1.3,0,0,1-.62.86,1.2,1.2,0,0,1-1.14-.19Zm3.23-1.24a43.8,43.8,0,0,1,2.4-5.69l-.89-.45a45.16,45.16,0,0,0-2.47,5.84Zm2.4-5.69a8.74,8.74,0,0,0,1-3.93h-1a7.81,7.81,0,0,1-.84,3.48Zm1-3.93c0-2.71-1.79-5.33-4-7.29l-.66.75c2.13,1.88,3.67,4.25,3.67,6.54Zm-4-7.3a7,7,0,0,0-4.48-1.46v1a6,6,0,0,1,3.84,1.23Zm-4.48-1.46a15.27,15.27,0,0,0-5.24,1.12l.36.94a14.13,14.13,0,0,1,4.88-1.06Zm-5.26,1.13c-3.71,1.68-8.44,5.45-12.22,10.42S223,182.41,223.09,189l1,0c-.12-6.31,2.61-12.33,6.31-17.2s8.3-8.51,11.83-10.11ZM223.09,189c.13,5.39,2.83,9.61,6,11.31l.47-.89c-2.83-1.5-5.37-5.35-5.5-10.45Zm6,11.3a11.86,11.86,0,0,0,5.87,1.41v-1a10.89,10.89,0,0,1-5.38-1.28Zm5.87,1.41a14.69,14.69,0,0,0,8.55-2.72l-.58-.81a13.66,13.66,0,0,1-8,2.53Zm8.56-2.73a18.79,18.79,0,0,0,3.85-3.94,9.93,9.93,0,0,0,2.11-5.61h-1a9,9,0,0,1-1.92,5,17.68,17.68,0,0,1-3.64,3.72Zm6-9.55a5.8,5.8,0,0,0-.49-2.32l-.91.42a4.81,4.81,0,0,1,.4,1.9Zm-.49-2.31a1.89,1.89,0,0,0-1.83-1.28,2,2,0,0,0-1.64,1.06l.9.45a.93.93,0,0,1,.78-.51c.27,0,.62.11.87.68Zm1.07,11.08.43-.26h0Zm1.6,2.82.41-.29h0Zm3.39.76-.13-.48h0Zm13.76-2.56v.5h0Zm1.22-1.4.47-.17h0Zm-6-3,0-.5h0Zm-8.7,1.53-.46-.2-.42,1,1-.27Zm4.42-8.89-.13-.49-.21.06-.11.19Zm12.35-3.14-.48.17h0Zm-5.89-3.07,0-.5h0Zm-3.33.32-.44-.24-.48.88,1-.14Zm8.07-14-.07-.5-.23,0-.12.19Zm2.56-.45-.1-.49h0Zm11.07-2.5.47-.17h0Zm-5.38-3.32v.5h0Zm-5.63.64-.07-.5h0Zm-11.46,2.17-.49.11h0Zm2.56,3.2.42.27.27-.41L265,167Zm-14.33,27.39-.47-.17h0Zm-.69,3.72c.35.56.63,1.09.89,1.58a13.69,13.69,0,0,0,.73,1.26l.82-.57c-.2-.29-.41-.68-.67-1.16s-.55-1-.91-1.63Zm1.62,2.84a2.66,2.66,0,0,0,1.76,1.22,5,5,0,0,0,2.18-.26l-.28-1a3.93,3.93,0,0,1-1.73.23,1.66,1.66,0,0,1-1.11-.8Zm3.94,1c1.75-.48,4.33-1.13,6.89-1.66a35.22,35.22,0,0,1,6.72-.89l0-1a36.26,36.26,0,0,0-6.94.91c-2.59.53-5.19,1.19-7,1.67Zm13.62-2.55a1.91,1.91,0,0,0,1.64-.57,1.6,1.6,0,0,0,0-1.5l-.94.33c.16.44.09.56.08.58s-.16.16-.83.16Zm1.69-2.07a4.57,4.57,0,0,0-2.24-2.62,8.53,8.53,0,0,0-4.27-.72l0,1a7.63,7.63,0,0,1,3.77.61,3.59,3.59,0,0,1,1.76,2.07ZM264,194.34a56.06,56.06,0,0,0-8.8,1.55l.26,1a54.37,54.37,0,0,1,8.6-1.52Zm-8.21,2.24c1.27-2.87,2.61-5.48,4.4-8.87l-.89-.47c-1.79,3.4-3.14,6-4.43,8.93Zm4.08-8.62a49.56,49.56,0,0,1,10.95-1.65v-1a50.51,50.51,0,0,0-11.2,1.68Zm10.95-1.65a2,2,0,0,0,1.73-.64,1.64,1.64,0,0,0,0-1.51l-.93.36c.15.4.11.55.08.59s-.18.2-.89.2Zm1.75-2.13a4.57,4.57,0,0,0-2.12-2.63,8.11,8.11,0,0,0-4.26-.78l0,1a7.11,7.11,0,0,1,3.74.66,3.56,3.56,0,0,1,1.65,2.08Zm-6.4-3.41c-.89.07-2,.13-3.36.33l.14,1c1.33-.19,2.39-.26,3.3-.32Zm-2.85,1.06c3-5.45,5.94-10.74,8-13.92l-.83-.55c-2.13,3.22-5.08,8.56-8.09,14Zm7.69-13.7c1-.13,1.63-.26,2.59-.45l-.19-1c-1,.19-1.59.32-2.53.44Zm2.59-.45a52.42,52.42,0,0,1,9.57-1.21v-1a53.16,53.16,0,0,0-9.76,1.23Zm9.57-1.21a2.22,2.22,0,0,0,1.61-.52,1.31,1.31,0,0,0,.27-1.43l-.94.35c.08.21,0,.31,0,.37a1.26,1.26,0,0,1-.9.23Zm1.88-1.95a5.38,5.38,0,0,0-2.1-2.77,6.48,6.48,0,0,0-3.76-.88l0,1a5.56,5.56,0,0,1,3.2.72,4.33,4.33,0,0,1,1.7,2.28Zm-5.85-3.65a42.23,42.23,0,0,0-5.7.64l.14,1a41.08,41.08,0,0,1,5.56-.63Zm-5.71.64a60.42,60.42,0,0,1-9.9.89v1a62,62,0,0,0,10.06-.9Zm-9.9.89a2.42,2.42,0,0,0-1.48.41,1.38,1.38,0,0,0-.46.64,1.69,1.69,0,0,0,0,.84l1-.21a.66.66,0,0,1,0-.32.36.36,0,0,1,.12-.16,1.51,1.51,0,0,1,.87-.2Zm-2,1.91a5.94,5.94,0,0,0,2.77,3.49L265,167a4.93,4.93,0,0,1-2.35-2.9Zm2.62,2.8c-5.32,8.28-11.48,19.89-14.38,27.49l.93.35c2.87-7.51,9-19.06,14.29-27.3Zm-14.38,27.5c-.64,1.77-.87,2.82-.21,3.88l.85-.52c-.38-.61-.35-1.22.3-3Zm36.77-33.44-.09.5h0Zm-1.6,1.28.48-.11h0Zm3.13,17.67.36.34.17-.17,0-.24Zm-12,13.89-.42-.28h0Zm-1.47,6.91.47-.17h0Zm2.24.25.4.31h0Zm12.29-14.4.49-.08-.17-1-.68.72Zm1.34,6.47-.49.11h0Zm7.1,8.38.06-.49h0Zm1.28-1.73.43-.26h0Zm-4.54-18.43-.35-.35-.18.18,0,.24Zm10.69-10.37.35.36h0Zm4.35-9,.49-.1h0Zm-2.56-.58.34.37h0Zm-13.44,13.12-.5.07.14,1,.72-.74ZM292.08,167l.48-.14h0Zm-5.36-6.32a2.21,2.21,0,0,0-1.69.3,1.44,1.44,0,0,0-.48,1.6l1-.25c-.09-.32,0-.47.11-.55a1.19,1.19,0,0,1,.92-.11Zm-2.17,1.89c1.27,5.48,2.23,11.54,3.13,17.62l1-.14c-.9-6.08-1.86-12.18-3.15-17.71Zm3.26,17.2c-5.44,5.7-10.27,11.23-12.09,14l.84.55c1.76-2.64,6.53-8.12,12-13.82Zm-12.09,14a10.48,10.48,0,0,0-1.94,5.26h1a9.6,9.6,0,0,1,1.78-4.72ZM273.78,199a5.74,5.74,0,0,0,.42,2.1l.93-.37a4.69,4.69,0,0,1-.35-1.73Zm.42,2.08a1.79,1.79,0,0,0,1.34,1.28,1.92,1.92,0,0,0,1.77-.88l-.8-.61c-.35.46-.65.52-.81.5s-.41-.18-.56-.62Zm3.12.38a134.91,134.91,0,0,1,12.24-14.34l-.72-.69a135.85,135.85,0,0,0-12.34,14.46Zm11.38-14.6c.45,2.64.78,4.06,1.35,6.49l1-.23c-.58-2.42-.9-3.82-1.34-6.43Zm1.35,6.5c.82,3.28,1.94,5.42,3.25,6.77a6.38,6.38,0,0,0,4.31,2l.07-1a5.39,5.39,0,0,1-3.66-1.69c-1.15-1.17-2.21-3.13-3-6.31Zm7.54,8.76a3,3,0,0,0,1,0,1.61,1.61,0,0,0,.83-.42,1.23,1.23,0,0,0,.34-.94,2.56,2.56,0,0,0-.4-1.09l-.85.53a1.51,1.51,0,0,1,.25.62.24.24,0,0,1-.06.18.58.58,0,0,1-.32.15,2.85,2.85,0,0,1-.67,0Zm1.76-2.49a26.61,26.61,0,0,1-2.67-7.72c-.72-3.24-1.29-6.94-1.81-10.52l-1,.14c.51,3.59,1.09,7.32,1.82,10.6a27.4,27.4,0,0,0,2.79,8Zm-4.62-17.81c3.71-3.71,7.1-6.91,10.69-10.37l-.7-.72c-3.58,3.46-7,6.66-10.69,10.38Zm10.69-10.37c4.09-4,4.92-7.39,4.49-9.48l-1,.2c.34,1.63-.24,4.66-4.21,8.57Zm4.49-9.5a2.08,2.08,0,0,0-1.24-1.63,2.25,2.25,0,0,0-2.15.81l.68.73c.64-.61,1-.64,1.17-.58s.42.28.56.91Zm-3.39-.82c-3.21,3-8.33,7.88-13.46,13.14l.72.69c5.11-5.24,10.23-10.16,13.42-13.1Zm-12.6,13.42a68.05,68.05,0,0,0-1.36-7.69l-1,.27a64.7,64.7,0,0,1,1.33,7.55Zm-1.36-7.69a9.65,9.65,0,0,0-2.63-4.61,6.36,6.36,0,0,0-3.21-1.57l-.17,1a5.26,5.26,0,0,1,2.71,1.32,8.78,8.78,0,0,1,2.34,4.15Zm14.63,20.75.47.18h0Zm.32,7.23.35-.36Zm2.18-.32.44.22h0Zm12-23.11.44.25h0Zm1.73-9.92.46-.2h0Zm-2.62-.06.41.28h0Zm-18.05,38.91-.43.25h0Zm4.61,1,.38.32h0v0Zm.51-4.48.46-.19v0h0Zm-1.11-9.39a12.46,12.46,0,0,0-.93,4.14h1a11.31,11.31,0,0,1,.87-3.78Zm-.93,4.14a4.84,4.84,0,0,0,1.37,3.62l.7-.71a3.9,3.9,0,0,1-1.07-2.91Zm1.37,3.62a3.38,3.38,0,0,0,.83.66,1.3,1.3,0,0,0,.9.16,1.32,1.32,0,0,0,.74-.48,3.56,3.56,0,0,0,.5-.79l-.89-.45a3.15,3.15,0,0,1-.36.59.45.45,0,0,1-.2.15.4.4,0,0,1-.22-.06,2.77,2.77,0,0,1-.6-.49Zm3-.46c3.19-7,8.5-16.87,11.95-23.07l-.87-.49c-3.46,6.21-8.78,16.15-12,23.14Zm11.95-23.07a16.67,16.67,0,0,0,2.43-7.67h-1a15.63,15.63,0,0,1-2.3,7.18Zm2.43-7.67a6.57,6.57,0,0,0-.68-2.7l-.91.41a5.54,5.54,0,0,1,.59,2.29Zm-.68-2.7c-.38-.83-.94-1.42-1.71-1.41a2.44,2.44,0,0,0-1.79,1.27l.83.56c.43-.64.78-.82,1-.83s.45.11.78.82Zm-3.49-.14a148.37,148.37,0,0,0-13.63,26.28l.94.35a147.25,147.25,0,0,1,13.51-26.07ZM301.44,198a5.57,5.57,0,0,0,.84,2.55l.86-.5a4.66,4.66,0,0,1-.7-2.05Zm.85,2.57a4.11,4.11,0,0,0,2.68,1.83,2.81,2.81,0,0,0,2.73-.82l-.77-.64a1.83,1.83,0,0,1-1.78.48,3.12,3.12,0,0,1-2-1.39Zm5.44,1a5.36,5.36,0,0,0,.56-5l-.92.39a4.34,4.34,0,0,1-.47,4Zm.55-5a4.27,4.27,0,0,0-3.59-2.52v1a3.28,3.28,0,0,1,2.69,2Zm-3.59-2.52a3,3,0,0,0-2.35,1.3,4.51,4.51,0,0,0-.9,2.66h1a3.52,3.52,0,0,1,.7-2,2,2,0,0,1,1.55-.91Z"/></g></g></svg>