<svg xmlns="http://www.w3.org/2000/svg" viewBox="0 0 394.52 133.38"><defs><style>.cls-1{fill:#fff;stroke:#221f20;stroke-miterlimit:10;stroke-width:5.38px;}</style></defs><title>Ресурс 17</title><g id="Слой_2" data-name="Слой 2"><g id="Слой_7" data-name="Слой 7"><path class="cls-1" d="M41.61,31.23c3.22,6.13-.35,11.39-2.26,16.93C37,54.87,35,61.69,32.75,68.41c-2.43,7.14-5.18,14.18-7.51,21.36-.78,2.43-.72,5.14-1.18,8.83,6.1-.71,11.87-1.37,17.62-2.08.84-.11,1.67-.82,2.44-.73,5.41.66,7.14-2.91,8.88-7,2.67-6.3,5.85-12.37,8.65-18.61C63,67.17,63.88,64,65.12,61c2-4.83,4-9.64,6.11-14.39C73,42.61,75,38.72,77,34.85a52.83,52.83,0,0,1,3.82-6.51c.43-.6,2.17-1.06,2.63-.71a75.4,75.4,0,0,1,7.69,6.58c2,2,3.38,4.78,5.61,6.42,2.84,2.07,1.67,4.18.29,5.59C89,54.41,86.15,65,82.81,75.46c-2,6.19-5,12.07-7.5,18.07C79.76,96,88.6,95.33,91.7,92c1.46-1.55,2.17-3.82,3.14-5.8,5.21-10.63,10.22-21.36,15.64-31.88,4.07-7.91,8.61-15.57,13-23.29,2.38-4.16,5-4.25,8.28-.42,3.44,4,6.9,8,10.19,12.1a3.16,3.16,0,0,1-.14,2.75c-3.54,6.64-7.13,13.25-10.83,19.8-2.44,4.32-5.25,8.44-7.56,12.83-1.43,2.7-2.08,5.8-3.32,8.61-1.79,4-3.88,7.92-5.71,11.93-1.74,3.8-2.35,7.67.46,11.27,2.16,2.77.34,3.69-1.9,3.8-3.86.21-7.73,0-11.6-.09L67.05,113c-13.33-.23-26.67-.23-40-.82-4.32-.2-8.58-2-12.87-3-.24-.06-.57,0-.7-.21-2.33-2.73-4.66-5.47-6.93-8.26-.36-.46-.27-1.5-.66-1.69-6.22-3-1.57-7.12-1-10.62.94-6,4.32-11.31,4.85-17.62.39-4.66,2.7-9.16,4.19-13.72,1.29-3.95,2.62-7.89,4-11.83,2.48-7.34,4.88-14.69,7.5-22,.73-2,2.15-2.46,3.95-.63a76.77,76.77,0,0,0,7.5,6.82C38,30.38,39.75,30.57,41.61,31.23Z"/><path class="cls-1" d="M197.35,85.5c-.24,3.9-.32,7.51,3.62,9.64.35.19.11,1.34.27,2,.32,1.33.75,2.63,1.09,4,.14.57.41,1.58.21,1.71-5.42,3.26-1.08,8.18-2.1,12.17-.41,1.61-.08,4-1.06,4.74-2,1.49-3.93.09-5.67-1.62-3.05-3-6.4-5.63-9.6-8.45a3.45,3.45,0,0,1-1.08-1.4c-1.31-4.38-4.65-4.47-8.4-4.42-6.31.08-12.63-.28-18.95-.26a3.4,3.4,0,0,0-2.47,1.73c-1.66,3.7-3.22,7.45-4.51,11.28-1,3-2.55,3.57-5.29,2.32-5.43-2.45-8.12-7.29-6.54-13.23a69.09,69.09,0,0,1,4.58-11.85Q146.61,83,152.3,72.38c1.9-3.53,4.55-6.65,6.55-10.14,3.75-6.53,7.22-13.21,10.94-19.77a14.16,14.16,0,0,1,3-3.2c5.05-4.51,5-3.4,9.41.31a59.06,59.06,0,0,1,6.57,5.72A19.53,19.53,0,0,1,193.72,57c.65,7.62,2,15.18,3,22.77C197,81.74,197.16,83.72,197.35,85.5Zm-32.55-.17c4.36,0,8.44.14,12.5-.12a3.43,3.43,0,0,0,2.21-2.52c-.18-5.52-.69-11-1.09-16.55C175.08,66.68,165.44,80.21,164.8,85.33Z"/><path class="cls-1" d="M244.63,36.3c7.09,0,14.18-.18,21.25.12,1.71.08,3.64,1.42,5,2.7a60.87,60.87,0,0,1,8.38,9.22c1.25,1.84,1.94,5,1.23,6.94-.48,1.29-4,2.35-6,2.08-11.4-1.6-22.79-1.27-34.21-.61-2.84.17-4.3.9-4.86,4.13-1,5.86-2.84,11.58-4.21,17.38-.4,1.68-.36,3.47-.61,5.19-1.23,8.52-2.5,17-3.73,25.57-.19,1.35,0,2.77-.36,4.08-.24,1-.73,2.56-1.46,2.81a4.54,4.54,0,0,1-3.66-.5c-3.8-2.91-7.38-6.1-11.06-9.16-2.17-1.79-2.94-6.67-2.27-9.56,1.63-7,2.79-14.06,4.25-21.08,2.25-10.78,4.41-21.58,7-32.28,1.1-4.57,4-6.12,8.55-6.52,5.57-.49,11.16-.8,16.75-1.18Z"/><path class="cls-1" d="M377.66,115c1.29-1.76,2.17-3.8,3.72-4.82s5.7,2.67,6.46,5c1.3,4,2.82,7.89,3.92,11.92a3.83,3.83,0,0,1-1.18,3.41c-.71.44-2.74-.16-3.38-.95-2.33-2.84-4.38-5.93-6.43-9C379.76,119.08,379,117.42,377.66,115Z"/><path class="cls-1" d="M305.08,78.85c-1.06-1.67-1.92-3-2.8-4.39a2.9,2.9,0,0,1,0-3.32l4.29-7.21C313,53.05,319.89,42.42,325.47,31c2.13-4.36,4.49-8.61,6.37-13.08,1.48-3.5,3.29-6.9,4.09-10.68.7-3.29,2.7-5.07,5.83-4.46a42.13,42.13,0,0,0,8.3.66,4.6,4.6,0,0,1,4.54,4.08c.23,3.47.68,7.06-1.48,10.24-.31.46-.67,1.19-.51,1.6.83,2.13-.53,3.68-1.23,5.41-1,2.46-2,4.91-2.94,7.37-.16.41-.14.94-.39,1.26-2.51,3.16-3.25,7.17-5.11,10.65s-3.48,7.14-5.28,10.68c-1.39,2.74-2.9,5.43-4.37,8.14A5.56,5.56,0,0,0,332.6,64c-.23,1-.73,2.1-.42,2.9.48,1.22,1.76.58,2.74.42,4.64-.78,9.27-1.64,13.93-2.3a4.59,4.59,0,0,0,4-3,15.56,15.56,0,0,0,1-2.9,46.13,46.13,0,0,1,4.32-12.93,24,24,0,0,0,1.28-3.75,6.7,6.7,0,0,1,5.65-5c3.47-.49,7-1.3,10.51-.21a3.86,3.86,0,0,0,3.73-.61,3.06,3.06,0,0,1,4.06.28,3.69,3.69,0,0,1,1.21,4A26,26,0,0,1,383,46a52.64,52.64,0,0,0-2.6,7,189.18,189.18,0,0,0-5.48,18.14c-.24,1-.78,1.92-1.07,2.9-1,3.38-2.36,6.64-2.57,10.24a27.33,27.33,0,0,1-1.27,6,111.06,111.06,0,0,0-3.93,23.46c-.07.88-.13,1.76-.24,2.63-.25,1.9-1.07,3.33-3.08,3.86s-4.23,1.2-6.33,1.85c-1.4.43-2.8.89-4.17,1.43a14.79,14.79,0,0,1-7.79.91c-3.17-.49-4.67-2.08-4.66-5.27a17.69,17.69,0,0,1,.33-3.07q2.79-15.19,5.61-30.38c.38-2,.93-4,1.38-6a19.4,19.4,0,0,0,.46-2.6c.12-1.6-.75-2.41-2.43-2.35a10.45,10.45,0,0,0-1.75.21c-5.06,1-10.08,2.15-15.17,2.91A95.72,95.72,0,0,1,305.08,78.85Z"/></g></g></svg>