<svg xmlns="http://www.w3.org/2000/svg" viewBox="0 0 411.23 114.58"><defs><style>.cls-1{fill:#fff;stroke:#221f20;stroke-miterlimit:10;stroke-width:5.38px;}</style></defs><title>Ресурс 16</title><g id="Слой_2" data-name="Слой 2"><g id="Слой_7" data-name="Слой 7"><path class="cls-1" d="M298.58,95.27a6.69,6.69,0,0,0,2.19-.34c3.93-2.18,8.32-1.68,12.51-2.33a4.64,4.64,0,0,1,4.84,1.7c2,2.55,4.91,3.78,8,4.6a7.67,7.67,0,0,0,6.36-.87A24.42,24.42,0,0,0,337.63,94c.79-.86,1.63-1.67,2.46-2.5,3.14-3.12,5.28-6.72,5.44-11.28,0-1,.07-2.08.18-3.11.33-3.45-1.12-6.37-2.89-9.1s-4.48-3.89-7.34-4.83a3.8,3.8,0,0,0-2.6.29,15.61,15.61,0,0,1-6.62,2.07,8.49,8.49,0,0,0-2.18.8,18.18,18.18,0,0,1-7.61,1.06,32.25,32.25,0,0,0-4.86.26,18.07,18.07,0,0,1-2.26-3c-.91-1.81-1.19-3.69.41-5.42,3.92-4.26,6.47-9.36,9-14.5,2.22-4.54,4.74-9,7.07-13.45,1.67-3.22,3.22-6.51,4.86-9.76.81-1.59,1.2-3.14.08-4.76a4.87,4.87,0,0,1-.62-1.42,2.4,2.4,0,0,1,.81-2.8,7.76,7.76,0,0,1,2.31-1.36,5.15,5.15,0,0,0,3.48-2.85,3.36,3.36,0,0,1,3.19-1.83c2.47-.15,4.92-.41,7.38-.62a3.77,3.77,0,0,1,1.16,0c3,.78,6.09.69,9.12,1a51.63,51.63,0,0,0,10.09.19c4.66-.37,9.31-1,14-1.25,3.88-.23,7.78-.15,11.67-.2a3.43,3.43,0,0,0,.77,0c3-.78,5.82.47,8.71.81.76.09,1.53.1,2.3.17a7,7,0,0,1,1.52.22c.86.29,1.78.59,1.89,1.7a2,2,0,0,1-1.42,2.11c-.93.43-2,.65-2.93,1-1.21.46-2.43.91-3.6,1.47A12.18,12.18,0,0,1,395,14.29c-6.48,0-13-.22-19.43.89-3.82.65-7.75.65-11.63.93-1.94.15-3.89.23-5.83.4a4.34,4.34,0,0,0-3.49,2.21,60.41,60.41,0,0,0-3.18,5.79A73.73,73.73,0,0,1,346,35.26a53.54,53.54,0,0,0-2.78,5.57c-1.75,3.47-3.54,6.93-5.29,10.41-.78,1.55-.31,2.58,1.41,2.79a29.25,29.25,0,0,0,5,.22c4.93-.3,9.72.42,13.73,3.28,3.65,2.61,7,5.61,8.57,10.25a31.26,31.26,0,0,1,1.06,17.59,14.31,14.31,0,0,1-2.68,6c-1.55,1.92-3,3.91-4.64,5.77a19.85,19.85,0,0,1-7.74,5.11c-5.27,2.15-10.55,4.38-16.35,4.87-2.05.18-4.08.7-6.13,1a32.48,32.48,0,0,1-15.71-1.56,56.34,56.34,0,0,0-6.29-1.94,21.6,21.6,0,0,1-8.8-4.83C297.7,98.4,297.67,97.66,298.58,95.27Z"/><path class="cls-1" d="M41.61,12.43c3.22,6.13-.35,11.4-2.26,16.94C37,36.07,35,42.89,32.75,49.61,30.32,56.76,27.57,63.8,25.24,71c-.78,2.43-.72,5.14-1.18,8.84,6.1-.72,11.87-1.37,17.62-2.09.84-.1,1.67-.82,2.44-.73,5.41.67,7.14-2.9,8.88-7,2.67-6.29,5.85-12.36,8.65-18.6,1.34-3,2.23-6.16,3.47-9.2,2-4.82,4-9.64,6.11-14.38C73,23.81,75,19.92,77,16.05a53.45,53.45,0,0,1,3.82-6.5c.43-.6,2.17-1.07,2.63-.71a75.3,75.3,0,0,1,7.69,6.57c2,2,3.38,4.79,5.61,6.42,2.84,2.07,1.67,4.19.29,5.59C89,35.61,86.15,46.19,82.81,56.66c-2,6.2-5,12.07-7.5,18.08,4.45,2.42,13.29,1.79,16.39-1.51,1.46-1.55,2.17-3.81,3.14-5.79,5.21-10.63,10.22-21.37,15.64-31.89,4.07-7.9,8.61-15.57,13-23.29,2.38-4.16,5-4.24,8.28-.42,3.44,4,6.9,8,10.19,12.1a3.18,3.18,0,0,1-.14,2.76C138.3,33.34,134.71,40,131,46.5c-2.44,4.32-5.25,8.43-7.56,12.82-1.43,2.7-2.08,5.8-3.32,8.62-1.79,4-3.88,7.92-5.71,11.93-1.74,3.79-2.35,7.67.46,11.27,2.16,2.76.34,3.68-1.9,3.8-3.86.2-7.73,0-11.6-.1l-34.33-.61c-13.33-.23-26.67-.22-40-.82-4.32-.19-8.58-2-12.87-3-.24-.06-.57-.05-.7-.2-2.33-2.74-4.66-5.48-6.93-8.27-.36-.45-.27-1.5-.66-1.68-6.22-3-1.57-7.13-1-10.62.94-6,4.32-11.31,4.85-17.63.39-4.65,2.7-9.15,4.19-13.71,1.29-4,2.62-7.9,4-11.84,2.48-7.33,4.88-14.69,7.5-22,.73-2,2.15-2.47,3.95-.63a78,78,0,0,0,7.5,6.81C38,11.58,39.75,11.78,41.61,12.43Z"/><path class="cls-1" d="M197.35,66.7c-.24,3.9-.32,7.51,3.62,9.65.35.19.11,1.34.27,2,.32,1.33.75,2.63,1.09,4,.14.58.41,1.59.21,1.71-5.42,3.27-1.08,8.19-2.1,12.17-.41,1.61-.08,4-1.06,4.75-2,1.48-3.93.08-5.67-1.62-3.05-3-6.4-5.64-9.6-8.45A3.48,3.48,0,0,1,183,89.47c-1.31-4.37-4.65-4.47-8.4-4.42-6.31.08-12.63-.27-18.95-.26a3.44,3.44,0,0,0-2.47,1.74C151.55,90.22,150,94,148.7,97.81c-1,2.94-2.55,3.56-5.29,2.32-5.43-2.46-8.12-7.29-6.54-13.24a68.67,68.67,0,0,1,4.58-11.84q5.16-10.86,10.85-21.46c1.9-3.53,4.55-6.66,6.55-10.14,3.75-6.53,7.22-13.22,10.94-19.77a14,14,0,0,1,3-3.21c5.05-4.51,5-3.39,9.41.32a59,59,0,0,1,6.57,5.71,19.56,19.56,0,0,1,4.95,11.71c.65,7.62,2,15.18,3,22.77C197,63,197.16,64.93,197.35,66.7Zm-32.55-.17c4.36,0,8.44.15,12.5-.12a3.39,3.39,0,0,0,2.21-2.52c-.18-5.51-.69-11-1.09-16.55C175.08,47.88,165.44,61.42,164.8,66.53Z"/><path class="cls-1" d="M244.63,17.5c7.09,0,14.18-.17,21.25.13,1.71.07,3.64,1.41,5,2.69a60.94,60.94,0,0,1,8.38,9.23c1.25,1.84,1.94,5,1.23,6.93-.48,1.3-4,2.35-6,2.08-11.4-1.6-22.79-1.27-34.21-.6-2.84.16-4.3.89-4.86,4.12-1,5.86-2.84,11.58-4.21,17.39-.4,1.68-.36,3.46-.61,5.18-1.23,8.53-2.5,17-3.73,25.57-.19,1.35,0,2.77-.36,4.09-.24,1-.73,2.55-1.46,2.8a4.54,4.54,0,0,1-3.66-.49c-3.8-2.92-7.38-6.11-11.06-9.17-2.17-1.79-2.94-6.67-2.27-9.56,1.63-7,2.79-14.06,4.25-21.08,2.25-10.78,4.41-21.58,7-32.28,1.1-4.57,4-6.11,8.55-6.51,5.57-.5,11.16-.8,16.75-1.19Z"/><path class="cls-1" d="M376.66,96.23c1.29-1.76,2.17-3.8,3.72-4.81s5.7,2.66,6.46,5c1.3,4,2.82,7.88,3.92,11.91a3.81,3.81,0,0,1-1.18,3.41c-.71.44-2.74-.15-3.38-.94-2.33-2.85-4.38-5.94-6.43-9C378.76,100.29,378,98.62,376.66,96.23Z"/></g></g></svg>