<svg xmlns="http://www.w3.org/2000/svg" viewBox="0 0 408.29 119.38"><defs><style>.cls-1{fill:#fff;stroke:#221f20;stroke-miterlimit:10;stroke-width:5.38px;}</style></defs><title>Ресурс 18</title><g id="Слой_2" data-name="Слой 2"><g id="Слой_7" data-name="Слой 7"><path class="cls-1" d="M316.24,18.8c3.78-2.88,7.3-5.7,11-8.32A34.91,34.91,0,0,1,333.37,7c5.1-2.25,10-5.73,16.06-3.59a25.44,25.44,0,0,1,12.11,9.33C366,18.93,371.05,25.38,373,32.52c2.66,9.78,3,20.21-3.89,29.39-6,8-13.65,13.7-22.38,18.36-5.36,2.86-10.31,6.48-15.44,9.75l.22,1c1.1.2,2.19.42,3.3.57,6,.85,12.11,1.45,18.07,2.65A7.33,7.33,0,0,1,357.22,98c2.16,4.44,6.62,7.85,6,13.59-.35,3.14-1.75,4.54-4.5,3.08-7.14-3.79-14.79-2.64-22.29-2.72-9.09-.08-18.18.23-27.27.42-3.36.07-5.42-1.37-6.67-4.56-.62-1.6-2.23-2.78-3.23-4.27a55.53,55.53,0,0,1-4.33-7.05c-1-2-1-4,1.81-5.12a15,15,0,0,0,4.57-3.49c6.47-6.55,12.5-13.58,20.12-18.88a83.67,83.67,0,0,1,11.19-6.74A65,65,0,0,0,353,46.9c4-4.51,7.54-9.75,7.09-16.54-.38-5.75-1.24-7-7.5-6.56-5.44.37-9.77,3.4-13.91,6.68a96.53,96.53,0,0,0-7.64,6.12c-2.49,2.42-3.4.37-4.43-1.23C323.18,30,319.81,24.49,316.24,18.8Z"/><path class="cls-1" d="M41.61,14.35c3.22,6.13-.35,11.39-2.26,16.93C37,38,35,44.81,32.75,51.53c-2.43,7.14-5.18,14.18-7.51,21.36-.78,2.43-.72,5.14-1.18,8.84,6.1-.72,11.87-1.37,17.62-2.09.84-.11,1.67-.82,2.44-.73,5.41.66,7.14-2.9,8.88-7,2.67-6.29,5.85-12.37,8.65-18.6,1.34-3,2.23-6.17,3.47-9.2,2-4.82,4-9.64,6.11-14.38C73,25.73,75,21.84,77,18a52.7,52.7,0,0,1,3.82-6.5c.43-.6,2.17-1.07,2.63-.72a76.68,76.68,0,0,1,7.69,6.58c2,2,3.38,4.78,5.61,6.42,2.84,2.07,1.67,4.18.29,5.59C89,37.53,86.15,48.1,82.81,58.58c-2,6.2-5,12.07-7.5,18.08,4.45,2.42,13.29,1.79,16.39-1.51,1.46-1.55,2.17-3.82,3.14-5.8,5.21-10.63,10.22-21.36,15.64-31.88,4.07-7.9,8.61-15.57,13-23.29,2.38-4.16,5-4.25,8.28-.42,3.44,4,6.9,8,10.19,12.1a3.18,3.18,0,0,1-.14,2.76c-3.54,6.63-7.13,13.24-10.83,19.79-2.44,4.32-5.25,8.44-7.56,12.83-1.43,2.7-2.08,5.8-3.32,8.61-1.79,4-3.88,7.93-5.71,11.93-1.74,3.8-2.35,7.68.46,11.27,2.16,2.77.34,3.69-1.9,3.81-3.86.2-7.73,0-11.6-.1l-34.33-.61c-13.33-.23-26.67-.23-40-.82-4.32-.2-8.58-2-12.87-3-.24-.06-.57,0-.7-.21-2.33-2.73-4.66-5.47-6.93-8.26-.36-.45-.27-1.5-.66-1.69-6.22-3-1.57-7.12-1-10.62.94-6,4.32-11.31,4.85-17.62.39-4.66,2.7-9.16,4.19-13.72,1.29-4,2.62-7.89,4-11.83,2.48-7.33,4.88-14.69,7.5-22,.73-2,2.15-2.47,3.95-.64a76.77,76.77,0,0,0,7.5,6.82C38,13.5,39.75,13.69,41.61,14.35Z"/><path class="cls-1" d="M197.35,68.62c-.24,3.9-.32,7.51,3.62,9.65.35.18.11,1.33.27,2,.32,1.33.75,2.63,1.09,4,.14.57.41,1.59.21,1.71-5.42,3.27-1.08,8.19-2.1,12.17-.41,1.61-.08,4-1.06,4.74-2,1.49-3.93.09-5.67-1.62-3.05-3-6.4-5.63-9.6-8.45a3.38,3.38,0,0,1-1.08-1.4c-1.31-4.38-4.65-4.47-8.4-4.42-6.31.08-12.63-.28-18.95-.26a3.42,3.42,0,0,0-2.47,1.74c-1.66,3.69-3.22,7.44-4.51,11.27-1,3-2.55,3.57-5.29,2.33-5.43-2.46-8.12-7.3-6.54-13.24A68.67,68.67,0,0,1,141.45,77q5.16-10.86,10.85-21.46c1.9-3.54,4.55-6.66,6.55-10.14,3.75-6.53,7.22-13.22,10.94-19.77a14,14,0,0,1,3-3.21c5.05-4.51,5-3.4,9.41.31a60.12,60.12,0,0,1,6.57,5.72,19.53,19.53,0,0,1,4.95,11.7c.65,7.62,2,15.19,3,22.78C197,64.86,197.16,66.85,197.35,68.62Zm-32.55-.17c4.36,0,8.44.14,12.5-.12a3.41,3.41,0,0,0,2.21-2.52c-.18-5.51-.69-11-1.09-16.55C175.08,49.8,165.44,63.33,164.8,68.45Z"/><path class="cls-1" d="M244.63,19.42c7.09,0,14.18-.17,21.25.13,1.71.07,3.64,1.41,5,2.69a60.47,60.47,0,0,1,8.38,9.23c1.25,1.83,1.94,5,1.23,6.93-.48,1.3-4,2.35-6,2.08-11.4-1.6-22.79-1.27-34.21-.61-2.84.17-4.3.9-4.86,4.13-1,5.86-2.84,11.58-4.21,17.38-.4,1.69-.36,3.47-.61,5.19-1.23,8.53-2.5,17-3.73,25.57-.19,1.35,0,2.77-.36,4.09-.24,1-.73,2.55-1.46,2.8a4.5,4.5,0,0,1-3.66-.5c-3.8-2.91-7.38-6.1-11.06-9.16-2.17-1.79-2.94-6.67-2.27-9.56,1.63-7,2.79-14.06,4.25-21.08,2.25-10.78,4.41-21.58,7-32.28,1.1-4.57,4-6.11,8.55-6.52,5.57-.49,11.16-.8,16.75-1.18Z"/><path class="cls-1" d="M405.41,111.56l-1.79,3.7a14.57,14.57,0,0,0-3.13-2.27c-5.4-2-6.06-8-9.57-11.56-.78-.79-.74-3.91-.44-4,2.35-.78,4.71-4.21,7.32-1,1.53,1.9,2.3,4.39,3.54,6.55.72,1.26,1.88,2.28,2.5,3.57A37.7,37.7,0,0,1,405.41,111.56Z"/></g></g></svg>