<svg id="Слой_1" data-name="Слой 1" xmlns="http://www.w3.org/2000/svg" viewBox="0 0 350.19 28.06"><defs><style>.cls-1{fill:#303030;}</style></defs><title>sled2</title><path class="cls-1" d="M4.06,8.05H5.22L4.94,6.6l1.14,1,.59-1-1.4-.49,1.4-.5-.59-1-1.14,1,.28-1.45H4.06l.28,1.45-1.13-1-.6,1,1.4.5-1.4.49.6,1,1.13-1Zm9.4,3.87a3,3,0,0,0,2.65-1.36l-1.42-1a1.41,1.41,0,0,1-1.12.62,1.24,1.24,0,0,1-1.19-1.35A1.23,1.23,0,0,1,13.6,7.47a1.25,1.25,0,0,1,1.08.58l1.4-1a2.82,2.82,0,0,0-2.54-1.33,3.11,3.11,0,1,0-.08,6.21Zm3.86-.06c1.27,0,2.24-.62,2.24-4.22V7.49h1.1v4.29h2.09V5.83H17.61V7c0,3.06-.41,3.21-.78,3.21l-.34,0-.09,1.62A7.72,7.72,0,0,0,17.32,11.86Zm9.49.06a3.11,3.11,0,0,0,2.59-1.21l-1.16-1a1.8,1.8,0,0,1-1.32.6,1.22,1.22,0,0,1-1.28-1h4c0-.14,0-.3,0-.43,0-1.75-.95-3.25-3-3.25a3,3,0,0,0-3,3.11A3,3,0,0,0,26.81,11.92ZM25.6,8.31c.11-.64.49-1.07,1-1.07a1,1,0,0,1,1,1.07ZM30.08,13H32l.11-1.21h3.11V13H37l.2-2.89h-.69V5.83H31.15v.28a11,11,0,0,1-.52,4h-.55Zm2.68-2.89a8.91,8.91,0,0,0,.38-2.51v-.1h1.21V10.1Zm6.71,3.47c1.19,0,1.75-.55,2.27-1.93l2.18-5.81H41.77L40.65,9.41,39.46,5.83H37.27l2.33,5.84a.51.51,0,0,1-.48.24,2,2,0,0,1-.91-.32l-.65,1.47A3.93,3.93,0,0,0,39.47,13.57Zm11-1.65a3.06,3.06,0,0,0,3.18-3.11A3,3,0,0,0,50.51,5.7,3.07,3.07,0,0,0,47.44,8h-.75V5.83H44.6v5.95h2.09V9.58h.72A3.05,3.05,0,0,0,50.48,11.92Zm0-1.77a1.2,1.2,0,0,1-1.15-1.34c0-.74.36-1.34,1.12-1.34a1.2,1.2,0,0,1,1.15,1.34C51.63,9.55,51.26,10.15,50.51,10.15ZM62.45,13h1.79l.19-2.89h-.69V5.83H61.65V10.1H60.19V5.83H58.1V10.1H56.64V5.83H54.55v5.95h7.9ZM65,11.78h1.92l2-3v3h2V5.83H69l-2,3v-3H65Zm10,.14a3.11,3.11,0,0,0,2.59-1.21l-1.16-1a1.81,1.81,0,0,1-1.32.6,1.22,1.22,0,0,1-1.28-1h4c0-.14,0-.3,0-.43,0-1.75-1-3.25-3-3.25a3,3,0,0,0-3,3.11A3,3,0,0,0,75,11.92ZM73.78,8.31c.11-.64.49-1.07,1-1.07s1,.41,1,1.07Zm8,3.47h1.92l2-3v3h2V5.83H85.76l-2,3v-3h-2Zm7,0h2.09V9.62h1.72v2.16H94.7V5.83H92.61V7.94H90.89V5.83H88.8Zm9.89.14a3,3,0,0,0,2.65-1.36l-1.42-1a1.41,1.41,0,0,1-1.12.62,1.23,1.23,0,0,1-1.19-1.35,1.23,1.23,0,0,1,1.22-1.34,1.25,1.25,0,0,1,1.08.58l1.4-1a2.82,2.82,0,0,0-2.54-1.33,3.11,3.11,0,1,0-.08,6.21Zm4.68-.14h2.09V7.51h1.74V5.83h-5.57V7.51h1.74Zm4.5,1.76H110V11.05a2.24,2.24,0,0,0,1.82.86c1.4,0,2.62-1.18,2.62-3.11s-1.22-3.1-2.64-3.1a2.19,2.19,0,0,0-1.8.92V5.83h-2.09Zm3.26-3.38a1.26,1.26,0,0,1-1.21-1.35,1.22,1.22,0,1,1,2.43,0A1.26,1.26,0,0,1,111.13,10.16Zm5.93,3.41c1.19,0,1.75-.55,2.27-1.93l2.18-5.81h-2.15l-1.12,3.58-1.19-3.58h-2.19l2.34,5.84a.53.53,0,0,1-.49.24,2,2,0,0,1-.91-.32l-.65,1.47A3.93,3.93,0,0,0,117.06,13.57Zm5.13-1.79h2.09V10.6l.6-.72,1.14,1.9h2.3l-2.09-3.51,2-2.44H125.9L124.28,8V5.83h-2.09ZM133.34,13h1.78l.2-2.89h-.69V5.83h-2.09V10.1h-1.63V5.83h-2.09v5.95h4.52Zm2.54-1.21h1.92l2-3v3h2V5.83h-1.92l-2,3v-3h-2Zm7,0h1.93l2-3v3h2V5.83h-1.92l-2,3v-3h-2ZM153,13.54h2.09V11.05a2.24,2.24,0,0,0,1.82.86c1.4,0,2.62-1.18,2.62-3.11s-1.22-3.1-2.64-3.1a2.19,2.19,0,0,0-1.8.92V5.83H153Zm3.26-3.38a1.26,1.26,0,0,1-1.21-1.35,1.22,1.22,0,1,1,2.43,0A1.26,1.26,0,0,1,156.28,10.16Zm7.12,1.76A3.12,3.12,0,0,0,166,10.71l-1.16-1a1.81,1.81,0,0,1-1.32.6,1.23,1.23,0,0,1-1.29-1h4c0-.14,0-.3,0-.43,0-1.75-.95-3.25-3-3.25a3,3,0,0,0-3,3.11A3,3,0,0,0,163.4,11.92Zm-1.21-3.61c.11-.64.49-1.07,1-1.07s1,.41,1,1.07Zm4.92,3.47h2.09V10.6l.61-.72,1.13,1.9h2.3l-2.09-3.51,2-2.44h-2.37L169.2,8V5.83h-2.09Zm9.67.14a3.17,3.17,0,0,0,3.3-3.11,3.3,3.3,0,1,0-3.3,3.11Zm0-1.77a1.29,1.29,0,0,1-1.27-1.34,1.25,1.25,0,0,1,1.25-1.34A1.29,1.29,0,0,1,178,8.81,1.25,1.25,0,0,1,176.8,10.15ZM181,11.78H183V8.89l1.41,2,1.45-2v2.94H188V5.83h-2.13l-1.38,2.06-1.38-2.06H181Zm11.08.14a3.12,3.12,0,0,0,2.59-1.21l-1.16-1a1.81,1.81,0,0,1-1.32.6,1.23,1.23,0,0,1-1.29-1h4c0-.14,0-.3,0-.43,0-1.75-1-3.25-3-3.25a3,3,0,0,0-3,3.11A3,3,0,0,0,192,11.92Zm-1.21-3.61c.11-.64.48-1.07,1-1.07s1,.41,1,1.07Zm4.92,3.47h2.09V9.62h1.72v2.16h2.09V5.83h-2.09V7.94h-1.72V5.83h-2.09ZM202.32,13h1.87l.11-1.21h3.11V13h1.78l.2-2.89h-.69V5.83h-5.31v.28a11,11,0,0,1-.52,4h-.55ZM205,10.1a9.25,9.25,0,0,0,.39-2.51v-.1h1.21V10.1Zm6.71,3.47c1.19,0,1.75-.55,2.27-1.93l2.18-5.81H214l-1.12,3.58L211.7,5.83h-2.19l2.34,5.84a.53.53,0,0,1-.49.24,2,2,0,0,1-.91-.32l-.65,1.47A3.93,3.93,0,0,0,211.71,13.57Zm8.08-1.65a3.09,3.09,0,0,0,2.58-1.21l-1.15-1a1.83,1.83,0,0,1-1.32.6,1.23,1.23,0,0,1-1.29-1h4c0-.14,0-.3,0-.43,0-1.75-.94-3.25-3-3.25a3,3,0,0,0-3,3.11A3,3,0,0,0,219.79,11.92Zm-1.21-3.61c.11-.64.48-1.07,1-1.07a1.06,1.06,0,0,1,1,1.07Zm6.21,3.47h2.09V7.51h1.73V5.83h-5.56V7.51h1.74Zm7.37.14a3,3,0,0,0,2.65-1.36l-1.42-1a1.39,1.39,0,0,1-1.12.62,1.24,1.24,0,0,1-1.19-1.35,1.25,1.25,0,0,1,2.3-.76l1.4-1a2.82,2.82,0,0,0-2.54-1.33,3.11,3.11,0,1,0-.08,6.21Zm3-.14h2.39l1.15-1.72h.47v1.72h2.1V5.83h-3.31a2.58,2.58,0,0,0-2,.66,1.87,1.87,0,0,0-.55,1.42,1.84,1.84,0,0,0,1.1,1.8Zm3.18-3.17c-.49,0-.77-.22-.77-.59s.29-.62.77-.62h.83V8.61Zm7.1,3.17h3.5c1.42,0,2.26-.62,2.26-1.64A1.41,1.41,0,0,0,250,8.67,1.39,1.39,0,0,0,251,7.34a1.29,1.29,0,0,0-.39-1,2.2,2.2,0,0,0-1.63-.54h-3.53Zm2-1.35V9.32h.83c.54,0,.8.25.8.55s-.28.56-.77.56Zm0-2.24v-1h.74c.46,0,.71.21.71.51s-.26.52-.75.52Zm10.89,3.59h2.09V5.83h-2.09Zm-6.22,0h3.19c1.44,0,2.36-.77,2.36-2.06s-1-2-2.45-2h-1V5.83h-2.09Zm2.09-1.47V9h.65c.5,0,.8.23.8.62s-.3.65-.8.65Zm7.35,1.47h2.09V7.51h1.63v4.27h2.09V5.83h-5.81Zm10,.14a3.17,3.17,0,0,0,3.3-3.11,3.13,3.13,0,0,0-3.27-3.11,3.17,3.17,0,0,0-3.3,3.11A3.13,3.13,0,0,0,271.52,11.92Zm0-1.77a1.29,1.29,0,0,1-1.27-1.34,1.25,1.25,0,0,1,1.24-1.34,1.29,1.29,0,0,1,1.27,1.34A1.25,1.25,0,0,1,271.55,10.15Zm4.63,1.71c1.26,0,2.23-.62,2.23-4.22V7.49h1.1v4.29h2.09V5.83h-5.13V7c0,3.06-.41,3.21-.79,3.21l-.34,0-.08,1.62A7.72,7.72,0,0,0,276.18,11.86Zm6.54-.08h2.09V9.62h1.72v2.16h2.09V5.83h-2.09V7.94h-1.72V5.83h-2.09Zm6.6,0h2.38l1.15-1.72h.47v1.72h2.1V5.83h-3.31a2.58,2.58,0,0,0-1.95.66,1.87,1.87,0,0,0-.55,1.42,1.84,1.84,0,0,0,1.1,1.8Zm3.18-3.17c-.5,0-.77-.22-.77-.59s.28-.62.77-.62h.82V8.61Zm5.33,3.17h2.09V7.51h1.74V5.83H296.1V7.51h1.73Zm4.51,0h3.19c1.44,0,2.36-.77,2.36-2.06s-1-2-2.45-2h-1V5.83h-2.09Zm2.09-1.47V9h.65c.5,0,.8.23.8.62s-.3.65-.8.65ZM314.67,12a2.94,2.94,0,0,0,2.65-1.37l-1.41-1a1.4,1.4,0,0,1-1.13.63,1.24,1.24,0,0,1-1.18-1.36,1.24,1.24,0,0,1,2.29-.75l1.4-1a2.81,2.81,0,0,0-2.54-1.33,3.11,3.11,0,1,0-.08,6.22Zm4.68-.15h2.09V7.57h1.74V5.88h-5.57V7.57h1.74Zm4.5,1.76h2.09V11.11a2.26,2.26,0,0,0,1.82.86c1.41,0,2.63-1.18,2.63-3.12s-1.22-3.1-2.64-3.1a2.19,2.19,0,0,0-1.81.93v-.8h-2.09Zm3.26-3.37a1.26,1.26,0,0,1-1.21-1.36,1.22,1.22,0,1,1,2.43,0A1.26,1.26,0,0,1,327.11,10.22ZM334.32,12a3.12,3.12,0,1,0,0-6.23,3.12,3.12,0,1,0,0,6.23Zm0-1.77a1.3,1.3,0,0,1-1.27-1.35,1.26,1.26,0,0,1,1.24-1.34,1.29,1.29,0,0,1,1.27,1.34A1.26,1.26,0,0,1,334.35,10.21Zm4.16,1.62h2.09V7.57H343V5.88h-4.49Zm8.19.15a3.12,3.12,0,1,0,0-6.23,3.12,3.12,0,1,0,0,6.23Zm0-1.77a1.29,1.29,0,0,1-1.26-1.35,1.25,1.25,0,0,1,1.24-1.34A1.29,1.29,0,0,1,348,8.86,1.26,1.26,0,0,1,346.72,10.21ZM74.23,24h2.09V19.73H78V24H80V18.05H74.23Zm10,.14A3.12,3.12,0,1,0,80.92,21,3.17,3.17,0,0,0,84.2,24.14Zm0-1.77A1.29,1.29,0,0,1,83,21a1.25,1.25,0,0,1,1.25-1.34A1.29,1.29,0,0,1,85.46,21,1.25,1.25,0,0,1,84.22,22.37Zm3.71,2.84H89.8L89.91,24H93v1.21H94.8l.2-2.9h-.69V18.05H89v.28a10.85,10.85,0,0,1-.53,4h-.55Zm2.68-2.9a8.74,8.74,0,0,0,.39-2.5v-.1h1.21v2.6Zm8,1.69h2.09V21.84h1.71V24h2.09V18.05h-2.09v2.11h-1.71V18.05H98.62Zm8.72.13a2.26,2.26,0,0,0,1.75-.75V24h2.06V20.58a2.5,2.5,0,0,0-.63-1.9,3.09,3.09,0,0,0-2.27-.72,6.08,6.08,0,0,0-2.41.46l.43,1.47a4.36,4.36,0,0,1,1.64-.33c.8,0,1.19.36,1.19,1v.1a4.59,4.59,0,0,0-1.43-.23c-1.4,0-2.33.64-2.33,1.87A1.81,1.81,0,0,0,107.34,24.13Zm.75-1.31a.66.66,0,0,1-.74-.65c0-.46.35-.76,1-.76a2.16,2.16,0,0,1,.81.16v.27A1,1,0,0,1,108.09,22.82Zm7.27,1.32a3.06,3.06,0,0,0,3.19-3,2.72,2.72,0,0,0-2.83-2.71,2.49,2.49,0,0,0-2,.88c0-.3.26-1,1.33-1.2l3.12-.57-.25-1.62-3,.5c-2.33.37-2.66,2.32-2.66,4.06C112.18,22.86,113.24,24.14,115.36,24.14Zm0-1.77a1.18,1.18,0,0,1-1.16-1.23,1.14,1.14,0,0,1,1.13-1.23,1.18,1.18,0,0,1,1.16,1.23A1.14,1.14,0,0,1,115.39,22.37Zm4.52,1.7c1.26,0,2.23-.61,2.23-4.21v-.15h1.1V24h2.09V18.05H120.2v1.14c0,3.06-.41,3.21-.79,3.21l-.34,0L119,24A7.63,7.63,0,0,0,119.91,24.07Zm12.43.07a3.12,3.12,0,1,0-3.05-3.94h-.75V18.05h-2.09V24h2.09V21.8h.73A3,3,0,0,0,132.34,24.14Zm0-1.77A1.2,1.2,0,0,1,131.21,21c0-.74.37-1.34,1.13-1.34A1.19,1.19,0,0,1,133.48,21C133.48,21.76,133.12,22.37,132.36,22.37ZM136,25.21h1.87l.11-1.21H141v1.21h1.78l.2-2.9h-.69V18.05H137v.28a10.85,10.85,0,0,1-.53,4H136Zm2.68-2.9a9.1,9.1,0,0,0,.39-2.5v-.1h1.21v2.6Zm7.9,1.83a3.11,3.11,0,0,0,2.59-1.21L148,22a1.79,1.79,0,0,1-1.32.61,1.22,1.22,0,0,1-1.28-1h4c0-.14,0-.3,0-.43,0-1.75-.95-3.26-3-3.26a3,3,0,0,0-3,3.12A3,3,0,0,0,146.53,24.14Zm-1.21-3.61c.11-.65.49-1.08,1-1.08s.95.42,1,1.08ZM150.24,24h2.09V21.84h1.72V24h2.09V18.05h-2.09v2.11h-1.72V18.05h-2.09Zm7,0h1.92l2-3v3h2V18.05h-1.93l-2,3v-3h-2Zm10,.14a3.11,3.11,0,0,0,2.59-1.21l-1.16-1a1.77,1.77,0,0,1-1.32.61,1.22,1.22,0,0,1-1.28-1h4c0-.14,0-.3,0-.43,0-1.75-.95-3.26-3-3.26a3,3,0,0,0-3,3.12A3,3,0,0,0,167.25,24.14ZM166,20.53c.11-.65.49-1.08,1-1.08a1.06,1.06,0,0,1,1,1.08ZM171,24H173V21.1l1.41,2,1.45-2V24H178V18.05h-2.12l-1.39,2.05-1.37-2.05H171Zm11.18,0h2.09V19.73h1.63V24H188V18.05h-5.81Zm6.93,1.76h2.09V23.27a2.22,2.22,0,0,0,1.81.86c1.41,0,2.63-1.18,2.63-3.11s-1.22-3.11-2.64-3.11a2.16,2.16,0,0,0-1.8.93v-.79h-2.09Zm3.25-3.38a1.37,1.37,0,0,1,0-2.72A1.25,1.25,0,0,1,193.55,21,1.25,1.25,0,0,1,192.33,22.38Zm7.22,1.76A3.12,3.12,0,1,0,196.27,21,3.17,3.17,0,0,0,199.55,24.14Zm0-1.77A1.29,1.29,0,0,1,198.3,21a1.25,1.25,0,0,1,1.25-1.34A1.29,1.29,0,0,1,200.81,21,1.25,1.25,0,0,1,199.57,22.37Zm7.49,3.39h2.09v-2a2.12,2.12,0,0,0,1.16.38c1.41,0,2.41-1.15,2.41-3.08s-1-3.07-2.42-3.07a1.89,1.89,0,0,0-1.15.43V16.3h-2.09v2.08a1.91,1.91,0,0,0-1.14-.43c-1.42,0-2.42,1.14-2.42,3s1,3.11,2.41,3.11a2.15,2.15,0,0,0,1.15-.38Zm-.5-3.35c-.68,0-1-.58-1-1.38s.32-1.4,1-1.4a1.08,1.08,0,0,1,.5.12V22.3A1.08,1.08,0,0,1,206.56,22.41Zm3.1,0a1.09,1.09,0,0,1-.51-.11V19.75a1.1,1.1,0,0,1,.51-.12c.68,0,1,.59,1,1.38S210.34,22.41,209.66,22.41Zm6.9,1.73a3.12,3.12,0,0,0,2.59-1.21L218,22a1.79,1.79,0,0,1-1.32.61,1.23,1.23,0,0,1-1.29-1h4c0-.14,0-.3,0-.43,0-1.75-.95-3.26-3-3.26a3,3,0,0,0-3,3.12A3,3,0,0,0,216.56,24.14Zm-1.21-3.61c.11-.65.48-1.08,1-1.08s1,.42,1,1.08Zm7.79,3.61a3,3,0,0,0,2.66-1.36l-1.42-1a1.4,1.4,0,0,1-1.13.63A1.23,1.23,0,0,1,222.07,21a1.23,1.23,0,0,1,1.22-1.34,1.25,1.25,0,0,1,1.08.58l1.39-1a2.79,2.79,0,0,0-2.54-1.33,3.11,3.11,0,1,0-.08,6.21Zm6.27,0a3,3,0,0,0,2.65-1.36l-1.42-1a1.39,1.39,0,0,1-1.12.63A1.23,1.23,0,0,1,228.33,21a1.23,1.23,0,0,1,1.22-1.34,1.25,1.25,0,0,1,1.08.58l1.39-1a2.79,2.79,0,0,0-2.54-1.33,3.11,3.11,0,1,0-.07,6.21ZM232.8,24h1.92l2-3v3h2V18.05H236.8l-2,3v-3h-2Zm10.08.14A3.12,3.12,0,1,0,239.6,21,3.17,3.17,0,0,0,242.88,24.14Zm0-1.77A1.29,1.29,0,0,1,241.64,21a1.25,1.25,0,0,1,1.24-1.34A1.29,1.29,0,0,1,244.15,21,1.26,1.26,0,0,1,242.9,22.37ZM247.06,24h2.09V21.84h1.72V24H253V18.05h-2.09v2.11h-1.72V18.05h-2.09Zm8.72.13a2.24,2.24,0,0,0,1.75-.75V24h2.07V20.58a2.5,2.5,0,0,0-.64-1.9A3.06,3.06,0,0,0,256.7,18a6,6,0,0,0-2.41.46l.43,1.47a4.32,4.32,0,0,1,1.64-.33c.8,0,1.18.36,1.18,1v.1a4.59,4.59,0,0,0-1.43-.23c-1.39,0-2.33.64-2.33,1.87A1.81,1.81,0,0,0,255.78,24.13Zm.75-1.31a.66.66,0,0,1-.74-.65c0-.46.36-.76,1-.76a2.17,2.17,0,0,1,.82.16v.27A1,1,0,0,1,256.53,22.82Zm4.61,1.25c1.26,0,2.23-.61,2.23-4.21v-.15h1.1V24h2.09V18.05h-5.14v1.14c0,3.06-.4,3.21-.78,3.21l-.34,0L260.21,24A8,8,0,0,0,261.14,24.07Zm6.54-.07h3.19c1.44,0,2.36-.77,2.36-2.06s-1-2-2.45-2h-1V18.05h-2.09Zm2.09-1.48V21.26h.65c.5,0,.8.23.8.61s-.3.65-.8.65ZM274,24h2.09V21.84h1.71V24h2.09V18.05h-2.09v2.11h-1.71V18.05H274Zm10.05.14A3.12,3.12,0,1,0,280.79,21,3.17,3.17,0,0,0,284.07,24.14Zm0-1.77A1.29,1.29,0,0,1,282.82,21a1.25,1.25,0,0,1,1.25-1.34A1.29,1.29,0,0,1,285.33,21,1.25,1.25,0,0,1,284.09,22.37ZM288.25,24h2.09V19.73h2.4V18.05h-4.49Zm8.19.14A3.12,3.12,0,1,0,293.16,21,3.17,3.17,0,0,0,296.44,24.14Zm0-1.77A1.29,1.29,0,0,1,295.2,21a1.25,1.25,0,0,1,1.24-1.34A1.29,1.29,0,0,1,297.71,21,1.26,1.26,0,0,1,296.46,22.37ZM305,24h2.09V19.73h1.74V18.05h-5.57v1.68H305Zm4.51,1.76h2.09V23.27a2.22,2.22,0,0,0,1.81.86C314.78,24.13,316,23,316,21s-1.22-3.11-2.64-3.11a2.16,2.16,0,0,0-1.8.93v-.79h-2.09Zm3.25-3.38A1.37,1.37,0,1,1,313.94,21,1.26,1.26,0,0,1,312.72,22.38Zm7.13,1.76a3.1,3.1,0,0,0,2.58-1.21l-1.15-1a1.8,1.8,0,0,1-1.32.61,1.23,1.23,0,0,1-1.29-1h4c0-.14,0-.3,0-.43,0-1.75-.94-3.26-3-3.26a3,3,0,0,0-3,3.12A3,3,0,0,0,319.85,24.14Zm-1.21-3.61c.11-.65.48-1.08,1-1.08a1.06,1.06,0,0,1,1,1.08ZM323.56,24h2.09V21.84h1.72V24h2.09V18.05h-2.09v2.11h-1.72V18.05h-2.09Zm10,.14a3.12,3.12,0,0,0,2.59-1.21L335,22a1.79,1.79,0,0,1-1.32.61,1.23,1.23,0,0,1-1.29-1h4c0-.14,0-.3,0-.43,0-1.75-.95-3.26-3-3.26a3,3,0,0,0-3,3.12A3,3,0,0,0,333.52,24.14Zm-1.21-3.61c.11-.65.49-1.08,1-1.08s.95.42,1,1.08Zm4.92,5.23h2.09V23.27a2.26,2.26,0,0,0,1.82.86c1.41,0,2.63-1.18,2.63-3.11s-1.22-3.11-2.64-3.11a2.19,2.19,0,0,0-1.81.93v-.79h-2.09Zm3.26-3.38A1.37,1.37,0,1,1,341.71,21,1.26,1.26,0,0,1,340.49,22.38Zm5.88,1.75a2.26,2.26,0,0,0,1.75-.75V24h2.07V20.58a2.5,2.5,0,0,0-.64-1.9,3.06,3.06,0,0,0-2.26-.72,6,6,0,0,0-2.41.46l.43,1.47a4.31,4.31,0,0,1,1.63-.33c.81,0,1.19.36,1.19,1v.1a4.59,4.59,0,0,0-1.43-.23c-1.39,0-2.33.64-2.33,1.87A1.81,1.81,0,0,0,346.37,24.13Zm.75-1.31a.66.66,0,0,1-.74-.65c0-.46.36-.76,1-.76a2.08,2.08,0,0,1,.81.16v.27A1,1,0,0,1,347.12,22.82Z"/></svg>