<svg id="Слой_1" data-name="Слой 1" xmlns="http://www.w3.org/2000/svg" viewBox="0 0 632.58 12.77"><defs><style>.cls-1{fill:#303030;}</style></defs><title>sled</title><path class="cls-1" d="M4.28,5.74H5.43L5.16,4.28l1.13,1,.59-1-1.39-.5,1.39-.49-.59-1-1.13,1,.27-1.45H4.28l.27,1.45-1.13-1-.6,1,1.4.49-1.4.5.6,1,1.13-1Zm9.39,3.87a2.94,2.94,0,0,0,2.65-1.37l-1.42-1a1.38,1.38,0,0,1-1.12.63,1.25,1.25,0,0,1-1.19-1.36,1.24,1.24,0,0,1,2.3-.75l1.4-1a2.82,2.82,0,0,0-2.54-1.33,3.11,3.11,0,1,0-.08,6.22Zm3.87-.07c1.26,0,2.23-.61,2.23-4.21V5.17h1.1V9.46H23v-6H17.82V4.66c0,3.06-.4,3.21-.78,3.21l-.34,0-.09,1.61A6.34,6.34,0,0,0,17.54,9.54ZM27,9.61A3.13,3.13,0,0,0,29.61,8.4l-1.15-1a1.8,1.8,0,0,1-1.32.61,1.23,1.23,0,0,1-1.29-1h4c0-.15,0-.3,0-.43,0-1.75-.94-3.26-3-3.26a3,3,0,0,0-3,3.11A3,3,0,0,0,27,9.61ZM25.82,6c.11-.65.48-1.08,1-1.08a1.06,1.06,0,0,1,1,1.08Zm4.47,4.67h1.87l.11-1.21h3.11v1.21h1.78l.2-2.89h-.69V3.51h-5.3V3.8a10.89,10.89,0,0,1-.53,4h-.55ZM33,7.78a9.12,9.12,0,0,0,.39-2.51v-.1h1.21V7.78Zm6.72,3.48c1.18,0,1.74-.55,2.26-1.94l2.18-5.81H42L40.86,7.1,39.67,3.51H37.49l2.33,5.84a.53.53,0,0,1-.49.25,2,2,0,0,1-.91-.32l-.65,1.46A3.84,3.84,0,0,0,39.69,11.26Zm11-1.65a3.06,3.06,0,0,0,3.17-3.12,3,3,0,0,0-3.15-3.11,3.07,3.07,0,0,0-3.07,2.29H46.9V3.51H44.81v6H46.9V7.26h.73A3,3,0,0,0,50.7,9.61Zm0-1.77a1.2,1.2,0,0,1-1.15-1.35c0-.73.37-1.34,1.13-1.34a1.2,1.2,0,0,1,1.14,1.34C51.84,7.23,51.48,7.84,50.72,7.84Zm12,2.83h1.78l.2-2.89H64V3.51H61.86V7.78H60.4V3.51H58.31V7.78H56.85V3.51H54.76v6h7.91Zm2.54-1.21h1.93l2-3v3h2v-6H69.21l-2,3v-3h-2Zm10,.15A3.13,3.13,0,0,0,77.79,8.4l-1.15-1a1.8,1.8,0,0,1-1.32.61,1.23,1.23,0,0,1-1.29-1h4c0-.15,0-.3,0-.43,0-1.75-.94-3.26-3-3.26a3,3,0,0,0-3,3.11A3,3,0,0,0,75.21,9.61ZM74,6c.11-.65.48-1.08,1-1.08a1.06,1.06,0,0,1,1,1.08Zm8,3.46h1.92l2-3v3h2v-6H86l-2,3v-3H82Zm7,0H91.1V7.31h1.72V9.46h2.09v-6H92.82V5.63H91.1V3.51H89Zm9.89.15a2.94,2.94,0,0,0,2.65-1.37l-1.42-1A1.38,1.38,0,0,1,99,7.85a1.25,1.25,0,0,1-1.19-1.36A1.23,1.23,0,0,1,99,5.15a1.25,1.25,0,0,1,1.08.59l1.4-1A2.82,2.82,0,0,0,99,3.39a3.11,3.11,0,1,0-.08,6.22Zm4.68-.15h2.09V5.2h1.74V3.51h-5.57V5.2h1.74Zm4.5,1.76h2.09V8.74A2.26,2.26,0,0,0,112,9.6c1.41,0,2.63-1.18,2.63-3.12s-1.22-3.1-2.64-3.1a2.19,2.19,0,0,0-1.81.93v-.8h-2.09Zm3.26-3.37a1.26,1.26,0,0,1-1.21-1.36,1.22,1.22,0,1,1,2.43,0A1.26,1.26,0,0,1,111.34,7.85Zm5.94,3.41c1.18,0,1.75-.55,2.26-1.94l2.18-5.81h-2.14L118.45,7.1l-1.18-3.59h-2.19l2.33,5.84a.53.53,0,0,1-.49.25,2,2,0,0,1-.91-.32l-.65,1.46A3.84,3.84,0,0,0,117.28,11.26Zm5.12-1.8h2.09V8.29l.61-.73,1.13,1.9h2.3L126.44,6l2-2.45h-2.36l-1.62,2.21V3.51H122.4Zm11.15,1.21h1.78l.2-2.89h-.69V3.51h-2.09V7.78h-1.63V3.51H129v6h4.52Zm2.54-1.21H138l2-3v3h2v-6h-1.93l-2,3v-3h-2Zm7,0h1.93l2-3v3h2v-6h-1.92l-2,3v-3h-2Zm10.1,1.76h2.09V8.74a2.26,2.26,0,0,0,1.82.86c1.41,0,2.63-1.18,2.63-3.12s-1.22-3.1-2.64-3.1a2.19,2.19,0,0,0-1.81.93v-.8h-2.09Zm3.26-3.37a1.26,1.26,0,0,1-1.21-1.36,1.22,1.22,0,1,1,2.43,0A1.26,1.26,0,0,1,156.49,7.85Zm7.12,1.76A3.14,3.14,0,0,0,166.2,8.4l-1.16-1a1.79,1.79,0,0,1-1.32.61,1.22,1.22,0,0,1-1.28-1h4c0-.15,0-.3,0-.43,0-1.75-1-3.26-3-3.26a3,3,0,0,0-3,3.11A3,3,0,0,0,163.61,9.61ZM162.4,6c.11-.65.49-1.08,1-1.08s.95.42,1,1.08Zm4.93,3.46h2.09V8.29l.6-.73,1.13,1.9h2.3L171.36,6l2-2.45H171l-1.61,2.21V3.51h-2.09Zm9.66.15a3.17,3.17,0,0,0,3.3-3.12A3.29,3.29,0,1,0,177,9.61Zm0-1.77a1.29,1.29,0,0,1-1.26-1.35A1.25,1.25,0,0,1,177,5.15a1.29,1.29,0,0,1,1.26,1.34A1.26,1.26,0,0,1,177,7.84Zm4.16,1.62h2.06V6.57l1.41,2,1.45-2V9.46h2.09v-6h-2.12l-1.39,2.06L183.3,3.51h-2.13Zm11.08.15a3.14,3.14,0,0,0,2.59-1.21l-1.16-1a1.79,1.79,0,0,1-1.32.61,1.22,1.22,0,0,1-1.28-1h4c0-.15,0-.3,0-.43,0-1.75-.95-3.26-3-3.26a3,3,0,0,0-3,3.11A3,3,0,0,0,192.25,9.61ZM191,6c.11-.65.49-1.08,1-1.08s.95.42,1,1.08ZM196,9.46h2.09V7.31h1.72V9.46h2.09v-6h-2.09V5.63h-1.72V3.51H196Zm6.57,1.21h1.87l.11-1.21h3.11v1.21h1.78l.2-2.89h-.69V3.51h-5.3V3.8a10.89,10.89,0,0,1-.53,4h-.55Zm2.68-2.89a8.75,8.75,0,0,0,.39-2.51v-.1h1.21V7.78Zm6.72,3.48c1.18,0,1.74-.55,2.26-1.94l2.18-5.81h-2.15L213.1,7.1l-1.19-3.59h-2.18l2.33,5.84a.53.53,0,0,1-.49.25,2,2,0,0,1-.91-.32L210,10.74A3.84,3.84,0,0,0,211.93,11.26ZM220,9.61a3.12,3.12,0,0,0,2.58-1.21l-1.15-1a1.8,1.8,0,0,1-1.32.61,1.23,1.23,0,0,1-1.29-1h4a3.24,3.24,0,0,0,0-.43c0-1.75-.95-3.26-3-3.26a3,3,0,0,0-3,3.11A3,3,0,0,0,220,9.61ZM218.79,6c.11-.65.48-1.08,1-1.08s1,.42,1,1.08ZM225,9.46h2.09V5.2h1.74V3.51h-5.57V5.2H225Zm7.37.15A2.94,2.94,0,0,0,235,8.24l-1.42-1a1.38,1.38,0,0,1-1.12.63,1.25,1.25,0,0,1-1.19-1.36,1.24,1.24,0,0,1,2.3-.75l1.4-1a2.82,2.82,0,0,0-2.54-1.33,3.11,3.11,0,1,0-.08,6.22Zm3-.15h2.38l1.15-1.71h.47V9.46h2.1v-6h-3.31a2.58,2.58,0,0,0-1.95.66,1.89,1.89,0,0,0-.55,1.42,1.85,1.85,0,0,0,1.1,1.81Zm3.18-3.16c-.5,0-.77-.22-.77-.6s.28-.61.77-.61h.82V6.3Zm7.1,3.16h3.49c1.42,0,2.26-.61,2.26-1.63a1.42,1.42,0,0,0-1.13-1.48A1.39,1.39,0,0,0,251.17,5a1.26,1.26,0,0,0-.39-1,2.19,2.19,0,0,0-1.62-.54h-3.53Zm2-1.35V7h.84c.54,0,.79.25.79.55s-.28.56-.77.56Zm0-2.23v-1h.74c.46,0,.71.21.71.51s-.26.53-.75.53Zm10.89,3.58h2.09v-6h-2.09Zm-6.22,0h3.19c1.44,0,2.36-.77,2.36-2.05s-1-2-2.45-2h-1V3.51h-2.09ZM254.42,8V6.73h.65c.5,0,.8.23.8.61s-.3.65-.8.65Zm7.35,1.47h2.09V5.2h1.63V9.46h2.09v-6h-5.81Zm10,.15A3.17,3.17,0,0,0,275,6.49a3.29,3.29,0,1,0-3.3,3.12Zm0-1.77a1.3,1.3,0,0,1-1.27-1.35,1.26,1.26,0,0,1,1.25-1.34A1.29,1.29,0,0,1,273,6.49,1.26,1.26,0,0,1,271.76,7.84Zm4.63,1.7c1.27,0,2.23-.61,2.23-4.21V5.17h1.1V9.46h2.09v-6h-5.13V4.66c0,3.06-.41,3.21-.78,3.21l-.34,0-.09,1.61A6.08,6.08,0,0,0,276.39,9.54Zm6.54-.08H285V7.31h1.72V9.46h2.09v-6h-2.09V5.63H285V3.51h-2.09Zm6.6,0h2.39l1.14-1.71h.47V9.46h2.1v-6h-3.31a2.54,2.54,0,0,0-1.94.66,1.85,1.85,0,0,0-.55,1.42,1.84,1.84,0,0,0,1.1,1.81Zm3.18-3.16c-.5,0-.77-.22-.77-.6s.28-.61.77-.61h.82V6.3Zm5.34,3.16h2.09V5.2h1.73V3.51h-5.56V5.2h1.74Zm4.5,0h3.19c1.44,0,2.36-.77,2.36-2.05s-1-2-2.45-2h-1V3.51h-2.09ZM304.64,8V6.73h.65c.5,0,.8.23.8.61s-.3.65-.8.65Zm10.17,1.62a2.94,2.94,0,0,0,2.65-1.37l-1.42-1a1.39,1.39,0,0,1-1.12.63,1.24,1.24,0,0,1-1.19-1.36A1.23,1.23,0,0,1,315,5.15a1.26,1.26,0,0,1,1.08.59l1.4-1a2.82,2.82,0,0,0-2.54-1.33,3.11,3.11,0,1,0-.08,6.22Zm4.68-.15h2.09V5.2h1.73V3.51h-5.56V5.2h1.74Zm4.5,1.76h2.09V8.74a2.22,2.22,0,0,0,1.81.86c1.41,0,2.63-1.18,2.63-3.12s-1.22-3.1-2.64-3.1a2.17,2.17,0,0,0-1.8.93v-.8H324Zm3.26-3.37A1.25,1.25,0,0,1,326,6.49a1.22,1.22,0,1,1,2.43,0A1.26,1.26,0,0,1,327.25,7.85Zm7.21,1.76a3.17,3.17,0,0,0,3.3-3.12,3.29,3.29,0,1,0-3.3,3.12Zm0-1.77a1.29,1.29,0,0,1-1.26-1.35,1.25,1.25,0,0,1,1.24-1.34,1.29,1.29,0,0,1,1.26,1.34A1.26,1.26,0,0,1,334.48,7.84Zm4.16,1.62h2.09V5.2h2.4V3.51h-4.49Zm8.19.15a3.17,3.17,0,0,0,3.3-3.12,3.29,3.29,0,1,0-3.3,3.12Zm0-1.77a1.3,1.3,0,0,1-1.27-1.35,1.26,1.26,0,0,1,1.24-1.34,1.29,1.29,0,0,1,1.27,1.34A1.26,1.26,0,0,1,346.86,7.84Zm7.21,1.62h2.09V5.2h1.63V9.46h2.09v-6h-5.81Zm10,.15a3.17,3.17,0,0,0,3.3-3.12A3.29,3.29,0,1,0,364,9.61Zm0-1.77a1.3,1.3,0,0,1-1.26-1.35A1.25,1.25,0,0,1,364,5.15a1.29,1.29,0,0,1,1.27,1.34A1.26,1.26,0,0,1,364.05,7.84Zm3.71,2.83h1.87l.11-1.21h3.12v1.21h1.78l.2-2.89h-.7V3.51h-5.3V3.8a10.67,10.67,0,0,1-.53,4h-.55Zm2.69-2.89a8.79,8.79,0,0,0,.38-2.51v-.1H372V7.78Zm8,1.68h2.09V7.31h1.72V9.46h2.09v-6h-2.09V5.63h-1.72V3.51h-2.09Zm8.72.14a2.26,2.26,0,0,0,1.75-.75v.61H391V6a2.49,2.49,0,0,0-.64-1.89,3.06,3.06,0,0,0-2.26-.72,5.87,5.87,0,0,0-2.41.46l.43,1.47A4.13,4.13,0,0,1,387.74,5c.81,0,1.19.35,1.19,1v.1a4.59,4.59,0,0,0-1.43-.23c-1.39,0-2.33.64-2.33,1.87A1.81,1.81,0,0,0,387.17,9.6Zm.75-1.31a.66.66,0,0,1-.74-.65c0-.46.36-.76,1-.76A2.29,2.29,0,0,1,389,7v.28A1,1,0,0,1,387.92,8.29Zm7.28,1.32a3.07,3.07,0,0,0,3.19-3,2.71,2.71,0,0,0-2.84-2.7,2.48,2.48,0,0,0-2.05.88,1.45,1.45,0,0,1,1.34-1.2L398,3l-.25-1.62-3,.49c-2.32.38-2.65,2.32-2.65,4.06C392,8.33,393.08,9.61,395.2,9.61Zm0-1.77a1.18,1.18,0,0,1-1.15-1.24,1.14,1.14,0,0,1,1.13-1.23,1.18,1.18,0,0,1,1.15,1.23A1.14,1.14,0,0,1,395.22,7.84Zm4.52,1.7c1.27,0,2.24-.61,2.24-4.21V5.17h1.1V9.46h2.09v-6H400V4.66c0,3.06-.41,3.21-.78,3.21l-.34,0-.09,1.61A6.08,6.08,0,0,0,399.74,9.54Zm12.43.07a3.07,3.07,0,0,0,3.18-3.12,3,3,0,0,0-3.16-3.11,3.09,3.09,0,0,0-3.07,2.29h-.74V3.51h-2.09v6h2.09V7.26h.72A3,3,0,0,0,412.17,9.61Zm0-1.77a1.2,1.2,0,0,1-1.14-1.35c0-.73.36-1.34,1.12-1.34a1.19,1.19,0,0,1,1.14,1.34C413.31,7.23,413,7.84,412.19,7.84Zm3.59,2.83h1.87l.11-1.21h3.12v1.21h1.78l.2-2.89h-.7V3.51h-5.3V3.8a10.89,10.89,0,0,1-.53,4h-.55Zm2.69-2.89a8.79,8.79,0,0,0,.38-2.51v-.1h1.21V7.78Zm7.9,1.83A3.12,3.12,0,0,0,429,8.4l-1.15-1a1.8,1.8,0,0,1-1.32.61,1.23,1.23,0,0,1-1.29-1h4c0-.15,0-.3,0-.43,0-1.75-.94-3.26-3-3.26a3,3,0,0,0-3,3.11A3,3,0,0,0,426.37,9.61ZM425.16,6c.11-.65.48-1.08,1-1.08a1.07,1.07,0,0,1,1,1.08Zm4.92,3.46h2.09V7.31h1.72V9.46H436v-6h-2.09V5.63h-1.72V3.51h-2.09Zm7,0H439l2-3v3h2v-6H441.1l-2,3v-3h-2Zm10,.15a3.12,3.12,0,0,0,2.58-1.21l-1.15-1a1.8,1.8,0,0,1-1.32.61,1.23,1.23,0,0,1-1.29-1h4a3.24,3.24,0,0,0,0-.43c0-1.75-1-3.26-3-3.26a3,3,0,0,0-3,3.11A3,3,0,0,0,447.09,9.61ZM445.88,6c.11-.65.48-1.08,1-1.08s1,.42,1,1.08Zm4.92,3.46h2.06V6.57l1.41,2,1.45-2V9.46h2.09v-6h-2.12L454.3,5.57l-1.38-2.06H450.8Zm11.18,0h2.09V5.2h1.63V9.46h2.09v-6H462Zm6.93,1.76H471V8.74a2.26,2.26,0,0,0,1.82.86c1.41,0,2.63-1.18,2.63-3.12s-1.22-3.1-2.64-3.1a2.19,2.19,0,0,0-1.81.93v-.8h-2.09Zm3.26-3.37A1.26,1.26,0,0,1,471,6.49a1.22,1.22,0,1,1,2.43,0A1.26,1.26,0,0,1,472.17,7.85Zm7.21,1.76a3.17,3.17,0,0,0,3.3-3.12,3.29,3.29,0,1,0-3.3,3.12Zm0-1.77a1.3,1.3,0,0,1-1.26-1.35,1.25,1.25,0,0,1,1.24-1.34,1.29,1.29,0,0,1,1.27,1.34A1.26,1.26,0,0,1,479.4,7.84Zm7.5,3.38H489v-2a2.17,2.17,0,0,0,1.15.37c1.41,0,2.41-1.14,2.41-3.08s-1-3.07-2.42-3.07a1.92,1.92,0,0,0-1.14.43V1.76H486.9V3.84a2,2,0,0,0-1.15-.43c-1.41,0-2.42,1.15-2.42,3.05s1,3.1,2.41,3.1a2.24,2.24,0,0,0,1.16-.37Zm-.51-3.34c-.68,0-1-.58-1-1.39s.32-1.39,1-1.39a1.13,1.13,0,0,1,.51.12V7.77A1.12,1.12,0,0,1,486.39,7.88Zm3.1,0a1,1,0,0,1-.5-.11V5.22a1.06,1.06,0,0,1,.5-.12c.69,0,1,.59,1,1.37S490.18,7.88,489.49,7.88Zm6.91,1.73A3.13,3.13,0,0,0,499,8.4l-1.15-1a1.8,1.8,0,0,1-1.32.61,1.23,1.23,0,0,1-1.29-1h4c0-.15,0-.3,0-.43,0-1.75-.94-3.26-3-3.26a3,3,0,0,0-3,3.11A3,3,0,0,0,496.4,9.61ZM495.19,6c.11-.65.48-1.08,1-1.08a1.06,1.06,0,0,1,1,1.08ZM503,9.61a2.94,2.94,0,0,0,2.65-1.37l-1.42-1a1.39,1.39,0,0,1-1.12.63,1.25,1.25,0,0,1-1.19-1.36,1.23,1.23,0,0,1,1.22-1.34,1.26,1.26,0,0,1,1.08.59l1.4-1a2.82,2.82,0,0,0-2.54-1.33A3.11,3.11,0,1,0,503,9.61Zm6.26,0a2.94,2.94,0,0,0,2.65-1.37l-1.42-1a1.38,1.38,0,0,1-1.12.63,1.25,1.25,0,0,1-1.19-1.36,1.24,1.24,0,0,1,2.3-.75l1.4-1a2.82,2.82,0,0,0-2.54-1.33,3.11,3.11,0,1,0-.08,6.22Zm3.39-.15h1.93l2-3v3h2v-6h-1.92l-2,3v-3h-2Zm10.09.15A3.17,3.17,0,0,0,526,6.49a3.29,3.29,0,1,0-3.3,3.12Zm0-1.77a1.3,1.3,0,0,1-1.27-1.35,1.26,1.26,0,0,1,1.25-1.34A1.29,1.29,0,0,1,524,6.49,1.26,1.26,0,0,1,522.74,7.84Zm4.16,1.62H529V7.31h1.72V9.46h2.09v-6h-2.09V5.63H529V3.51H526.9Zm8.72.14a2.26,2.26,0,0,0,1.75-.75v.61h2.07V6a2.49,2.49,0,0,0-.64-1.89,3.09,3.09,0,0,0-2.27-.72,5.91,5.91,0,0,0-2.41.46l.43,1.47A4.17,4.17,0,0,1,536.19,5c.8,0,1.19.35,1.19,1v.1A4.59,4.59,0,0,0,536,5.87c-1.4,0-2.33.64-2.33,1.87A1.81,1.81,0,0,0,535.62,9.6Zm.75-1.31a.66.66,0,0,1-.74-.65c0-.46.35-.76,1-.76a2.39,2.39,0,0,1,.81.15v.28A1,1,0,0,1,536.37,8.29ZM541,9.54c1.27,0,2.23-.61,2.23-4.21V5.17h1.1V9.46h2.09v-6h-5.13V4.66c0,3.06-.41,3.21-.78,3.21l-.34,0-.09,1.61A6.08,6.08,0,0,0,541,9.54Zm6.54-.08h3.19c1.44,0,2.37-.77,2.37-2.05s-1.05-2-2.45-2h-1V3.51h-2.09ZM549.6,8V6.73h.65c.51,0,.81.23.81.61s-.3.65-.81.65Zm4.25,1.47h2.09V7.31h1.72V9.46h2.09v-6h-2.09V5.63h-1.72V3.51h-2.09Zm10,.15a3.17,3.17,0,0,0,3.3-3.12,3.29,3.29,0,1,0-3.3,3.12Zm0-1.77a1.3,1.3,0,0,1-1.26-1.35,1.25,1.25,0,0,1,1.24-1.34,1.29,1.29,0,0,1,1.27,1.34A1.26,1.26,0,0,1,563.92,7.84Zm4.16,1.62h2.09V5.2h2.4V3.51h-4.49Zm8.2.15a3.17,3.17,0,0,0,3.3-3.12,3.29,3.29,0,1,0-3.3,3.12Zm0-1.77A1.3,1.3,0,0,1,575,6.49a1.26,1.26,0,0,1,1.25-1.34,1.29,1.29,0,0,1,1.26,1.34A1.26,1.26,0,0,1,576.3,7.84Zm8.5,1.62h2.09V5.2h1.74V3.51h-5.57V5.2h1.74Zm4.5,1.76h2.09V8.74a2.24,2.24,0,0,0,1.82.86c1.4,0,2.62-1.18,2.62-3.12s-1.22-3.1-2.64-3.1a2.17,2.17,0,0,0-1.8.93v-.8H589.3Zm3.26-3.37a1.26,1.26,0,0,1-1.21-1.36,1.22,1.22,0,1,1,2.43,0A1.26,1.26,0,0,1,592.56,7.85Zm7.12,1.76a3.15,3.15,0,0,0,2.59-1.21l-1.16-1a1.79,1.79,0,0,1-1.32.61,1.23,1.23,0,0,1-1.29-1h4c0-.15,0-.3,0-.43,0-1.75-1-3.26-3-3.26a3,3,0,0,0-3,3.11A3,3,0,0,0,599.68,9.61ZM598.47,6c.11-.65.49-1.08,1-1.08s1,.42,1,1.08Zm4.92,3.46h2.09V7.31h1.72V9.46h2.09v-6H607.2V5.63h-1.72V3.51h-2.09Zm10,.15a3.13,3.13,0,0,0,2.58-1.21l-1.15-1a1.8,1.8,0,0,1-1.32.61,1.23,1.23,0,0,1-1.29-1h4c0-.15,0-.3,0-.43,0-1.75-.94-3.26-3-3.26a3,3,0,0,0-3,3.11A3,3,0,0,0,613.36,9.61ZM612.15,6c.11-.65.48-1.08,1-1.08a1.06,1.06,0,0,1,1,1.08Zm4.92,5.22h2.09V8.74A2.22,2.22,0,0,0,621,9.6c1.41,0,2.63-1.18,2.63-3.12s-1.22-3.1-2.64-3.1a2.17,2.17,0,0,0-1.8.93v-.8h-2.09Zm3.25-3.37a1.26,1.26,0,0,1-1.21-1.36,1.23,1.23,0,1,1,2.44,0A1.26,1.26,0,0,1,620.32,7.85Zm5.89,1.75A2.26,2.26,0,0,0,628,8.85v.61H630V6a2.49,2.49,0,0,0-.63-1.89,3.09,3.09,0,0,0-2.27-.72,5.91,5.91,0,0,0-2.41.46l.43,1.47A4.17,4.17,0,0,1,626.78,5c.8,0,1.19.35,1.19,1v.1a4.59,4.59,0,0,0-1.43-.23c-1.4,0-2.33.64-2.33,1.87A1.81,1.81,0,0,0,626.21,9.6ZM627,8.29a.66.66,0,0,1-.74-.65c0-.46.35-.76,1-.76A2.39,2.39,0,0,1,628,7v.28A1,1,0,0,1,627,8.29Z"/></svg>