<svg xmlns="http://www.w3.org/2000/svg" viewBox="0 0 151.83 144.4"><defs><style>.cls-1{fill:#221f20;}.cls-2{fill:#fff;}</style></defs><title>Ресурс 2</title><g id="Слой_2" data-name="Слой 2"><g id="Слой_1-2" data-name="Слой 1"><path class="cls-1" d="M75.92,0l23,48.18,52.92,7L113.11,91.91l9.72,52.49L75.92,118.94,29,144.4l9.72-52.49L0,55.16l52.93-7Z"/><path class="cls-2" d="M58.9,57l-1.4,7.59a.39.39,0,0,1-.14.25.4.4,0,0,1-.24.07.41.41,0,0,1-.39-.39,5.13,5.13,0,0,1,.09-.67c.06-.35.13-.73.2-1.13s.16-.8.24-1.18.14-.64.17-.8A6.66,6.66,0,0,0,56.27,60a3,3,0,0,0-1.35-.29,5.51,5.51,0,0,0-2.36.5,6.52,6.52,0,0,0-1.9,1.31,9.38,9.38,0,0,0-1.48,1.9,15.38,15.38,0,0,0-1.13,2.26,21.78,21.78,0,0,0-.79,2.36c-.2.79-.37,1.54-.49,2.23a36.67,36.67,0,0,0-.5,3.75c-.09,1.25-.14,2.51-.14,3.77,0,.6,0,1.25,0,2s.09,1.44.17,2.19.21,1.51.36,2.27a18.49,18.49,0,0,0,.6,2.19,11.71,11.71,0,0,0,.9,2A6.61,6.61,0,0,0,49.45,90a4.72,4.72,0,0,0,1.09.73,2.77,2.77,0,0,0,1.3.31h.24a3.6,3.6,0,0,0,1-.09,6.48,6.48,0,0,0,1-.32l-.21-.53q-.16-.42-.36-.87c-.12-.3-.24-.58-.34-.84a2.09,2.09,0,0,1-.15-.46.38.38,0,0,1,.12-.28.39.39,0,0,1,.27-.1.37.37,0,0,1,.34.24q0,.14.24.6c.14.31.29.66.46,1.08l.57,1.31c.19.47.37.89.53,1.28s.29.74.39,1a3.37,3.37,0,0,1,.17.46.33.33,0,0,1-.14.26.44.44,0,0,1-.29.12.37.37,0,0,1-.34-.24l-1-2.34a6.69,6.69,0,0,1-1.14.39,5.19,5.19,0,0,1-1.2.14h-.27a6.46,6.46,0,0,1-3.08-.94,8.13,8.13,0,0,1-2.22-2.12A12.26,12.26,0,0,1,45,85.88a21.92,21.92,0,0,1-.9-3.29,30.24,30.24,0,0,1-.43-3.34c-.08-1.1-.12-2.1-.12-3,0-1.15,0-2.35.12-3.59A36,36,0,0,1,44.12,69,26.84,26.84,0,0,1,45,65.34,17.38,17.38,0,0,1,46.31,62a11.75,11.75,0,0,1,1.16-1.83A9.23,9.23,0,0,1,49,58.64a7.08,7.08,0,0,1,1.81-1.07,5.45,5.45,0,0,1,2.14-.42,5.61,5.61,0,0,1,2.67.65,6,6,0,0,1,2,1.83l.51-2.75a.4.4,0,0,1,.14-.22.36.36,0,0,1,.25-.1.32.32,0,0,1,.26.12.33.33,0,0,1,.12.27Zm-7,13.91-.4,3.47-.37-3.47L49,72.79,51,70.69l-1.81-.36L51,70,49,67.89l2.07,1.88.37-3.49.4,3.49,2.06-1.88L52,70l1.81.34L52,70.69l1.93,2.1ZM69,76.19a2.21,2.21,0,0,1-.53,1.49,4.46,4.46,0,0,1-1.3,1,6.92,6.92,0,0,1-1.65.61,6.72,6.72,0,0,1-1.56.21,8.74,8.74,0,0,1-1.67-.18,6.48,6.48,0,0,1-1.71-.56,4.08,4.08,0,0,1-1.35-1,2.4,2.4,0,0,1-.55-1.61,2.05,2.05,0,0,1,.58-1.49,4.62,4.62,0,0,1,1.44-1,7.31,7.31,0,0,1,1.78-.53A9.5,9.5,0,0,1,64.08,73a7,7,0,0,1,1.55.19,6,6,0,0,1,1.59.58,3.89,3.89,0,0,1,1.25,1A2.12,2.12,0,0,1,69,76.19Zm-2.2-.07a2.2,2.2,0,0,0-.67-1.82,2.86,2.86,0,0,0-1.89-.55,4,4,0,0,0-1.15.17,2.76,2.76,0,0,0-1,.48,2.19,2.19,0,0,0-.67.8,2.51,2.51,0,0,0-.26,1.16,2.2,2.2,0,0,0,.24,1,2.65,2.65,0,0,0,.62.75,3,3,0,0,0,.89.44,3.4,3.4,0,0,0,1.06.16,3.21,3.21,0,0,0,1.07-.19,3,3,0,0,0,.89-.56,2.7,2.7,0,0,0,.62-.84A2.44,2.44,0,0,0,66.78,76.12Zm13.59-.92a4.24,4.24,0,0,1-.09,1.32,3.37,3.37,0,0,1-.55,1.25,4.67,4.67,0,0,1-1.11,1.11,6,6,0,0,1-1.72.83,11.66,11.66,0,0,1-2.43.5,20.19,20.19,0,0,1-3.23,0,1,1,0,0,1-.53-.14.33.33,0,0,1-.12-.27.45.45,0,0,1,.21-.26.74.74,0,0,1,.44-.12.59.59,0,0,1,.19,0l.29.09.37.08a2.43,2.43,0,0,0,.47,0l-.94-10.82a5.74,5.74,0,0,0-.77,0,5.8,5.8,0,0,1-.74,0,.26.26,0,0,1-.12-.07l-.1-.15-.1-.18a.34.34,0,0,1,0-.13c0-.07.13-.13.38-.17a8.6,8.6,0,0,1,1-.11q.57,0,1.26-.06c.47,0,.91,0,1.32,0h1.71a10.28,10.28,0,0,1,1.57.12,5.62,5.62,0,0,1,1.4.36,2.52,2.52,0,0,1,1,.65,1.34,1.34,0,0,1,.38,1,1.28,1.28,0,0,1-.33.85,2.75,2.75,0,0,1-.84.69,5.47,5.47,0,0,1-1.12.48,5.67,5.67,0,0,1-1.25.22,7.76,7.76,0,0,1,2.08.55,4.79,4.79,0,0,1,1.27.78,2.35,2.35,0,0,1,.63.82A3.38,3.38,0,0,1,80.37,75.2Zm-2.24-4.87a1,1,0,0,0-.45-.8A3.1,3.1,0,0,0,76.62,69a4.9,4.9,0,0,0-1.28-.22,3.44,3.44,0,0,0-1.11.08V72.3h.24a4.42,4.42,0,0,0,1.11-.16,6.86,6.86,0,0,0,1.2-.44,4.22,4.22,0,0,0,1-.62A1,1,0,0,0,78.13,70.33Zm.22,4.43a1.58,1.58,0,0,0-.43-1,2.44,2.44,0,0,0-1-.61,4.4,4.4,0,0,0-1.34-.31,6.52,6.52,0,0,0-1.53,0l-.21,6.75a7.27,7.27,0,0,0,2-.33,4.12,4.12,0,0,0,1.31-.68A2.65,2.65,0,0,0,78,77.7a3.48,3.48,0,0,0,.34-1,4.5,4.5,0,0,0,.09-1C78.39,75.3,78.37,75,78.35,74.76ZM90.16,76.4a.4.4,0,0,1-.38.43L84,77.29c0,.29,0,.59-.06.89s0,.6,0,.92,0,.78.07,1.33A7.57,7.57,0,0,0,84.3,82,4.08,4.08,0,0,0,85,83.37a1.43,1.43,0,0,0,1.2.56,2,2,0,0,0,.9-.17,2.42,2.42,0,0,0,.58-.37A2.71,2.71,0,0,0,88,83a.43.43,0,0,1,.31-.17.37.37,0,0,1,.25.1.44.44,0,0,1,.09.46,1.49,1.49,0,0,1-.43.57,2.31,2.31,0,0,1-.65.41,3.28,3.28,0,0,1-.75.24,2.91,2.91,0,0,1-.68.08,3,3,0,0,1-1.92-.63A5.13,5.13,0,0,1,83,82.5a7.71,7.71,0,0,1-.75-2,9.43,9.43,0,0,1-.24-2,11.78,11.78,0,0,1,.1-1.37,14.13,14.13,0,0,1,.31-1.52A10,10,0,0,1,83,74.09a5.32,5.32,0,0,1,.8-1.26,3.92,3.92,0,0,1,1.09-.91,2.87,2.87,0,0,1,1.4-.34,3.13,3.13,0,0,1,1.35.27,3.17,3.17,0,0,1,1,.72,4.57,4.57,0,0,1,.77,1.06,8.41,8.41,0,0,1,.51,1.27c.06.25.11.5.15.76A3.18,3.18,0,0,1,90.16,76.4Zm-2.45-1c0-.24,0-.52,0-.87a4.13,4.13,0,0,0-.19-1,2.4,2.4,0,0,0-.44-.84,1,1,0,0,0-.81-.34,1.06,1.06,0,0,0-.87.52,4.64,4.64,0,0,0-.63,1.17,10.63,10.63,0,0,0-.41,1.37c-.1.46-.18.8-.22,1l3.57-.29a2.31,2.31,0,0,0,0-.37ZM83.29,67l-.4,3.47L82.52,67,80.45,68.9l1.91-2.11-1.81-.36,1.81-.34L80.45,64l2.07,1.88.37-3.49.4,3.49L85.36,64l-1.94,2.1,1.82.34-1.82.36,1.94,2.11Zm28.2,14.56a.31.31,0,0,1-.14.26.48.48,0,0,1-.27.09l-5.85-.77a.39.39,0,0,1-.36-.43.3.3,0,0,1,.16-.26.35.35,0,0,1,.3-.08l1.94.24c.12-.36.23-.73.34-1.13s.21-.8.3-1.22a10.38,10.38,0,0,0,.21-1.22,8.33,8.33,0,0,0,.09-1.18,6.45,6.45,0,0,0-.11-1.17,3,3,0,0,0-.32-1,1.88,1.88,0,0,0-.69-.71,2.06,2.06,0,0,0-1.12-.28,2.68,2.68,0,0,0-1.64.48,3.3,3.3,0,0,0-1,1.18,5.41,5.41,0,0,0-.53,1.59,9.61,9.61,0,0,0-.16,1.66c0,.82,0,1.64-.08,2.46s-.09,1.64-.12,2.44h1.9a.4.4,0,0,1,.27.11.36.36,0,0,1,.14.27.33.33,0,0,1-.12.27.34.34,0,0,1-.26.12l-5.91.07a.45.45,0,0,1-.31-.12A.34.34,0,0,1,98,83a.38.38,0,0,1,.1-.27.44.44,0,0,1,.29-.11l2.31,0c0-.75,0-1.5,0-2.24s0-1.49,0-2.24v-.91c0-.35,0-.71-.05-1.09a10.25,10.25,0,0,0-.17-1.11,3.4,3.4,0,0,0-.36-1,1.93,1.93,0,0,0-.62-.7,1.56,1.56,0,0,0-.94-.28,1.94,1.94,0,0,0-.63.11,2.1,2.1,0,0,0-.56.24,3,3,0,0,0-.89.85A4.79,4.79,0,0,0,96,75.32a6,6,0,0,0-.29,1.22,8.15,8.15,0,0,0-.09,1.19v2.91l1.58-.07a.37.37,0,0,1,.27.12.33.33,0,0,1,.14.27.41.41,0,0,1-.12.28.4.4,0,0,1-.26.1l-6.2.29a.42.42,0,0,1-.29-.12.37.37,0,0,1-.12-.27.4.4,0,0,1,.1-.28.52.52,0,0,1,.27-.15l3.33-.1-1.26-7.52-2.55.13a.43.43,0,0,1-.29-.1.35.35,0,0,1-.13-.27.37.37,0,0,1,.1-.28.3.3,0,0,1,.26-.12l4.64-.27a.41.41,0,0,1,.31.12.32.32,0,0,1,.12.26l0,1.76a4.27,4.27,0,0,1,1.23-1.56,2.81,2.81,0,0,1,1.84-.65,4.49,4.49,0,0,1,2.31.56,3.23,3.23,0,0,1,1.37,1.92,4.43,4.43,0,0,1,.54-1.09,4.21,4.21,0,0,1,.82-.86,3.6,3.6,0,0,1,1-.58A3.64,3.64,0,0,1,106,72a4.63,4.63,0,0,1,1.57.27,3.84,3.84,0,0,1,1.31.78,3.55,3.55,0,0,1,.91,1.22,3.46,3.46,0,0,1,.34,1.55,9.09,9.09,0,0,1-.39,2.62,14.5,14.5,0,0,1-1,2.46l2.41.31A.37.37,0,0,1,111.49,81.59ZM104.7,64l-.37,3.47-.4-3.47-2.07,1.89,1.94-2.13L102,63.43l1.83-.33L101.86,61l2.07,1.89.4-3.47.37,3.47L106.77,61l-1.93,2.13,1.83.33-1.83.34,1.93,2.13Z"/></g></g></svg>