<svg xmlns="http://www.w3.org/2000/svg" viewBox="0 0 177.13 157.79"><defs><style>.cls-1{fill:#ff4464;}</style></defs><title>splash</title><g id="Слой_2" data-name="Слой 2"><g id="Слой_1-2" data-name="Слой 1"><path class="cls-1" d="M27.87,22.54c2.5,5.91,7.66,9.33,12.45,13C48.55,41.82,57,47.88,65.31,54a6.79,6.79,0,0,0,1.51.64,5.39,5.39,0,0,0,.48-1.76c-.37-4-1.15-8.07-1.18-12.1-.07-10,.28-20,.28-30a76.44,76.44,0,0,0-1-8.48c-.12-1-.49-2.42,1-2.33a12.93,12.93,0,0,1,4.41,1.38,14.15,14.15,0,0,1,2.22,1.85A21,21,0,0,0,75,4.39a11.84,11.84,0,0,1-1.63,2c-.65.53-1.68.66-2.23,1.26a3,3,0,0,0-.59,2.16c0,.35,1,.53,1.5.9.83.66,2,1.27,2.31,2.15,1.43,4.09,2.4,8.35,1.33,12.66-1.75,7.08.52,12.85,5.08,18.15,1.07,1.24,1.54,3,2.23,4.56.42.92.73,1.87,1,2.58,1.8-1,4-1.44,4.93-2.79,1.14-1.58,1.28-3.9,1.75-5.92.4-1.68.54-3.42,1-5.08,1-3.87,2.25-7.69,3.16-11.58A6.89,6.89,0,0,0,94.2,22a18.25,18.25,0,0,0-1.7-2.9L95,18.81c.27-2.71.42-5.47.84-8.19.51-3.43,2.07-4.76,5.46-4.66a59.11,59.11,0,0,1,7.15.73c3.08.47,2.62,2.52,1.13,4s-2,2.78-.49,4.64a4.05,4.05,0,0,1,.86,3.07c-.92,3.82.73,7.05,2.62,9.86,3,4.44,3.38,9,2.11,13.9a31.21,31.21,0,0,0-.56,4.34c0,.12.1.26.29.71,11.34-6.67,22.82-13,36-14.88l.47.58a30,30,0,0,1-2,4.48,87.43,87.43,0,0,0-5.13,8.52c-2.18,4.48-5.33,8.52-8.26,12.6-3.23,4.51-6.7,8.85-10,13.31a2.4,2.4,0,0,0-.37,2.09,2.16,2.16,0,0,0,2,.79c4.2-1.72,8.63-1.27,13-1.41,7.36-.23,14.73-.28,22.09-.47a3.88,3.88,0,0,1,3.83,2.37c.13.25.25.52.41.77.55.82,1.72,2.22,1.58,2.37-1.6,1.65-1.67,4.63-4.61,5.15a23.51,23.51,0,0,1-10.29-.11,25.69,25.69,0,0,0-7.58-.63,10.24,10.24,0,0,0-4.39,1.66c-2.72,1.62-5.32,3.45-8.4,5.47L143,93.59a7.64,7.64,0,0,1-4.36,4.61c-3.69,1.36-7.51,2.35-11.25,3.59-1.43.47-2.75,1.24-4.14,1.84-2.27,1-4.58,1.93-6.83,3-1.79.81-2.32,2.13-1.8,4.12,1.15,4.43,1.86,9,3.26,13.33.78,2.42,2.55,4.52,3.91,6.75.22.37.72.57.9,1,2.22,4.77,4.09,9.66,4,15a4.1,4.1,0,0,1-.38,1.17l-.79.08c-.29-1.51-.59-3-.82-4.25-3.46-2-7.11-4.1-10.71-6.28-.36-.22-.43-.93-.55-1.23a28.26,28.26,0,0,1-3.65-2c-5.28-3.9-10.5-7.88-15.76-11.81a8.14,8.14,0,0,0-1.59-.54c.89,2.71,1.62,5,2.39,7.24.29.83.71,1.61,1,2.43,1.71,4.58-.53,7.42-5.49,6.95-.35,0-.69-.1-1-.15-.63,3.11-1.13,6.12-1.88,9.07a29.2,29.2,0,0,1-2.3,6.33,4.32,4.32,0,0,1-2.93,1.71c-.5.08-1.54-1.21-1.77-2C79,148.37,78,143.14,76.37,138.07a101.17,101.17,0,0,0-4.7-12c-1.19-2.6-2.41-2.61-5.44-1.55-3.68,1.28-7.51,2.12-11.21,3.37A23.84,23.84,0,0,0,48.17,131c-4.34,3.34-9.25,4.88-14.49,5.73a11.34,11.34,0,0,1-2.53-.31c7.16-10,14-19.66,20.46-28.69l-.31-3.52c-3.66,1.2-7.54,2.67-11.52,3.71-1.82.47-3.86.16-5.8.08a2.78,2.78,0,0,1-.33-1.44c2.84-1.47,3.44-4.49,4.57-7a6,6,0,0,1,3.36-3.4c2.78-1.15,5.51-2.44,8.74-3.88l-8.5-8.42-.52.32c.68,1.2,1.37,2.39,2.4,4.2-1.38-.24-2.16-.4-2.94-.5-1.82-.22-3.64-.41-5.47-.63A16.56,16.56,0,0,1,33,86.93c-5.36-1.43-10.67-3.07-16.08-4.29-4.61-1-9.33-1.59-14-2.41C.19,79.76-.11,79.1,0,75.6c.08-2.15,1.64-2.33,3.06-2.25,5.15.27,9.81-1.54,14.41-3.36,3.16-1.24,5.93-3.45,9.05-4.82a13,13,0,0,1,5.64-.77c2.23.11,4.42.83,6.65,1.09a2.38,2.38,0,0,0,2-.82c.27-.51-.08-1.52-.43-2.16-6.21-11-11.18-22.48-13.37-35a28.55,28.55,0,0,1,0-5Z"/><path class="cls-1" d="M100,142.37a13.57,13.57,0,0,1,2,2.58,67.46,67.46,0,0,1,2.85,7.26c.14.44-.68,1.22-1.12,1.8-.85,1.12-2.94,1.45-2.2,3.78l-2.6-.3,2.14-2.25-.54.07L99,142.82Z"/><path class="cls-1" d="M176.08,79.58c-1.66-1.28-2.12-2.37-.29-3.74.46-.35.49-1.43.5-2.18a5.56,5.56,0,0,0-.69-1.76C178,73.19,177.12,75.06,176.08,79.58Z"/><path class="cls-1" d="M42.46,142.23l4-1.56C44.64,143.81,44.64,143.81,42.46,142.23Z"/><path class="cls-1" d="M31,108.21l-3.71,0-.05-1,3.72-.22Z"/></g></g></svg>