<svg id="Слой_1" data-name="Слой 1" xmlns="http://www.w3.org/2000/svg" viewBox="0 0 594.24 200.72"><defs><style>.cls-1,.cls-3{fill:#ff4464;}.cls-1,.cls-4{stroke:#221f20;stroke-miterlimit:10;}.cls-1{stroke-width:2.68px;}.cls-2,.cls-4{fill:#221f20;}.cls-4{font-size:67.64px;stroke-width:2.54px;font-family:SignPainter-HouseScriptSemibold, SignPainter;font-weight:600;}.cls-5{letter-spacing:-0.01em;}.cls-6{letter-spacing:0em;}.cls-7{letter-spacing:-0.04em;}.cls-8{letter-spacing:-0.05em;}.cls-9{letter-spacing:0em;}</style></defs><title>tag</title><ellipse class="cls-1" cx="411.91" cy="149.69" rx="42.37" ry="168.45" transform="translate(234.52 545.67) rotate(-88.27)"/><path class="cls-2" d="M208.18,38.61C263.56,28.44,318,13.23,395.85,11.45S555,18.66,587.44,39.6s19.67,32.26,19.67,32.26-15.79,21.55-19.21,43.47-7.33,43.58-7.33,43.58-3.52-26-65.15-36.82-111.87-11-142.3-6.36-44.76,4-187.73,47.66c-44.6,9.85-69.49,10.51-69.49,10.51s-61.68,4-68.23,0c-4.57-2.75-3.4-14.3-3.4-14.3s4.54-48.72-9.78-74.4-19.76-38-18.94-40.93,2.37,4.1,15.77,5C81.55,52.54,152.81,48.78,208.18,38.61Z" transform="translate(-15.34 -11.23)"/><path class="cls-1" d="M74.62,51.78s-5.52-14-.9-19.27C75.47,32.5,26.46,31,18,41,6.62,54.39,74.62,51.78,74.62,51.78Z" transform="translate(-15.34 -11.23)"/><path class="cls-3" d="M59.78,79.54c3.16,9.72,5,15.68,7.49,25.18.33,1.23.84,3.32,1.41,6a54,54,0,0,1,1.14,7.67c.14,2.35.74,5.69.85,9.54a58,58,0,0,1-.61,10.59A34.53,34.53,0,0,1,65.85,151c-1.92,3.05-4.44,4.53-7.38,4.54H58c-.06-6-.12-9.3-.38-15.26a4.7,4.7,0,0,0,3.51-2.76,20,20,0,0,0,1.72-5.69,36.46,36.46,0,0,0,.35-6.36c-.06-2.26-.35-4.27-.54-6a54,54,0,0,0-1.18-6.33c-.59-2.42-1.29-5-2.06-7.55Q54,87.49,47.11,69.91c10,0,20.16-.4,30.18-1.08a590.75,590.75,0,0,1,15.45,85.53c-3.68.23-5.51.34-9.14.51A444.53,444.53,0,0,0,69.54,79C65.58,79.27,63.63,79.37,59.78,79.54Z" transform="translate(-15.34 -11.23)"/><path class="cls-3" d="M101.47,153.74A825.75,825.75,0,0,0,87.39,68.12q16.17-1.35,32.29-3c.4,3.5.67,5.58,1.23,9.91-8.34.94-12.54,1.39-20.86,2.21,1.75,9.5,2.86,15.37,4,24.42,6.76-.81,10.19-1.23,17.08-2.09a91,91,0,0,1,.5,9.12L105,110.9c.32,6.85,2.19,12.58,3.9,25.82,7.42-.72,11.2-1.11,18.75-2,.8,6.51,1.2,10,1.89,16.24C120.21,152.11,110.83,153,101.47,153.74Z" transform="translate(-15.34 -11.23)"/><path class="cls-3" d="M148.38,61.84l10.3-1.21c.46,11.31,1.28,22.61,1.86,33.92l2.87-.36a6.26,6.26,0,0,0,2.7-.88,4.67,4.67,0,0,0,1.56-1.71,7.49,7.49,0,0,0,.81-2.39,28.45,28.45,0,0,0,.34-3c.19-4,.26-6.07.42-10.12,0-.32.09-1,.13-2a24.34,24.34,0,0,1,.4-3.3,39,39,0,0,1,.92-3.82,12.19,12.19,0,0,1,1.69-3.56,11.28,11.28,0,0,1,4.32-4,16.31,16.31,0,0,1,5.62-1.54h.09c0,3.44.07,5.5.24,9.8l-.19,0a4.8,4.8,0,0,0-1.86.61,4.69,4.69,0,0,0-1.56,1.6,6.23,6.23,0,0,0-.85,2.65c-.11,1-.19,2.18-.25,3.46-.14,4-.2,6-.37,9.84,0,1-.07,2-.16,2.86s-.19,1.63-.29,2.4a8,8,0,0,1-.41,1.81A9.78,9.78,0,0,1,174,97.36c4.32,14.71,8,29.6,11.87,44.45-3.74.78-5.63,1.15-9.41,1.88-3.44-13.82-6.65-27.72-10.81-41.35l-5,.67c.59,14.32,2.49,28.61,3.88,42.87-3.75.65-5.63,1-9.4,1.55-1.47-14.35-3.42-28.72-4.29-43.13l-5.12.68c-2.84,14.42-2.2,29.65-2.74,44.26-3.86.54-5.79.8-9.66,1.28.58-15-1.7-34,3.83-48.4A8.15,8.15,0,0,1,134,98.36a7.26,7.26,0,0,1-.61-1.71c-.19-.74-.38-1.52-.58-2.33s-.38-1.82-.54-2.82c-.71-3.79-1.1-5.79-1.9-9.69-.27-1.25-.55-2.37-.83-3.36A5.45,5.45,0,0,0,128.13,76a4.51,4.51,0,0,0-2-1.21,5.75,5.75,0,0,0-2.16-.16l-.21,0c-.53-4.33-.79-6.41-1.16-9.9h.1a19.42,19.42,0,0,1,6.47.22,10.49,10.49,0,0,1,5.17,3,10.71,10.71,0,0,1,2.27,3.12,37.41,37.41,0,0,1,1.53,3.56,22.48,22.48,0,0,1,.91,3.18c.19,1,.34,1.6.43,1.91.78,4,1.17,6,1.87,9.91a28.69,28.69,0,0,0,.71,2.87,6.63,6.63,0,0,0,1.08,2.16A3.91,3.91,0,0,0,144.93,96a5.9,5.9,0,0,0,2.81.18l2.93-.37C150,84.48,149,73.17,148.38,61.84Z" transform="translate(-15.34 -11.23)"/><path class="cls-3" d="M188,141.35A564.49,564.49,0,0,1,198.35,56c3.2-.44,4.81-.67,8-1.15,5.89,25.82,11.64,51.67,16.83,77.64-3.5,1-5.25,1.45-8.77,2.4-1.46-7.57-2.39-12.36-4-20.6-5,1.05-7.5,1.55-12.54,2.48-.38,8.84-.39,14.05-.8,22.55C193.48,140.13,191.67,140.57,188,141.35Zm20-38.92c-2.25-11.06-2.73-13-5-24.65l-.19,0c-1.44,12.26-2.83,14.55-4.15,26.31C202.43,103.48,204.29,103.14,208,102.43Z" transform="translate(-15.34 -11.23)"/><path class="cls-3" d="M227.49,131.25c-1-26.58-1.1-53.09-1.12-79.69,3.92-.67,5.89-1,9.83-1.73C236,60.69,236,71.55,236,82.41l11.65-2.54c.26-10.75.45-21.5.76-32.25l9.85-1.82c-1,25.83-2.05,51.65-2.64,77.5l-8.69,2.44c.08-12.77-.14-25.56.44-38.33-4.63,1-6.94,1.59-11.56,2.65-.39,12.9.19,25.83.4,38.73Z" transform="translate(-15.34 -11.23)"/><path class="cls-3" d="M284.56,115.74c1.24-16.42,2.73-32.85,3.72-49.29l-.19,0c-5.76,17.35-10.93,34.47-15.47,52.23-3.55.91-5.31,1.38-8.82,2.33,1-25.66,2.4-51.3,3.67-76.95,3.93-.72,5.89-1.07,9.8-1.77-.94,15.3-1.81,30.61-2.9,45.91l.19,0c5.41-16,10.45-32.07,15.7-48.11,3.88-.65,5.81-1,9.65-1.55-2.05,25-4.07,50.09-6.22,75.12C290,114.46,288.17,114.88,284.56,115.74Z" transform="translate(-15.34 -11.23)"/><path class="cls-3" d="M302.46,111.81c2.28-24.86,4.31-49.73,6.46-74.6,9.38-1.3,18.83-2.35,28.25-3.29-.23,3.89-.41,6.06-.77,10.41-7.58.65-11.44,1-18.89,1.75-.85,9.22-1.43,14.56-1.95,22.13,6.49-.51,10-.71,16.63-1.14-.19,3.53-.18,4.61-.51,8-6.58.43-10,.62-16.57,1.13-.52,7.5-1.13,13-2.07,22.63,7.61-1.06,11.22-1.45,18.62-2.34-.51,4.43-.76,6.64-1.15,10.53C321.14,108.44,311.74,109.92,302.46,111.81Z" transform="translate(-15.34 -11.23)"/><path class="cls-3" d="M353.5,103.66c2.75-24,5.42-47.78,7.46-71.84,5.66-.42,8.49-.62,14.17-.95a15.92,15.92,0,0,1,7.79,1.2,11.37,11.37,0,0,1,4.87,4.29A15.3,15.3,0,0,1,389.91,43a34.11,34.11,0,0,1-.16,7.93c-.16,1.21-.24,1.8-.39,3a32,32,0,0,1-1.07,5.37,14.59,14.59,0,0,1-1.62,3.57,12.19,12.19,0,0,1-5.08,4.49A6.71,6.71,0,0,1,385.84,71c.77,1.72.93,4.25.48,7.71-.19,1.46-.29,2.21-.48,3.71-.75,5.86-2.65,10.51-5.76,13.77s-7.72,5.12-13.84,5.87C361.14,102.64,358.59,103,353.5,103.66Zm13.33-32.3c-1,7.33-1.73,12.55-2.86,21.53l4-.4a11,11,0,0,0,4.53-1.28,7.94,7.94,0,0,0,2.72-2.62,11.61,11.61,0,0,0,1.46-3.75c.31-1.42.57-3,.79-4.58a30.16,30.16,0,0,0,.3-4.3,5.7,5.7,0,0,0-.68-2.9,3.83,3.83,0,0,0-2.2-1.59,12.21,12.21,0,0,0-4-.32ZM369.66,42c-.94,9.18-1.59,14.31-2.16,21.88l4.21-.19c3.11-.14,5.25-1,6.49-2.81s2.07-4.46,2.51-8.21.18-6.52-.81-8.36-3.1-2.68-6.3-2.52Z" transform="translate(-15.34 -11.23)"/><path class="cls-3" d="M416.1,97.62c1.57-19.23,4.21-38,7.57-57-4.4,0-6.6,0-11,0,.73-4.55,1.09-6.85,1.65-11,10.59-.1,21.24.1,31.82.62-.7,4.15-1.13,6.42-2,10.9-4.38-.16-6.57-.23-11-.32a499.7,499.7,0,0,0-7.59,56.48C421.78,97.37,419.88,97.44,416.1,97.62Z" transform="translate(-15.34 -11.23)"/><path class="cls-3" d="M440.71,97c1-22.69,5.36-44.38,9.61-66.64,5.71.3,10,.56,17.75,1.23a27.64,27.64,0,0,1,8.82,2,11.78,11.78,0,0,1,5.46,4.94,13.05,13.05,0,0,1,1.58,7.64A47.31,47.31,0,0,1,481.31,57a47.22,47.22,0,0,1-3,7.25A17.78,17.78,0,0,1,474.51,69a19.45,19.45,0,0,1-6.78,4,26.54,26.54,0,0,1-9.86,1.1c-2.18-.09-3.29-.12-5.52-.18-1.23,9.24-1.64,14.47-2.13,23.23C446.36,97.05,444.5,97.05,440.71,97ZM459,41.82c-2.61,11.07-4.17,16.91-5.49,24.39,2.19,0,3.28.06,5.42.13a16.94,16.94,0,0,0,5.36-.5A7.38,7.38,0,0,0,467.5,64a8.64,8.64,0,0,0,1.92-3.11q.74-2,1.56-4.69c.51-1.68,1-3.35,1.41-5a10.59,10.59,0,0,0,.31-4.4,4.77,4.77,0,0,0-1.91-3.13,10.23,10.23,0,0,0-5.21-1.45C463,42.07,461.7,42,459,41.82Z" transform="translate(-15.34 -11.23)"/><path class="cls-3" d="M471,98.46c9.08-22.21,21.74-41.68,34.41-62,3.44.63,5.12,1,8.4,1.66-4.31,21.91-7.94,43.28-5.93,65.73-3.69-.74-5.54-1.09-9.25-1.74a121.72,121.72,0,0,1-.24-12.81c-5.08-.88-7.65-1.28-12.85-2-2.25,5-3.27,7.52-5.11,12.11C476.67,99,474.79,98.81,471,98.46Zm27.7-17.57c.54-9.11.6-12.33,2.59-22.52l-.19,0c-5.83,9.58-7.79,12.57-11.94,21.09C493,80,494.93,80.25,498.7,80.89Z" transform="translate(-15.34 -11.23)"/><path class="cls-3" d="M512.4,104.82C515.69,83,524.3,63,533,42.92c5.25,1.5,7.81,2.3,12.88,4a15.27,15.27,0,0,1,6.44,3.82,12.58,12.58,0,0,1,3.07,5.42,14.9,14.9,0,0,1,.27,6.22,26.49,26.49,0,0,1-1.79,6.21c-.37.88-.55,1.31-.89,2.16a19.56,19.56,0,0,1-1.87,3.67,11.68,11.68,0,0,1-2.08,2.25,13.86,13.86,0,0,1-5.91,2.87,9.62,9.62,0,0,1,3.21,5.65,19.4,19.4,0,0,1-.78,8.23c-.36,1.37-.54,2-.87,3.4-1.31,5.3-3.29,8.73-6.35,10.55s-7.5,1.82-13.47.34C519.91,106.46,517.41,105.88,512.4,104.82Zm15.69-25.15A167.55,167.55,0,0,0,523,98.93c1.57.38,2.35.58,3.9,1a10.65,10.65,0,0,0,4.43.39,5,5,0,0,0,2.77-1.41A7.47,7.47,0,0,0,535.75,96c.41-1.19.81-2.53,1.2-4a33,33,0,0,0,.86-4.1,7.36,7.36,0,0,0-.18-3.22,4.83,4.83,0,0,0-1.81-2.41,11.16,11.16,0,0,0-3.77-1.59C530.47,80.26,529.68,80.06,528.09,79.67Zm9.68-24.76c-3.36,7.62-4.81,10.59-7.12,17.14,1.62.38,2.43.58,4.05,1,3,.74,5.19.61,6.67-.37s2.72-2.75,3.89-5.56,1.57-5.14,1.12-7-2.1-3.25-5-4.14Z" transform="translate(-15.34 -11.23)"/><path class="cls-3" d="M550.41,114.88c1.7-20.82,10.23-40.72,18.94-59.39,9,3.58,18,7.33,27,11.09-1.73,3-2.61,4.54-4.22,7.5-7.46-2.84-11-4.21-18-6.83a106.17,106.17,0,0,0-6.72,16.33c6.15,1.93,9.24,2.94,15.54,5-1.21,3.55-1.8,5.31-2.88,8.79-6.2-2.17-9.27-3.22-15.39-5.24A124.6,124.6,0,0,0,560.31,110c7,2.39,10.53,3.66,17.52,6.32a52.1,52.1,0,0,0-.84,7.93C568.26,120.8,559.35,117.67,550.41,114.88Z" transform="translate(-15.34 -11.23)"/><text class="cls-4" transform="matrix(1, 0.03, -0.03, 1, 282.12, 159.34)"><tspan class="cls-5">Н</tspan><tspan class="cls-6" x="32.33" y="0">А </tspan><tspan class="cls-7" x="77.11" y="0">В</tspan><tspan x="105.11" y="0">РЕ</tspan><tspan class="cls-8" x="158.74" y="0">М</tspan><tspan class="cls-9" x="194.25" y="0">Я</tspan></text><path class="cls-3" d="M480.2,174.84a8.6,8.6,0,0,0,2.24,3.56c1.54,1.29-.67,4.57-.67,4.57l-4.83-1.39,1.36-7.18Z" transform="translate(-15.34 -11.23)"/></svg>