<svg id="Слой_1" data-name="Слой 1" xmlns="http://www.w3.org/2000/svg" viewBox="0 0 594.42 199.72"><defs><style>.cls-1,.cls-9{fill:#ff4464;}.cls-1,.cls-3{stroke:#221f20;stroke-miterlimit:10;}.cls-1{stroke-width:2.68px;}.cls-2,.cls-3{fill:#221f20;}.cls-3{font-size:67.64px;stroke-width:2.54px;font-family:SignPainter-HouseScriptSemibold, SignPainter;font-weight:600;}.cls-4{letter-spacing:-0.01em;}.cls-5{letter-spacing:0em;}.cls-6{letter-spacing:-0.04em;}.cls-7{letter-spacing:-0.05em;}.cls-8{letter-spacing:0em;}</style></defs><title>tag</title><ellipse class="cls-1" cx="411.91" cy="149.69" rx="42.37" ry="168.45" transform="translate(234.52 545.67) rotate(-88.27)"/><path class="cls-2" d="M208.18,38.61C263.56,28.44,318,13.23,395.85,11.45S555,18.66,587.44,39.6s19.67,32.26,19.67,32.26-15.79,21.55-19.21,43.47-7.33,43.58-7.33,43.58-3.52-26-65.15-36.82-111.87-11-142.3-6.36-44.76,4-187.73,47.66C142.47,175.34,117,175.8,117,175.8s-66.34,6.7-70.4.2-2.34-16.35-2.34-16.35,4.54-48.72-9.78-74.4-19.76-38-18.94-40.93,2.37,4.1,15.77,5C81.55,52.54,152.81,48.78,208.18,38.61Z" transform="translate(-15.34 -11.23)"/><path class="cls-2" d="M609.39,64.08S603.78,20.59,471.33,14,247.7,31.6,247.7,31.6,99.4,63.88,15.56,45.13c0,0,9.28,19.65,17.52,41.45,7,18.63,9.48,73.43,9.48,73.43s-1.32,17.71,8.1,18.63,68,2.76,141-16.36c52.44-13.73,77.48-31.08,126.68-38.81s104.43-14.64,169.93-3.74c64.52,10.74,87,21.5,93.13,37.21,0,0,7.15-46.6,12.69-61.12C599.55,81.58,612.05,70.58,609.39,64.08Z" transform="translate(-15.34 -11.23)"/><path class="cls-1" d="M74.62,51.78s-5.52-14-.9-19.27C75.47,32.5,26.46,31,18,41,6.62,54.39,74.62,51.78,74.62,51.78Z" transform="translate(-15.34 -11.23)"/><text class="cls-3" transform="matrix(1, 0.03, -0.03, 1, 282.12, 158.34)"><tspan class="cls-4">Н</tspan><tspan class="cls-5" x="32.33" y="0">А </tspan><tspan class="cls-6" x="77.11" y="0">В</tspan><tspan x="105.11" y="0">РЕ</tspan><tspan class="cls-7" x="158.74" y="0">М</tspan><tspan class="cls-8" x="194.25" y="0">Я</tspan></text><path class="cls-9" d="M480.2,174.84a8.6,8.6,0,0,0,2.24,3.56c1.54,1.29-.67,4.57-.67,4.57l-4.83-1.39,1.36-7.18Z" transform="translate(-15.34 -11.23)"/><path class="cls-9" d="M62.16,78.5c2.35,10.19,4.15,20.6,5.71,30.94.23,1.5.6,4.08,1,7.18s.69,6.08.78,8.26.81,5.06,1,8.65a51.61,51.61,0,0,1-.27,9.95,29.77,29.77,0,0,1-3.86,11.72c-1.85,2.85-4.31,4.17-7.18,4l-.48,0c-.11-5.94-.33-9.22-.91-15.14a3.74,3.74,0,0,0,3.31-2.34,16.8,16.8,0,0,0,1.43-5.31,33.68,33.68,0,0,0,.05-6c-.16-2.11-.54-3.85-.71-5.52s-.49-3.92-1-6.71-1-5.89-1.61-9.06c-2.8-14.13-5.31-28.46-10.36-42,10.73,1.26,21.46,1.79,32.24,2.26,6.08,29.26,9.48,60.22,11.91,90-3.67.13-5.49.18-9.11.24-2.52-26.74-7-54-11.55-80.47C68.4,79,66.29,78.82,62.16,78.5Z" transform="translate(-15.34 -11.23)"/><path class="cls-9" d="M102,159c-1.84-29.6-4.54-60.22-9.91-89.39,11.28,0,22.44-.32,33.71-.84a100.14,100.14,0,0,1,1.36,10.7c-8.66.52-13.1.71-21.92.9,1.22,9.81,2,19.71,2.68,29.57,7.35-.41,11.07-.67,18.37-1.27.26,4.81.37,7,.59,10-7.26.74-11,1.08-18.24,1.65.5,6.88,1.39,11.15,2.09,23.29,7.69-.5,11.56-.81,19.17-1.53,0,5.93,0,9.1-.3,14.75C118.61,157.94,113,158.4,102,159Z" transform="translate(-15.34 -11.23)"/><path class="cls-9" d="M154.94,66.3c4.16-.47,6.2-.72,10.19-1.25.7,13.07.27,26.18.2,39.26l2.55-.37a4.63,4.63,0,0,0,2.38-1,5.49,5.49,0,0,0,1.43-2,11.71,11.71,0,0,0,.84-2.77c.19-1,.36-2.2.52-3.5.48-4.73.75-7.27,1.27-12.12.07-.38.17-1.17.3-2.34a38.43,38.43,0,0,1,.65-3.92c.31-1.43.69-2.92,1.14-4.45a16.56,16.56,0,0,1,1.78-4.06,12.65,12.65,0,0,1,4.19-4.53,15.77,15.77,0,0,1,5.25-1.92l.08,0c-.23,3.63-.45,6-.92,11.12l-.16,0a3.77,3.77,0,0,0-1.64.76,5.87,5.87,0,0,0-1.52,1.93,10.27,10.27,0,0,0-1.06,3.17c-.22,1.23-.44,2.62-.65,4.15-.62,4.78-.94,7.26-1.5,11.84-.13,1.19-.27,2.32-.43,3.38s-.3,1.91-.45,2.79a13,13,0,0,1-.46,2.07,12.79,12.79,0,0,1-2.33,4.88c3.09,13.51,3.84,27.65,5.56,41.38-3.33.66-5,1-8.45,1.61-1.09-12.61-1.67-25.41-3.82-37.89l-4.37.69c-1,13-1.78,26.06-2.78,39.09-3.47.56-5.22.83-8.76,1.35,1-13,1.77-26.08,2.53-39.13-1.95.27-2.94.41-4.94.67-4.31,13-6.31,26.69-9.09,40-3.69.47-5.55.69-9.29,1.1,2.9-14.83,5.62-29.59,9.61-44.17a10.7,10.7,0,0,1-3.79-6.33c-.17-.87-.35-1.8-.51-2.76s-.33-2.18-.45-3.38c-.56-4.57-.84-7-1.47-11.72-.22-1.51-.46-2.86-.71-4a6.72,6.72,0,0,0-1.31-2.92,4.67,4.67,0,0,0-2-1.53,5.3,5.3,0,0,0-2.22-.31l-.21,0a102,102,0,0,0-1.31-10.7h.11a21.76,21.76,0,0,1,6.69.46,10.78,10.78,0,0,1,5.4,3.31,11.51,11.51,0,0,1,2.3,3.55A36.33,36.33,0,0,1,144.8,80a28.69,28.69,0,0,1,.8,3.76c.15,1.15.27,1.92.35,2.29.6,4.75.87,7.26,1.39,11.94.17,1.28.37,2.42.59,3.42a8.63,8.63,0,0,0,1,2.58,4.09,4.09,0,0,0,1.69,1.57,4.87,4.87,0,0,0,2.74.29l2.81-.35C156,92.47,156.12,79.33,154.94,66.3Z" transform="translate(-15.34 -11.23)"/><path class="cls-9" d="M184.07,148.51c4.32-30.58,11.33-60.07,19-90l7.67-1.39c2.22,27.58,5.14,54.25,9.12,81.64-3.63,1.18-5.44,1.75-9.07,2.85-1-7.22-1.47-11.77-2.44-19.6-5,1.27-7.47,1.88-12.46,3-1.14,8.45-1.69,13.39-2.83,21.44C189.46,147.38,187.32,147.85,184.07,148.51Zm22.8-37.73c-1.55-10.58-2.09-13.25-2.45-27.08l-.18,0c-2.16,9.74-4.49,19.45-6.55,29.22C201.36,112.11,203.2,111.68,206.87,110.78Z" transform="translate(-15.34 -11.23)"/><path class="cls-9" d="M224.34,137.33c.51-28.1,2.38-55.55,5.34-83.5,3.69-.64,5.54-1,9.24-1.58-1.35,12.13-2.7,24.26-3.76,36.41,4.58-1.16,6.87-1.75,11.46-2.9,1-11.83,2.32-23.63,3.72-35.42l9.26-1.52c-3.11,26.19-4.94,52.05-5.8,78.39l-9.15,3.16c.35-12,.52-23.92,1.33-35.85l-11.45,3c-.72,12.24-.83,24.52-1.12,36.78C229.78,135.51,228,136.13,224.34,137.33Z" transform="translate(-15.34 -11.23)"/><path class="cls-9" d="M284.2,117.6c.58-15.82,1.47-31.51,2.72-47.29l-.18,0c-5.26,17-10.52,33.7-15,51-3.72,1.16-5.57,1.77-9.26,3,.92-25.81,2.73-51.21,5.86-76.86,3.71-.59,5.56-.88,9.27-1.45-2.19,15.89-3.47,31.86-4.74,47.84l.18,0c6.2-16.37,10.14-33.5,16.92-49.67l9.28-1.36c-3.51,24-4.75,48.15-5.54,72.38C289.87,116.06,288,116.56,284.2,117.6Z" transform="translate(-15.34 -11.23)"/><path class="cls-9" d="M302.72,113.11c.61-24,1.67-47.82,5.22-71.58C319,40,324.53,39.28,335.67,38c-.49,3.31-.71,5.12-1.13,8.92-7.43.78-11.2,1.1-18.55,2.16-1,8.18-1.44,12.93-2.17,22.23,6.44-1,9.9-1.28,16.5-2-.25,4.2-.38,5.73-.6,9-6.62.85-10.09,1.31-16.57,2.24-.4,6.88-.43,11.9-.54,20.66,7.66-1.12,11.32-1.49,18.75-2.37-.09,4.26-.13,6.39-.23,10.14C321.66,110,312.06,111.14,302.72,113.11Z" transform="translate(-15.34 -11.23)"/><path class="cls-9" d="M354,106.29c1-23.44,1.67-47.44,4.88-70.69,5.53-.5,8.3-.72,13.88-1.13a17.45,17.45,0,0,1,7.62.85,10.46,10.46,0,0,1,4.75,3.56,12.77,12.77,0,0,1,2.23,5.73,30.22,30.22,0,0,1,.19,7.09c-.1,1.1-.14,1.65-.22,2.75a31.54,31.54,0,0,1-.75,5.14,14.46,14.46,0,0,1-1.41,3.63,11.94,11.94,0,0,1-4.94,5,6.52,6.52,0,0,1,4.37,3.55c.82,1.79,1.06,4.5.73,8.31-.14,1.61-.2,2.43-.33,4.09-.5,6.49-2.17,11.63-5.09,15.07s-7.35,5.23-13.36,5.81C361.55,105.5,359,105.75,354,106.29Zm11.25-33.5c-.79,7.5-1.08,13.13-1.56,22.58l4-.36a9.61,9.61,0,0,0,4.45-1.3,7.5,7.5,0,0,0,2.56-2.8A12.48,12.48,0,0,0,376,86.85c.23-1.54.41-3.21.54-5a36,36,0,0,0,.11-4.62,6.5,6.5,0,0,0-.8-3.06,3.86,3.86,0,0,0-2.3-1.58,12.14,12.14,0,0,0-4.08-.2Zm2-28.76c-.83,8-1.14,12.48-1.44,20.61l4.25-.3c3.14-.22,5.28-1.21,6.44-3s1.83-4.46,2.09-7.93-.11-5.91-1.15-7.51-3.13-2.29-6.29-2.08Z" transform="translate(-15.34 -11.23)"/><path class="cls-9" d="M415.11,101.67c1.18-19.84,3.45-39.77,6.31-59.43-4.5,0-6.75,0-11.22,0,.61-4,1-6,1.72-9.6,11.09-.1,22.11,0,33.21.26-1.12,3.68-1.64,5.7-2.57,9.72-4.57-.16-6.84-.22-11.38-.3a556.94,556.94,0,0,0-6.9,59C420.61,101.47,418.77,101.53,415.11,101.67Z" transform="translate(-15.34 -11.23)"/><path class="cls-9" d="M439,101.19c1.78-23.21,4.68-45.55,10.67-68.09,6.15.25,9.44.39,15.87.8a21.2,21.2,0,0,1,7.36,1.62,10.19,10.19,0,0,1,4.7,4.32,12.9,12.9,0,0,1,1.67,6.9,47.5,47.5,0,0,1-1.68,10,41.8,41.8,0,0,1-2.31,7.07,16.44,16.44,0,0,1-3.54,4.68A20.24,20.24,0,0,1,465.28,73,21.07,21.07,0,0,1,456,74.32c-2-.09-3-.12-5.09-.18-1.42,10.69-2.16,18.06-2.69,27.12C444.4,101.19,442.64,101.19,439,101.19Zm18.18-57.94a196,196,0,0,0-5,22.49c2,0,3,.06,4.92.12a14.88,14.88,0,0,0,4.95-.49A6.65,6.65,0,0,0,465,63.63a7.71,7.71,0,0,0,1.63-3c.39-1.26.78-2.74,1.19-4.44s.72-3.13,1-4.63a10,10,0,0,0,.12-4,4.43,4.43,0,0,0-1.74-2.81,8.49,8.49,0,0,0-4.52-1.19C460.47,43.39,459.36,43.34,457.14,43.25Z" transform="translate(-15.34 -11.23)"/><path class="cls-9" d="M468.87,102.28c7.76-23.21,18-43.77,30.59-64.75,3.42.52,5.12.8,8.5,1.4-2.63,22.74-4.37,45.48-2.93,68.36-3.6-.69-5.41-1-9-1.62a124.85,124.85,0,0,1-.58-14.21c-5-.87-7.58-1.27-12.7-2-2.07,6-3,9-4.56,13.68C474.46,102.77,472.6,102.59,468.87,102.28ZM495.6,81.57c.43-10.55.94-13.68,1.73-23.66l-.2,0c-4.73,9.42-7.06,12.2-11,22.19C489.93,80.61,491.83,80.91,495.6,81.57Z" transform="translate(-15.34 -11.23)"/><path class="cls-9" d="M509.44,108.17c3.8-22.57,11-43.55,18.94-65,5.73,1.39,8.56,2.14,14.14,3.77a18.65,18.65,0,0,1,7.19,3.65,13.21,13.21,0,0,1,3.71,5.09,13.05,13.05,0,0,1,.89,5.9A22.42,22.42,0,0,1,553,67.79l-.85,2.28a20.41,20.41,0,0,1-2,4.16,9.1,9.1,0,0,1-2.45,2.62,19.09,19.09,0,0,1-6.51,2.67A8.86,8.86,0,0,1,544,85.36a26.14,26.14,0,0,1-1.26,9.07c-.43,1.56-.63,2.34-1,3.89-1.5,6.07-3.55,10-6.66,12s-7.53,2-13.38.6C516.78,109.72,514.34,109.18,509.44,108.17Zm16-28.49a132.26,132.26,0,0,0-5.61,21.95c1.55.37,2.32.56,3.87,1a9.37,9.37,0,0,0,4.42.27,5.23,5.23,0,0,0,2.79-1.7,9.52,9.52,0,0,0,1.76-3.36c.45-1.38.89-2.93,1.34-4.63s.81-3.32,1-4.66A8.93,8.93,0,0,0,535,85a4.66,4.66,0,0,0-1.73-2.57,10.49,10.49,0,0,0-3.8-1.67Zm9.23-25.34c-2.59,7.22-3.1,11.76-6.08,17.73,1.69.4,2.53.6,4.21,1,3.1.76,5.47.63,7.08-.57s2.93-3.24,4-6.17,1.19-5.21.52-7-2.58-3.13-5.76-4Z" transform="translate(-15.34 -11.23)"/><path class="cls-9" d="M546.87,117.64C549.53,95.58,559,75.71,567.8,55.58a252.56,252.56,0,0,1,26.09,11.81,70.6,70.6,0,0,0-3.63,6.41c-6.64-3-10.06-4.43-17-7.14-2.91,6.65-4.11,10.15-7.65,17.18,5.91,2,8.81,3,14.49,5.1a58,58,0,0,0-3.44,8.81c-5.78-2.17-8.71-3.22-14.65-5.26A107,107,0,0,0,557,112.27c7,2.29,10.54,3.5,17.59,6-.42,3.55-.55,5.22-.67,8C565,123.22,556,120.31,546.87,117.64Z" transform="translate(-15.34 -11.23)"/></svg>