<svg xmlns="http://www.w3.org/2000/svg" viewBox="0 0 266 266"><defs><style>.cls-1{fill:#ff4464;stroke:#000;stroke-width:4px;}.cls-2{fill:#fff;}</style></defs><title>Ресурс 17</title><g id="Слой_2" data-name="Слой 2"><g id="Слой_1-2" data-name="Слой 1"><circle class="cls-1" cx="133" cy="133" r="131"/><path class="cls-2" d="M58,87.31a5.91,5.91,0,0,0,1-.09,1.5,1.5,0,0,0,.84-.39,3.2,3.2,0,0,0,.51-.75,6.33,6.33,0,0,0,.54-1.5l.27-1.17L56.47,68.83h3.24l2.88,10h.06l2.25-10h3.24L63.7,85.06a23.15,23.15,0,0,1-.9,2.61,4.52,4.52,0,0,1-1.35,1.83,3.08,3.08,0,0,1-1.53.72,9.25,9.25,0,0,1-1.74.15h-.42V87.31Zm11.8-18.48h8.76v2.88h-5.7v5.88H74a7.16,7.16,0,0,1,2.64.42,4.24,4.24,0,0,1,1.74,1.2A4,4,0,0,1,79.28,81a13.48,13.48,0,0,1,.21,2.13v1.2a6.16,6.16,0,0,1-1.38,4.32,5.59,5.59,0,0,1-4.35,1.5h-4Zm3.06,11.46v6.84H74a3.13,3.13,0,0,0,1.44-.27,1.85,1.85,0,0,0,.81-.75A2.82,2.82,0,0,0,76.55,85q.06-.66.06-1.44a7.27,7.27,0,0,0-.12-1.41,2.14,2.14,0,0,0-.39-1,2,2,0,0,0-.78-.6A3.37,3.37,0,0,0,74,80.29Zm9.07,9.9V68.83H91v2.88H85V78h5.28v2.88H85v6.27H91v3.06Zm12.66,0v3.3H91.92v-6h1.56A11.57,11.57,0,0,0,94,86.2q.24-.75.42-1.56T94.74,83q.15-.87.24-1.68.06-.63.09-1.41t.09-1.59q0-.84,0-1.65t0-1.59V68.83H104V87.49h1.74v6h-2.64v-3.3ZM98.1,71.53V75q0,.42,0,1.23T98,78q-.06.93-.12,1.89t-.15,1.65q-.06.6-.21,1.38t-.3,1.56q-.18.81-.39,1.62a10.55,10.55,0,0,1-.48,1.41H101v-16Zm16.34,18.66V76.33h-.06l-4,13.86H107.3V68.83h3.06V82.72h.06l4-13.89h3.06V90.19Zm7.94,0V71.71h-3.54V68.83H129v2.88h-3.54V90.19Zm8,0V68.83h9.12v2.88h-6.06V78h5.28v2.88h-5.28v6.27h6.06v3.06Zm20.82-6.09v1.32a4.7,4.7,0,0,1-.39,1.89,5,5,0,0,1-1,1.56A5.15,5.15,0,0,1,148.18,90a4.57,4.57,0,0,1-1.89.39,6.85,6.85,0,0,1-1.77-.24,4.19,4.19,0,0,1-1.62-.84,4.86,4.86,0,0,1-1.2-1.53,5.73,5.73,0,0,1-.45-2.43V73.57a5.2,5.2,0,0,1,.36-1.95A4.55,4.55,0,0,1,144.19,69a5.22,5.22,0,0,1,2-.39,4.64,4.64,0,0,1,3.51,1.41,4.79,4.79,0,0,1,1,1.65,5.22,5.22,0,0,1,.39,2V75h-3.06v-1a2.48,2.48,0,0,0-.51-1.56,1.65,1.65,0,0,0-1.38-.66,1.58,1.58,0,0,0-1.53.72,3.82,3.82,0,0,0-.36,1.77V85.12a2.91,2.91,0,0,0,.39,1.56,1.63,1.63,0,0,0,1.47.63,2.39,2.39,0,0,0,.63-.09,2.12,2.12,0,0,0,.66-.36,1.83,1.83,0,0,0,.45-.66,2.67,2.67,0,0,0,.18-1V84.1Zm2.5-15.27h3.06v8.76h1.14a6.73,6.73,0,0,1,2.64.45,4.24,4.24,0,0,1,1.74,1.2,4,4,0,0,1,.87,1.8,10,10,0,0,1,.21,2.13v1.2a6.16,6.16,0,0,1-1.38,4.32,5.59,5.59,0,0,1-4.35,1.5h-3.93Zm3.06,11.46v6.84h1.08a3.13,3.13,0,0,0,1.44-.27,1.85,1.85,0,0,0,.81-.75,2.82,2.82,0,0,0,.33-1.14q.06-.66.06-1.44a4.53,4.53,0,0,0-.51-2.43,1.65,1.65,0,0,0-.78-.6,3.37,3.37,0,0,0-1.32-.21Zm8.83,12.12V87.13h3.06v3.06Zm20.67-2.22h-3.06V80.71l-.6.09q-.36,0-1,0a7,7,0,0,1-2-.3,4,4,0,0,1-1.65-.93,3.89,3.89,0,0,1-1-1.62,7.2,7.2,0,0,1-.3-2.1v-7h3.06v6.69a4.44,4.44,0,0,0,.12,1,1.71,1.71,0,0,0,.45.84A2.32,2.32,0,0,0,182,78h.48l.39-.06.33-.06v-9h3.06Zm4.9,0V71.71h-3.54V68.83h10.14v2.88h-3.54V90.19Zm7.42-16.32a5.46,5.46,0,0,1,.45-2.28,4.82,4.82,0,0,1,1.2-1.65,5.11,5.11,0,0,1,1.62-1,5.53,5.53,0,0,1,1.86-.33,5.28,5.28,0,0,1,1.83.33,5.4,5.4,0,0,1,1.68,1,5,5,0,0,1,1.17,1.65,5.46,5.46,0,0,1,.45,2.28V85.15a5.41,5.41,0,0,1-.45,2.31,4.77,4.77,0,0,1-1.17,1.59,5.11,5.11,0,0,1-1.68,1,5.28,5.28,0,0,1-1.83.33A5.53,5.53,0,0,1,201.8,90a4.85,4.85,0,0,1-1.62-1,4.58,4.58,0,0,1-1.2-1.59,5.41,5.41,0,0,1-.45-2.31Zm3.06,11.28a2.11,2.11,0,0,0,.6,1.65,2.27,2.27,0,0,0,1.47.51,2.15,2.15,0,0,0,1.44-.51,2.06,2.06,0,0,0,.63-1.65V73.87a2,2,0,0,0-.63-1.62,2.08,2.08,0,0,0-1.44-.54,2.19,2.19,0,0,0-1.47.54,2,2,0,0,0-.6,1.62Zm-158.27,37V100.83h4.47a6.16,6.16,0,0,1,2.49.45,4.7,4.7,0,0,1,1.71,1.2,4.31,4.31,0,0,1,.93,1.74,6.7,6.7,0,0,1,.3,2V107a6.16,6.16,0,0,1-.15,1.47,3.27,3.27,0,0,1-.39,1A4.21,4.21,0,0,1,51.12,111a3.32,3.32,0,0,1,1.59,1.5,6,6,0,0,1,.51,2.7v1.2a6.16,6.16,0,0,1-1.38,4.32,5.59,5.59,0,0,1-4.35,1.5Zm3.06-9.9v6.84H47.7a3.13,3.13,0,0,0,1.44-.27,1.85,1.85,0,0,0,.81-.75,2.82,2.82,0,0,0,.33-1.14q.06-.66.06-1.44a9.63,9.63,0,0,0-.09-1.41,2.57,2.57,0,0,0-.36-1,1.64,1.64,0,0,0-.81-.6,3.61,3.61,0,0,0-1.35-.21Zm0-8.58v5.88h1.38a2.32,2.32,0,0,0,2-.75,3.94,3.94,0,0,0,.54-2.25,3.31,3.31,0,0,0-.6-2.16,2.56,2.56,0,0,0-2.1-.72Zm9.71-2.88h3.06v8.76h1.14a6.73,6.73,0,0,1,2.64.45,4.24,4.24,0,0,1,1.74,1.2,4,4,0,0,1,.87,1.8,13.48,13.48,0,0,1,.21,2.13v1.2a6.16,6.16,0,0,1-1.38,4.32,5.59,5.59,0,0,1-4.35,1.5H56.09Zm3.06,11.46v6.84h1.08a3.13,3.13,0,0,0,1.44-.27,1.85,1.85,0,0,0,.81-.75,2.82,2.82,0,0,0,.33-1.14q.06-.66.06-1.44a9,9,0,0,0-.09-1.38,2.54,2.54,0,0,0-.36-1,1.82,1.82,0,0,0-.81-.63,3.2,3.2,0,0,0-1.35-.24Zm8.16,9.9V100.83h3.06v21.36Zm6-21.36H82v2.88h-5.7v5.88h1.2a7.16,7.16,0,0,1,2.64.42,4.24,4.24,0,0,1,1.74,1.2,4,4,0,0,1,.87,1.83,13.48,13.48,0,0,1,.21,2.13v1.2a6.16,6.16,0,0,1-1.38,4.32,5.59,5.59,0,0,1-4.35,1.5h-4Zm3.06,11.46v6.84h1.14a3.13,3.13,0,0,0,1.44-.27,1.85,1.85,0,0,0,.81-.75A2.82,2.82,0,0,0,80,117q.06-.66.06-1.44a7.27,7.27,0,0,0-.12-1.41,2.14,2.14,0,0,0-.39-1,2,2,0,0,0-.78-.6,3.37,3.37,0,0,0-1.32-.21Zm9.07,9.9V100.83H90a6.82,6.82,0,0,1,2.22.33,4.26,4.26,0,0,1,1.74,1.17,4.57,4.57,0,0,1,1.08,2,12.1,12.1,0,0,1,.3,3,13.87,13.87,0,0,1-.18,2.43,4.88,4.88,0,0,1-.69,1.86,4.58,4.58,0,0,1-1.68,1.65,5.78,5.78,0,0,1-2.76.57H88.45v8.34Zm3.06-18.48V111h1.47a3.13,3.13,0,0,0,1.44-.27,1.7,1.7,0,0,0,.75-.75,2.59,2.59,0,0,0,.27-1.11q.06-.66.06-1.47t0-1.41a3.12,3.12,0,0,0-.27-1.2,1.7,1.7,0,0,0-.72-.78,2.86,2.86,0,0,0-1.38-.27Zm14.22,11-1.5-7.74h-.06l-1.5,7.74Zm-7.56,7.47,4.77-21.36h2.55l4.77,21.36h-3.06l-.9-4.59H99.07l-.9,4.59Zm13.6,0V100.83h3.06V110h3.78v-9.15h3.06v21.36h-3.06v-9.51h-3.78v9.51Zm12.77,0V100.83h3.06V110h3.78v-9.15h3.06v21.36h-3.06v-9.51h-3.78v9.51Zm12.59-16.32a5.46,5.46,0,0,1,.45-2.28,4.82,4.82,0,0,1,1.2-1.65,5.11,5.11,0,0,1,1.62-1,5.53,5.53,0,0,1,1.86-.33A5.28,5.28,0,0,1,141,101a5.4,5.4,0,0,1,1.68,1,5,5,0,0,1,1.17,1.65,5.46,5.46,0,0,1,.45,2.28v11.28a5.41,5.41,0,0,1-.45,2.31,4.77,4.77,0,0,1-1.17,1.59,5.11,5.11,0,0,1-1.68,1,5.28,5.28,0,0,1-1.83.33,5.53,5.53,0,0,1-1.86-.33,4.85,4.85,0,0,1-1.62-1,4.58,4.58,0,0,1-1.2-1.59,5.41,5.41,0,0,1-.45-2.31Zm3.06,11.28a2.11,2.11,0,0,0,.6,1.65,2.27,2.27,0,0,0,1.47.51,2.15,2.15,0,0,0,1.44-.51,2.06,2.06,0,0,0,.63-1.65V105.87a2,2,0,0,0-.63-1.62,2.08,2.08,0,0,0-1.44-.54,2.19,2.19,0,0,0-1.47.54,2,2,0,0,0-.6,1.62Zm9.9,5V100.83h9.12v2.88h-6.06V110h5.28v2.88h-5.28v6.27h6.06v3.06Zm16.67,0V100.83h2.94l3.93,11.31h.06l3.9-11.31h3v21.36h-3.06v-13h-.06l-3,9.18h-1.53l-3-9.18h-.06v13Zm16.67,0V100.83h9.12v2.88h-6.06V110h5.28v2.88h-5.28v6.27h6.06v3.06Zm20.82-6.09v1.32a4.7,4.7,0,0,1-.39,1.89,5,5,0,0,1-1,1.56,5.15,5.15,0,0,1-1.56,1.11,4.57,4.57,0,0,1-1.89.39,6.85,6.85,0,0,1-1.77-.24,4.19,4.19,0,0,1-1.62-.84,4.86,4.86,0,0,1-1.2-1.53,5.73,5.73,0,0,1-.45-2.43V105.57a5.2,5.2,0,0,1,.36-1.95,4.55,4.55,0,0,1,2.58-2.58,5.22,5.22,0,0,1,2-.39,4.64,4.64,0,0,1,3.51,1.41,4.79,4.79,0,0,1,1,1.65,5.22,5.22,0,0,1,.39,2V107h-3.06v-1a2.48,2.48,0,0,0-.51-1.56,1.65,1.65,0,0,0-1.38-.66,1.58,1.58,0,0,0-1.53.72,3.82,3.82,0,0,0-.36,1.77v10.92a2.91,2.91,0,0,0,.39,1.56,1.63,1.63,0,0,0,1.47.63,2.39,2.39,0,0,0,.63-.09,2.12,2.12,0,0,0,.66-.36,1.83,1.83,0,0,0,.45-.66,2.67,2.67,0,0,0,.18-1V116.1Zm4.21,6.09V103.71h-3.54v-2.88H212v2.88h-3.55v18.48Zm7.42-16.32a5.46,5.46,0,0,1,.45-2.28,4.82,4.82,0,0,1,1.2-1.65,5.11,5.11,0,0,1,1.62-1,5.53,5.53,0,0,1,1.86-.33,5.28,5.28,0,0,1,1.83.33,5.4,5.4,0,0,1,1.68,1,5,5,0,0,1,1.17,1.65,5.46,5.46,0,0,1,.45,2.28v11.28a5.41,5.41,0,0,1-.45,2.31,4.77,4.77,0,0,1-1.17,1.59,5.11,5.11,0,0,1-1.68,1,5.28,5.28,0,0,1-1.83.33,5.53,5.53,0,0,1-1.86-.33,4.85,4.85,0,0,1-1.62-1,4.58,4.58,0,0,1-1.2-1.59,5.41,5.41,0,0,1-.45-2.31Zm3.06,11.28a2.11,2.11,0,0,0,.6,1.65,2.27,2.27,0,0,0,1.47.51,2.15,2.15,0,0,0,1.44-.51,2.06,2.06,0,0,0,.63-1.65V105.87a2,2,0,0,0-.63-1.62,2.08,2.08,0,0,0-1.44-.54,2.19,2.19,0,0,0-1.47.54,2,2,0,0,0-.6,1.62Zm-171.47,37V132.83h3.07V142h3.78v-9.15h3.06v21.36H51.26v-9.51H47.48v9.51Zm12.78,0V132.83h9.12v2.88H60.25V142h5.28v2.88H60.25v6.27h6.06v3.06Zm16.28-16a6.86,6.86,0,0,1,.36-2A5.19,5.19,0,0,1,75,134.24a6.26,6.26,0,0,1,1.56-1.14,4.31,4.31,0,0,1,2-.45,5.12,5.12,0,0,1,2.31.48,4.36,4.36,0,0,1,1.62,1.23,4.84,4.84,0,0,1,1,1.86,8.48,8.48,0,0,1,.3,2.28q0,.6,0,1.23a4.61,4.61,0,0,1-.24,1.23,3.23,3.23,0,0,1-.63,1.14,4,4,0,0,1-1.23,1,3.1,3.1,0,0,1,1.86,2,5.07,5.07,0,0,1,.24,1.41q0,.75,0,1.56a10.12,10.12,0,0,1-.3,2.52,4.55,4.55,0,0,1-.93,1.95,5.23,5.23,0,0,1-1.68,1.29,5.34,5.34,0,0,1-2.46.51,5.45,5.45,0,0,1-2.07-.39,4.92,4.92,0,0,1-1.65-1.08,4.44,4.44,0,0,1-1-1.77,6.8,6.8,0,0,1-.36-2.16v-.81h3.06l0,.84a4,4,0,0,0,.09.84,2.43,2.43,0,0,0,.36.72,1.85,1.85,0,0,0,.63.54,2.07,2.07,0,0,0,1,.21,1.85,1.85,0,0,0,1.8-.84,4.85,4.85,0,0,0,.48-2.34q0-.84-.06-1.56a2.84,2.84,0,0,0-.3-1.17,1.91,1.91,0,0,0-1.8-.93H77.37v-2.7h1.26a2.38,2.38,0,0,0,1-.21,1.57,1.57,0,0,0,.72-.72,2.81,2.81,0,0,0,.27-1.14q.06-.66.06-1.17a6,6,0,0,0-.09-1.05,2.56,2.56,0,0,0-.33-.93,1.94,1.94,0,0,0-1.68-.84,2,2,0,0,0-1,.21,1.94,1.94,0,0,0-.6.54,2.33,2.33,0,0,0-.39.93,5.38,5.38,0,0,0-.12,1.11V139H73.47Zm18.79,8.49L90.76,139H90.7l-1.5,7.74Zm-7.56,7.47,4.76-21.36H92l4.78,21.36H93.73l-.91-4.59H88.65l-.89,4.59Zm13.59,0V132.83h3.06V142h3.78v-9.15h3.06v21.36h-3.06v-9.51h-3.78v9.51Zm18.06-18.48a2.27,2.27,0,0,0-2.13.87,5.05,5.05,0,0,0-.48,2.46,10.28,10.28,0,0,0,.09,1.44,2.92,2.92,0,0,0,.33,1,1.86,1.86,0,0,0,.75.66,3.27,3.27,0,0,0,1.29.21h1.47v-6.66Zm1.32,18.48v-9.12h-1.41l-2.67,9.12h-3.12l2.91-9.51a3.5,3.5,0,0,1-1.26-.81,4.43,4.43,0,0,1-.87-1.23,5.32,5.32,0,0,1-.45-1.62,15,15,0,0,1-.12-1.92q0-6.27,5.4-6.27h4.65v21.36Zm10.46-18.66v6.21q0,.48,0,1.65c0,.76-.06,1.6-.14,2.52s-.2,1.83-.36,2.73a9.59,9.59,0,0,1-.67,2.25,6.55,6.55,0,0,1-1.83,2.43,4.22,4.22,0,0,1-2.7.87h-.17v-3.06a2.19,2.19,0,0,0,1.4-.54,3.66,3.66,0,0,0,.85-1.2,7.93,7.93,0,0,0,.42-1.53c.11-.6.2-1.24.26-1.92s.1-1.38.13-2.1,0-1.41,0-2.07v-8.94h8.88v21.36h-3.07V135.53Zm16.09,18.66V140.33h-.06l-4,13.86h-3.06V132.83h3.06v13.89h.06l4-13.89h3.06v21.36Zm12.75,0v3.3h-2.64v-6h1.56a11.57,11.57,0,0,0,.51-1.29q.24-.75.42-1.56t.33-1.65q.15-.87.24-1.68.06-.63.09-1.41t.09-1.59q0-.84,0-1.65t0-1.59v-6.24h8.79v18.66h1.74v6h-2.64v-3.3Zm3.54-18.66V139q0,.42,0,1.23t-.09,1.71q-.06.93-.12,1.89t-.15,1.65q-.06.6-.21,1.38t-.3,1.56q-.18.81-.39,1.62a10.55,10.55,0,0,1-.48,1.41h4.62v-16Zm9,2.34a5.46,5.46,0,0,1,.45-2.28,4.82,4.82,0,0,1,1.2-1.65,5.11,5.11,0,0,1,1.62-1,5.53,5.53,0,0,1,1.86-.33,5.28,5.28,0,0,1,1.83.33,5.4,5.4,0,0,1,1.68,1,5,5,0,0,1,1.17,1.65,5.46,5.46,0,0,1,.45,2.28v11.28a5.41,5.41,0,0,1-.45,2.31,4.77,4.77,0,0,1-1.17,1.59,5.11,5.11,0,0,1-1.68,1,5.28,5.28,0,0,1-1.83.33,5.53,5.53,0,0,1-1.86-.33,4.85,4.85,0,0,1-1.62-1,4.58,4.58,0,0,1-1.2-1.59,5.41,5.41,0,0,1-.45-2.31Zm3.06,11.28a2.11,2.11,0,0,0,.6,1.65,2.27,2.27,0,0,0,1.47.51,2.15,2.15,0,0,0,1.44-.51,2.06,2.06,0,0,0,.63-1.65V137.87a2,2,0,0,0-.63-1.62,2.08,2.08,0,0,0-1.44-.54,2.19,2.19,0,0,0-1.47.54,2,2,0,0,0-.6,1.62Zm15.46,5V132.83h4.47a6.16,6.16,0,0,1,2.49.45,4.7,4.7,0,0,1,1.71,1.2,4.31,4.31,0,0,1,.93,1.74,6.7,6.7,0,0,1,.3,2V139a6.16,6.16,0,0,1-.15,1.47,3.27,3.27,0,0,1-.39,1.05,4.21,4.21,0,0,1-1.56,1.44,3.32,3.32,0,0,1,1.59,1.5,6,6,0,0,1,.51,2.7v1.2a6.16,6.16,0,0,1-1.38,4.32,5.59,5.59,0,0,1-4.35,1.5Zm3.06-9.9v6.84h1.32a3.13,3.13,0,0,0,1.44-.27,1.85,1.85,0,0,0,.81-.75A2.82,2.82,0,0,0,195,149q.06-.66.06-1.44a9.63,9.63,0,0,0-.09-1.41,2.57,2.57,0,0,0-.36-1,1.64,1.64,0,0,0-.81-.6,3.61,3.61,0,0,0-1.35-.21Zm0-8.58v5.88h1.38a2.32,2.32,0,0,0,2-.75,3.94,3.94,0,0,0,.54-2.25,3.31,3.31,0,0,0-.6-2.16,2.56,2.56,0,0,0-2.1-.72Zm15.3,11-1.5-7.74h-.06l-1.5,7.74Zm-7.56,7.47,4.78-21.36h2.54L211,154.19h-3.06l-.9-4.59h-4.16l-.91,4.59Zm23.32-6.09v1.32a4.7,4.7,0,0,1-.39,1.89,5,5,0,0,1-1,1.56,5.15,5.15,0,0,1-1.56,1.11,4.57,4.57,0,0,1-1.89.39,6.85,6.85,0,0,1-1.77-.24,4.19,4.19,0,0,1-1.62-.84,4.86,4.86,0,0,1-1.2-1.53,5.73,5.73,0,0,1-.45-2.43V137.57a5.2,5.2,0,0,1,.36-1.95,4.55,4.55,0,0,1,2.58-2.58,5.22,5.22,0,0,1,2-.39,4.64,4.64,0,0,1,3.51,1.41,4.79,4.79,0,0,1,1,1.65,5.22,5.22,0,0,1,.39,2V139h-3.06v-1a2.48,2.48,0,0,0-.51-1.56,1.65,1.65,0,0,0-1.38-.66,1.58,1.58,0,0,0-1.53.72,3.82,3.82,0,0,0-.36,1.77v10.92a2.91,2.91,0,0,0,.39,1.56,1.63,1.63,0,0,0,1.47.63,2.39,2.39,0,0,0,.63-.09,2.12,2.12,0,0,0,.66-.36,1.83,1.83,0,0,0,.45-.66,2.67,2.67,0,0,0,.18-1V148.1ZM58.33,186.19V164.83h2.94l3.93,11.31h.06l3.9-11.31h3v21.36H69.07v-13H69l-3,9.18H64.45l-3-9.18h-.06v13Zm17-2.88a5.91,5.91,0,0,0,1-.09,1.5,1.5,0,0,0,.84-.39,3.2,3.2,0,0,0,.51-.75,6.33,6.33,0,0,0,.54-1.5l.27-1.17-4.62-14.58H77.1l2.88,10H80l2.25-10h3.24l-4.44,16.23a23.15,23.15,0,0,1-.9,2.61,4.52,4.52,0,0,1-1.35,1.83,3.08,3.08,0,0,1-1.53.72,9.25,9.25,0,0,1-1.74.15h-.42v-3.06Zm11.8,2.88V164.83h4.59a6.82,6.82,0,0,1,2.22.33,4.26,4.26,0,0,1,1.74,1.17,4.57,4.57,0,0,1,1.08,2,12.1,12.1,0,0,1,.3,3,13.87,13.87,0,0,1-.18,2.43,4.88,4.88,0,0,1-.69,1.86,4.58,4.58,0,0,1-1.68,1.65,5.78,5.78,0,0,1-2.76.57H90.22v8.34Zm3.06-18.48V175h1.47a3.13,3.13,0,0,0,1.44-.27,1.7,1.7,0,0,0,.75-.75,2.59,2.59,0,0,0,.27-1.11q.06-.66.06-1.47t0-1.41a3.12,3.12,0,0,0-.27-1.2,1.7,1.7,0,0,0-.72-.78,2.86,2.86,0,0,0-1.38-.27Zm14.22,11-1.5-7.74h-.06l-1.5,7.74Zm-7.56,7.47,4.77-21.36h2.55L109,186.19h-3.06l-.9-4.59h-4.17l-.9,4.59Zm13.6,0V164.83H115a6.16,6.16,0,0,1,2.49.45,4.7,4.7,0,0,1,1.71,1.2,4.31,4.31,0,0,1,.93,1.74,6.7,6.7,0,0,1,.3,2V171a6.16,6.16,0,0,1-.15,1.47,3.27,3.27,0,0,1-.39,1.05,4.21,4.21,0,0,1-1.56,1.44,3.32,3.32,0,0,1,1.59,1.5,6,6,0,0,1,.51,2.7v1.2a6.16,6.16,0,0,1-1.38,4.32,5.59,5.59,0,0,1-4.35,1.5Zm3.06-9.9v6.84h1.32a3.13,3.13,0,0,0,1.44-.27,1.85,1.85,0,0,0,.81-.75,2.82,2.82,0,0,0,.33-1.14q.06-.66.06-1.44a9.63,9.63,0,0,0-.09-1.41,2.57,2.57,0,0,0-.36-1,1.64,1.64,0,0,0-.81-.6,3.61,3.61,0,0,0-1.35-.21Zm0-8.58v5.88h1.38a2.32,2.32,0,0,0,2-.75,3.94,3.94,0,0,0,.54-2.25,3.31,3.31,0,0,0-.6-2.16,2.56,2.56,0,0,0-2.1-.72Zm9.71-2.88h3.06v8.76h1.14a6.73,6.73,0,0,1,2.64.45,4.24,4.24,0,0,1,1.74,1.2,4,4,0,0,1,.87,1.8,10,10,0,0,1,.21,2.13v1.2a6.16,6.16,0,0,1-1.38,4.32,5.59,5.59,0,0,1-4.35,1.5h-3.93Zm3.06,11.46v6.84h1.08a3.13,3.13,0,0,0,1.44-.27,1.85,1.85,0,0,0,.81-.75A2.82,2.82,0,0,0,130,181q.06-.66.06-1.44a4.53,4.53,0,0,0-.51-2.43,1.65,1.65,0,0,0-.78-.6,3.37,3.37,0,0,0-1.32-.21Zm16.15,9.9V172.33h-.06l-4,13.86h-3.06V164.83h3.06v13.89h.06l4-13.89h3.06v21.36Zm9-21.36v18.66h3.09V164.83h3.06v18.66h3.09V164.83h3.06v21.36H148.39V164.83Zm25.87,2.88a1.71,1.71,0,0,0-.69.12,1.2,1.2,0,0,0-.51.36,1.47,1.47,0,0,0-.33.66,8.67,8.67,0,0,0-.15.87l-.27,2.49a7.07,7.07,0,0,1-.09.72q-.06.3-.12.63a2.14,2.14,0,0,1-.18.54,3.11,3.11,0,0,1-.45.75,2.72,2.72,0,0,1-.48.48l3.18,10.86h-3.12l-2.7-9.51H169.7v9.51h-3.06V164.83h3.06V174h1a2.12,2.12,0,0,0,.87-.15,1.41,1.41,0,0,0,.54-.42,1.69,1.69,0,0,0,.3-.6,7.73,7.73,0,0,0,.15-.78l.3-2.55a3.7,3.7,0,0,0,.06-.48q.06-.39.18-.87a7.18,7.18,0,0,1,.33-1,4.54,4.54,0,0,1,.54-1,3.12,3.12,0,0,1,1.38-1,5.31,5.31,0,0,1,1.95-.33Zm8.88,18.48V172.33h-.06l-4,13.86h-3.06V164.83h3.06v13.89h.06l4-13.89h3.06v21.36Zm18.64,0V172.33h-.06l-4,13.86H197.7V164.83h3.06v13.89h.06l4-13.89h3.06v21.36ZM103.52,196.83h3.06V206h.9a1.91,1.91,0,0,0,.84-.15,1.18,1.18,0,0,0,.51-.42,1.69,1.69,0,0,0,.3-.6,7.73,7.73,0,0,0,.15-.78l.3-2.55a3.7,3.7,0,0,0,.06-.48,8,8,0,0,1,.18-.84q.15-.48.36-1a3.3,3.3,0,0,1,.57-1,3.44,3.44,0,0,1,1.38-1.08,5.09,5.09,0,0,1,1.83-.3h0v2.88h-.06a1.68,1.68,0,0,0-.63.12,1.2,1.2,0,0,0-.51.36,1.47,1.47,0,0,0-.33.66q-.06.39-.12.87l-.27,2.49q0,.39-.09.75l-.12.66a2,2,0,0,1-.15.48,2.86,2.86,0,0,1-.9,1.23l2.82,10.86h-3.12l-2.34-9.51h-1.59v9.51h-3.06v-9.51h-1.59l-2.34,9.51H96.47l2.82-10.86a2.86,2.86,0,0,1-.9-1.23,2,2,0,0,1-.15-.48l-.12-.66q-.06-.36-.09-.75l-.27-2.49a8.67,8.67,0,0,0-.15-.87,1.26,1.26,0,0,0-.3-.66,1.17,1.17,0,0,0-.54-.36,1.46,1.46,0,0,0-.6-.12h-.06v-2.88h0a4.84,4.84,0,0,1,1.8.3,3.39,3.39,0,0,1,1.41,1.08,3.3,3.3,0,0,1,.57,1,7.18,7.18,0,0,1,.33,1,3.53,3.53,0,0,1,.18.84q.06.36.09.48l.3,2.55a7.73,7.73,0,0,0,.15.78,2,2,0,0,0,.27.6,1.48,1.48,0,0,0,.51.42,2.12,2.12,0,0,0,.87.15h.9Zm12.58,18.48a5.91,5.91,0,0,0,1-.09,1.5,1.5,0,0,0,.84-.39,3.2,3.2,0,0,0,.51-.75,6.33,6.33,0,0,0,.54-1.5l.27-1.17-4.62-14.58h3.24l2.88,10h.06l2.25-10h3.24l-4.44,16.23a23.15,23.15,0,0,1-.9,2.61,4.52,4.52,0,0,1-1.35,1.83,3.08,3.08,0,0,1-1.53.72,9.25,9.25,0,0,1-1.74.15h-.42v-3.06Zm21.16,2.88H134.2v-9.48l-.6.09q-.36,0-1,0a7,7,0,0,1-2-.3,4,4,0,0,1-1.65-.93,3.89,3.89,0,0,1-1-1.62,7.2,7.2,0,0,1-.3-2.1v-7h3.06v6.69a4.44,4.44,0,0,0,.12,1,1.71,1.71,0,0,0,.45.84A2.32,2.32,0,0,0,133,206h.48l.39-.06.33-.06v-9h3.06Zm9.06-7.47-1.5-7.74h-.06l-1.5,7.74Zm-7.56,7.47,4.77-21.36h2.55l4.77,21.36h-3.06l-.9-4.59h-4.17l-.9,4.59Zm14.26,0V199.71h-3.54v-2.88h10.14v2.88h-3.54v18.48Zm12.78-7.47L164.3,203h-.06l-1.5,7.74Zm-7.56,7.47L163,196.83h2.56l4.76,21.36h-3.06l-.89-4.59h-4.17l-.91,4.59Z"/></g></g></svg>