<svg xmlns="http://www.w3.org/2000/svg" viewBox="0 0 265 265"><defs><style>.cls-1{fill:#fff;stroke:#000;stroke-width:3px;}</style></defs><title>Ресурс 28</title><g id="Слой_2" data-name="Слой 2"><g id="Слой_1-2" data-name="Слой 1"><circle class="cls-1" cx="132.5" cy="132.5" r="131"/><path d="M76.62,69.4V47.32h4.62a6.34,6.34,0,0,1,2.57.47A4.74,4.74,0,0,1,85.58,49a4.36,4.36,0,0,1,1,1.8,6.78,6.78,0,0,1,.31,2.07v.81a6.55,6.55,0,0,1-.15,1.52,3.24,3.24,0,0,1-.41,1.08,4.25,4.25,0,0,1-1.61,1.49,3.46,3.46,0,0,1,1.65,1.55,6.17,6.17,0,0,1,.52,2.79v1.24a6.4,6.4,0,0,1-1.42,4.47Q84,69.4,80.93,69.4Zm3.16-10.23v7.06h1.37A3.33,3.33,0,0,0,82.64,66a1.9,1.9,0,0,0,.83-.78A2.82,2.82,0,0,0,83.81,64a13.68,13.68,0,0,0,.07-1.49,8.83,8.83,0,0,0-.1-1.45A2.56,2.56,0,0,0,83.41,60a1.66,1.66,0,0,0-.84-.62,3.8,3.8,0,0,0-1.39-.21Zm0-8.87v6.08h1.43a2.39,2.39,0,0,0,2.11-.78,4.08,4.08,0,0,0,.56-2.32A3.46,3.46,0,0,0,83.26,51a2.67,2.67,0,0,0-2.17-.74Zm10-3H93v9.06h1.18a6.94,6.94,0,0,1,2.73.46,4.43,4.43,0,0,1,1.8,1.24,4.24,4.24,0,0,1,.9,1.86,14.42,14.42,0,0,1,.21,2.2v1.24a6.4,6.4,0,0,1-1.42,4.47Q97,69.4,93.88,69.4H89.82ZM93,59.17v7.06H94.1A3.33,3.33,0,0,0,95.59,66a1.9,1.9,0,0,0,.83-.78A3,3,0,0,0,96.77,64c0-.45.06-1,.06-1.49a8.29,8.29,0,0,0-.1-1.42,2.48,2.48,0,0,0-.37-1,1.88,1.88,0,0,0-.83-.66,3.45,3.45,0,0,0-1.4-.24Zm8.44,10.23V47.32h3.16V69.4Zm11.89,0V47.32h3L120.41,59h.07l4-11.69h3.06V69.4h-3.16V56h-.06l-3.13,9.49h-1.58L116.54,56h-.06V69.4Zm17-16.87a5.6,5.6,0,0,1,.47-2.35,4.93,4.93,0,0,1,1.24-1.71,5.32,5.32,0,0,1,1.67-1,5.64,5.64,0,0,1,1.92-.34,5.4,5.4,0,0,1,1.9.34,5.61,5.61,0,0,1,1.73,1,5.13,5.13,0,0,1,1.21,1.71,5.6,5.6,0,0,1,.47,2.35V64.19a5.55,5.55,0,0,1-.47,2.38,4.88,4.88,0,0,1-1.21,1.65,5.31,5.31,0,0,1-1.73,1,5.4,5.4,0,0,1-1.9.34,5.64,5.64,0,0,1-1.92-.34,5,5,0,0,1-1.67-1,4.7,4.7,0,0,1-1.24-1.65,5.55,5.55,0,0,1-.47-2.38Zm3.17,11.66a2.15,2.15,0,0,0,.62,1.7,2.34,2.34,0,0,0,1.51.53,2.23,2.23,0,0,0,1.49-.53,2.1,2.1,0,0,0,.65-1.7V52.53a2,2,0,0,0-.65-1.67,2.16,2.16,0,0,0-1.49-.56,2.26,2.26,0,0,0-1.51.56,2.05,2.05,0,0,0-.62,1.67Zm16.7-16.87h3.16v9.46h.93a1.9,1.9,0,0,0,.87-.16,1.11,1.11,0,0,0,.52-.43,1.65,1.65,0,0,0,.31-.62,6.11,6.11,0,0,0,.16-.81l.31-2.63a3.91,3.91,0,0,0,.06-.5,8.65,8.65,0,0,1,.19-.87c.1-.33.23-.67.37-1a3.29,3.29,0,0,1,.59-1,3.58,3.58,0,0,1,1.42-1.12,5.44,5.44,0,0,1,1.9-.31h0v3H161a1.82,1.82,0,0,0-.65.12,1.29,1.29,0,0,0-.52.38,1.41,1.41,0,0,0-.34.68c-.05.27-.09.57-.13.9L159.05,55q0,.4-.09.78l-.12.68a2.56,2.56,0,0,1-.16.49,3,3,0,0,1-.93,1.27l2.91,11.23h-3.22L155,59.57h-1.64V69.4h-3.16V59.57h-1.65l-2.41,9.83h-3.23l2.92-11.23a2.83,2.83,0,0,1-.93-1.27,1.65,1.65,0,0,1-.16-.49l-.12-.68c0-.25-.07-.51-.1-.78l-.27-2.57c-.05-.33-.1-.63-.16-.9a1.32,1.32,0,0,0-.87-1.06,1.52,1.52,0,0,0-.62-.12h-.06v-3h0a5.09,5.09,0,0,1,1.86.31,3.55,3.55,0,0,1,1.46,1.12,3.51,3.51,0,0,1,.59,1,7.62,7.62,0,0,1,.34,1,3.75,3.75,0,0,1,.18.87c0,.25.08.42.1.5l.31,2.63q.06.43.15.81a2.18,2.18,0,0,0,.28.62,1.46,1.46,0,0,0,.53.43,2.1,2.1,0,0,0,.9.16h.93ZM162.84,69.4V47.32h9.43v3H166v6.48h5.46v3H166v6.47h6.27V69.4Zm13.85,0V50.3H173v-3h10.47v3h-3.65V69.4Zm8.22,0V47.32h9.42v3h-6.26v6.48h5.46v3h-5.46v6.47h6.26V69.4Zm-100.43,33V80.32H94.55V102.4H91.39V83.11H87.64V102.4ZM97.34,85.53a5.6,5.6,0,0,1,.47-2.35,4.93,4.93,0,0,1,1.24-1.71,5.32,5.32,0,0,1,1.67-1,5.64,5.64,0,0,1,1.92-.34,5.39,5.39,0,0,1,1.89.34,5.77,5.77,0,0,1,1.74,1,5.28,5.28,0,0,1,1.21,1.71,5.6,5.6,0,0,1,.46,2.35V97.19a5.63,5.63,0,0,1-.46,2.39,5.07,5.07,0,0,1-1.21,1.64,5.46,5.46,0,0,1-1.74,1,5.39,5.39,0,0,1-1.89.34,5.64,5.64,0,0,1-1.92-.34,5,5,0,0,1-1.67-1,4.75,4.75,0,0,1-1.24-1.64,5.63,5.63,0,0,1-.47-2.39Zm3.16,11.66a2.18,2.18,0,0,0,.62,1.7,2.36,2.36,0,0,0,1.52.53,2.23,2.23,0,0,0,1.49-.53,2.13,2.13,0,0,0,.65-1.7V85.53a2,2,0,0,0-.65-1.67,2.16,2.16,0,0,0-1.49-.56,2.29,2.29,0,0,0-1.52.56,2.09,2.09,0,0,0-.62,1.67Zm11.23,5.21v3.41H109v-6.2h1.61a12.48,12.48,0,0,0,.53-1.34c.16-.51.31-1,.43-1.61s.24-1.12.34-1.7.19-1.18.25-1.74.07-.92.09-1.46.07-1.08.1-1.64,0-1.15,0-1.7,0-1.13,0-1.65V80.32h9.08V99.61h1.8v6.2h-2.73V102.4Zm3.65-19.29v3.63c0,.29,0,.71,0,1.27s0,1.13-.09,1.77-.08,1.29-.12,2-.1,1.21-.16,1.71a13.5,13.5,0,0,1-.22,1.42c-.08.52-.18,1.06-.31,1.62s-.26,1.11-.4,1.67a10,10,0,0,1-.5,1.46h4.78V83.11Zm9.73,16.31a6.48,6.48,0,0,0,1-.09,1.48,1.48,0,0,0,.86-.41,2.9,2.9,0,0,0,.53-.77,6.58,6.58,0,0,0,.56-1.55l.28-1.21-4.78-15.07h3.35l3,10.39H130l2.33-10.39h3.34L131,97.1a23.86,23.86,0,0,1-.93,2.69,4.69,4.69,0,0,1-1.4,1.89,3.2,3.2,0,0,1-1.58.75,9.92,9.92,0,0,1-1.8.15h-.43V99.42Zm12.2,3V80.32h3L144.4,92h.07l4-11.69h3.07V102.4H148.4V89h-.06l-3.13,9.49h-1.58L140.53,89h-.06V102.4Zm23.61-7.72-1.55-8h-.06l-1.55,8Zm-7.81,7.72L158,80.32h2.64l4.93,22.08h-3.16l-.93-4.75H157.2l-.93,4.75Zm14.73,0V83.3h-3.66v-3h10.48v3H171v19.1Zm8.22-22.08h3.16v9.06h1.18a6.93,6.93,0,0,1,2.72.46,4.3,4.3,0,0,1,1.8,1.24,4,4,0,0,1,.9,1.86,10,10,0,0,1,.22,2.2v1.24a6.38,6.38,0,0,1-1.43,4.47,5.79,5.79,0,0,1-4.49,1.55h-4.06Zm3.16,11.85v7.06h1.11a3.19,3.19,0,0,0,1.49-.28,1.91,1.91,0,0,0,.84-.77A3,3,0,0,0,183,97c0-.45.06-1,.06-1.49a4.62,4.62,0,0,0-.53-2.51,1.7,1.7,0,0,0-.8-.62,3.61,3.61,0,0,0-1.37-.21ZM45.59,118.53a5.6,5.6,0,0,1,.46-2.35,5.06,5.06,0,0,1,1.24-1.71,5.48,5.48,0,0,1,1.68-1,5.64,5.64,0,0,1,1.92-.34,5.39,5.39,0,0,1,1.89.34,5.77,5.77,0,0,1,1.74,1,5.28,5.28,0,0,1,1.21,1.71,5.6,5.6,0,0,1,.46,2.35v11.66a5.63,5.63,0,0,1-.46,2.39,5.07,5.07,0,0,1-1.21,1.64,5.46,5.46,0,0,1-1.74,1,5.39,5.39,0,0,1-1.89.34,5.64,5.64,0,0,1-1.92-.34,5.19,5.19,0,0,1-1.68-1,4.87,4.87,0,0,1-1.24-1.64,5.63,5.63,0,0,1-.46-2.39Zm3.16,11.66a2.18,2.18,0,0,0,.62,1.7,2.34,2.34,0,0,0,1.52.53,2.25,2.25,0,0,0,1.49-.53,2.13,2.13,0,0,0,.65-1.7V118.53a2,2,0,0,0-.65-1.67,2.17,2.17,0,0,0-1.49-.56,2.27,2.27,0,0,0-1.52.56,2.09,2.09,0,0,0-.62,1.67Zm16-16.87h9v3H67.89v6.08h1.24a7.45,7.45,0,0,1,2.73.43,4.33,4.33,0,0,1,1.79,1.24,4,4,0,0,1,.9,1.89,13.2,13.2,0,0,1,.22,2.2v1.24a6.38,6.38,0,0,1-1.43,4.47,5.79,5.79,0,0,1-4.49,1.55H64.73Zm3.16,11.85v7.06h1.18a3.14,3.14,0,0,0,1.48-.28,1.86,1.86,0,0,0,.84-.77,2.82,2.82,0,0,0,.34-1.18c0-.45.06-.95.06-1.49a7.71,7.71,0,0,0-.12-1.45,2.26,2.26,0,0,0-.4-1.06,2.09,2.09,0,0,0-.81-.62,3.59,3.59,0,0,0-1.36-.21Zm9.37,10.23V113.32h9.42v3H80.42v6.48h5.46v3H80.42v6.47h6.26v3.17Zm21.52-6.3v1.37a4.84,4.84,0,0,1-.41,1.95A5,5,0,0,1,97.32,134a5.32,5.32,0,0,1-1.61,1.15,4.71,4.71,0,0,1-2,.4,6.82,6.82,0,0,1-1.82-.25,4.33,4.33,0,0,1-1.68-.86A5.18,5.18,0,0,1,89,132.89a6,6,0,0,1-.46-2.52V118.22a5.32,5.32,0,0,1,.37-2,4.72,4.72,0,0,1,2.66-2.67,5.4,5.4,0,0,1,2.11-.4,4.77,4.77,0,0,1,3.63,1.46,4.83,4.83,0,0,1,1.05,1.7,5.36,5.36,0,0,1,.41,2.11v1.24H95.61v-1.06a2.57,2.57,0,0,0-.52-1.61,1.72,1.72,0,0,0-1.43-.68,1.65,1.65,0,0,0-1.58.74,4,4,0,0,0-.37,1.83v11.29a3,3,0,0,0,.4,1.61,1.7,1.7,0,0,0,1.52.65,2.54,2.54,0,0,0,.65-.09A2.16,2.16,0,0,0,95,132a1.86,1.86,0,0,0,.47-.68,2.83,2.83,0,0,0,.18-1.08V129.1Zm13.61-12.8a1.81,1.81,0,0,0-.71.12,1.31,1.31,0,0,0-.53.38,1.51,1.51,0,0,0-.34.68q-.09.4-.15.9l-.28,2.57a5.1,5.1,0,0,1-.1.74q-.06.32-.12.66a1.88,1.88,0,0,1-.19.55,3,3,0,0,1-.46.78,2.54,2.54,0,0,1-.5.49l3.29,11.23h-3.22l-2.79-9.83h-1.77v9.83h-3.16V113.32h3.16v9.46h1a2.1,2.1,0,0,0,.9-.16,1.41,1.41,0,0,0,.56-.43,1.81,1.81,0,0,0,.31-.62q.09-.37.15-.81l.31-2.63a3.38,3.38,0,0,0,.07-.5c0-.27.1-.56.18-.9a7.62,7.62,0,0,1,.34-1,4.84,4.84,0,0,1,.56-1,3.13,3.13,0,0,1,1.43-1,5.42,5.42,0,0,1,2-.35Zm1.62,2.23a5.6,5.6,0,0,1,.46-2.35,4.93,4.93,0,0,1,1.24-1.71,5.48,5.48,0,0,1,1.68-1,5.64,5.64,0,0,1,1.92-.34,5.39,5.39,0,0,1,1.89.34,5.61,5.61,0,0,1,1.73,1,5.13,5.13,0,0,1,1.21,1.71,5.6,5.6,0,0,1,.47,2.35v11.66a5.63,5.63,0,0,1-.47,2.39,4.93,4.93,0,0,1-1.21,1.64,5.31,5.31,0,0,1-1.73,1,5.39,5.39,0,0,1-1.89.34,5.64,5.64,0,0,1-1.92-.34,5.19,5.19,0,0,1-1.68-1,4.75,4.75,0,0,1-1.24-1.64,5.63,5.63,0,0,1-.46-2.39Zm3.16,11.66a2.15,2.15,0,0,0,.62,1.7,2.34,2.34,0,0,0,1.52.53,2.25,2.25,0,0,0,1.49-.53,2.13,2.13,0,0,0,.65-1.7V118.53a2,2,0,0,0-.65-1.67,2.17,2.17,0,0,0-1.49-.56,2.27,2.27,0,0,0-1.52.56,2.05,2.05,0,0,0-.62,1.67Zm10.22,5.21V113.32h3.16v9.46h3.91v-9.46h3.16V135.4h-3.16v-9.83h-3.91v9.83Zm13.2,0V113.32H150v3h-6.26v6.48h5.46v3h-5.46v6.47H150v3.17Zm21.15,0h-3.17v-9.8l-.62.09q-.36,0-1,0a7.19,7.19,0,0,1-2.11-.31,4,4,0,0,1-1.7-1,3.87,3.87,0,0,1-1-1.67,7.35,7.35,0,0,1-.31-2.17v-7.29H155v6.92a4.7,4.7,0,0,0,.12,1.05,1.76,1.76,0,0,0,.47.87,2.4,2.4,0,0,0,1.76.59h.5l.4-.06.34-.07v-9.3h3.17Zm3,0V113.32h3.16v9.46h3.91v-9.46H175V135.4h-3.16v-9.83h-3.91v9.83Zm13-16.87a5.6,5.6,0,0,1,.47-2.35,4.93,4.93,0,0,1,1.24-1.71,5.32,5.32,0,0,1,1.67-1,5.64,5.64,0,0,1,1.92-.34,5.39,5.39,0,0,1,1.89.34,5.77,5.77,0,0,1,1.74,1,5.13,5.13,0,0,1,1.21,1.71,5.6,5.6,0,0,1,.46,2.35v11.66a5.63,5.63,0,0,1-.46,2.39,4.93,4.93,0,0,1-1.21,1.64,5.46,5.46,0,0,1-1.74,1,5.39,5.39,0,0,1-1.89.34,5.64,5.64,0,0,1-1.92-.34,5,5,0,0,1-1.67-1,4.75,4.75,0,0,1-1.24-1.64,5.63,5.63,0,0,1-.47-2.39Zm3.16,11.66a2.18,2.18,0,0,0,.62,1.7,2.36,2.36,0,0,0,1.52.53,2.23,2.23,0,0,0,1.49-.53,2.13,2.13,0,0,0,.65-1.7V118.53a2,2,0,0,0-.65-1.67,2.16,2.16,0,0,0-1.49-.56,2.29,2.29,0,0,0-1.52.56,2.09,2.09,0,0,0-.62,1.67Zm20.27-1.09v1.37a4.83,4.83,0,0,1-.4,1.95A5.06,5.06,0,0,1,199.7,134a5.2,5.2,0,0,1-1.61,1.15,4.69,4.69,0,0,1-2,.4,6.89,6.89,0,0,1-1.83-.25,4.23,4.23,0,0,1-1.67-.86,5,5,0,0,1-1.24-1.58,6,6,0,0,1-.47-2.52V118.22a5.32,5.32,0,0,1,.37-2,4.78,4.78,0,0,1,2.67-2.67,5.36,5.36,0,0,1,2.11-.4,4.76,4.76,0,0,1,3.62,1.46,4.85,4.85,0,0,1,1.06,1.7,5.36,5.36,0,0,1,.4,2.11v1.24H198v-1.06a2.57,2.57,0,0,0-.53-1.61,1.7,1.7,0,0,0-1.42-.68,1.65,1.65,0,0,0-1.59.74,4.08,4.08,0,0,0-.37,1.83v11.29a3,3,0,0,0,.41,1.61,1.69,1.69,0,0,0,1.51.65,2.61,2.61,0,0,0,.66-.09,2.41,2.41,0,0,0,.68-.38,1.85,1.85,0,0,0,.46-.68,2.64,2.64,0,0,0,.19-1.08V129.1Zm4.36,6.3V116.3h-3.66v-3h10.48v3h-3.66v19.1Zm15.59,0V121.07h-.06l-4.16,14.33h-3.16V113.32h3.16v14.36H217l4.15-14.36h3.16V135.4ZM100.52,149.3a1.85,1.85,0,0,0-.71.12,1.38,1.38,0,0,0-.53.38,1.62,1.62,0,0,0-.34.68q-.09.41-.15.9L98.51,154a7.14,7.14,0,0,1-.09.74c0,.21-.09.43-.13.66a2.22,2.22,0,0,1-.18.55,3.37,3.37,0,0,1-.47.78,2.52,2.52,0,0,1-.49.49l3.28,11.23H97.21l-2.79-9.83H92.65v9.83H89.49V146.32h3.16v9.46h1a2,2,0,0,0,.9-.16,1.34,1.34,0,0,0,.56-.43,1.65,1.65,0,0,0,.31-.62c.06-.25.12-.52.16-.81l.31-2.63a3.91,3.91,0,0,0,.06-.5c0-.27.1-.56.18-.9a7.72,7.72,0,0,1,.35-1,4.8,4.8,0,0,1,.55-1,3.18,3.18,0,0,1,1.43-1.05,5.42,5.42,0,0,1,2-.35Zm1.62,2.23a5.6,5.6,0,0,1,.46-2.35,5.06,5.06,0,0,1,1.24-1.71,5.48,5.48,0,0,1,1.68-1,5.64,5.64,0,0,1,1.92-.34,5.39,5.39,0,0,1,1.89.34,5.77,5.77,0,0,1,1.74,1,5.28,5.28,0,0,1,1.21,1.71,5.6,5.6,0,0,1,.46,2.35v11.66a5.63,5.63,0,0,1-.46,2.39,5.07,5.07,0,0,1-1.21,1.64,5.46,5.46,0,0,1-1.74,1,5.39,5.39,0,0,1-1.89.34,5.64,5.64,0,0,1-1.92-.34,5.19,5.19,0,0,1-1.68-1,4.87,4.87,0,0,1-1.24-1.64,5.63,5.63,0,0,1-.46-2.39Zm3.16,11.66a2.18,2.18,0,0,0,.62,1.7,2.34,2.34,0,0,0,1.52.53,2.25,2.25,0,0,0,1.49-.53,2.13,2.13,0,0,0,.65-1.7V151.53a2,2,0,0,0-.65-1.67,2.17,2.17,0,0,0-1.49-.56,2.27,2.27,0,0,0-1.52.56,2.09,2.09,0,0,0-.62,1.67Zm20.27-1.09v1.37a5,5,0,0,1-.4,1.95,5.06,5.06,0,0,1-1.06,1.61,5.2,5.2,0,0,1-1.61,1.15,4.69,4.69,0,0,1-2,.4,6.89,6.89,0,0,1-1.83-.25,4.33,4.33,0,0,1-1.68-.86,5.18,5.18,0,0,1-1.24-1.58,6,6,0,0,1-.46-2.52V151.22a5.32,5.32,0,0,1,.37-2,4.7,4.7,0,0,1,2.67-2.67,5.35,5.35,0,0,1,2.1-.4,4.77,4.77,0,0,1,3.63,1.46,4.85,4.85,0,0,1,1.06,1.7,5.55,5.55,0,0,1,.4,2.11v1.24h-3.16v-1.06a2.57,2.57,0,0,0-.53-1.61,1.72,1.72,0,0,0-1.43-.68,1.65,1.65,0,0,0-1.58.74,4,4,0,0,0-.37,1.83v11.29a3,3,0,0,0,.4,1.61,1.7,1.7,0,0,0,1.52.65,2.48,2.48,0,0,0,.65-.09,2.33,2.33,0,0,0,.69-.38,1.85,1.85,0,0,0,.46-.68,2.82,2.82,0,0,0,.19-1.08V162.1Zm2.58,6.3V146.32h3L135.25,158h.06l4-11.69h3.07V168.4h-3.16V155h-.07l-3.13,9.49h-1.58l-3.1-9.49h-.06V168.4Zm17-16.87a5.6,5.6,0,0,1,.46-2.35,5.06,5.06,0,0,1,1.24-1.71,5.48,5.48,0,0,1,1.68-1,5.64,5.64,0,0,1,1.92-.34,5.39,5.39,0,0,1,1.89.34,5.77,5.77,0,0,1,1.74,1,5.25,5.25,0,0,1,1.2,1.71,5.6,5.6,0,0,1,.47,2.35v11.66a5.63,5.63,0,0,1-.47,2.39,5.05,5.05,0,0,1-1.2,1.64,5.46,5.46,0,0,1-1.74,1,5.39,5.39,0,0,1-1.89.34,5.64,5.64,0,0,1-1.92-.34,5.19,5.19,0,0,1-1.68-1,4.87,4.87,0,0,1-1.24-1.64,5.63,5.63,0,0,1-.46-2.39Zm3.16,11.66a2.18,2.18,0,0,0,.62,1.7,2.34,2.34,0,0,0,1.52.53,2.25,2.25,0,0,0,1.49-.53,2.13,2.13,0,0,0,.65-1.7V151.53a2,2,0,0,0-.65-1.67,2.17,2.17,0,0,0-1.49-.56,2.27,2.27,0,0,0-1.52.56,2.09,2.09,0,0,0-.62,1.67Zm20.27-1.09v1.37a4.84,4.84,0,0,1-.41,1.95,5,5,0,0,1-1.05,1.61,5.2,5.2,0,0,1-1.61,1.15,4.71,4.71,0,0,1-2,.4,6.87,6.87,0,0,1-1.82-.25,4.33,4.33,0,0,1-1.68-.86,5.18,5.18,0,0,1-1.24-1.58,6,6,0,0,1-.46-2.52V151.22a5.32,5.32,0,0,1,.37-2,4.72,4.72,0,0,1,2.66-2.67,5.43,5.43,0,0,1,2.11-.4,4.77,4.77,0,0,1,3.63,1.46,4.83,4.83,0,0,1,1.05,1.7,5.36,5.36,0,0,1,.41,2.11v1.24h-3.17v-1.06a2.57,2.57,0,0,0-.52-1.61,1.72,1.72,0,0,0-1.43-.68,1.65,1.65,0,0,0-1.58.74,4,4,0,0,0-.37,1.83v11.29a3,3,0,0,0,.4,1.61,1.7,1.7,0,0,0,1.52.65,2.54,2.54,0,0,0,.65-.09,2.16,2.16,0,0,0,.68-.38,1.86,1.86,0,0,0,.47-.68,2.83,2.83,0,0,0,.18-1.08V162.1Zm8.66-1.42-1.55-8h-.06l-1.55,8Zm-7.81,7.72,4.93-22.08H177L182,168.4H178.8l-.93-4.75h-4.31l-.93,4.75Zm-93.92,33V187.07h-.06L71.34,201.4H68.18V179.32h3.16v14.36h.06l4.15-14.36h3.17V201.4Zm10.81-19.29v6.42q0,.5,0,1.71c0,.78-.07,1.65-.16,2.6s-.2,1.89-.37,2.82a9.26,9.26,0,0,1-.68,2.33,7.13,7.13,0,0,1-1.89,2.51,4.4,4.4,0,0,1-2.79.9h-.19v-3.17a2.27,2.27,0,0,0,1.46-.55,4.05,4.05,0,0,0,.87-1.24,7.17,7.17,0,0,0,.43-1.58,17,17,0,0,0,.28-2c.06-.7.1-1.42.12-2.17s0-1.46,0-2.14v-9.24h9.17V201.4H89.46V182.11ZM103,201.4V187.07h-.06L98.77,201.4H95.6V179.32h3.17v14.36h.06L103,179.32h3.16V201.4Zm22.91-19.1a1.81,1.81,0,0,0-.71.12,1.38,1.38,0,0,0-.53.38,1.62,1.62,0,0,0-.34.68q-.09.41-.15.9l-.28,2.57a7.14,7.14,0,0,1-.09.74c-.05.21-.09.43-.13.66a2.22,2.22,0,0,1-.18.55,3.37,3.37,0,0,1-.47.78,2.52,2.52,0,0,1-.49.49l3.28,11.23h-3.22l-2.79-9.83H118v9.83h-3.16V179.32H118v9.46h1a2,2,0,0,0,.9-.16,1.34,1.34,0,0,0,.56-.43,1.65,1.65,0,0,0,.31-.62c.06-.25.11-.52.16-.81l.31-2.63a3.91,3.91,0,0,0,.06-.5c0-.27.1-.56.18-.9a7.72,7.72,0,0,1,.35-1,4.8,4.8,0,0,1,.55-1,3.18,3.18,0,0,1,1.43-1.05,5.42,5.42,0,0,1,2-.35Zm1.8,19.1V179.32h4.75a6.93,6.93,0,0,1,2.29.35,4.42,4.42,0,0,1,1.8,1.2,4.79,4.79,0,0,1,1.12,2,12.81,12.81,0,0,1,.31,3.13,14.67,14.67,0,0,1-.19,2.51,5,5,0,0,1-.71,1.92,4.75,4.75,0,0,1-1.74,1.71,6,6,0,0,1-2.85.59h-1.61v8.62Zm3.17-19.1v7.5h1.52a3.14,3.14,0,0,0,1.48-.28,1.76,1.76,0,0,0,.78-.77,2.74,2.74,0,0,0,.28-1.15c0-.45.06-1,.06-1.52s0-1,0-1.46a3.27,3.27,0,0,0-.28-1.23,1.77,1.77,0,0,0-.74-.81,3,3,0,0,0-1.43-.28Zm14.69,11.38-1.55-8h-.06l-1.55,8Zm-7.81,7.72,4.93-22.08h2.64l4.92,22.08h-3.16l-.93-4.75h-4.31l-.93,4.75Zm24.1-6.3v1.37a4.84,4.84,0,0,1-.41,1.95,5.21,5.21,0,0,1-1.05,1.61,5.32,5.32,0,0,1-1.61,1.15,4.71,4.71,0,0,1-2,.4,6.89,6.89,0,0,1-1.83-.25,4.29,4.29,0,0,1-1.67-.86,5,5,0,0,1-1.24-1.58,6,6,0,0,1-.46-2.52V184.22a5.32,5.32,0,0,1,.37-2,4.72,4.72,0,0,1,2.66-2.67,5.4,5.4,0,0,1,2.11-.4,4.77,4.77,0,0,1,3.63,1.46,5,5,0,0,1,1.05,1.7,5.36,5.36,0,0,1,.41,2.11v1.24h-3.17v-1.06a2.57,2.57,0,0,0-.52-1.61,1.72,1.72,0,0,0-1.43-.68,1.65,1.65,0,0,0-1.58.74,4,4,0,0,0-.37,1.83v11.29a3,3,0,0,0,.4,1.61,1.7,1.7,0,0,0,1.52.65,2.54,2.54,0,0,0,.65-.09A2.16,2.16,0,0,0,158,198a1.86,1.86,0,0,0,.47-.68,2.83,2.83,0,0,0,.18-1.08V195.1Zm2.39-10.57a5.6,5.6,0,0,1,.46-2.35,5.06,5.06,0,0,1,1.24-1.71,5.48,5.48,0,0,1,1.68-1,5.64,5.64,0,0,1,1.92-.34,5.39,5.39,0,0,1,1.89.34,5.77,5.77,0,0,1,1.74,1,5.28,5.28,0,0,1,1.21,1.71,5.6,5.6,0,0,1,.46,2.35v11.66a5.63,5.63,0,0,1-.46,2.39,5.07,5.07,0,0,1-1.21,1.64,5.46,5.46,0,0,1-1.74,1,5.39,5.39,0,0,1-1.89.34,5.64,5.64,0,0,1-1.92-.34,5.19,5.19,0,0,1-1.68-1,4.87,4.87,0,0,1-1.24-1.64,5.63,5.63,0,0,1-.46-2.39Zm3.16,11.66a2.18,2.18,0,0,0,.62,1.7,2.36,2.36,0,0,0,1.52.53,2.23,2.23,0,0,0,1.49-.53,2.13,2.13,0,0,0,.65-1.7V184.53a2,2,0,0,0-.65-1.67,2.16,2.16,0,0,0-1.49-.56,2.29,2.29,0,0,0-1.52.56,2.09,2.09,0,0,0-.62,1.67Zm12,5.21V182.3h-3.66v-3h10.48v3h-3.66v19.1Zm8.22,0V179.32H197v3h-6.26v6.48h5.45v3h-5.45v6.47H197v3.17Zm-88.52,33V212.32h3.16v19.29H106V212.32h3.16v19.29H111v6.2h-2.73V234.4Zm13.53,0V212.32h4.62a6.34,6.34,0,0,1,2.57.47,4.9,4.9,0,0,1,1.77,1.24,4.54,4.54,0,0,1,1,1.8,7.1,7.1,0,0,1,.31,2.07v.81a6,6,0,0,1-.16,1.52,3.23,3.23,0,0,1-.4,1.08,4.32,4.32,0,0,1-1.61,1.49,3.44,3.44,0,0,1,1.64,1.55,6.16,6.16,0,0,1,.53,2.79v1.24a6.38,6.38,0,0,1-1.43,4.47,5.79,5.79,0,0,1-4.49,1.55Zm3.16-10.23v7.06h1.36a3.19,3.19,0,0,0,1.49-.28,1.91,1.91,0,0,0,.84-.77,3,3,0,0,0,.34-1.18c0-.45.06-.95.06-1.49a10.22,10.22,0,0,0-.09-1.45,2.71,2.71,0,0,0-.37-1.06,1.75,1.75,0,0,0-.84-.62,3.86,3.86,0,0,0-1.4-.21Zm0-8.87v6.08h1.43a2.37,2.37,0,0,0,2.1-.78,4,4,0,0,0,.56-2.32,3.4,3.4,0,0,0-.62-2.24,2.65,2.65,0,0,0-2.17-.74Zm10,19.1V212.32h9.42v3H129v6.48h5.46v3H129v6.47h6.26v3.17Zm13.85,0V215.3H136v-3h10.48v3h-3.66v19.1Zm7.67-16.87a5.6,5.6,0,0,1,.46-2.35,5.06,5.06,0,0,1,1.24-1.71,5.48,5.48,0,0,1,1.68-1,5.64,5.64,0,0,1,1.92-.34,5.39,5.39,0,0,1,1.89.34,5.77,5.77,0,0,1,1.74,1,5.25,5.25,0,0,1,1.2,1.71,5.6,5.6,0,0,1,.47,2.35v11.66a5.63,5.63,0,0,1-.47,2.39,5.05,5.05,0,0,1-1.2,1.64,5.46,5.46,0,0,1-1.74,1,5.39,5.39,0,0,1-1.89.34,5.64,5.64,0,0,1-1.92-.34,5.19,5.19,0,0,1-1.68-1,4.87,4.87,0,0,1-1.24-1.64,5.63,5.63,0,0,1-.46-2.39Zm3.16,11.66a2.18,2.18,0,0,0,.62,1.7,2.34,2.34,0,0,0,1.52.53,2.25,2.25,0,0,0,1.49-.53,2.13,2.13,0,0,0,.65-1.7V217.53a2,2,0,0,0-.65-1.67,2.17,2.17,0,0,0-1.49-.56,2.27,2.27,0,0,0-1.52.56,2.09,2.09,0,0,0-.62,1.67Zm10.22,5.21V212.32h4.62a6.34,6.34,0,0,1,2.57.47,4.74,4.74,0,0,1,1.77,1.24,4.3,4.3,0,0,1,1,1.8,6.78,6.78,0,0,1,.31,2.07v.81a6.55,6.55,0,0,1-.15,1.52,3.47,3.47,0,0,1-.41,1.08,4.25,4.25,0,0,1-1.61,1.49,3.46,3.46,0,0,1,1.65,1.55,6.17,6.17,0,0,1,.52,2.79v1.24a6.38,6.38,0,0,1-1.42,4.47q-1.4,1.54-4.5,1.55Zm3.16-10.23v7.06h1.37a3.19,3.19,0,0,0,1.49-.28,1.83,1.83,0,0,0,.83-.77,2.82,2.82,0,0,0,.34-1.18,13.68,13.68,0,0,0,.07-1.49,8.83,8.83,0,0,0-.1-1.45,2.56,2.56,0,0,0-.37-1.06,1.71,1.71,0,0,0-.84-.62,3.8,3.8,0,0,0-1.39-.21Zm0-8.87v6.08h1.43a2.39,2.39,0,0,0,2.11-.78,4.08,4.08,0,0,0,.56-2.32,3.46,3.46,0,0,0-.62-2.24,2.67,2.67,0,0,0-2.17-.74Z"/></g></g></svg>