<svg xmlns="http://www.w3.org/2000/svg" viewBox="0 0 319.44 83.47"><defs><style>.cls-1{fill:#fff;}.cls-2{fill:#221f20;}</style></defs><title>Ресурс 21</title><g id="Слой_2" data-name="Слой 2"><g id="Слой_1-2" data-name="Слой 1"><path class="cls-1" d="M6.52,81.92a5.1,5.1,0,0,1-4-1.28c-1.07-1.16-1.07-2.89-.91-4.44C2,72.13,2.5,68,3.05,64s1.18-8.17,1.72-12.22C6.86,36,9.29,21.69,9,7.49c-.05-3,1.26-4.49,4.29-4.68,4.26-.28,8.41-.59,12.5-.91l5-.38h.41A49.16,49.16,0,0,1,51,5.74C61.37,10,70,21.42,66.05,28.3c-2.09,4.44-6.41,7.3-11.8,8.32-8,1.49-16.87,3.07-27.16,4.9-1.51.27-1.74.46-2,1.69-1.37,6.11-3,12.44-4.29,18.73-1,4.72-1.83,9.54-2.4,14.47-.13,1-.43,4.11-3.84,4.5-.95.11-1.88.27-2.86.43A37.31,37.31,0,0,1,7,81.91ZM28.19,10.34a69.17,69.17,0,0,1-.43,19.93c-.17,1.16-.37,2.33-.58,3.5,7.25-.44,12.55-1.54,17.15-3.51a8.31,8.31,0,0,0,4-4.38c1.16-3.49-.29-7.33-4-10.58A21.87,21.87,0,0,0,30.69,9.75a15.43,15.43,0,0,0-1.81.11A1.67,1.67,0,0,0,28.19,10.34Z"/><path class="cls-2" d="M31.93,3a46.74,46.74,0,0,1,19,4c9.22,3.84,17.17,14.46,13.62,20.85-1.81,4-5.57,6.48-10.36,7.37C45.35,36.88,36.28,38.46,27,40.09c-2.27.4-3.18,1.12-3.59,3.06-2.34,10.64-5.17,21.59-6.5,33.16-.19,1.74-.71,2.81-2.48,3-2.48.3-4.95.93-7.42,1l-.46,0c-3,0-3.76-.86-3.44-4.08.82-8.2,2.21-16.37,3.39-24.47,2.1-14.92,4.78-29.47,4.2-44.21-.1-2.32.75-3.17,3-3.31C19.83,3.91,25.78,3.45,31.58,3h.35M25.14,35.32C32.48,35,39,34.06,45,31.5a9.84,9.84,0,0,0,4.95-5.27c3.21-8.5-9.61-17.89-19.7-18a16.81,16.81,0,0,0-2,.12c-.8.1-1.85,1-1.78,1.59,1.1,8.39.3,16.57-1.31,25.33M30.37,0h-.56L25.07.39C21.13.71,17,1,12.81,1.31,9.16,1.56,7.3,3.66,7.29,7.38c0,14.08-2.35,28.88-4.24,44.37-.51,4-1.08,8.18-1.6,12.19S.45,72.06.08,76.11c-.18,1.87-.15,4,1.3,5.57a6.62,6.62,0,0,0,5.14,1.79h.54a35.64,35.64,0,0,0,4.84-.54c1-.16,1.88-.3,2.78-.4,2.15-.22,4.68-1.49,5.18-6,.56-5,1.44-9.86,2.44-14.51,1.35-6.31,3-12.63,4.45-18.74,0-.1.05-.18.07-.25l.37-.08C37.45,41.08,46.26,39.5,54.28,38c5.91-1.13,10.9-4.41,13.25-9.27,4.49-7.51-5-19.59-16.46-24.28A51.79,51.79,0,0,0,30.37,0ZM30,11.26c.36,0,.71,0,1.08,0a19.1,19.1,0,0,1,12.11,5c3.21,2.88,4.48,6.27,3.49,9.35A6.57,6.57,0,0,1,43.63,29a44.61,44.61,0,0,1-14.41,3.18c.11-.64.21-1.28.31-1.91a66.13,66.13,0,0,0,.48-19Z"/><path class="cls-1" d="M53.15,75.29a4.42,4.42,0,0,1-3.94-1.59c-1.08-1.56-.72-3.79-.22-5.54A92.15,92.15,0,0,1,53.9,55.08c2.38-5.26,5.12-10.44,7.45-15.44A65.78,65.78,0,0,0,66.19,26,34.54,34.54,0,0,0,67,16.5a38.2,38.2,0,0,0-1-7.3c0-.16-.09-.32-.13-.49-1-3.87.29-6.74,4.69-6.72A11.7,11.7,0,0,1,73,2.28a41.48,41.48,0,0,0,7.93,1c.62,0,1.21,0,1.75-.07C84,3.08,85.26,3,86.53,2.81a145,145,0,0,1,15.64-1,74,74,0,0,1,13.7,1.29l.51.09a11.58,11.58,0,0,1,3,.84,8.75,8.75,0,0,1,4.19,3.38,1.66,1.66,0,0,1-.8,2.56l-1.26.56a17.59,17.59,0,0,1-8,2,17.12,17.12,0,0,1-3-.31,51.37,51.37,0,0,0-9.08-.9,116.83,116.83,0,0,0-16.63,1.34l-1.8.23a1.47,1.47,0,0,0-.55,1,44.12,44.12,0,0,1,.74,6.3c0,.86,0,1.73-.06,2.58l-.06.7a28.47,28.47,0,0,1-.82,4.54A8.2,8.2,0,0,0,82,29.64h.24a13.83,13.83,0,0,0,1.68-.15A99,99,0,0,1,99,28.67a136.45,136.45,0,0,1,16.64,1.41,4.2,4.2,0,0,1,2.4,1.44,7.22,7.22,0,0,0,.64.6l1.29,1-1.91,1.14c-.32.19-.65.4-1,.6a19.9,19.9,0,0,1-2.54,1.42,18.3,18.3,0,0,1-8.11,1.63,46.94,46.94,0,0,1-4.69-.43,37.19,37.19,0,0,0-4.43-.4h-.82c-3.69.1-7.47.18-11.16.26l-5.14.12c-1.17,0-1.7.29-2.43,1.67-2.28,4.35-5,8.83-7.33,13.36a93.44,93.44,0,0,0-4,8.59c-.62,1.57-.52,2.14-.42,2.33s.56.55,2.19.53c8-.08,15.73-.1,23.53,0a6,6,0,0,1,3.48.92A6.92,6.92,0,0,1,97,67c.17.27.33.54.51.78.31.43.64.86,1,1.29l-1.14,1.11c-.2.2-.39.42-.57.63a7.11,7.11,0,0,1-1.81,1.68,16,16,0,0,1-8,1.82c-1.28,0-2.57-.07-3.82-.14-.82,0-1.65-.09-2.48-.11s-1.48,0-2.23,0l-1.87,0-1.89,0H73.22l0-.5L68.47,74c-4.73.41-9.5.82-14.29,1.26C53.81,75.27,53.46,75.29,53.15,75.29Z"/><path class="cls-2" d="M103.56,3.41a72,72,0,0,1,13.29,1.27,11,11,0,0,1,2.76.71c2.22,1,3.26,2.39,1.84,3-2.56,1.18-5,2.56-8.61,2.5a16,16,0,0,1-2.7-.28,54.13,54.13,0,0,0-9.43-.93c-6.41-.08-12.35.84-18.49,1.63a2,2,0,0,0-1.34,2.18,35.89,35.89,0,0,1,.76,9,29,29,0,0,1-.84,5.21c-.65,2.43-.67,3.28,1.14,3.29a12.92,12.92,0,0,0,1.93-.16A97.33,97.33,0,0,1,98.75,30a136.25,136.25,0,0,1,16.38,1.39c1,.15,1.66,1.19,2.44,1.82a34.35,34.35,0,0,1-3.24,1.91A16.48,16.48,0,0,1,107,36.58c-3.09-.06-6-.78-9.18-.83H97c-5.37.14-10.79.22-16.34.37a4.41,4.41,0,0,0-4.19,2.79c-3.63,7-8.12,14.08-11.29,21.92-1.38,3.47-.44,4.77,2.84,4.73,8-.08,15.79-.1,23.57,0a5.25,5.25,0,0,1,2.87.72,12.08,12.08,0,0,1,2,2.62,12.05,12.05,0,0,1-2.15,2,15.18,15.18,0,0,1-7.48,1.64c-2.06,0-4.14-.19-6.2-.24-.76,0-1.51,0-2.26,0l-3.74,0c0-.2,0-.4,0-.6-6.76.56-13.57,1.13-20.44,1.77l-.94.06c-2.94.06-3.82-1.35-2.79-5.18C53.25,58,58.59,48.78,62.81,39.86,66.44,32.13,69,24.62,68.6,16.74a36.83,36.83,0,0,0-1.09-7.67c-.9-3.37.71-5.54,4.22-5.51a10.54,10.54,0,0,1,2.14.24,43.88,43.88,0,0,0,8.29,1c.65,0,1.29,0,1.89-.07,6.49-.57,12.66-1.4,19.51-1.36M100.64.08A140.16,140.16,0,0,0,85,1.21c-1.26.13-2.51.27-3.78.39a13.47,13.47,0,0,1-1.6.07A38.55,38.55,0,0,1,72.06.73,14.35,14.35,0,0,0,69.14.4c-5.06,0-6.3,3.41-5.06,8,0,.17.1.33.14.5a39,39,0,0,1,1.09,7.4,34.62,34.62,0,0,1-.71,9.5,64.62,64.62,0,0,1-4.73,13.65c-2.27,5-5,10.18-7.35,15.42a96.51,96.51,0,0,0-4.93,13.08c-.6,2.08-1,4.79.46,6.89A5.9,5.9,0,0,0,53.16,77q.53,0,1.14-.06c4.87-.44,9.72-.85,14.53-1.26l3.06-.25c0,.13,0,.27,0,.4l2.77,0,1.91,0,1.88,0c.74,0,1.47,0,2.2,0s1.64.07,2.47.12c1.28.07,2.6.14,3.92.14a16.57,16.57,0,0,0,8.56-2,7.88,7.88,0,0,0,2.11-2l.48-.56c.73-.75,1.47-1.5,2.23-2.23-.67-.87-1.31-1.72-1.91-2.57-.13-.19-.28-.43-.43-.69a7.89,7.89,0,0,0-2-2.49,6.81,6.81,0,0,0-4.08-1.12c-7.8-.1-15.83-.09-23.5,0a6,6,0,0,1-1.06-.07,7.51,7.51,0,0,1,.31-1,92.24,92.24,0,0,1,4-8.54c2.38-4.56,5.09-9.06,7.43-13.43a4,4,0,0,1,.32-.52l.33,0,5.06-.14c3.71-.09,7.48-.16,11.18-.27.26,0,.5,0,.75,0a37,37,0,0,1,4.26.38,45.4,45.4,0,0,0,4.82.44,20.35,20.35,0,0,0,8.91-1.8,23.2,23.2,0,0,0,2.84-1.58l.91-.56c1.29-.76,2.58-1.51,3.84-2.27-.85-.69-1.72-1.37-2.61-2.06-.16-.12-.35-.32-.56-.52a5.38,5.38,0,0,0-3.09-1.74,141.23,141.23,0,0,0-16.9-1.43,99.88,99.88,0,0,0-15.44.84s0,0,0,0,0,0,0-.06a28.11,28.11,0,0,0,.86-4.54c0-.24,0-.49.07-.73a25,25,0,0,0,.07-2.6,42.83,42.83,0,0,0-.64-5.94.41.41,0,0,1,0-.09L85.63,14a121.31,121.31,0,0,1,16.53-1.3,50,50,0,0,1,8.73.88,18.94,18.94,0,0,0,3.21.34,19.36,19.36,0,0,0,8.55-2c.43-.19.85-.37,1.28-.54,2.26-.92,1.67-3,1.2-3.85-.95-1.88-3.24-3.73-6.13-5a14.36,14.36,0,0,0-3.76-1.07l-.47-.08A75.08,75.08,0,0,0,100.64.08Z"/><path class="cls-1" d="M259.2,74.27c-2.53,0-5.88-1.89-7.55-3a123.05,123.05,0,0,1-19-14.77c-1.82-1.77-3.47-3.52-5-5.26a11.86,11.86,0,0,0-.39,1.4,28.24,28.24,0,0,0,1,15.27,4.18,4.18,0,0,1,.24,3.11c-.35.7-1.1,1-2.33,1.09l-3.6.14-3.2.13H219a6.74,6.74,0,0,1-6.31-4.71c-6-20,13-34.54,14-55.17,0-.13.06-.68.06-.68.34-5.06-.34-8.16,3.55-8.14A32.05,32.05,0,0,1,233.9,4a8,8,0,0,1,1.19.27,4.41,4.41,0,0,0,.85.2c1.76.12,3.47.36,4.62,1.76s1.22,3.37,1,5.51c-.75,8.4-3.85,15.94-7.17,22.81-.31.63-.61,1.26-.92,1.88l-.1.2c.68-.45,1.35-.91,2-1.36,3.36-2.29,6.78-4.73,10-7.25,1-.78,1.94-1.64,2.92-2.56s1.83-1.75,2.79-2.6c.65-.58,1.29-1.16,1.91-1.76a54.48,54.48,0,0,1,7.06-6.09,9.06,9.06,0,0,1,4.78-1.54,5.35,5.35,0,0,1,5.42,3.27c.62,1.66-1.21,4.34-2.33,5.24-4.61,3.8-9.6,7.43-14.53,10.8q-3.39,2.31-6.82,4.54l-3.45,2.29c-1.13.76-2.27,1.51-3.4,2.23a2.71,2.71,0,0,0-1,.84s-.1.33.45,1c2.32,2.65,5.62,6.14,9.56,9.84,1.48,1.4,3,2.88,4.57,4.32,1.23,1.13,2.56,2.3,4,3.42A25.8,25.8,0,0,0,260,63.08l1.76,1.07.58.36c.05.2.11.39.17.58.54,1.92-.31,5.93-1.19,7.77a2.28,2.28,0,0,1-2.09,1.41Z"/><path class="cls-2" d="M230.68,5.53a27.38,27.38,0,0,1,3.4.32c.68.09,1.39.41,2.07.46,3.58.24,4.3,1.05,4,5.31-.75,9.17-4.28,17.17-8,24.72-.36.73-.61,1.47-.9,2.2l.49.65c4.86-3.23,9.73-6.52,14.34-10.08,2.05-1.57,3.86-3.47,5.8-5.14,3-2.56,5.57-5.45,8.8-7.55a7.81,7.81,0,0,1,4-1.27c1.88,0,3.59.73,4.21,2.44.25.69-.81,2.57-1.69,3.3A226,226,0,0,1,246,36.3c-2.3,1.51-4.55,3.07-6.86,4.54-2.14,1.35-2.47,2.52-1.28,3.86,2.85,3.22,6,6.45,9.67,9.82,2.66,2.47,5.41,5.16,8.69,7.74a53.29,53.29,0,0,0,4.7,3c.35,1.68-.57,7.51-2.38,7.54h0c-1.74,0-4.36-1.35-6.18-2.56-10.92-7.19-18.68-14.14-24.17-20.92-.13-.16-.48-.18-1.08-.37a23.7,23.7,0,0,0-1.29,3.73A28.09,28.09,0,0,0,226.76,68c.63,1.7.5,2.6-1.31,2.66-2.3.07-4.55.17-6.82.25h-.3a4.32,4.32,0,0,1-4.16-3.27c-6.27-18.7,12-33.34,13.91-54.9,0-.22,0-.44.07-.67.33-5.12-.08-6.57,2.53-6.54m-.86-3.69h0c-5.18,0-4.13,4.79-4.5,9.76,0,.08,0,.17,0,.25s0,.3,0,.44c-.79,20.79-20.14,35.3-14,55.46a9.43,9.43,0,0,0,8.57,6.17h.44l3.17-.14,3.6-.15c1.62,0,2.63-.59,3.09-1.58.69-1.54-.1-3.53-.32-4.18a27.65,27.65,0,0,1-1.27-13.38c1,1,2,2,3,3A127,127,0,0,0,251,72.34c1.94,1.25,5.9,3.39,8.95,3.42h.09A3.09,3.09,0,0,0,263,73.83c.93-2.12,1.81-6.56,1.16-8.92-.11-.38-.23-.76-.34-1.14l-1.14-.72L260.92,62a23.79,23.79,0,0,1-2.52-1.69c-1.36-1.1-2.65-2.26-3.85-3.38-1.56-1.45-3.06-2.94-4.53-4.36-3.85-3.66-7.08-7.13-9.38-9.78,1.06-.68,2.12-1.38,3.14-2.06s2.29-1.53,3.43-2.26c2.29-1.49,4.58-3,6.85-4.54,5-3.35,10-7,14.64-10.73,1.48-1.18,3.95-4.61,3-7.18A6.7,6.7,0,0,0,265,11.84a10.37,10.37,0,0,0-5.52,1.81,55.72,55.72,0,0,0-7.26,6.43c-.62.58-1.23,1.17-1.86,1.74-1,.9-1.93,1.82-2.85,2.71s-1.84,1.74-2.76,2.47c-2.64,2.1-5.42,4.14-8.2,6.09,3-6.42,5.71-13.43,6.46-21.15.25-2.44.15-4.88-1.49-6.84s-3.84-2.29-5.87-2.43a5.72,5.72,0,0,1-.6-.15,9.93,9.93,0,0,0-1.41-.32,33.28,33.28,0,0,0-3.82-.36Z"/><path class="cls-1" d="M146.43,76.9c-4,0-5.9-2.7-7.61-7.49A33.81,33.81,0,0,1,137,55.56a58.61,58.61,0,0,1,2.12-11.22c1.09-4,2.41-8,3.15-11.89a36.35,36.35,0,0,0,.52-3.75c-.21.32-.43.63-.65.94-2.38,3.4-5,6.51-7.61,9.68C127.82,47.45,120.9,56,118.26,64.5c-.72,2.15-1.52,4.56-4.36,5.24-1.61.39-3.21.86-4.89,1.37l-2.3.69-1.56.46c-.11-.66-.21-1.32-.29-2l-.12-.92a3.76,3.76,0,0,1,0-1.6,43.11,43.11,0,0,1,3.16-8.15c4.56-9.13,12.19-17.3,18-25.44,4-5.56,7.43-11.43,8.24-18.06.16-1.29.46-2.46.66-3.62a9.19,9.19,0,0,0,.15-3c-1-5.55,1.79-6.81,6-7.07l.36,0a2.1,2.1,0,0,0,.81-.13,2.78,2.78,0,0,1,1.67-.52c1.36,0,4.12.91,7,4.77,6.19,8.9,6.62,15.14,6.27,20.77a51.53,51.53,0,0,1-2.58,11.33c-2.4,7.37-5.56,14.89-4.81,23.21a16.23,16.23,0,0,0,1.77,5.55c.43.87.89,1.76,1.39,2.66.32.61,1.43,2.49,1.23,4.09-.13,1-.81,1.64-2.11,1.84a6.11,6.11,0,0,0-1.13.3,7.88,7.88,0,0,1-1.72.41A26.3,26.3,0,0,1,146.43,76.9Z"/><path class="cls-2" d="M145.1,3.56c1.43,0,3.09,1.41,4.42,3.31,5.4,7.64,6.7,14.34,6.14,20.67-1,11.72-8.51,22.09-7.36,34.57.26,2.8,1.68,5.56,3.33,8.5,1.11,2,1.49,3.42-.56,3.72-1,.14-1.82.59-2.82.69s-1.85.16-2.54.15c-2.76,0-3.84-1.32-5.59-6.13-3.14-9.31-1.66-17.19.47-25,1.6-5.83,3.69-11.59,3.72-17.69A16,16,0,0,0,144,24c-2.79,5.62-6.8,10.13-10.56,14.84-6.34,7.84-13.28,15.81-16.48,25.18-.73,2.1-1.41,3.6-3.43,4.07-2.39.56-4.73,1.29-7.3,2a7.2,7.2,0,0,1-.16-1.92c3.24-13,13.43-23.22,21-33.63,4.18-5.78,7.61-11.6,8.54-18,.31-2.21,1.23-4.16,1-6.5-.66-4.66,1.8-5.71,5.7-5.95a3.55,3.55,0,0,0,1.54-.26,2.15,2.15,0,0,1,1.24-.38M142.42,0a3.28,3.28,0,0,0-2,.62,3.17,3.17,0,0,1-.47,0l-.38,0c-2.91.13-7.91.9-6.21,8.24a9.09,9.09,0,0,1,0,2.75c-.17,1.23-.44,2.47-.57,3.9-.64,6.67-4,12.58-7.94,18.16-5.74,8.16-13.39,16.34-18.05,25.46a44.67,44.67,0,0,0-3.28,8.09,5.43,5.43,0,0,0-.08,2.28c0,.22.07.48.12.84a37.69,37.69,0,0,0,.69,4l3.1-1c.78-.24,1.55-.47,2.29-.71,1.66-.51,3.22-1,4.8-1.38,3.93-1,4.67-5,5.21-6.43,2.48-8.54,9.29-17,16.07-25.19,1.66-2,3.37-4,5-6.14-.77,3.63-2,7.3-3,11a57.54,57.54,0,0,0-2.09,11.27,34.4,34.4,0,0,0,1.87,13.83c1.73,5,4.56,9,9.8,9,.8,0,1.66-.07,2.79-.18A8.6,8.6,0,0,0,152,78a6.46,6.46,0,0,1,1-.28,2.78,2.78,0,0,0,2.69-2.66c.19-2.29-1.22-4.71-1.61-5.49-.49-.94-1-1.84-1.37-2.7A16,16,0,0,1,151,61.64c-.71-8.29,2.47-15.79,4.86-23.18a49.49,49.49,0,0,0,2.55-11.32c.32-5.58-.07-11.83-6.39-20.86C147.9.74,143.58,0,142.42,0Z"/><path class="cls-1" d="M200.06,75.83c-.53-.42-1-.79-1.5-1.13a13.24,13.24,0,0,1-2.87-2.63,33.18,33.18,0,0,1-4.07-7.15,34.18,34.18,0,0,1-2.18-8.21c-.53-4.87-.44-4.83-2.45-4.91-.87,0-2.09,0-3.5.12-1,0-2.07.16-3.09.25a41.43,41.43,0,0,1-5.44.3h-.29c-1.26,0-1.74.23-2.71,1.67a43.25,43.25,0,0,0-4.18,7.57A25.75,25.75,0,0,0,166,68.31c-.29,2.7-1.48,3.3-2.63,3.28a5.51,5.51,0,0,1-2.41-.75c-.31-.18-.64-.32-1-.47-1.54-.71-4.7-2.16-3.69-6.2a45.57,45.57,0,0,1,4.65-11q1.38-2.39,3-4.71.69-1,1.41-2c1.51-2.08,3.14-4.22,4.84-6.31a19.44,19.44,0,0,1,6.19-5.25c1.95-1,3.95-3.32,5.54-5.41l.08-.1a41.86,41.86,0,0,0,3.9-6.13,51.52,51.52,0,0,0,3.81-9.94c.5-1.85,2-2.85,3.41-3.82a12.26,12.26,0,0,0,1.42-1.09,1.21,1.21,0,0,1,.86-.3,2.41,2.41,0,0,1,.5.06h0a13.66,13.66,0,0,1,3.38-.63c3.23,0,4.59,3.39,5.18,6.71,2.38,12.89-.66,22.8-.67,32.58,0,1.4,0,2.81.12,4.22A43.92,43.92,0,0,0,206,62.83a29.81,29.81,0,0,0,2.09,4.68s1.47,2.61.41,3.54c-1.58,1.29-3.17,2.54-4.72,3.9-.75.67-1.48,1.35-2.16,2ZM188.81,44.09c.58-4,1.39-8,1.78-12.12-3.18,4.08-6.76,8-10.19,11.86Z"/><path class="cls-2" d="M199.73,9.27c1.67,0,2.56,1.31,3.36,5.21,2.62,14.8-1.72,25.46-.67,37,.4,5.14,1,10.63,4.31,16.41.32.58.7,1.67.45,1.87-2.14,1.65-4.27,3.19-6.48,5.15a22.39,22.39,0,0,1-3.8-3.27,32.16,32.16,0,0,1-6-15.32c-.52-4.71-.29-5.75-3.39-5.86-.91,0-2.09,0-3.62.12-2.8.14-5.71.63-8.4.54h-.36c-2-.07-3.12.87-4.26,2.52-3.08,4.47-5.51,9.06-6.3,14.12-.21,1.42-.66,2.26-1.67,2.25a3.61,3.61,0,0,1-1.62-.54c-1.87-1-4.39-1.41-3.64-4.82a48,48,0,0,1,7.48-15.85c1.93-2.77,4-5.53,6.18-8.24A16,16,0,0,1,176.64,36c2.41-1.25,4.64-3.79,6.39-6a47.85,47.85,0,0,0,8-15.91c.58-1.92,3-2.81,4.61-4.17a.27.27,0,0,1,.18-.05c.16,0,.37.07.55.07h.11a14.92,14.92,0,0,1,3.23-.62M177.82,45.09l12.22.39c.79-5.92,2-11.21,2.16-16.83l-.53-.12c-4,5.7-8.95,11-13.85,16.56M198.71,5.75h0a12.81,12.81,0,0,0-3.41.62,3.58,3.58,0,0,0-.48,0,2.07,2.07,0,0,0-1.5.57,12.64,12.64,0,0,1-1.29,1c-1.5,1.06-3.14,2.27-3.71,4.63A47.78,47.78,0,0,1,184.7,22.7,39.45,39.45,0,0,1,181,28.79l-.08.11c-1.36,1.83-3.25,4.05-4.78,4.87a22.06,22.06,0,0,0-7,5.95c-1.72,2.12-3.37,4.27-4.89,6.36-.49.66-1,1.33-1.43,2-1.12,1.57-2.15,3.17-3.08,4.74a47.6,47.6,0,0,0-4.76,10.89c-1.43,5.3,3.29,7.41,4.86,8.12.32.15.63.28.87.41a7.54,7.54,0,0,0,3.25,1c1.37,0,3.23-.6,3.49-4.34a25,25,0,0,1,1.64-6.6,41.5,41.5,0,0,1,4.06-7.64,4.39,4.39,0,0,1,.6-.8,3.23,3.23,0,0,1,.44,0h.06l.3,0a45.75,45.75,0,0,0,5.63-.31c1.05-.11,2.05-.2,3-.26,1.38-.07,2.57-.13,3.38-.11a3.52,3.52,0,0,1,.88.1,28.36,28.36,0,0,1,.6,3.85,32.52,32.52,0,0,0,6.47,15.41,16.05,16.05,0,0,0,3.53,3.2c.49.35.95.69,1.43,1.06,1,.77,2.09,1.56,3.2,2.35.41-.47.84-.94,1.28-1.41s.92-.93,1.38-1.37c1.46-1.39,3-2.67,4.5-4,1.64-1.54-.44-5.07-.45-5.21a30.24,30.24,0,0,1-2-4.64,45,45,0,0,1-2-11.91c-.09-1.41-.12-2.81-.1-4.22.11-10.16,2.9-19.64.55-32.37-.51-3.29-2.53-8.22-7.11-8.25ZM183,42.56c1.9-2.13,3.82-4.28,5.68-6.46,0,.16,0,.31-.07.47-.32,2.07-.68,4.1-1,6.14L183,42.56Z"/><path class="cls-1" d="M287.53,75.36c-8.83,0-22.52-6.63-22.73-18.28.08-11.3,6.07-21.71,11.88-32A52.41,52.41,0,0,1,284.34,15a20,20,0,0,1,8.77-5.07,41.55,41.55,0,0,1,9.33-1.42,33.82,33.82,0,0,1,9.24,1,7.14,7.14,0,0,1,2.45,1.34c.25.19.51.38.77.54.6.38,1.21.75,1.82,1.12l-1.81,1.37c-.23.17-.45.37-.67.57A5.84,5.84,0,0,1,311.69,16l-.61.14a31,31,0,0,1-5.4.92,12.15,12.15,0,0,1-1.72,0,23.67,23.67,0,0,0-3.24-.15c-1.93.08-2.72.58-5.43,4a57.7,57.7,0,0,0-8.89,17.3c-1.11,3.22-2.13,6.41-3.14,10.07-.46,1.71-.94,3.51-1.37,5.46.15.5.31,1.08.5,1.71a33.09,33.09,0,0,0,2.69,6.72c1,1.74,3.13,2.78,6.53,3.17a5.29,5.29,0,0,0,.72,0h0a4.77,4.77,0,0,0,1-.08c1.11-1.62,2.93-2.08,4.42-2.46a10.84,10.84,0,0,0,1.54-.46,8.57,8.57,0,0,1,3.05-.63A11.91,11.91,0,0,1,307.21,63l.71.29a2.52,2.52,0,0,1,1.47,2.18c.07.48.35,2.9-1.09,3.85a35.8,35.8,0,0,1-7.63,3.57,25.58,25.58,0,0,1-3.84.94c-.9.17-1.75.32-2.53.55a24.14,24.14,0,0,1-6.77,1Z"/><path class="cls-2" d="M302.37,10.09a32.41,32.41,0,0,1,8.85.9,11.34,11.34,0,0,1,2.8,1.7c-.84.64-1.63,1.64-2.55,1.85a33.41,33.41,0,0,1-5.68,1,12.64,12.64,0,0,1-1.51,0,24.74,24.74,0,0,0-3.43-.17c-2.72.11-4,1.25-6.71,4.78a61.59,61.59,0,0,0-9.32,17.94,145.47,145.47,0,0,0-4.69,15.83,39.44,39.44,0,0,0,3.37,8.83c1.48,2.59,4.73,3.7,8,4.08a7.46,7.46,0,0,0,1,.05c1,0,2-.15,2.23-.54,1.11-1.92,3.46-1.81,5.37-2.6a6.06,6.06,0,0,1,2.26-.47,12.21,12.21,0,0,1,4.75,1.36c.6.25.74,3,0,3.53a34,34,0,0,1-7.32,3.38c-2,.71-4.33.87-6.35,1.45a23,23,0,0,1-6.4.91c-10.84-.06-20.78-8.39-20.6-16.85,0-10.4,5.29-20.66,11.51-31.45a47.61,47.61,0,0,1,7.3-9.51,18.65,18.65,0,0,1,8.06-4.59,41.45,41.45,0,0,1,9-1.4m.13-3.17a42.05,42.05,0,0,0-9.62,1.43,21.31,21.31,0,0,0-9.47,5.56,56.52,56.52,0,0,0-8,10.69c-5.91,10.49-12.14,21.07-12.25,32.52,0,5,2.82,9.7,7.44,13.35a29.46,29.46,0,0,0,17.47,6.38,24.92,24.92,0,0,0,7.1-1c.7-.2,1.49-.35,2.34-.51a26.63,26.63,0,0,0,4.05-1,37.86,37.86,0,0,0,7.92-3.77c2-1.35,1.9-4.07,1.74-5.17A3.9,3.9,0,0,0,308.73,62l-.67-.27a13.94,13.94,0,0,0-5.81-1.38,10.56,10.56,0,0,0-3.85.79,10.88,10.88,0,0,1-1.28.37A9.47,9.47,0,0,0,292.19,64h0c-.26,0-.42,0-.47,0-4-.46-4.79-1.83-5-2.28a32.86,32.86,0,0,1-2.6-6.58c-.16-.52-.29-1-.42-1.44.4-1.82.83-3.51,1.26-5.12,1-3.68,2-6.89,3.07-10.12,1.84-5.46,4.26-11.35,8.46-16.65,2.55-3.22,2.92-3.25,4.13-3.31a23.72,23.72,0,0,1,3,.15,15.61,15.61,0,0,0,1.95,0,33.09,33.09,0,0,0,5.73-1l.61-.14a7.46,7.46,0,0,0,3.34-2c.21-.19.41-.37.55-.47l3.64-2.75c-1.24-.73-2.46-1.47-3.67-2.22-.2-.12-.44-.3-.68-.48a8.61,8.61,0,0,0-3-1.6,35.49,35.49,0,0,0-9.63-1.08Z"/></g></g></svg>