<svg xmlns="http://www.w3.org/2000/svg" viewBox="0 0 177 177"><defs><style>.cls-1{fill:#ff4464;stroke:#000;stroke-width:4px;}.cls-2{fill:#fff;}</style></defs><title>Ресурс 39</title><g id="Слой_2" data-name="Слой 2"><g id="Слой_1-2" data-name="Слой 1"><circle class="cls-1" cx="88.5" cy="88.5" r="86.5"/><path class="cls-2" d="M28.45,61.47a8.55,8.55,0,0,1,.45-2.59,6.45,6.45,0,0,1,1.49-2.47,7.66,7.66,0,0,1,2-1.45,5.45,5.45,0,0,1,2.55-.57,6.44,6.44,0,0,1,2.93.61,5.58,5.58,0,0,1,2.06,1.56,6.38,6.38,0,0,1,1.22,2.36,10.92,10.92,0,0,1,.38,2.9c0,.5,0,1,0,1.56a5.27,5.27,0,0,1-.31,1.56,3.8,3.8,0,0,1-.8,1.45,5,5,0,0,1-1.56,1.25,3.6,3.6,0,0,1,1.56,1.11,3.4,3.4,0,0,1,.8,1.48A5.88,5.88,0,0,1,41.47,72c0,.64,0,1.3,0,2a13,13,0,0,1-.38,3.2A6,6,0,0,1,40,79.68a6.7,6.7,0,0,1-2.14,1.64,6.8,6.8,0,0,1-3.12.64,6.91,6.91,0,0,1-2.63-.49A6.27,6.27,0,0,1,30,80.1a5.65,5.65,0,0,1-1.34-2.25,8.46,8.46,0,0,1-.45-2.74v-1h3.88l0,1.07a4.26,4.26,0,0,0,.12,1.06,2.92,2.92,0,0,0,.45.92,2.32,2.32,0,0,0,.8.68,2.61,2.61,0,0,0,1.26.27A2.35,2.35,0,0,0,37,77a6.08,6.08,0,0,0,.61-3c0-.71,0-1.37-.07-2a3.78,3.78,0,0,0-.38-1.48,2.46,2.46,0,0,0-2.29-1.19H33.4V66H35a3,3,0,0,0,1.29-.27,2.07,2.07,0,0,0,.92-.91,3.73,3.73,0,0,0,.34-1.45c.05-.56.07-1.06.07-1.49a7.31,7.31,0,0,0-.11-1.33,3.18,3.18,0,0,0-.43-1.18,2.19,2.19,0,0,0-.83-.76A2.37,2.37,0,0,0,35,58.27a2.22,2.22,0,0,0-2,1,3,3,0,0,0-.5,1.18,6.9,6.9,0,0,0-.15,1.41v.6H28.45ZM52.3,72.25l-1.91-9.83h-.07l-1.91,9.83Zm-9.6,9.49,6.06-27.12H52l6.06,27.12H54.16L53,75.91h-5.3l-1.14,5.83ZM73.52,58.27a2.07,2.07,0,0,0-.88.16,1.53,1.53,0,0,0-.65.45,2.08,2.08,0,0,0-.42.84c-.07.33-.13.7-.18,1.1L71.05,64c0,.33-.07.63-.12.91s-.11.52-.15.8a2.94,2.94,0,0,1-.23.69,4.28,4.28,0,0,1-.57,1,3.51,3.51,0,0,1-.61.61l4,13.79h-4L66,69.66H63.85V81.74H60V54.62h3.89V66.23h1.29a2.59,2.59,0,0,0,1.1-.19,1.66,1.66,0,0,0,.69-.53,2,2,0,0,0,.38-.76c.07-.31.14-.64.2-1l.38-3.24a4.91,4.91,0,0,0,.07-.61c.05-.33.12-.7.22-1.1a9.89,9.89,0,0,1,.43-1.26,5.84,5.84,0,0,1,.68-1.22A4,4,0,0,1,71.05,55a6.69,6.69,0,0,1,2.47-.42Zm2.21,23.47V54.62h5.83a8.63,8.63,0,0,1,2.82.42,5.33,5.33,0,0,1,2.21,1.48A5.77,5.77,0,0,1,88,59a15.54,15.54,0,0,1,.39,3.85A17.78,17.78,0,0,1,88.11,66a6.25,6.25,0,0,1-.87,2.36,5.79,5.79,0,0,1-2.14,2.09,7.2,7.2,0,0,1-3.5.73h-2V81.74Zm3.89-23.47v9.22h1.87a3.9,3.9,0,0,0,1.82-.34,2.26,2.26,0,0,0,1-1,3.44,3.44,0,0,0,.34-1.41c0-.56.07-1.18.07-1.87s0-1.23,0-1.79a4.1,4.1,0,0,0-.35-1.52,2.09,2.09,0,0,0-.91-1,3.61,3.61,0,0,0-1.75-.35ZM91,61a7,7,0,0,1,.58-2.9A5.91,5.91,0,0,1,93.11,56a6.27,6.27,0,0,1,2-1.22,7,7,0,0,1,2.36-.42A7.09,7.09,0,0,1,102,56a6.1,6.1,0,0,1,1.49,2.09A7,7,0,0,1,104,61V75.34a6.87,6.87,0,0,1-.57,2.93,5.91,5.91,0,0,1-1.49,2,6.49,6.49,0,0,1-2.13,1.26,7,7,0,0,1-2.33.41,7.28,7.28,0,0,1-2.36-.41,6,6,0,0,1-2-1.26,5.73,5.73,0,0,1-1.52-2A6.86,6.86,0,0,1,91,75.34Zm3.88,14.32a2.67,2.67,0,0,0,.77,2.09,2.89,2.89,0,0,0,1.86.65,2.71,2.71,0,0,0,1.83-.65,2.55,2.55,0,0,0,.8-2.09V61a2.45,2.45,0,0,0-.8-2.06,2.6,2.6,0,0,0-1.83-.69,2.77,2.77,0,0,0-1.86.69A2.56,2.56,0,0,0,94.89,61Zm21.64,6.4V64.14h-.08l-5.1,17.6h-3.89V54.62h3.89V72.25h.07l5.11-17.63h3.88V81.74Zm-4.65-32.57c0,.15,0,.34.08.57a2.08,2.08,0,0,0,.22.65,2.17,2.17,0,0,0,.62.53,2.37,2.37,0,0,0,1.14.23,2.24,2.24,0,0,0,1.11-.23,1.66,1.66,0,0,0,.6-.53,1.53,1.53,0,0,0,.27-.65c0-.23,0-.42.07-.57h3.24a5,5,0,0,1-1.52,3.35,5.64,5.64,0,0,1-3.77,1.07,5.77,5.77,0,0,1-3.81-1.07,5.08,5.08,0,0,1-1.49-3.35Zm14.73,32.57V58.27h-4.5V54.62H135v3.65h-4.5V81.74Zm10.08,0V54.62h11.59v3.65h-7.7v8h6.71v3.66h-6.71v8h7.7v3.89Zm-84,40.54V95.16H63.49v3.66H56.56v23.46ZM69.55,98.59v7.89c0,.4,0,1.1,0,2.09s-.1,2-.2,3.2-.25,2.32-.45,3.47a11.68,11.68,0,0,1-.84,2.85,8.67,8.67,0,0,1-2.32,3.09,5.46,5.46,0,0,1-3.43,1.1H62V118.4a2.77,2.77,0,0,0,1.79-.69,4.77,4.77,0,0,0,1.07-1.52,8.57,8.57,0,0,0,.53-1.94,22.08,22.08,0,0,0,.34-2.44c.08-.87.13-1.75.15-2.67s0-1.79,0-2.63V95.16H77.24v27.12H73.36V98.59Zm19.2,14.21L86.85,103h-.08l-1.9,9.83Zm-9.6,9.48,6.06-27.12h3.23l6.06,27.12H90.62l-1.14-5.82h-5.3L83,122.28ZM95.55,102A8.5,8.5,0,0,1,96,99.43,6.48,6.48,0,0,1,97.49,97a8,8,0,0,1,2-1.44,5.48,5.48,0,0,1,2.55-.58,6.61,6.61,0,0,1,2.94.61A5.67,5.67,0,0,1,107,97.11a6,6,0,0,1,1.22,2.36,10.9,10.9,0,0,1,.38,2.89c0,.51,0,1,0,1.56a5.33,5.33,0,0,1-.31,1.57,3.9,3.9,0,0,1-.8,1.44,4.88,4.88,0,0,1-1.56,1.26,3.67,3.67,0,0,1,1.56,1.1,3.6,3.6,0,0,1,.8,1.49,5.83,5.83,0,0,1,.31,1.79c0,.64,0,1.3,0,2a13.06,13.06,0,0,1-.38,3.2,5.79,5.79,0,0,1-1.18,2.48,6.63,6.63,0,0,1-2.13,1.63,6.71,6.71,0,0,1-3.13.65,6.86,6.86,0,0,1-2.62-.49,6.32,6.32,0,0,1-2.1-1.37,5.71,5.71,0,0,1-1.33-2.25,8.8,8.8,0,0,1-.46-2.74v-1h3.89l0,1.06a4.86,4.86,0,0,0,.11,1.07,3.22,3.22,0,0,0,.45.91,2.44,2.44,0,0,0,.8.69,2.63,2.63,0,0,0,1.27.27,2.35,2.35,0,0,0,2.28-1.07,6.14,6.14,0,0,0,.6-3c0-.71,0-1.37-.07-2a3.67,3.67,0,0,0-.38-1.49,2.45,2.45,0,0,0-2.29-1.18H100.5v-3.43h1.59a3,3,0,0,0,1.31-.26,2.07,2.07,0,0,0,.91-.92,3.36,3.36,0,0,0,.34-1.44c0-.56.07-1.06.07-1.49a7.24,7.24,0,0,0-.11-1.33,3.36,3.36,0,0,0-.41-1.18,2.71,2.71,0,0,0-.84-.77,2.48,2.48,0,0,0-1.3-.3,2.53,2.53,0,0,0-1.22.27,2.26,2.26,0,0,0-.76.68,3,3,0,0,0-.49,1.18,6.42,6.42,0,0,0-.16,1.41V103H95.55Zm23.84,10.78-1.9-9.83h-.07l-1.91,9.83Zm-9.59,9.48,6.06-27.12h3.24l6,27.12h-3.88l-1.14-5.82h-5.3l-1.14,5.82Z"/></g></g></svg>