<svg xmlns="http://www.w3.org/2000/svg" viewBox="0 0 177 177"><defs><style>.cls-1{fill:#ff4464;stroke:#000;stroke-width:4px;}.cls-2{fill:#fff;}</style></defs><title>Ресурс 30</title><g id="Слой_2" data-name="Слой 2"><g id="Слой_1-2" data-name="Слой 1"><circle class="cls-1" cx="88.5" cy="88.5" r="86.5"/><path class="cls-2" d="M39.5,66a7,7,0,0,1,.37-2.11,5.43,5.43,0,0,1,1.21-2,6.45,6.45,0,0,1,1.61-1.17,4.46,4.46,0,0,1,2.08-.47,5.26,5.26,0,0,1,2.38.5A4.48,4.48,0,0,1,48.83,62a5.15,5.15,0,0,1,1,1.92,8.68,8.68,0,0,1,.31,2.36c0,.41,0,.83,0,1.27a4.54,4.54,0,0,1-.25,1.27A3.37,3.37,0,0,1,49.2,70a4.11,4.11,0,0,1-1.27,1,3,3,0,0,1,1.27.9,2.91,2.91,0,0,1,.65,1.21,5,5,0,0,1,.25,1.46c0,.51,0,1.05,0,1.61a10.24,10.24,0,0,1-.31,2.6,4.81,4.81,0,0,1-1,2,5.4,5.4,0,0,1-4.28,1.86,5.62,5.62,0,0,1-2.14-.41,5.11,5.11,0,0,1-1.7-1.11,4.63,4.63,0,0,1-1.09-1.83,7,7,0,0,1-.37-2.23v-.84h3.16l0,.87a3.69,3.69,0,0,0,.1.87,2.45,2.45,0,0,0,.37.74,1.88,1.88,0,0,0,.65.56,2.2,2.2,0,0,0,1,.21,1.91,1.91,0,0,0,1.86-.86,5,5,0,0,0,.5-2.42c0-.58,0-1.12-.06-1.61a3.17,3.17,0,0,0-.31-1.21,2,2,0,0,0-1.86-1H43.53V69.67h1.3a2.53,2.53,0,0,0,1.05-.22,1.67,1.67,0,0,0,.75-.74,3.06,3.06,0,0,0,.28-1.18c0-.46.06-.86.06-1.21a6.5,6.5,0,0,0-.09-1.09,2.73,2.73,0,0,0-.35-1,2,2,0,0,0-.68-.62,2,2,0,0,0-1.05-.25,2.1,2.1,0,0,0-1,.22,2,2,0,0,0-.62.56,2.49,2.49,0,0,0-.41,1,5.69,5.69,0,0,0-.12,1.15v.49H39.5Zm19.41,8.77-1.55-8H57.3l-1.55,8ZM51.1,82.5,56,60.43h2.63L63.59,82.5H60.43l-.93-4.74H55.19l-.93,4.74ZM76.18,63.4a1.8,1.8,0,0,0-.71.13,1.25,1.25,0,0,0-.53.37,1.68,1.68,0,0,0-.34.68q-.09.4-.15.9l-.28,2.57q0,.4-.09.75c0,.21-.09.42-.13.65a2.3,2.3,0,0,1-.18.56,3.3,3.3,0,0,1-.47.77,2.92,2.92,0,0,1-.49.5L76.09,82.5H72.87l-2.79-9.83H68.31V82.5H65.15V60.43h3.16v9.45h1a2.22,2.22,0,0,0,.9-.15,1.45,1.45,0,0,0,.56-.44,1.58,1.58,0,0,0,.31-.62c.06-.24.11-.51.16-.8l.31-2.64a3.68,3.68,0,0,0,.06-.49q.06-.4.18-.9a7.72,7.72,0,0,1,.35-1,4.63,4.63,0,0,1,.55-1,3.33,3.33,0,0,1,1.43-1,5.43,5.43,0,0,1,2-.34ZM78,82.5V60.43h4.75a6.94,6.94,0,0,1,2.29.34A4.45,4.45,0,0,1,86.82,62a4.75,4.75,0,0,1,1.12,2,12.87,12.87,0,0,1,.31,3.13,14.8,14.8,0,0,1-.19,2.52,5,5,0,0,1-.71,1.92,4.8,4.8,0,0,1-1.74,1.7,5.86,5.86,0,0,1-2.85.59H81.15V82.5Zm3.17-19.1v7.51h1.52a3.27,3.27,0,0,0,1.48-.28,1.83,1.83,0,0,0,.78-.78,2.73,2.73,0,0,0,.28-1.14c0-.46.06-1,.06-1.52s0-1,0-1.46A3.28,3.28,0,0,0,85,64.49a1.82,1.82,0,0,0-.74-.81,3.07,3.07,0,0,0-1.43-.28Zm9.27,2.24a5.65,5.65,0,0,1,.47-2.36,5,5,0,0,1,1.24-1.71,5.32,5.32,0,0,1,1.67-1,5.89,5.89,0,0,1,1.92-.34,5.63,5.63,0,0,1,1.89.34,5.77,5.77,0,0,1,1.74,1,5.23,5.23,0,0,1,1.21,1.71,5.65,5.65,0,0,1,.46,2.36V77.29a5.6,5.6,0,0,1-.46,2.39,4.83,4.83,0,0,1-1.21,1.64,5.31,5.31,0,0,1-1.74,1,5.63,5.63,0,0,1-1.89.34,5.89,5.89,0,0,1-1.92-.34,4.91,4.91,0,0,1-1.67-1,4.66,4.66,0,0,1-1.24-1.64,5.6,5.6,0,0,1-.47-2.39Zm3.16,11.65A2.21,2.21,0,0,0,94.2,79a2.36,2.36,0,0,0,1.52.52A2.22,2.22,0,0,0,97.21,79a2.12,2.12,0,0,0,.65-1.71V65.64A2,2,0,0,0,97.21,64a2.16,2.16,0,0,0-1.49-.56A2.29,2.29,0,0,0,94.2,64a2.1,2.1,0,0,0-.62,1.68Zm17.61,5.21V68.18h-.07L107,82.5h-3.16V60.43H107V74.78H107l4.16-14.35h3.16V82.5ZM107.4,56c0,.13,0,.28.07.47a1.58,1.58,0,0,0,.18.53,1.77,1.77,0,0,0,.5.43,2,2,0,0,0,.93.19,1.83,1.83,0,0,0,.9-.19,1.31,1.31,0,0,0,.49-.43,1.23,1.23,0,0,0,.22-.53c0-.19,0-.34.06-.47h2.64a4.05,4.05,0,0,1-1.24,2.73,4.57,4.57,0,0,1-3.07.87,4.68,4.68,0,0,1-3.1-.87A4.08,4.08,0,0,1,104.77,56Zm12,26.51V63.4h-3.66v-3h10.48v3h-3.66V82.5Zm8.21,0V60.43H137v3h-6.27v6.48h5.46v3h-5.46v6.48H137V82.5Zm-68.39,33V93.43H68v3H62.38v19.1ZM73,96.22v6.41c0,.34,0,.9,0,1.71s-.08,1.65-.16,2.6-.21,1.9-.37,2.82a9.56,9.56,0,0,1-.68,2.33,7.13,7.13,0,0,1-1.89,2.51,4.4,4.4,0,0,1-2.79.9h-.19v-3.16a2.28,2.28,0,0,0,1.46-.56,3.94,3.94,0,0,0,.87-1.24A7,7,0,0,0,69.6,109a18.88,18.88,0,0,0,.28-2c.06-.71.1-1.43.12-2.18s0-1.45,0-2.13V93.43h9.18V115.5H76.05V96.22Zm15.63,11.56-1.55-8H87l-1.55,8Zm-7.81,7.72L85.7,93.43h2.63l4.93,22.07H90.1l-.93-4.74H84.86l-.93,4.74ZM94.11,99a7,7,0,0,1,.37-2.11,5.43,5.43,0,0,1,1.21-2,6.64,6.64,0,0,1,1.61-1.17,4.49,4.49,0,0,1,2.08-.47,5.31,5.31,0,0,1,2.39.5A4.45,4.45,0,0,1,103.44,95a4.88,4.88,0,0,1,1,1.92,8.68,8.68,0,0,1,.31,2.36c0,.41,0,.83,0,1.27a4.54,4.54,0,0,1-.25,1.27,3.37,3.37,0,0,1-.65,1.18,4.11,4.11,0,0,1-1.27,1,3,3,0,0,1,1.27.9,2.91,2.91,0,0,1,.65,1.21,5,5,0,0,1,.25,1.46c0,.51,0,1.05,0,1.61a10.24,10.24,0,0,1-.31,2.6,4.58,4.58,0,0,1-1,2,5.43,5.43,0,0,1-1.73,1.33,6.08,6.08,0,0,1-4.68.12,5.16,5.16,0,0,1-1.71-1.11,4.61,4.61,0,0,1-1.08-1.83,7,7,0,0,1-.38-2.23v-.84h3.17l0,.87a4.28,4.28,0,0,0,.09.87,2.7,2.7,0,0,0,.37.74,2,2,0,0,0,.65.56,2.22,2.22,0,0,0,1,.21,1.91,1.91,0,0,0,1.86-.86,5,5,0,0,0,.49-2.42c0-.58,0-1.12-.06-1.61a3,3,0,0,0-.31-1.21,2,2,0,0,0-1.86-1H98.14v-2.79h1.3a2.54,2.54,0,0,0,1.06-.22,1.65,1.65,0,0,0,.74-.74,2.89,2.89,0,0,0,.28-1.18c0-.46.06-.86.06-1.21a6.5,6.5,0,0,0-.09-1.09,2.73,2.73,0,0,0-.34-1,2.14,2.14,0,0,0-.68-.62,2.05,2.05,0,0,0-1.06-.25,2.13,2.13,0,0,0-1,.22,2,2,0,0,0-.62.56,2.34,2.34,0,0,0-.4,1,5.07,5.07,0,0,0-.13,1.15v.49H94.11Zm19.41,8.77-1.55-8h-.06l-1.55,8Zm-7.81,7.72,4.93-22.07h2.64l4.92,22.07H115l-.93-4.74H109.8l-.93,4.74Z"/></g></g></svg>