<svg id="Слой_2" data-name="Слой 2" xmlns="http://www.w3.org/2000/svg" viewBox="0 0 480 142.96"><defs><style>.cls-1{fill:#221f20;}.cls-2{fill:#fff;}.cls-3{fill:#ff4464;}</style></defs><title>five6</title><path class="cls-1" d="M59.94,0v19H20.07V56.8a21.43,21.43,0,0,1,7.1-4.54,23.22,23.22,0,0,1,9.67-2q10.27,0,16.58,6.31,6.53,6.12,6.52,18.56v36.31a29.65,29.65,0,0,1-2.57,12.63,28.42,28.42,0,0,1-6.51,9.48,29.7,29.7,0,0,1-9.67,6.12,32.32,32.32,0,0,1-11.25,2,33.91,33.91,0,0,1-11.45-2A30.11,30.11,0,0,1,9,133.58,31,31,0,0,1,2.3,124.1,31.93,31.93,0,0,1-.06,111.47v-5.92H20.07v5.13q0,5.13,2.76,8.09a10.52,10.52,0,0,0,7.5,2.77q4.55,0,6.91-2.77,2.57-2.76,2.56-7.69v-33A10,10,0,0,0,37,71a8.47,8.47,0,0,0-6.71-3A8.79,8.79,0,0,0,26,69a9.51,9.51,0,0,0-3,2,8.32,8.32,0,0,0-1.78,2.57c-.66,1.18-1.05,1.9-1.18,2.17H2.3V0Z"/><path class="cls-2" d="M50.21,1.82l2.41,5.07,5.57.73-4.07,3.86,1,5.52-4.93-2.68L45.28,17l1-5.52L42.23,7.62l5.56-.73Z"/><path class="cls-3" d="M30.92,1.82l2.42,5.07,5.56.73-4.07,3.86,1,5.52-4.93-2.68L26,17l1-5.52L23,7.62l5.56-.73Z"/><path class="cls-3" d="M11.78,1.82,14.2,6.89l5.56.73-4.07,3.86,1,5.52-4.93-2.68L6.85,17l1-5.52L3.81,7.62l5.56-.73Z"/><path class="cls-3" d="M11.29,20.71l2.42,5.06,5.56.73L15.2,30.36l1,5.52-4.93-2.67L6.36,35.88l1-5.52L3.32,26.5l5.56-.73Z"/><path class="cls-2" d="M11.29,39.59l2.42,5.06,5.56.74L15.2,49.25l1,5.51-4.93-2.67L6.36,54.76l1-5.51L3.32,45.39l5.56-.74Z"/><path class="cls-3" d="M11.29,57.91,13.71,63l5.56.73L15.2,67.56l1,5.52L11.29,70.4,6.36,73.08l1-5.52L3.32,63.7,8.88,63Z"/><path class="cls-3" d="M30.92,52.06l2.42,5.06,5.56.74-4.07,3.86,1,5.52-4.93-2.68L26,67.24l1-5.52L23,57.86l5.56-.74Z"/><path class="cls-3" d="M47.6,57.62,50,62.68l5.56.73-4.07,3.86,1,5.52L47.6,70.11l-4.93,2.68,1-5.52-4.07-3.86,5.56-.73Z"/><path class="cls-2" d="M49.83,75l2.41,5.06,5.57.74-4.07,3.86,1,5.51-4.93-2.67L44.9,90.19l1-5.51-4.07-3.86,5.56-.74Z"/><path class="cls-3" d="M49.83,92.42l2.41,5.07,5.57.73-4.07,3.86,1,5.52-4.93-2.68L44.9,107.6l1-5.52-4.07-3.86,5.56-.73Z"/><path class="cls-3" d="M49.27,109.27l2.41,5.06,5.56.73-4.06,3.86,1,5.52-4.93-2.68-4.93,2.68,1-5.52-4.07-3.86,5.56-.73Z"/><path class="cls-3" d="M38.9,121.78l2.42,5.07,5.56.73-4.07,3.86,1,5.52-4.93-2.68L34,137l1-5.52-4.07-3.86,5.56-.73Z"/><path class="cls-2" d="M21.17,121.78l2.42,5.07,5.56.73-4.07,3.86,1,5.52-4.93-2.68L16.24,137l1-5.52-4.06-3.86,5.56-.73Z"/><path class="cls-3" d="M10.4,107.6l2.42,5.06,5.56.73-4.07,3.87,1,5.51L10.4,120.1l-4.93,2.67,1-5.51-4.07-3.87L8,112.66Z"/><path class="cls-1" d="M179.94,0v19H140.07V56.8a21.43,21.43,0,0,1,7.1-4.54,23.22,23.22,0,0,1,9.67-2q10.28,0,16.58,6.31,6.53,6.12,6.52,18.56v36.31a29.65,29.65,0,0,1-2.57,12.63,28.42,28.42,0,0,1-6.51,9.48,29.7,29.7,0,0,1-9.67,6.12,32.32,32.32,0,0,1-11.25,2,33.91,33.91,0,0,1-11.45-2,30.11,30.11,0,0,1-9.47-6.12,31,31,0,0,1-6.72-9.48,31.93,31.93,0,0,1-2.36-12.63v-5.92h20.13v5.13q0,5.13,2.76,8.09a10.52,10.52,0,0,0,7.5,2.77q4.54,0,6.91-2.77,2.56-2.76,2.56-7.69v-33A10,10,0,0,0,157,71a8.47,8.47,0,0,0-6.71-3A8.79,8.79,0,0,0,146,69a9.51,9.51,0,0,0-3,2,8.32,8.32,0,0,0-1.78,2.57c-.66,1.18-1.05,1.9-1.18,2.17H122.3V0Z"/><path class="cls-3" d="M170.21,1.82l2.41,5.07,5.57.73-4.07,3.86,1,5.52-4.93-2.68L165.28,17l1-5.52-4.07-3.86,5.56-.73Z"/><path class="cls-2" d="M150.92,1.82l2.42,5.07,5.56.73-4.07,3.86,1,5.52-4.93-2.68L146,17l1-5.52L143,7.62l5.56-.73Z"/><path class="cls-3" d="M131.78,1.82l2.42,5.07,5.56.73-4.07,3.86,1,5.52-4.93-2.68L126.85,17l1-5.52-4.06-3.86,5.56-.73Z"/><path class="cls-3" d="M131.29,20.71l2.42,5.06,5.56.73-4.07,3.86,1,5.52-4.93-2.67-4.93,2.67,1-5.52-4.06-3.86,5.56-.73Z"/><path class="cls-3" d="M131.29,39.59l2.42,5.06,5.56.74-4.07,3.86,1,5.51-4.93-2.67-4.93,2.67,1-5.51-4.06-3.86,5.56-.74Z"/><path class="cls-2" d="M131.29,57.91,133.71,63l5.56.73-4.07,3.86,1,5.52-4.93-2.68-4.93,2.68,1-5.52-4.06-3.86,5.56-.73Z"/><path class="cls-3" d="M150.92,52.06l2.42,5.06,5.56.74-4.07,3.86,1,5.52-4.93-2.68L146,67.24l1-5.52L143,57.86l5.56-.74Z"/><path class="cls-3" d="M167.6,57.62,170,62.68l5.56.73-4.07,3.86,1,5.52-4.93-2.68-4.93,2.68,1-5.52-4.07-3.86,5.56-.73Z"/><path class="cls-3" d="M169.83,75l2.41,5.06,5.57.74-4.07,3.86,1,5.51-4.93-2.67-4.93,2.67,1-5.51-4.07-3.86,5.56-.74Z"/><path class="cls-2" d="M169.83,92.42l2.41,5.07,5.57.73-4.07,3.86,1,5.52-4.93-2.68-4.93,2.68,1-5.52-4.07-3.86,5.56-.73Z"/><path class="cls-3" d="M169.27,109.27l2.41,5.06,5.56.73-4.06,3.86,1,5.52-4.93-2.68-4.93,2.68,1-5.52-4.07-3.86,5.56-.73Z"/><path class="cls-3" d="M158.9,121.78l2.42,5.07,5.56.73-4.07,3.86,1,5.52-4.93-2.68L154,137l1-5.52-4.07-3.86,5.56-.73Z"/><path class="cls-3" d="M141.17,121.78l2.42,5.07,5.56.73-4.07,3.86,1,5.52-4.93-2.68L136.24,137l1-5.52-4.06-3.86,5.56-.73Z"/><path class="cls-2" d="M130.4,107.6l2.42,5.06,5.56.73-4.07,3.87,1,5.51-4.93-2.67-4.93,2.67,1-5.51-4.07-3.87,5.57-.73Z"/><path class="cls-1" d="M299.94,0v19H260.07V56.8a21.43,21.43,0,0,1,7.1-4.54,23.22,23.22,0,0,1,9.67-2q10.28,0,16.58,6.31,6.52,6.12,6.52,18.56v36.31a29.65,29.65,0,0,1-2.57,12.63,28.42,28.42,0,0,1-6.51,9.48,29.7,29.7,0,0,1-9.67,6.12,32.32,32.32,0,0,1-11.25,2,33.91,33.91,0,0,1-11.45-2,30.11,30.11,0,0,1-9.47-6.12,31,31,0,0,1-6.72-9.48,31.93,31.93,0,0,1-2.36-12.63v-5.92h20.13v5.13q0,5.13,2.76,8.09a10.52,10.52,0,0,0,7.5,2.77q4.55,0,6.91-2.77,2.56-2.76,2.56-7.69v-33A10,10,0,0,0,277,71a8.47,8.47,0,0,0-6.71-3A8.79,8.79,0,0,0,266,69a9.51,9.51,0,0,0-3,2,8.32,8.32,0,0,0-1.78,2.57c-.66,1.18-1.05,1.9-1.18,2.17H242.3V0Z"/><path class="cls-3" d="M290.21,1.82l2.41,5.07,5.57.73-4.07,3.86,1,5.52-4.93-2.68L285.28,17l1-5.52-4.07-3.86,5.56-.73Z"/><path class="cls-3" d="M270.92,1.82l2.42,5.07,5.56.73-4.07,3.86,1,5.52-4.93-2.68L266,17l1-5.52L263,7.62l5.56-.73Z"/><path class="cls-2" d="M251.78,1.82l2.42,5.07,5.56.73-4.07,3.86,1,5.52-4.93-2.68L246.85,17l1-5.52-4.06-3.86,5.56-.73Z"/><path class="cls-3" d="M251.29,20.71l2.42,5.06,5.56.73-4.07,3.86,1,5.52-4.93-2.67-4.93,2.67,1-5.52-4.06-3.86,5.56-.73Z"/><path class="cls-3" d="M251.29,39.59l2.42,5.06,5.56.74-4.07,3.86,1,5.51-4.93-2.67-4.93,2.67,1-5.51-4.06-3.86,5.56-.74Z"/><path class="cls-3" d="M251.29,57.91,253.71,63l5.56.73-4.07,3.86,1,5.52-4.93-2.68-4.93,2.68,1-5.52-4.06-3.86,5.56-.73Z"/><path class="cls-2" d="M270.92,52.06l2.42,5.06,5.56.74-4.07,3.86,1,5.52-4.93-2.68L266,67.24l1-5.52L263,57.86l5.56-.74Z"/><path class="cls-3" d="M287.6,57.62,290,62.68l5.56.73-4.07,3.86,1,5.52-4.93-2.68-4.93,2.68,1-5.52-4.07-3.86,5.56-.73Z"/><path class="cls-3" d="M289.83,75l2.41,5.06,5.57.74-4.07,3.86,1,5.51-4.93-2.67-4.93,2.67,1-5.51-4.07-3.86,5.56-.74Z"/><path class="cls-3" d="M289.83,92.42l2.41,5.07,5.57.73-4.07,3.86,1,5.52-4.93-2.68-4.93,2.68,1-5.52-4.07-3.86,5.56-.73Z"/><path class="cls-2" d="M289.27,109.27l2.41,5.06,5.56.73-4.06,3.86,1,5.52-4.93-2.68-4.93,2.68,1-5.52-4.07-3.86,5.56-.73Z"/><path class="cls-3" d="M278.9,121.78l2.42,5.07,5.56.73-4.07,3.86,1,5.52-4.93-2.68L274,137l1-5.52-4.07-3.86,5.56-.73Z"/><path class="cls-3" d="M261.17,121.78l2.42,5.07,5.56.73-4.07,3.86,1,5.52-4.93-2.68L256.24,137l1-5.52-4.06-3.86,5.56-.73Z"/><path class="cls-3" d="M250.4,107.6l2.42,5.06,5.56.73-4.07,3.87,1,5.51-4.93-2.67-4.93,2.67,1-5.51-4.07-3.87,5.57-.73Z"/><path class="cls-1" d="M419.94,0v19H380.07V56.8a21.37,21.37,0,0,1,7.11-4.54,23.15,23.15,0,0,1,9.67-2q10.26,0,16.58,6.31,6.51,6.12,6.51,18.56v36.31a29.65,29.65,0,0,1-2.57,12.63,28.42,28.42,0,0,1-6.51,9.48,29.59,29.59,0,0,1-9.67,6.12,32.24,32.24,0,0,1-11.25,2,34,34,0,0,1-11.45-2,30.11,30.11,0,0,1-9.47-6.12,30.82,30.82,0,0,1-6.71-9.48,31.75,31.75,0,0,1-2.37-12.63v-5.92h20.13v5.13q0,5.13,2.76,8.09a10.55,10.55,0,0,0,7.5,2.77q4.55,0,6.91-2.77,2.56-2.76,2.57-7.69v-33A10,10,0,0,0,397,71a8.45,8.45,0,0,0-6.71-3A8.81,8.81,0,0,0,386,69a9.63,9.63,0,0,0-3,2,8.32,8.32,0,0,0-1.78,2.57c-.65,1.18-1.05,1.9-1.18,2.17H362.31V0Z"/><path class="cls-3" d="M410.21,1.82l2.42,5.07,5.56.73-4.07,3.86,1,5.52-4.93-2.68L405.28,17l1-5.52-4.07-3.86,5.56-.73Z"/><path class="cls-3" d="M390.93,1.82l2.41,5.07,5.56.73-4.07,3.86,1,5.52-4.93-2.68L386,17l1-5.52L383,7.62l5.56-.73Z"/><path class="cls-3" d="M371.79,1.82l2.41,5.07,5.56.73-4.06,3.86,1,5.52-4.93-2.68L366.86,17l1-5.52-4.07-3.86,5.56-.73Z"/><path class="cls-2" d="M371.3,20.71l2.41,5.06,5.56.73-4.06,3.86,1,5.52-4.93-2.67-4.93,2.67,1-5.52-4.07-3.86,5.56-.73Z"/><path class="cls-3" d="M371.3,39.59l2.41,5.06,5.56.74-4.06,3.86,1,5.51-4.93-2.67-4.93,2.67,1-5.51-4.07-3.86,5.56-.74Z"/><path class="cls-3" d="M371.3,57.91,373.71,63l5.56.73-4.06,3.86,1,5.52L371.3,70.4l-4.93,2.68,1-5.52-4.07-3.86,5.56-.73Z"/><path class="cls-3" d="M390.93,52.06l2.41,5.06,5.56.74-4.07,3.86,1,5.52-4.93-2.68L386,67.24l1-5.52L383,57.86l5.56-.74Z"/><path class="cls-2" d="M407.6,57.62,410,62.68l5.56.73-4.07,3.86,1,5.52-4.93-2.68-4.93,2.68,1-5.52-4.06-3.86,5.56-.73Z"/><path class="cls-3" d="M409.83,75l2.42,5.06,5.56.74-4.07,3.86,1,5.51-4.93-2.67-4.93,2.67,1-5.51-4.07-3.86,5.57-.74Z"/><path class="cls-3" d="M409.83,92.42l2.42,5.07,5.56.73-4.07,3.86,1,5.52-4.93-2.68-4.93,2.68,1-5.52-4.07-3.86,5.57-.73Z"/><path class="cls-3" d="M409.27,109.27l2.42,5.06,5.56.73-4.07,3.86,1,5.52-4.93-2.68-4.93,2.68,1-5.52-4.07-3.86,5.56-.73Z"/><path class="cls-2" d="M398.9,121.78l2.42,5.07,5.56.73-4.07,3.86,1,5.52-4.93-2.68L394,137l1-5.52-4.06-3.86,5.56-.73Z"/><path class="cls-3" d="M381.18,121.78l2.41,5.07,5.56.73-4.06,3.86,1,5.52-4.93-2.68L376.25,137l1-5.52-4.07-3.86,5.56-.73Z"/><path class="cls-3" d="M370.4,107.6l2.42,5.06,5.56.73-4.07,3.87,1,5.51-4.94-2.67-4.93,2.67,1-5.51-4.07-3.87,5.56-.73Z"/></svg>